%TF.GenerationSoftware,KiCad,Pcbnew,(5.1.5)-3*%
%TF.CreationDate,2020-10-03T13:17:45-05:00*%
%TF.ProjectId,BPS-ShuntResistorPCB,4250532d-5368-4756-9e74-526573697374,rev?*%
%TF.SameCoordinates,Original*%
%TF.FileFunction,Paste,Top*%
%TF.FilePolarity,Positive*%
%FSLAX46Y46*%
G04 Gerber Fmt 4.6, Leading zero omitted, Abs format (unit mm)*
G04 Created by KiCad (PCBNEW (5.1.5)-3) date 2020-10-03 13:17:45*
%MOMM*%
%LPD*%
G04 APERTURE LIST*
%ADD10C,0.100000*%
G04 APERTURE END LIST*
D10*
%TO.C,Thermistor*%
G36*
X169923542Y-74242774D02*
G01*
X169947203Y-74246284D01*
X169970407Y-74252096D01*
X169992929Y-74260154D01*
X170014553Y-74270382D01*
X170035070Y-74282679D01*
X170054283Y-74296929D01*
X170072007Y-74312993D01*
X170088071Y-74330717D01*
X170102321Y-74349930D01*
X170114618Y-74370447D01*
X170124846Y-74392071D01*
X170132904Y-74414593D01*
X170138716Y-74437797D01*
X170142226Y-74461458D01*
X170143400Y-74485350D01*
X170143400Y-74972850D01*
X170142226Y-74996742D01*
X170138716Y-75020403D01*
X170132904Y-75043607D01*
X170124846Y-75066129D01*
X170114618Y-75087753D01*
X170102321Y-75108270D01*
X170088071Y-75127483D01*
X170072007Y-75145207D01*
X170054283Y-75161271D01*
X170035070Y-75175521D01*
X170014553Y-75187818D01*
X169992929Y-75198046D01*
X169970407Y-75206104D01*
X169947203Y-75211916D01*
X169923542Y-75215426D01*
X169899650Y-75216600D01*
X168987150Y-75216600D01*
X168963258Y-75215426D01*
X168939597Y-75211916D01*
X168916393Y-75206104D01*
X168893871Y-75198046D01*
X168872247Y-75187818D01*
X168851730Y-75175521D01*
X168832517Y-75161271D01*
X168814793Y-75145207D01*
X168798729Y-75127483D01*
X168784479Y-75108270D01*
X168772182Y-75087753D01*
X168761954Y-75066129D01*
X168753896Y-75043607D01*
X168748084Y-75020403D01*
X168744574Y-74996742D01*
X168743400Y-74972850D01*
X168743400Y-74485350D01*
X168744574Y-74461458D01*
X168748084Y-74437797D01*
X168753896Y-74414593D01*
X168761954Y-74392071D01*
X168772182Y-74370447D01*
X168784479Y-74349930D01*
X168798729Y-74330717D01*
X168814793Y-74312993D01*
X168832517Y-74296929D01*
X168851730Y-74282679D01*
X168872247Y-74270382D01*
X168893871Y-74260154D01*
X168916393Y-74252096D01*
X168939597Y-74246284D01*
X168963258Y-74242774D01*
X168987150Y-74241600D01*
X169899650Y-74241600D01*
X169923542Y-74242774D01*
G37*
G36*
X169923542Y-76117774D02*
G01*
X169947203Y-76121284D01*
X169970407Y-76127096D01*
X169992929Y-76135154D01*
X170014553Y-76145382D01*
X170035070Y-76157679D01*
X170054283Y-76171929D01*
X170072007Y-76187993D01*
X170088071Y-76205717D01*
X170102321Y-76224930D01*
X170114618Y-76245447D01*
X170124846Y-76267071D01*
X170132904Y-76289593D01*
X170138716Y-76312797D01*
X170142226Y-76336458D01*
X170143400Y-76360350D01*
X170143400Y-76847850D01*
X170142226Y-76871742D01*
X170138716Y-76895403D01*
X170132904Y-76918607D01*
X170124846Y-76941129D01*
X170114618Y-76962753D01*
X170102321Y-76983270D01*
X170088071Y-77002483D01*
X170072007Y-77020207D01*
X170054283Y-77036271D01*
X170035070Y-77050521D01*
X170014553Y-77062818D01*
X169992929Y-77073046D01*
X169970407Y-77081104D01*
X169947203Y-77086916D01*
X169923542Y-77090426D01*
X169899650Y-77091600D01*
X168987150Y-77091600D01*
X168963258Y-77090426D01*
X168939597Y-77086916D01*
X168916393Y-77081104D01*
X168893871Y-77073046D01*
X168872247Y-77062818D01*
X168851730Y-77050521D01*
X168832517Y-77036271D01*
X168814793Y-77020207D01*
X168798729Y-77002483D01*
X168784479Y-76983270D01*
X168772182Y-76962753D01*
X168761954Y-76941129D01*
X168753896Y-76918607D01*
X168748084Y-76895403D01*
X168744574Y-76871742D01*
X168743400Y-76847850D01*
X168743400Y-76360350D01*
X168744574Y-76336458D01*
X168748084Y-76312797D01*
X168753896Y-76289593D01*
X168761954Y-76267071D01*
X168772182Y-76245447D01*
X168784479Y-76224930D01*
X168798729Y-76205717D01*
X168814793Y-76187993D01*
X168832517Y-76171929D01*
X168851730Y-76157679D01*
X168872247Y-76145382D01*
X168893871Y-76135154D01*
X168916393Y-76127096D01*
X168939597Y-76121284D01*
X168963258Y-76117774D01*
X168987150Y-76116600D01*
X169899650Y-76116600D01*
X169923542Y-76117774D01*
G37*
%TD*%
M02*
