%TF.GenerationSoftware,KiCad,Pcbnew,(5.1.5)-3*%
%TF.CreationDate,2020-09-26T15:15:01-05:00*%
%TF.ProjectId,BPS-ShuntResistorPCB,4250532d-5368-4756-9e74-526573697374,rev?*%
%TF.SameCoordinates,Original*%
%TF.FileFunction,Legend,Bot*%
%TF.FilePolarity,Positive*%
%FSLAX46Y46*%
G04 Gerber Fmt 4.6, Leading zero omitted, Abs format (unit mm)*
G04 Created by KiCad (PCBNEW (5.1.5)-3) date 2020-09-26 15:15:01*
%MOMM*%
%LPD*%
G04 APERTURE LIST*
%ADD10C,0.177800*%
%ADD11C,0.010000*%
G04 APERTURE END LIST*
D10*
X168021000Y-93112166D02*
X168021000Y-92223166D01*
X167809333Y-92223166D01*
X167682333Y-92265500D01*
X167597666Y-92350166D01*
X167555333Y-92434833D01*
X167513000Y-92604166D01*
X167513000Y-92731166D01*
X167555333Y-92900500D01*
X167597666Y-92985166D01*
X167682333Y-93069833D01*
X167809333Y-93112166D01*
X168021000Y-93112166D01*
X167132000Y-93112166D02*
X167132000Y-92519500D01*
X167132000Y-92688833D02*
X167089666Y-92604166D01*
X167047333Y-92561833D01*
X166962666Y-92519500D01*
X166878000Y-92519500D01*
X166581666Y-93027500D02*
X166539333Y-93069833D01*
X166581666Y-93112166D01*
X166624000Y-93069833D01*
X166581666Y-93027500D01*
X166581666Y-93112166D01*
X165015333Y-92265500D02*
X165100000Y-92223166D01*
X165227000Y-92223166D01*
X165354000Y-92265500D01*
X165438666Y-92350166D01*
X165481000Y-92434833D01*
X165523333Y-92604166D01*
X165523333Y-92731166D01*
X165481000Y-92900500D01*
X165438666Y-92985166D01*
X165354000Y-93069833D01*
X165227000Y-93112166D01*
X165142333Y-93112166D01*
X165015333Y-93069833D01*
X164973000Y-93027500D01*
X164973000Y-92731166D01*
X165142333Y-92731166D01*
X164211000Y-93112166D02*
X164211000Y-92646500D01*
X164253333Y-92561833D01*
X164338000Y-92519500D01*
X164507333Y-92519500D01*
X164592000Y-92561833D01*
X164211000Y-93069833D02*
X164295666Y-93112166D01*
X164507333Y-93112166D01*
X164592000Y-93069833D01*
X164634333Y-92985166D01*
X164634333Y-92900500D01*
X164592000Y-92815833D01*
X164507333Y-92773500D01*
X164295666Y-92773500D01*
X164211000Y-92731166D01*
X163787666Y-93112166D02*
X163787666Y-92519500D01*
X163787666Y-92688833D02*
X163745333Y-92604166D01*
X163703000Y-92561833D01*
X163618333Y-92519500D01*
X163533666Y-92519500D01*
X163322000Y-92519500D02*
X163110333Y-93112166D01*
X162898666Y-92519500D02*
X163110333Y-93112166D01*
X163195000Y-93323833D01*
X163237333Y-93366166D01*
X163322000Y-93408500D01*
X161882666Y-93112166D02*
X161882666Y-92223166D01*
X161882666Y-92646500D02*
X161374666Y-92646500D01*
X161374666Y-93112166D02*
X161374666Y-92223166D01*
X160570333Y-93112166D02*
X160570333Y-92646500D01*
X160612666Y-92561833D01*
X160697333Y-92519500D01*
X160866666Y-92519500D01*
X160951333Y-92561833D01*
X160570333Y-93069833D02*
X160655000Y-93112166D01*
X160866666Y-93112166D01*
X160951333Y-93069833D01*
X160993666Y-92985166D01*
X160993666Y-92900500D01*
X160951333Y-92815833D01*
X160866666Y-92773500D01*
X160655000Y-92773500D01*
X160570333Y-92731166D01*
X160020000Y-93112166D02*
X160104666Y-93069833D01*
X160147000Y-92985166D01*
X160147000Y-92223166D01*
X159554333Y-93112166D02*
X159639000Y-93069833D01*
X159681333Y-92985166D01*
X159681333Y-92223166D01*
X159088666Y-93112166D02*
X159173333Y-93069833D01*
X159215666Y-93027500D01*
X159258000Y-92942833D01*
X159258000Y-92688833D01*
X159215666Y-92604166D01*
X159173333Y-92561833D01*
X159088666Y-92519500D01*
X158961666Y-92519500D01*
X158877000Y-92561833D01*
X158834666Y-92604166D01*
X158792333Y-92688833D01*
X158792333Y-92942833D01*
X158834666Y-93027500D01*
X158877000Y-93069833D01*
X158961666Y-93112166D01*
X159088666Y-93112166D01*
X158030333Y-93069833D02*
X158115000Y-93112166D01*
X158284333Y-93112166D01*
X158369000Y-93069833D01*
X158411333Y-93027500D01*
X158453666Y-92942833D01*
X158453666Y-92688833D01*
X158411333Y-92604166D01*
X158369000Y-92561833D01*
X158284333Y-92519500D01*
X158115000Y-92519500D01*
X158030333Y-92561833D01*
X157649333Y-93112166D02*
X157649333Y-92223166D01*
X157564666Y-92773500D02*
X157310666Y-93112166D01*
X157310666Y-92519500D02*
X157649333Y-92858166D01*
D11*
%TO.C,LOGO2*%
G36*
X163793715Y-78812572D02*
G01*
X163811857Y-78830715D01*
X163830000Y-78812572D01*
X163811857Y-78794429D01*
X163793715Y-78812572D01*
G37*
X163793715Y-78812572D02*
X163811857Y-78830715D01*
X163830000Y-78812572D01*
X163811857Y-78794429D01*
X163793715Y-78812572D01*
G36*
X165220953Y-83342238D02*
G01*
X165225934Y-83363810D01*
X165245143Y-83366429D01*
X165275010Y-83353153D01*
X165269334Y-83342238D01*
X165226271Y-83337896D01*
X165220953Y-83342238D01*
G37*
X165220953Y-83342238D02*
X165225934Y-83363810D01*
X165245143Y-83366429D01*
X165275010Y-83353153D01*
X165269334Y-83342238D01*
X165226271Y-83337896D01*
X165220953Y-83342238D01*
G36*
X160309751Y-81912049D02*
G01*
X160250580Y-82006049D01*
X160218935Y-82153338D01*
X160215122Y-82285026D01*
X160224551Y-82429305D01*
X160241880Y-82501697D01*
X160267316Y-82502476D01*
X160301064Y-82431917D01*
X160308738Y-82409549D01*
X160332065Y-82271047D01*
X160325494Y-82147976D01*
X160315666Y-82051143D01*
X160340019Y-81989736D01*
X160386926Y-81946951D01*
X160473572Y-81880328D01*
X160392861Y-81879521D01*
X160309751Y-81912049D01*
G37*
X160309751Y-81912049D02*
X160250580Y-82006049D01*
X160218935Y-82153338D01*
X160215122Y-82285026D01*
X160224551Y-82429305D01*
X160241880Y-82501697D01*
X160267316Y-82502476D01*
X160301064Y-82431917D01*
X160308738Y-82409549D01*
X160332065Y-82271047D01*
X160325494Y-82147976D01*
X160315666Y-82051143D01*
X160340019Y-81989736D01*
X160386926Y-81946951D01*
X160473572Y-81880328D01*
X160392861Y-81879521D01*
X160309751Y-81912049D01*
G36*
X160727428Y-82509757D02*
G01*
X160709429Y-82531858D01*
X160716374Y-82565178D01*
X160718500Y-82565593D01*
X160754732Y-82551099D01*
X160800143Y-82531858D01*
X160849114Y-82508005D01*
X160829950Y-82499806D01*
X160791072Y-82498122D01*
X160727428Y-82509757D01*
G37*
X160727428Y-82509757D02*
X160709429Y-82531858D01*
X160716374Y-82565178D01*
X160718500Y-82565593D01*
X160754732Y-82551099D01*
X160800143Y-82531858D01*
X160849114Y-82508005D01*
X160829950Y-82499806D01*
X160791072Y-82498122D01*
X160727428Y-82509757D01*
G36*
X160828113Y-83235649D02*
G01*
X160838935Y-83252141D01*
X160875738Y-83254707D01*
X160914456Y-83245845D01*
X160897661Y-83232785D01*
X160840951Y-83228459D01*
X160828113Y-83235649D01*
G37*
X160828113Y-83235649D02*
X160838935Y-83252141D01*
X160875738Y-83254707D01*
X160914456Y-83245845D01*
X160897661Y-83232785D01*
X160840951Y-83228459D01*
X160828113Y-83235649D01*
G36*
X163780530Y-83374395D02*
G01*
X163671377Y-83413079D01*
X163666915Y-83416224D01*
X163639647Y-83441795D01*
X163652244Y-83456261D01*
X163715190Y-83462121D01*
X163838973Y-83461879D01*
X163857076Y-83461581D01*
X163987503Y-83457809D01*
X164054913Y-83450445D01*
X164068856Y-83436901D01*
X164038878Y-83414591D01*
X164036168Y-83413072D01*
X163913958Y-83374292D01*
X163780530Y-83374395D01*
G37*
X163780530Y-83374395D02*
X163671377Y-83413079D01*
X163666915Y-83416224D01*
X163639647Y-83441795D01*
X163652244Y-83456261D01*
X163715190Y-83462121D01*
X163838973Y-83461879D01*
X163857076Y-83461581D01*
X163987503Y-83457809D01*
X164054913Y-83450445D01*
X164068856Y-83436901D01*
X164038878Y-83414591D01*
X164036168Y-83413072D01*
X163913958Y-83374292D01*
X163780530Y-83374395D01*
G36*
X161055522Y-83774186D02*
G01*
X160978250Y-83819630D01*
X160931242Y-83871373D01*
X160927143Y-83888610D01*
X160947924Y-83947543D01*
X160997123Y-84024675D01*
X161055023Y-84093595D01*
X161101905Y-84127891D01*
X161106173Y-84128429D01*
X161121543Y-84098147D01*
X161117165Y-84036209D01*
X161115716Y-83967287D01*
X161148549Y-83954566D01*
X161188434Y-83933892D01*
X161210922Y-83872400D01*
X161209743Y-83800988D01*
X161188384Y-83758299D01*
X161134940Y-83749067D01*
X161055522Y-83774186D01*
G37*
X161055522Y-83774186D02*
X160978250Y-83819630D01*
X160931242Y-83871373D01*
X160927143Y-83888610D01*
X160947924Y-83947543D01*
X160997123Y-84024675D01*
X161055023Y-84093595D01*
X161101905Y-84127891D01*
X161106173Y-84128429D01*
X161121543Y-84098147D01*
X161117165Y-84036209D01*
X161115716Y-83967287D01*
X161148549Y-83954566D01*
X161188434Y-83933892D01*
X161210922Y-83872400D01*
X161209743Y-83800988D01*
X161188384Y-83758299D01*
X161134940Y-83749067D01*
X161055522Y-83774186D01*
G36*
X163941465Y-84534000D02*
G01*
X163967841Y-84559084D01*
X163975143Y-84563857D01*
X164041625Y-84595911D01*
X164073357Y-84590584D01*
X164065857Y-84563857D01*
X164014074Y-84532285D01*
X163982073Y-84528127D01*
X163941465Y-84534000D01*
G37*
X163941465Y-84534000D02*
X163967841Y-84559084D01*
X163975143Y-84563857D01*
X164041625Y-84595911D01*
X164073357Y-84590584D01*
X164065857Y-84563857D01*
X164014074Y-84532285D01*
X163982073Y-84528127D01*
X163941465Y-84534000D01*
G36*
X163769524Y-84612238D02*
G01*
X163774505Y-84633810D01*
X163793715Y-84636429D01*
X163823582Y-84623153D01*
X163817905Y-84612238D01*
X163774842Y-84607896D01*
X163769524Y-84612238D01*
G37*
X163769524Y-84612238D02*
X163774505Y-84633810D01*
X163793715Y-84636429D01*
X163823582Y-84623153D01*
X163817905Y-84612238D01*
X163774842Y-84607896D01*
X163769524Y-84612238D01*
G36*
X163918054Y-85433726D02*
G01*
X163902572Y-85443136D01*
X163846036Y-85488772D01*
X163830000Y-85516014D01*
X163857500Y-85540267D01*
X163913388Y-85538897D01*
X163950953Y-85519381D01*
X163973714Y-85464376D01*
X163975143Y-85446502D01*
X163963840Y-85416537D01*
X163918054Y-85433726D01*
G37*
X163918054Y-85433726D02*
X163902572Y-85443136D01*
X163846036Y-85488772D01*
X163830000Y-85516014D01*
X163857500Y-85540267D01*
X163913388Y-85538897D01*
X163950953Y-85519381D01*
X163973714Y-85464376D01*
X163975143Y-85446502D01*
X163963840Y-85416537D01*
X163918054Y-85433726D01*
G36*
X160890857Y-85743143D02*
G01*
X160909000Y-85761286D01*
X160927143Y-85743143D01*
X160909000Y-85725000D01*
X160890857Y-85743143D01*
G37*
X160890857Y-85743143D02*
X160909000Y-85761286D01*
X160927143Y-85743143D01*
X160909000Y-85725000D01*
X160890857Y-85743143D01*
G36*
X162594472Y-85732129D02*
G01*
X162583580Y-85757504D01*
X162622685Y-85797901D01*
X162693887Y-85842726D01*
X162779282Y-85881382D01*
X162860970Y-85903276D01*
X162886572Y-85905007D01*
X162977286Y-85903857D01*
X162886572Y-85852000D01*
X162798550Y-85812870D01*
X162735381Y-85798858D01*
X162675348Y-85776215D01*
X162660995Y-85755843D01*
X162621022Y-85728604D01*
X162594472Y-85732129D01*
G37*
X162594472Y-85732129D02*
X162583580Y-85757504D01*
X162622685Y-85797901D01*
X162693887Y-85842726D01*
X162779282Y-85881382D01*
X162860970Y-85903276D01*
X162886572Y-85905007D01*
X162977286Y-85903857D01*
X162886572Y-85852000D01*
X162798550Y-85812870D01*
X162735381Y-85798858D01*
X162675348Y-85776215D01*
X162660995Y-85755843D01*
X162621022Y-85728604D01*
X162594472Y-85732129D01*
G36*
X160782000Y-86106000D02*
G01*
X160800143Y-86124143D01*
X160818286Y-86106000D01*
X160800143Y-86087857D01*
X160782000Y-86106000D01*
G37*
X160782000Y-86106000D02*
X160800143Y-86124143D01*
X160818286Y-86106000D01*
X160800143Y-86087857D01*
X160782000Y-86106000D01*
G36*
X160728727Y-85978041D02*
G01*
X160682304Y-86033761D01*
X160673143Y-86062229D01*
X160650885Y-86116804D01*
X160615452Y-86164034D01*
X160577378Y-86239256D01*
X160597107Y-86294930D01*
X160662413Y-86311593D01*
X160701945Y-86301737D01*
X160759474Y-86268019D01*
X160756601Y-86218479D01*
X160747297Y-86199672D01*
X160728902Y-86099653D01*
X160746865Y-86030402D01*
X160768402Y-85965436D01*
X160757269Y-85956691D01*
X160728727Y-85978041D01*
G37*
X160728727Y-85978041D02*
X160682304Y-86033761D01*
X160673143Y-86062229D01*
X160650885Y-86116804D01*
X160615452Y-86164034D01*
X160577378Y-86239256D01*
X160597107Y-86294930D01*
X160662413Y-86311593D01*
X160701945Y-86301737D01*
X160759474Y-86268019D01*
X160756601Y-86218479D01*
X160747297Y-86199672D01*
X160728902Y-86099653D01*
X160746865Y-86030402D01*
X160768402Y-85965436D01*
X160757269Y-85956691D01*
X160728727Y-85978041D01*
G36*
X160469360Y-86384947D02*
G01*
X160430584Y-86450381D01*
X160430210Y-86492508D01*
X160450686Y-86516673D01*
X160456861Y-86505143D01*
X160460188Y-86445153D01*
X160459726Y-86441643D01*
X160482826Y-86415286D01*
X160491714Y-86414429D01*
X160525658Y-86385904D01*
X160528000Y-86370368D01*
X160509593Y-86353780D01*
X160469360Y-86384947D01*
G37*
X160469360Y-86384947D02*
X160430584Y-86450381D01*
X160430210Y-86492508D01*
X160450686Y-86516673D01*
X160456861Y-86505143D01*
X160460188Y-86445153D01*
X160459726Y-86441643D01*
X160482826Y-86415286D01*
X160491714Y-86414429D01*
X160525658Y-86385904D01*
X160528000Y-86370368D01*
X160509593Y-86353780D01*
X160469360Y-86384947D01*
G36*
X160352178Y-86574250D02*
G01*
X160313224Y-86610786D01*
X160321215Y-86631790D01*
X160326287Y-86632143D01*
X160356978Y-86606370D01*
X160368179Y-86590251D01*
X160372456Y-86565421D01*
X160352178Y-86574250D01*
G37*
X160352178Y-86574250D02*
X160313224Y-86610786D01*
X160321215Y-86631790D01*
X160326287Y-86632143D01*
X160356978Y-86606370D01*
X160368179Y-86590251D01*
X160372456Y-86565421D01*
X160352178Y-86574250D01*
G36*
X160274000Y-86686572D02*
G01*
X160292143Y-86704715D01*
X160310286Y-86686572D01*
X160292143Y-86668429D01*
X160274000Y-86686572D01*
G37*
X160274000Y-86686572D02*
X160292143Y-86704715D01*
X160310286Y-86686572D01*
X160292143Y-86668429D01*
X160274000Y-86686572D01*
G36*
X160274000Y-86831715D02*
G01*
X160292143Y-86849858D01*
X160310286Y-86831715D01*
X160292143Y-86813572D01*
X160274000Y-86831715D01*
G37*
X160274000Y-86831715D02*
X160292143Y-86849858D01*
X160310286Y-86831715D01*
X160292143Y-86813572D01*
X160274000Y-86831715D01*
G36*
X159729714Y-86976858D02*
G01*
X159747857Y-86995000D01*
X159766000Y-86976858D01*
X159747857Y-86958715D01*
X159729714Y-86976858D01*
G37*
X159729714Y-86976858D02*
X159747857Y-86995000D01*
X159766000Y-86976858D01*
X159747857Y-86958715D01*
X159729714Y-86976858D01*
G36*
X160021639Y-86800057D02*
G01*
X159942377Y-86850055D01*
X159856714Y-86922825D01*
X159952036Y-86888937D01*
X160020662Y-86871891D01*
X160042812Y-86893267D01*
X160042750Y-86912048D01*
X160067595Y-86970711D01*
X160092572Y-86984786D01*
X160128088Y-86991813D01*
X160101640Y-86969026D01*
X160094014Y-86963692D01*
X160062678Y-86928941D01*
X160081204Y-86884359D01*
X160108710Y-86852073D01*
X160153724Y-86798343D01*
X160147816Y-86779521D01*
X160102215Y-86777286D01*
X160021639Y-86800057D01*
G37*
X160021639Y-86800057D02*
X159942377Y-86850055D01*
X159856714Y-86922825D01*
X159952036Y-86888937D01*
X160020662Y-86871891D01*
X160042812Y-86893267D01*
X160042750Y-86912048D01*
X160067595Y-86970711D01*
X160092572Y-86984786D01*
X160128088Y-86991813D01*
X160101640Y-86969026D01*
X160094014Y-86963692D01*
X160062678Y-86928941D01*
X160081204Y-86884359D01*
X160108710Y-86852073D01*
X160153724Y-86798343D01*
X160147816Y-86779521D01*
X160102215Y-86777286D01*
X160021639Y-86800057D01*
G36*
X160020000Y-87085715D02*
G01*
X159985384Y-87118321D01*
X159983714Y-87124142D01*
X160011788Y-87139727D01*
X160020000Y-87140143D01*
X160054892Y-87112248D01*
X160056286Y-87101716D01*
X160034056Y-87080045D01*
X160020000Y-87085715D01*
G37*
X160020000Y-87085715D02*
X159985384Y-87118321D01*
X159983714Y-87124142D01*
X160011788Y-87139727D01*
X160020000Y-87140143D01*
X160054892Y-87112248D01*
X160056286Y-87101716D01*
X160034056Y-87080045D01*
X160020000Y-87085715D01*
G36*
X160032095Y-87224810D02*
G01*
X160027753Y-87267873D01*
X160032095Y-87273191D01*
X160053667Y-87268210D01*
X160056286Y-87249000D01*
X160043010Y-87219133D01*
X160032095Y-87224810D01*
G37*
X160032095Y-87224810D02*
X160027753Y-87267873D01*
X160032095Y-87273191D01*
X160053667Y-87268210D01*
X160056286Y-87249000D01*
X160043010Y-87219133D01*
X160032095Y-87224810D01*
G36*
X162922857Y-87303429D02*
G01*
X162941000Y-87321572D01*
X162959143Y-87303429D01*
X162941000Y-87285286D01*
X162922857Y-87303429D01*
G37*
X162922857Y-87303429D02*
X162941000Y-87321572D01*
X162959143Y-87303429D01*
X162941000Y-87285286D01*
X162922857Y-87303429D01*
G36*
X161389786Y-87478969D02*
G01*
X161385228Y-87492213D01*
X161435143Y-87497271D01*
X161486655Y-87491569D01*
X161480500Y-87478969D01*
X161406211Y-87474176D01*
X161389786Y-87478969D01*
G37*
X161389786Y-87478969D02*
X161385228Y-87492213D01*
X161435143Y-87497271D01*
X161486655Y-87491569D01*
X161480500Y-87478969D01*
X161406211Y-87474176D01*
X161389786Y-87478969D01*
G36*
X163079388Y-87413209D02*
G01*
X163099657Y-87439500D01*
X163152620Y-87495913D01*
X163176262Y-87495668D01*
X163176857Y-87489300D01*
X163152061Y-87459011D01*
X163113357Y-87425800D01*
X163070377Y-87394419D01*
X163079388Y-87413209D01*
G37*
X163079388Y-87413209D02*
X163099657Y-87439500D01*
X163152620Y-87495913D01*
X163176262Y-87495668D01*
X163176857Y-87489300D01*
X163152061Y-87459011D01*
X163113357Y-87425800D01*
X163070377Y-87394419D01*
X163079388Y-87413209D01*
G36*
X159521828Y-87553649D02*
G01*
X159532649Y-87570141D01*
X159569453Y-87572707D01*
X159608171Y-87563845D01*
X159591375Y-87550785D01*
X159534665Y-87546459D01*
X159521828Y-87553649D01*
G37*
X159521828Y-87553649D02*
X159532649Y-87570141D01*
X159569453Y-87572707D01*
X159608171Y-87563845D01*
X159591375Y-87550785D01*
X159534665Y-87546459D01*
X159521828Y-87553649D01*
G36*
X161580286Y-87557429D02*
G01*
X161598429Y-87575572D01*
X161616572Y-87557429D01*
X161598429Y-87539286D01*
X161580286Y-87557429D01*
G37*
X161580286Y-87557429D02*
X161598429Y-87575572D01*
X161616572Y-87557429D01*
X161598429Y-87539286D01*
X161580286Y-87557429D01*
G36*
X159475714Y-87847715D02*
G01*
X159493857Y-87865858D01*
X159512000Y-87847715D01*
X159493857Y-87829572D01*
X159475714Y-87847715D01*
G37*
X159475714Y-87847715D02*
X159493857Y-87865858D01*
X159512000Y-87847715D01*
X159493857Y-87829572D01*
X159475714Y-87847715D01*
G36*
X161731445Y-87873621D02*
G01*
X161725429Y-87880118D01*
X161753803Y-87903515D01*
X161779857Y-87915265D01*
X161826581Y-87916019D01*
X161834286Y-87901004D01*
X161804879Y-87869817D01*
X161779857Y-87865858D01*
X161731445Y-87873621D01*
G37*
X161731445Y-87873621D02*
X161725429Y-87880118D01*
X161753803Y-87903515D01*
X161779857Y-87915265D01*
X161826581Y-87916019D01*
X161834286Y-87901004D01*
X161804879Y-87869817D01*
X161779857Y-87865858D01*
X161731445Y-87873621D01*
G36*
X161217429Y-88029143D02*
G01*
X161235572Y-88047286D01*
X161253715Y-88029143D01*
X161235572Y-88011000D01*
X161217429Y-88029143D01*
G37*
X161217429Y-88029143D02*
X161235572Y-88047286D01*
X161253715Y-88029143D01*
X161235572Y-88011000D01*
X161217429Y-88029143D01*
G36*
X161831779Y-87994407D02*
G01*
X161800091Y-88024192D01*
X161837425Y-88034975D01*
X161850833Y-88035191D01*
X161887224Y-88019178D01*
X161884611Y-88004361D01*
X161842537Y-87989642D01*
X161831779Y-87994407D01*
G37*
X161831779Y-87994407D02*
X161800091Y-88024192D01*
X161837425Y-88034975D01*
X161850833Y-88035191D01*
X161887224Y-88019178D01*
X161884611Y-88004361D01*
X161842537Y-87989642D01*
X161831779Y-87994407D01*
G36*
X163217674Y-87533188D02*
G01*
X163262871Y-87590695D01*
X163353368Y-87680474D01*
X163418197Y-87739168D01*
X163535378Y-87839152D01*
X163651463Y-87932312D01*
X163753634Y-88009098D01*
X163829076Y-88059961D01*
X163864969Y-88075351D01*
X163866286Y-88073023D01*
X163843677Y-88041734D01*
X163784457Y-87972495D01*
X163703000Y-87882005D01*
X163621288Y-87796340D01*
X163562723Y-87741307D01*
X163539726Y-87728558D01*
X163539715Y-87728844D01*
X163516770Y-87723276D01*
X163459704Y-87678855D01*
X163439929Y-87661009D01*
X163355802Y-87589564D01*
X163282870Y-87537964D01*
X163276643Y-87534465D01*
X163221142Y-87512821D01*
X163217674Y-87533188D01*
G37*
X163217674Y-87533188D02*
X163262871Y-87590695D01*
X163353368Y-87680474D01*
X163418197Y-87739168D01*
X163535378Y-87839152D01*
X163651463Y-87932312D01*
X163753634Y-88009098D01*
X163829076Y-88059961D01*
X163864969Y-88075351D01*
X163866286Y-88073023D01*
X163843677Y-88041734D01*
X163784457Y-87972495D01*
X163703000Y-87882005D01*
X163621288Y-87796340D01*
X163562723Y-87741307D01*
X163539726Y-87728558D01*
X163539715Y-87728844D01*
X163516770Y-87723276D01*
X163459704Y-87678855D01*
X163439929Y-87661009D01*
X163355802Y-87589564D01*
X163282870Y-87537964D01*
X163276643Y-87534465D01*
X163221142Y-87512821D01*
X163217674Y-87533188D01*
G36*
X160420197Y-88074899D02*
G01*
X160419143Y-88083572D01*
X160446756Y-88118803D01*
X160455429Y-88119858D01*
X160490660Y-88092245D01*
X160491714Y-88083572D01*
X160464102Y-88048340D01*
X160455429Y-88047286D01*
X160420197Y-88074899D01*
G37*
X160420197Y-88074899D02*
X160419143Y-88083572D01*
X160446756Y-88118803D01*
X160455429Y-88119858D01*
X160490660Y-88092245D01*
X160491714Y-88083572D01*
X160464102Y-88048340D01*
X160455429Y-88047286D01*
X160420197Y-88074899D01*
G36*
X161229524Y-88095667D02*
G01*
X161234505Y-88117239D01*
X161253715Y-88119858D01*
X161283582Y-88106581D01*
X161277905Y-88095667D01*
X161234842Y-88091324D01*
X161229524Y-88095667D01*
G37*
X161229524Y-88095667D02*
X161234505Y-88117239D01*
X161253715Y-88119858D01*
X161283582Y-88106581D01*
X161277905Y-88095667D01*
X161234842Y-88091324D01*
X161229524Y-88095667D01*
G36*
X161834286Y-88174286D02*
G01*
X161852429Y-88192429D01*
X161870572Y-88174286D01*
X161852429Y-88156143D01*
X161834286Y-88174286D01*
G37*
X161834286Y-88174286D02*
X161852429Y-88192429D01*
X161870572Y-88174286D01*
X161852429Y-88156143D01*
X161834286Y-88174286D01*
G36*
X162554141Y-78107888D02*
G01*
X162345549Y-78159575D01*
X162128824Y-78232009D01*
X161922515Y-78320561D01*
X161914756Y-78324365D01*
X161664291Y-78470230D01*
X161428182Y-78649519D01*
X161219265Y-78849518D01*
X161050377Y-79057513D01*
X160934355Y-79260790D01*
X160912405Y-79317115D01*
X160868303Y-79399818D01*
X160786893Y-79514539D01*
X160682322Y-79642119D01*
X160627672Y-79702710D01*
X160475446Y-79873668D01*
X160366939Y-80020665D01*
X160292933Y-80164560D01*
X160244209Y-80326208D01*
X160211547Y-80526466D01*
X160195120Y-80681286D01*
X160193338Y-80760731D01*
X160195713Y-80821800D01*
X160208089Y-80879777D01*
X160240403Y-80875030D01*
X160250339Y-80867294D01*
X160285124Y-80852365D01*
X160299934Y-80893685D01*
X160302341Y-80935423D01*
X160295409Y-81011751D01*
X160274398Y-81044135D01*
X160274000Y-81044143D01*
X160252695Y-81075587D01*
X160245612Y-81151177D01*
X160259339Y-81224318D01*
X160288152Y-81251028D01*
X160288542Y-81250963D01*
X160320700Y-81274885D01*
X160328429Y-81316286D01*
X160308039Y-81371906D01*
X160276929Y-81377739D01*
X160244575Y-81379067D01*
X160267500Y-81417299D01*
X160269620Y-81419865D01*
X160292980Y-81475315D01*
X160275762Y-81496626D01*
X160248329Y-81546539D01*
X160237714Y-81626856D01*
X160246656Y-81701939D01*
X160288775Y-81730053D01*
X160348957Y-81733572D01*
X160456194Y-81745931D01*
X160560289Y-81789453D01*
X160680125Y-81873799D01*
X160766692Y-81947365D01*
X160870063Y-82035726D01*
X160967144Y-82113742D01*
X161005917Y-82142585D01*
X161090106Y-82220462D01*
X161144315Y-82294987D01*
X161191467Y-82383090D01*
X161340519Y-82300398D01*
X161445275Y-82225646D01*
X161498334Y-82151004D01*
X161501167Y-82138925D01*
X161537569Y-82073528D01*
X161592879Y-82060143D01*
X161701280Y-82082668D01*
X161784571Y-82155659D01*
X161849494Y-82287239D01*
X161886526Y-82414070D01*
X161930371Y-82565306D01*
X161983595Y-82710514D01*
X162027015Y-82803453D01*
X162165906Y-82979701D01*
X162353857Y-83107293D01*
X162583880Y-83183674D01*
X162848991Y-83206291D01*
X163072387Y-83185505D01*
X163210255Y-83160374D01*
X163305868Y-83130843D01*
X163384486Y-83083326D01*
X163471370Y-83004238D01*
X163539715Y-82934174D01*
X163648472Y-82811871D01*
X163737285Y-82686630D01*
X163817977Y-82538484D01*
X163902374Y-82347466D01*
X163935087Y-82266507D01*
X163976394Y-82194830D01*
X164039382Y-82173300D01*
X164090375Y-82175792D01*
X164147840Y-82185692D01*
X164189363Y-82211320D01*
X164225038Y-82266997D01*
X164264953Y-82367041D01*
X164302943Y-82477429D01*
X164360785Y-82643978D01*
X164422217Y-82812942D01*
X164474897Y-82950452D01*
X164479591Y-82962113D01*
X164558381Y-83156511D01*
X164464487Y-83279613D01*
X164396030Y-83355979D01*
X164337543Y-83399133D01*
X164323563Y-83402715D01*
X164264258Y-83424876D01*
X164192857Y-83475286D01*
X164124202Y-83526876D01*
X164078448Y-83547857D01*
X164046103Y-83563055D01*
X164070601Y-83602133D01*
X164144489Y-83655316D01*
X164172407Y-83671077D01*
X164307469Y-83718655D01*
X164427993Y-83713673D01*
X164569148Y-83701790D01*
X164657859Y-83732728D01*
X164703004Y-83810496D01*
X164708960Y-83840617D01*
X164702882Y-83941452D01*
X164649658Y-84023909D01*
X164545409Y-84089061D01*
X164386252Y-84137982D01*
X164168308Y-84171746D01*
X163887695Y-84191425D01*
X163540533Y-84198094D01*
X163418283Y-84197684D01*
X163203247Y-84198493D01*
X163029661Y-84204165D01*
X162907351Y-84214143D01*
X162846149Y-84227868D01*
X162842687Y-84230371D01*
X162823610Y-84285225D01*
X162854421Y-84328134D01*
X162910822Y-84330678D01*
X162974199Y-84332341D01*
X163071686Y-84360426D01*
X163115795Y-84378524D01*
X163242184Y-84427906D01*
X163367407Y-84465691D01*
X163394572Y-84471743D01*
X163499554Y-84493869D01*
X163581524Y-84513599D01*
X163585072Y-84514583D01*
X163644086Y-84522619D01*
X163650513Y-84504371D01*
X163613899Y-84471049D01*
X163543792Y-84433864D01*
X163503429Y-84418715D01*
X163413963Y-84383284D01*
X163362878Y-84351611D01*
X163358286Y-84343218D01*
X163391011Y-84312076D01*
X163475496Y-84288657D01*
X163591205Y-84274366D01*
X163717602Y-84270608D01*
X163834151Y-84278788D01*
X163920316Y-84300311D01*
X163928338Y-84304228D01*
X164029826Y-84338434D01*
X164095315Y-84346143D01*
X164188057Y-84367291D01*
X164237688Y-84420147D01*
X164229851Y-84488828D01*
X164227623Y-84492503D01*
X164196165Y-84559238D01*
X164219815Y-84581103D01*
X164274500Y-84572311D01*
X164330692Y-84562375D01*
X164325945Y-84586786D01*
X164303413Y-84615523D01*
X164270847Y-84663082D01*
X164293455Y-84674331D01*
X164321556Y-84672066D01*
X164428149Y-84666357D01*
X164468404Y-84681535D01*
X164446170Y-84720037D01*
X164425932Y-84738146D01*
X164374044Y-84796364D01*
X164362123Y-84836724D01*
X164342351Y-84875258D01*
X164280718Y-84914458D01*
X164206489Y-84940585D01*
X164148929Y-84939900D01*
X164145868Y-84938242D01*
X164126949Y-84938862D01*
X164138215Y-84962655D01*
X164142918Y-84993666D01*
X164092068Y-84994960D01*
X164067194Y-84990661D01*
X163959184Y-84992126D01*
X163880660Y-85016322D01*
X163822191Y-85052502D01*
X163823938Y-85083987D01*
X163857503Y-85116484D01*
X163931380Y-85155404D01*
X164042248Y-85187696D01*
X164088172Y-85195907D01*
X164203339Y-85220036D01*
X164295016Y-85252263D01*
X164317159Y-85264969D01*
X164373858Y-85347463D01*
X164378350Y-85463770D01*
X164334417Y-85601529D01*
X164245840Y-85748378D01*
X164128972Y-85880117D01*
X164014596Y-85952953D01*
X163846607Y-86011875D01*
X163643505Y-86051115D01*
X163550382Y-86060473D01*
X163509600Y-86072027D01*
X163527984Y-86092204D01*
X163593506Y-86115562D01*
X163694137Y-86136659D01*
X163730255Y-86141847D01*
X163892012Y-86170955D01*
X164019893Y-86210027D01*
X164099969Y-86253860D01*
X164120286Y-86287504D01*
X164104323Y-86338288D01*
X164063427Y-86428448D01*
X164029764Y-86494338D01*
X163978629Y-86607323D01*
X163968284Y-86674791D01*
X163976811Y-86687603D01*
X163998739Y-86736633D01*
X163993475Y-86776691D01*
X164005396Y-86855087D01*
X164079376Y-86959476D01*
X164082713Y-86963153D01*
X164149852Y-87033038D01*
X164182392Y-87052177D01*
X164192424Y-87025382D01*
X164192857Y-87006969D01*
X164216609Y-86935480D01*
X164249586Y-86908425D01*
X164287865Y-86873598D01*
X164285280Y-86852621D01*
X164290879Y-86806529D01*
X164306862Y-86792247D01*
X164328087Y-86808359D01*
X164337246Y-86881194D01*
X164335657Y-86996150D01*
X164324637Y-87138622D01*
X164305504Y-87294008D01*
X164279575Y-87447704D01*
X164248169Y-87585107D01*
X164229817Y-87646142D01*
X164174735Y-87786890D01*
X164110985Y-87917097D01*
X164063706Y-87992453D01*
X163994692Y-88097345D01*
X163981491Y-88161343D01*
X164023984Y-88189793D01*
X164059231Y-88192429D01*
X164110607Y-88181437D01*
X164149883Y-88138040D01*
X164188265Y-88046602D01*
X164208806Y-87983786D01*
X164260343Y-87841004D01*
X164330773Y-87672552D01*
X164399744Y-87525396D01*
X164464085Y-87391424D01*
X164499412Y-87292349D01*
X164511757Y-87199519D01*
X164507151Y-87084282D01*
X164502854Y-87035539D01*
X164492930Y-86892257D01*
X164484769Y-86706273D01*
X164479536Y-86507455D01*
X164478337Y-86405615D01*
X164479330Y-86222614D01*
X164486341Y-86094825D01*
X164501801Y-86004980D01*
X164528140Y-85935808D01*
X164549821Y-85897615D01*
X164621594Y-85776977D01*
X164716779Y-85609309D01*
X164825789Y-85412219D01*
X164939039Y-85203314D01*
X165046946Y-85000202D01*
X165139924Y-84820490D01*
X165182632Y-84735141D01*
X165245260Y-84590746D01*
X165306268Y-84420781D01*
X165361170Y-84241908D01*
X165405480Y-84070788D01*
X165434712Y-83924083D01*
X165435271Y-83917972D01*
X165281429Y-83917972D01*
X165260682Y-83946399D01*
X165208078Y-83923910D01*
X165154429Y-83874429D01*
X165114221Y-83821544D01*
X165126635Y-83802804D01*
X165141548Y-83801857D01*
X165210927Y-83826209D01*
X165267699Y-83880084D01*
X165281429Y-83917972D01*
X165435271Y-83917972D01*
X165444380Y-83818455D01*
X165439168Y-83782345D01*
X165453271Y-83731355D01*
X165512685Y-83674546D01*
X165514440Y-83673385D01*
X165534430Y-83656715D01*
X165426572Y-83656715D01*
X165398959Y-83691946D01*
X165390286Y-83693000D01*
X165355055Y-83665388D01*
X165354000Y-83656715D01*
X165381613Y-83621483D01*
X165390286Y-83620429D01*
X165425517Y-83648041D01*
X165426572Y-83656715D01*
X165534430Y-83656715D01*
X165569686Y-83627316D01*
X165604980Y-83581958D01*
X165611243Y-83554334D01*
X165579398Y-83561466D01*
X165571715Y-83566000D01*
X165540973Y-83557384D01*
X165535429Y-83529715D01*
X165538341Y-83523667D01*
X165414476Y-83523667D01*
X165409495Y-83545239D01*
X165390286Y-83547857D01*
X165360419Y-83534581D01*
X165366095Y-83523667D01*
X165409158Y-83519324D01*
X165414476Y-83523667D01*
X165538341Y-83523667D01*
X165554347Y-83490425D01*
X165580786Y-83496611D01*
X165607487Y-83506557D01*
X165584372Y-83476939D01*
X165515013Y-83449046D01*
X165421087Y-83460319D01*
X165321885Y-83477799D01*
X165247688Y-83480963D01*
X165245143Y-83480619D01*
X165209404Y-83479240D01*
X165236474Y-83502934D01*
X165244092Y-83508086D01*
X165278356Y-83548714D01*
X165274455Y-83566927D01*
X165231968Y-83564878D01*
X165158943Y-83529221D01*
X165150054Y-83523543D01*
X165048668Y-83457143D01*
X165352803Y-83420857D01*
X165509375Y-83397124D01*
X165619204Y-83369968D01*
X165670161Y-83342491D01*
X165671779Y-83339215D01*
X165667020Y-83318024D01*
X165452914Y-83318024D01*
X165438384Y-83358540D01*
X165360460Y-83384545D01*
X165215308Y-83397208D01*
X165190714Y-83397950D01*
X165103603Y-83395434D01*
X165083925Y-83380776D01*
X165099127Y-83367737D01*
X165126398Y-83338379D01*
X165093428Y-83310454D01*
X165062841Y-83296976D01*
X165027120Y-83277680D01*
X165044185Y-83267774D01*
X165121452Y-83265750D01*
X165205977Y-83267898D01*
X165339404Y-83278648D01*
X165426725Y-83298696D01*
X165452914Y-83318024D01*
X165667020Y-83318024D01*
X165662556Y-83298154D01*
X165647310Y-83293857D01*
X165609668Y-83268008D01*
X165608000Y-83257572D01*
X165636963Y-83224449D01*
X165656854Y-83221286D01*
X165751196Y-83196785D01*
X165867409Y-83133568D01*
X165979038Y-83047061D01*
X166012221Y-83014040D01*
X166052259Y-82964167D01*
X166092769Y-82896682D01*
X166138389Y-82801120D01*
X166193757Y-82667015D01*
X166263513Y-82483902D01*
X166341391Y-82271409D01*
X166393588Y-82173985D01*
X166445887Y-82111571D01*
X166502452Y-82013379D01*
X166515143Y-81911852D01*
X166515143Y-81774808D01*
X166242873Y-81714233D01*
X166110888Y-81681848D01*
X166008972Y-81651180D01*
X165955866Y-81627999D01*
X165952828Y-81624899D01*
X165954599Y-81576380D01*
X165980499Y-81489715D01*
X165993716Y-81456212D01*
X166027060Y-81328752D01*
X166028475Y-81316290D01*
X165437762Y-81316290D01*
X165402022Y-81348574D01*
X165311019Y-81395262D01*
X165191541Y-81441281D01*
X165067332Y-81479343D01*
X164962134Y-81502161D01*
X164900109Y-81502613D01*
X164853385Y-81498026D01*
X164846000Y-81508683D01*
X164813629Y-81549791D01*
X164728624Y-81599383D01*
X164609149Y-81649994D01*
X164473367Y-81694162D01*
X164339443Y-81724420D01*
X164310786Y-81728631D01*
X164181513Y-81737652D01*
X164030433Y-81736969D01*
X163877685Y-81728112D01*
X163743411Y-81712612D01*
X163647750Y-81691999D01*
X163614938Y-81675747D01*
X163594358Y-81623783D01*
X163594143Y-81618317D01*
X163560158Y-81577600D01*
X163467334Y-81538154D01*
X163329365Y-81503557D01*
X163159946Y-81477388D01*
X163006163Y-81464677D01*
X162864207Y-81455363D01*
X162750115Y-81443916D01*
X162683404Y-81432421D01*
X162675736Y-81429395D01*
X162627318Y-81432691D01*
X162537759Y-81462754D01*
X162465430Y-81494682D01*
X162343147Y-81543858D01*
X162180942Y-81596268D01*
X162010250Y-81641930D01*
X161979429Y-81649025D01*
X161826432Y-81685835D01*
X161731962Y-81716878D01*
X161682912Y-81748013D01*
X161666176Y-81785099D01*
X161665786Y-81789211D01*
X161659420Y-81872693D01*
X161656714Y-81905929D01*
X161631656Y-81947463D01*
X161593752Y-81939979D01*
X161580286Y-81902262D01*
X161583477Y-81890810D01*
X161205334Y-81890810D01*
X161200353Y-81912382D01*
X161181143Y-81915000D01*
X161151276Y-81901724D01*
X161156953Y-81890810D01*
X161200015Y-81886467D01*
X161205334Y-81890810D01*
X161583477Y-81890810D01*
X161596431Y-81844323D01*
X161637842Y-81748656D01*
X161672891Y-81679072D01*
X161725551Y-81562010D01*
X161750629Y-81479156D01*
X161053886Y-81479156D01*
X161048046Y-81499776D01*
X161019742Y-81493417D01*
X160970720Y-81497009D01*
X160961908Y-81521047D01*
X160946885Y-81520284D01*
X160912198Y-81475762D01*
X160870812Y-81408541D01*
X160854013Y-81375601D01*
X160743164Y-81375601D01*
X160743151Y-81382378D01*
X160740588Y-81497715D01*
X160669822Y-81338211D01*
X160631350Y-81242558D01*
X160612830Y-81178069D01*
X160613636Y-81164126D01*
X160649807Y-81166708D01*
X160692111Y-81217407D01*
X160727560Y-81294334D01*
X160743164Y-81375601D01*
X160854013Y-81375601D01*
X160835694Y-81339684D01*
X160819809Y-81290254D01*
X160819807Y-81290211D01*
X160845334Y-81278056D01*
X160872714Y-81285021D01*
X160918607Y-81334505D01*
X160927143Y-81374597D01*
X160949992Y-81431284D01*
X160979430Y-81443286D01*
X161041031Y-81465131D01*
X161053886Y-81479156D01*
X161750629Y-81479156D01*
X161757892Y-81455164D01*
X161763007Y-81410596D01*
X161760057Y-81305684D01*
X161755301Y-81144422D01*
X161751729Y-81025749D01*
X160954300Y-81025749D01*
X160942694Y-81095980D01*
X160919696Y-81159905D01*
X160900285Y-81174523D01*
X160894803Y-81129925D01*
X160899983Y-81098572D01*
X160673143Y-81098572D01*
X160655000Y-81116715D01*
X160636857Y-81098572D01*
X160655000Y-81080429D01*
X160673143Y-81098572D01*
X160899983Y-81098572D01*
X160906408Y-81059694D01*
X160929406Y-80995769D01*
X160948818Y-80981151D01*
X160954300Y-81025749D01*
X161751729Y-81025749D01*
X161749237Y-80942996D01*
X161744759Y-80796191D01*
X161435143Y-80796191D01*
X161425910Y-80931152D01*
X161397690Y-80998575D01*
X161374320Y-81007857D01*
X161369630Y-80975526D01*
X161371314Y-80917143D01*
X161290000Y-80917143D01*
X161271857Y-80935286D01*
X161253715Y-80917143D01*
X161271857Y-80899000D01*
X161290000Y-80917143D01*
X161371314Y-80917143D01*
X161371993Y-80893626D01*
X161374200Y-80862715D01*
X160890857Y-80862715D01*
X160877581Y-80892582D01*
X160866667Y-80886905D01*
X160862324Y-80843842D01*
X160866667Y-80838524D01*
X160888239Y-80843505D01*
X160890857Y-80862715D01*
X161374200Y-80862715D01*
X161375587Y-80843305D01*
X161380013Y-80808286D01*
X161108572Y-80808286D01*
X161090429Y-80826429D01*
X161072286Y-80808286D01*
X161090429Y-80790143D01*
X161108572Y-80808286D01*
X161380013Y-80808286D01*
X161383161Y-80783375D01*
X160540704Y-80783375D01*
X160534944Y-80848038D01*
X160534368Y-80850892D01*
X160517490Y-80912082D01*
X160503903Y-80904610D01*
X160499185Y-80886075D01*
X160503761Y-80812104D01*
X160520091Y-80783538D01*
X160540704Y-80783375D01*
X161383161Y-80783375D01*
X161390607Y-80724469D01*
X161392996Y-80716433D01*
X160963429Y-80716433D01*
X160936831Y-80736398D01*
X160909000Y-80730694D01*
X160861257Y-80704939D01*
X160854572Y-80695547D01*
X160884202Y-80682862D01*
X160909000Y-80681286D01*
X160957297Y-80700276D01*
X160963429Y-80716433D01*
X161392996Y-80716433D01*
X161408206Y-80665283D01*
X161424065Y-80669166D01*
X161433862Y-80739536D01*
X161435143Y-80796191D01*
X161744759Y-80796191D01*
X161742361Y-80717591D01*
X161737234Y-80551262D01*
X161432278Y-80551262D01*
X161425607Y-80598325D01*
X161413220Y-80598887D01*
X161411737Y-80590572D01*
X160346572Y-80590572D01*
X160328429Y-80608715D01*
X160310286Y-80590572D01*
X160328429Y-80572429D01*
X160346572Y-80590572D01*
X161411737Y-80590572D01*
X161404558Y-80550323D01*
X161410356Y-80529340D01*
X161426468Y-80515595D01*
X161432278Y-80551262D01*
X161737234Y-80551262D01*
X161735172Y-80484392D01*
X161728166Y-80259586D01*
X161721840Y-80059356D01*
X161716693Y-79899889D01*
X161715356Y-79859540D01*
X161702103Y-79656598D01*
X161678367Y-79521946D01*
X161652714Y-79465542D01*
X161621827Y-79412773D01*
X161647422Y-79370738D01*
X161672370Y-79351355D01*
X161766555Y-79301536D01*
X161834286Y-79279761D01*
X161944849Y-79252466D01*
X162015715Y-79232203D01*
X162116896Y-79214934D01*
X162233090Y-79212710D01*
X162233429Y-79212733D01*
X162348075Y-79220022D01*
X162446102Y-79225560D01*
X162446515Y-79225580D01*
X162504874Y-79235795D01*
X162500939Y-79266771D01*
X162487429Y-79284286D01*
X162464298Y-79325589D01*
X162501319Y-79338309D01*
X162522295Y-79338715D01*
X162580831Y-79355108D01*
X162586819Y-79384072D01*
X162607646Y-79425301D01*
X162682326Y-79473861D01*
X162719867Y-79490902D01*
X162794312Y-79527014D01*
X162817576Y-79550154D01*
X162804929Y-79554402D01*
X162751042Y-79565738D01*
X162754117Y-79590204D01*
X162801117Y-79621786D01*
X162879003Y-79654474D01*
X162974735Y-79682253D01*
X163075276Y-79699114D01*
X163124111Y-79701572D01*
X163180165Y-79705545D01*
X163255718Y-79719451D01*
X163362325Y-79746270D01*
X163511539Y-79788985D01*
X163714915Y-79850574D01*
X163782779Y-79871496D01*
X163891101Y-79911862D01*
X163967270Y-79953087D01*
X163988882Y-79975322D01*
X164032010Y-80014818D01*
X164117552Y-80056529D01*
X164144960Y-80066281D01*
X164266655Y-80121049D01*
X164399498Y-80204067D01*
X164528217Y-80302614D01*
X164637542Y-80403965D01*
X164712201Y-80495397D01*
X164737143Y-80559668D01*
X164758582Y-80604396D01*
X164773429Y-80608715D01*
X164806310Y-80637794D01*
X164809714Y-80658996D01*
X164836101Y-80757258D01*
X164903426Y-80869207D01*
X164993936Y-80965844D01*
X165001105Y-80971620D01*
X165076818Y-81019548D01*
X165142719Y-81019929D01*
X165191943Y-81000695D01*
X165267305Y-80975508D01*
X165314775Y-80995075D01*
X165339832Y-81025300D01*
X165381087Y-81116503D01*
X165390286Y-81175937D01*
X165405871Y-81250776D01*
X165429237Y-81281647D01*
X165437762Y-81316290D01*
X166028475Y-81316290D01*
X166047354Y-81150125D01*
X166055183Y-80939263D01*
X166051133Y-80715100D01*
X166035792Y-80496568D01*
X166009745Y-80302597D01*
X165973579Y-80152121D01*
X165951671Y-80098697D01*
X165814396Y-79862615D01*
X165635245Y-79598787D01*
X165626224Y-79586898D01*
X164335982Y-79586898D01*
X164320441Y-79586736D01*
X164311637Y-79584039D01*
X163596548Y-79584039D01*
X163560881Y-79589850D01*
X163513818Y-79583179D01*
X163513256Y-79570792D01*
X163561821Y-79562130D01*
X163582804Y-79567927D01*
X163596548Y-79584039D01*
X164311637Y-79584039D01*
X164289675Y-79577312D01*
X164210113Y-79559275D01*
X164178682Y-79556429D01*
X164116765Y-79536049D01*
X164063721Y-79503170D01*
X164022754Y-79469131D01*
X164035843Y-79463433D01*
X164108539Y-79481727D01*
X164211502Y-79517502D01*
X164289968Y-79555868D01*
X164335982Y-79586898D01*
X165626224Y-79586898D01*
X165525208Y-79453777D01*
X163853945Y-79453777D01*
X163843803Y-79474384D01*
X163830000Y-79483857D01*
X163754104Y-79510344D01*
X163671343Y-79519588D01*
X163602306Y-79514522D01*
X163594020Y-79491290D01*
X163612286Y-79465715D01*
X163629311Y-79434304D01*
X163605175Y-79417578D01*
X163527406Y-79410886D01*
X163462515Y-79409833D01*
X163267572Y-79408380D01*
X163375764Y-79349841D01*
X163477819Y-79310949D01*
X163584778Y-79294794D01*
X163680234Y-79299362D01*
X163747780Y-79322639D01*
X163771008Y-79362610D01*
X163754748Y-79396374D01*
X163735585Y-79434690D01*
X163775768Y-79447525D01*
X163798343Y-79448127D01*
X163853945Y-79453777D01*
X165525208Y-79453777D01*
X165428142Y-79325862D01*
X165428031Y-79325729D01*
X164177055Y-79325729D01*
X164134947Y-79323393D01*
X164102143Y-79316569D01*
X164020866Y-79295556D01*
X163978184Y-79279196D01*
X163978167Y-79279182D01*
X163982523Y-79265376D01*
X164030384Y-79266762D01*
X164095184Y-79279632D01*
X164150361Y-79300276D01*
X164156572Y-79304087D01*
X164177055Y-79325729D01*
X165428031Y-79325729D01*
X165411986Y-79306619D01*
X164410572Y-79306619D01*
X164385435Y-79315852D01*
X164339650Y-79295039D01*
X164289013Y-79256684D01*
X164281334Y-79241953D01*
X162693048Y-79241953D01*
X162688067Y-79263525D01*
X162668857Y-79266143D01*
X162638990Y-79252867D01*
X162644667Y-79241953D01*
X162687730Y-79237610D01*
X162693048Y-79241953D01*
X164281334Y-79241953D01*
X164280028Y-79239448D01*
X164321391Y-79239411D01*
X164377843Y-79267347D01*
X164410172Y-79303081D01*
X164410572Y-79306619D01*
X165411986Y-79306619D01*
X165332305Y-79211715D01*
X164410572Y-79211715D01*
X164392429Y-79229857D01*
X164374286Y-79211715D01*
X164392429Y-79193572D01*
X164410572Y-79211715D01*
X165332305Y-79211715D01*
X165315088Y-79191209D01*
X164329104Y-79191209D01*
X164324140Y-79193572D01*
X164311647Y-79183934D01*
X164065857Y-79183934D01*
X163884429Y-79170159D01*
X163784117Y-79165419D01*
X163750538Y-79172386D01*
X163775572Y-79190570D01*
X163792543Y-79208220D01*
X163748304Y-79218277D01*
X163638205Y-79221449D01*
X163576000Y-79220968D01*
X163465138Y-79217778D01*
X163415784Y-79212573D01*
X163432565Y-79206046D01*
X163458072Y-79203289D01*
X163548645Y-79186287D01*
X163604382Y-79160525D01*
X163614732Y-79135637D01*
X163569146Y-79121260D01*
X163548786Y-79120445D01*
X163463326Y-79099507D01*
X163430857Y-79081812D01*
X163425249Y-79061422D01*
X163474335Y-79053083D01*
X163561518Y-79055267D01*
X163670202Y-79066446D01*
X163783790Y-79085092D01*
X163885687Y-79109677D01*
X163938857Y-79128582D01*
X164065857Y-79183934D01*
X164311647Y-79183934D01*
X164291027Y-79168027D01*
X164283572Y-79157286D01*
X164274325Y-79123363D01*
X164279289Y-79121000D01*
X164312402Y-79146545D01*
X164319857Y-79157286D01*
X164329104Y-79191209D01*
X165315088Y-79191209D01*
X165244851Y-79107554D01*
X164178845Y-79107554D01*
X164161952Y-79119666D01*
X164160484Y-79119715D01*
X164102635Y-79110356D01*
X163997279Y-79084494D01*
X163866104Y-79047504D01*
X163852055Y-79043295D01*
X163718464Y-78997232D01*
X163652858Y-78963010D01*
X163654845Y-78944995D01*
X163724030Y-78947549D01*
X163858253Y-78974606D01*
X163967009Y-79006298D01*
X164066565Y-79043759D01*
X164142113Y-79079881D01*
X164178845Y-79107554D01*
X165244851Y-79107554D01*
X165207015Y-79062491D01*
X165053986Y-78896547D01*
X165042052Y-78885143D01*
X163648572Y-78885143D01*
X163630429Y-78903286D01*
X163612286Y-78885143D01*
X163630429Y-78867000D01*
X163648572Y-78885143D01*
X165042052Y-78885143D01*
X164952876Y-78799930D01*
X163961740Y-78799930D01*
X163957547Y-78816289D01*
X163901275Y-78841750D01*
X163841323Y-78864450D01*
X163805415Y-78858208D01*
X163717882Y-78839393D01*
X163598676Y-78812308D01*
X163470522Y-78781226D01*
X162014607Y-78781226D01*
X162004591Y-78809949D01*
X161956422Y-78844876D01*
X161899519Y-78865747D01*
X161890851Y-78866445D01*
X161888945Y-78849661D01*
X161927079Y-78815539D01*
X161987131Y-78782279D01*
X162014607Y-78781226D01*
X163470522Y-78781226D01*
X163467388Y-78780466D01*
X163358219Y-78751512D01*
X163315081Y-78738150D01*
X161932310Y-78738150D01*
X161889752Y-78797122D01*
X161830519Y-78850965D01*
X161760680Y-78884607D01*
X161701094Y-78893038D01*
X161672619Y-78871247D01*
X161676186Y-78848428D01*
X161723630Y-78798231D01*
X161755153Y-78783978D01*
X161841643Y-78754902D01*
X161886148Y-78737739D01*
X161932091Y-78721608D01*
X161932310Y-78738150D01*
X163315081Y-78738150D01*
X163299720Y-78733392D01*
X163257824Y-78711838D01*
X163267529Y-78703715D01*
X162378572Y-78703715D01*
X162360429Y-78721857D01*
X162342286Y-78703715D01*
X162360429Y-78685572D01*
X162378572Y-78703715D01*
X163267529Y-78703715D01*
X163281611Y-78691930D01*
X163306510Y-78681777D01*
X163358468Y-78667429D01*
X162451143Y-78667429D01*
X162433000Y-78685572D01*
X162414857Y-78667429D01*
X162015715Y-78667429D01*
X161997572Y-78685572D01*
X161979429Y-78667429D01*
X161997572Y-78649286D01*
X162015715Y-78667429D01*
X162414857Y-78667429D01*
X162433000Y-78649286D01*
X162451143Y-78667429D01*
X163358468Y-78667429D01*
X163381949Y-78660945D01*
X163456858Y-78652310D01*
X163510109Y-78655972D01*
X163520576Y-78672031D01*
X163509871Y-78680823D01*
X163510625Y-78702631D01*
X163580471Y-78722909D01*
X163660998Y-78734650D01*
X163784742Y-78752190D01*
X163885777Y-78771743D01*
X163924046Y-78782585D01*
X163961740Y-78799930D01*
X164952876Y-78799930D01*
X164944540Y-78791965D01*
X164827666Y-78702341D01*
X164800496Y-78685805D01*
X164222662Y-78685805D01*
X164212118Y-78703764D01*
X164174715Y-78720525D01*
X164131675Y-78734598D01*
X164081037Y-78738247D01*
X164008916Y-78729329D01*
X163901427Y-78705704D01*
X163744685Y-78665229D01*
X163648572Y-78639375D01*
X163475196Y-78601499D01*
X163289039Y-78574748D01*
X163140572Y-78565244D01*
X163028212Y-78563734D01*
X162985678Y-78559423D01*
X163010260Y-78551740D01*
X163049857Y-78546067D01*
X163195000Y-78527370D01*
X163139741Y-78516238D01*
X162874476Y-78516238D01*
X162869495Y-78537810D01*
X162850286Y-78540429D01*
X162820419Y-78527153D01*
X162826095Y-78516238D01*
X162869158Y-78511896D01*
X162874476Y-78516238D01*
X163139741Y-78516238D01*
X163068000Y-78501786D01*
X163003105Y-78487506D01*
X163001820Y-78482378D01*
X163067787Y-78485259D01*
X163111326Y-78488222D01*
X163241923Y-78488721D01*
X163362443Y-78475421D01*
X163392727Y-78468387D01*
X163535785Y-78457452D01*
X163712259Y-78485848D01*
X163845935Y-78517111D01*
X163966183Y-78544626D01*
X164021984Y-78557004D01*
X164088053Y-78581686D01*
X164104035Y-78609939D01*
X164118278Y-78642359D01*
X164166051Y-78665418D01*
X164222662Y-78685805D01*
X164800496Y-78685805D01*
X164684662Y-78615308D01*
X164496823Y-78518497D01*
X164442366Y-78492133D01*
X164268604Y-78413429D01*
X163938857Y-78413429D01*
X163920715Y-78431572D01*
X163902572Y-78413429D01*
X163920715Y-78395286D01*
X163938857Y-78413429D01*
X164268604Y-78413429D01*
X164175142Y-78371096D01*
X163781619Y-78371096D01*
X163776638Y-78392667D01*
X163757429Y-78395286D01*
X163727562Y-78382010D01*
X163733238Y-78371096D01*
X163776301Y-78366753D01*
X163781619Y-78371096D01*
X164175142Y-78371096D01*
X164129284Y-78350325D01*
X163015977Y-78350325D01*
X162980310Y-78356136D01*
X162933247Y-78349464D01*
X162932685Y-78337078D01*
X162981249Y-78328416D01*
X163002232Y-78334213D01*
X163015977Y-78350325D01*
X164129284Y-78350325D01*
X164122523Y-78347263D01*
X163859090Y-78246686D01*
X163652376Y-78190508D01*
X163533129Y-78177572D01*
X163459575Y-78167631D01*
X163430857Y-78145186D01*
X163397847Y-78127796D01*
X163311897Y-78114866D01*
X163208483Y-78109671D01*
X163067163Y-78104408D01*
X162937789Y-78094152D01*
X162872742Y-78085273D01*
X162736055Y-78081578D01*
X162554141Y-78107888D01*
G37*
X162554141Y-78107888D02*
X162345549Y-78159575D01*
X162128824Y-78232009D01*
X161922515Y-78320561D01*
X161914756Y-78324365D01*
X161664291Y-78470230D01*
X161428182Y-78649519D01*
X161219265Y-78849518D01*
X161050377Y-79057513D01*
X160934355Y-79260790D01*
X160912405Y-79317115D01*
X160868303Y-79399818D01*
X160786893Y-79514539D01*
X160682322Y-79642119D01*
X160627672Y-79702710D01*
X160475446Y-79873668D01*
X160366939Y-80020665D01*
X160292933Y-80164560D01*
X160244209Y-80326208D01*
X160211547Y-80526466D01*
X160195120Y-80681286D01*
X160193338Y-80760731D01*
X160195713Y-80821800D01*
X160208089Y-80879777D01*
X160240403Y-80875030D01*
X160250339Y-80867294D01*
X160285124Y-80852365D01*
X160299934Y-80893685D01*
X160302341Y-80935423D01*
X160295409Y-81011751D01*
X160274398Y-81044135D01*
X160274000Y-81044143D01*
X160252695Y-81075587D01*
X160245612Y-81151177D01*
X160259339Y-81224318D01*
X160288152Y-81251028D01*
X160288542Y-81250963D01*
X160320700Y-81274885D01*
X160328429Y-81316286D01*
X160308039Y-81371906D01*
X160276929Y-81377739D01*
X160244575Y-81379067D01*
X160267500Y-81417299D01*
X160269620Y-81419865D01*
X160292980Y-81475315D01*
X160275762Y-81496626D01*
X160248329Y-81546539D01*
X160237714Y-81626856D01*
X160246656Y-81701939D01*
X160288775Y-81730053D01*
X160348957Y-81733572D01*
X160456194Y-81745931D01*
X160560289Y-81789453D01*
X160680125Y-81873799D01*
X160766692Y-81947365D01*
X160870063Y-82035726D01*
X160967144Y-82113742D01*
X161005917Y-82142585D01*
X161090106Y-82220462D01*
X161144315Y-82294987D01*
X161191467Y-82383090D01*
X161340519Y-82300398D01*
X161445275Y-82225646D01*
X161498334Y-82151004D01*
X161501167Y-82138925D01*
X161537569Y-82073528D01*
X161592879Y-82060143D01*
X161701280Y-82082668D01*
X161784571Y-82155659D01*
X161849494Y-82287239D01*
X161886526Y-82414070D01*
X161930371Y-82565306D01*
X161983595Y-82710514D01*
X162027015Y-82803453D01*
X162165906Y-82979701D01*
X162353857Y-83107293D01*
X162583880Y-83183674D01*
X162848991Y-83206291D01*
X163072387Y-83185505D01*
X163210255Y-83160374D01*
X163305868Y-83130843D01*
X163384486Y-83083326D01*
X163471370Y-83004238D01*
X163539715Y-82934174D01*
X163648472Y-82811871D01*
X163737285Y-82686630D01*
X163817977Y-82538484D01*
X163902374Y-82347466D01*
X163935087Y-82266507D01*
X163976394Y-82194830D01*
X164039382Y-82173300D01*
X164090375Y-82175792D01*
X164147840Y-82185692D01*
X164189363Y-82211320D01*
X164225038Y-82266997D01*
X164264953Y-82367041D01*
X164302943Y-82477429D01*
X164360785Y-82643978D01*
X164422217Y-82812942D01*
X164474897Y-82950452D01*
X164479591Y-82962113D01*
X164558381Y-83156511D01*
X164464487Y-83279613D01*
X164396030Y-83355979D01*
X164337543Y-83399133D01*
X164323563Y-83402715D01*
X164264258Y-83424876D01*
X164192857Y-83475286D01*
X164124202Y-83526876D01*
X164078448Y-83547857D01*
X164046103Y-83563055D01*
X164070601Y-83602133D01*
X164144489Y-83655316D01*
X164172407Y-83671077D01*
X164307469Y-83718655D01*
X164427993Y-83713673D01*
X164569148Y-83701790D01*
X164657859Y-83732728D01*
X164703004Y-83810496D01*
X164708960Y-83840617D01*
X164702882Y-83941452D01*
X164649658Y-84023909D01*
X164545409Y-84089061D01*
X164386252Y-84137982D01*
X164168308Y-84171746D01*
X163887695Y-84191425D01*
X163540533Y-84198094D01*
X163418283Y-84197684D01*
X163203247Y-84198493D01*
X163029661Y-84204165D01*
X162907351Y-84214143D01*
X162846149Y-84227868D01*
X162842687Y-84230371D01*
X162823610Y-84285225D01*
X162854421Y-84328134D01*
X162910822Y-84330678D01*
X162974199Y-84332341D01*
X163071686Y-84360426D01*
X163115795Y-84378524D01*
X163242184Y-84427906D01*
X163367407Y-84465691D01*
X163394572Y-84471743D01*
X163499554Y-84493869D01*
X163581524Y-84513599D01*
X163585072Y-84514583D01*
X163644086Y-84522619D01*
X163650513Y-84504371D01*
X163613899Y-84471049D01*
X163543792Y-84433864D01*
X163503429Y-84418715D01*
X163413963Y-84383284D01*
X163362878Y-84351611D01*
X163358286Y-84343218D01*
X163391011Y-84312076D01*
X163475496Y-84288657D01*
X163591205Y-84274366D01*
X163717602Y-84270608D01*
X163834151Y-84278788D01*
X163920316Y-84300311D01*
X163928338Y-84304228D01*
X164029826Y-84338434D01*
X164095315Y-84346143D01*
X164188057Y-84367291D01*
X164237688Y-84420147D01*
X164229851Y-84488828D01*
X164227623Y-84492503D01*
X164196165Y-84559238D01*
X164219815Y-84581103D01*
X164274500Y-84572311D01*
X164330692Y-84562375D01*
X164325945Y-84586786D01*
X164303413Y-84615523D01*
X164270847Y-84663082D01*
X164293455Y-84674331D01*
X164321556Y-84672066D01*
X164428149Y-84666357D01*
X164468404Y-84681535D01*
X164446170Y-84720037D01*
X164425932Y-84738146D01*
X164374044Y-84796364D01*
X164362123Y-84836724D01*
X164342351Y-84875258D01*
X164280718Y-84914458D01*
X164206489Y-84940585D01*
X164148929Y-84939900D01*
X164145868Y-84938242D01*
X164126949Y-84938862D01*
X164138215Y-84962655D01*
X164142918Y-84993666D01*
X164092068Y-84994960D01*
X164067194Y-84990661D01*
X163959184Y-84992126D01*
X163880660Y-85016322D01*
X163822191Y-85052502D01*
X163823938Y-85083987D01*
X163857503Y-85116484D01*
X163931380Y-85155404D01*
X164042248Y-85187696D01*
X164088172Y-85195907D01*
X164203339Y-85220036D01*
X164295016Y-85252263D01*
X164317159Y-85264969D01*
X164373858Y-85347463D01*
X164378350Y-85463770D01*
X164334417Y-85601529D01*
X164245840Y-85748378D01*
X164128972Y-85880117D01*
X164014596Y-85952953D01*
X163846607Y-86011875D01*
X163643505Y-86051115D01*
X163550382Y-86060473D01*
X163509600Y-86072027D01*
X163527984Y-86092204D01*
X163593506Y-86115562D01*
X163694137Y-86136659D01*
X163730255Y-86141847D01*
X163892012Y-86170955D01*
X164019893Y-86210027D01*
X164099969Y-86253860D01*
X164120286Y-86287504D01*
X164104323Y-86338288D01*
X164063427Y-86428448D01*
X164029764Y-86494338D01*
X163978629Y-86607323D01*
X163968284Y-86674791D01*
X163976811Y-86687603D01*
X163998739Y-86736633D01*
X163993475Y-86776691D01*
X164005396Y-86855087D01*
X164079376Y-86959476D01*
X164082713Y-86963153D01*
X164149852Y-87033038D01*
X164182392Y-87052177D01*
X164192424Y-87025382D01*
X164192857Y-87006969D01*
X164216609Y-86935480D01*
X164249586Y-86908425D01*
X164287865Y-86873598D01*
X164285280Y-86852621D01*
X164290879Y-86806529D01*
X164306862Y-86792247D01*
X164328087Y-86808359D01*
X164337246Y-86881194D01*
X164335657Y-86996150D01*
X164324637Y-87138622D01*
X164305504Y-87294008D01*
X164279575Y-87447704D01*
X164248169Y-87585107D01*
X164229817Y-87646142D01*
X164174735Y-87786890D01*
X164110985Y-87917097D01*
X164063706Y-87992453D01*
X163994692Y-88097345D01*
X163981491Y-88161343D01*
X164023984Y-88189793D01*
X164059231Y-88192429D01*
X164110607Y-88181437D01*
X164149883Y-88138040D01*
X164188265Y-88046602D01*
X164208806Y-87983786D01*
X164260343Y-87841004D01*
X164330773Y-87672552D01*
X164399744Y-87525396D01*
X164464085Y-87391424D01*
X164499412Y-87292349D01*
X164511757Y-87199519D01*
X164507151Y-87084282D01*
X164502854Y-87035539D01*
X164492930Y-86892257D01*
X164484769Y-86706273D01*
X164479536Y-86507455D01*
X164478337Y-86405615D01*
X164479330Y-86222614D01*
X164486341Y-86094825D01*
X164501801Y-86004980D01*
X164528140Y-85935808D01*
X164549821Y-85897615D01*
X164621594Y-85776977D01*
X164716779Y-85609309D01*
X164825789Y-85412219D01*
X164939039Y-85203314D01*
X165046946Y-85000202D01*
X165139924Y-84820490D01*
X165182632Y-84735141D01*
X165245260Y-84590746D01*
X165306268Y-84420781D01*
X165361170Y-84241908D01*
X165405480Y-84070788D01*
X165434712Y-83924083D01*
X165435271Y-83917972D01*
X165281429Y-83917972D01*
X165260682Y-83946399D01*
X165208078Y-83923910D01*
X165154429Y-83874429D01*
X165114221Y-83821544D01*
X165126635Y-83802804D01*
X165141548Y-83801857D01*
X165210927Y-83826209D01*
X165267699Y-83880084D01*
X165281429Y-83917972D01*
X165435271Y-83917972D01*
X165444380Y-83818455D01*
X165439168Y-83782345D01*
X165453271Y-83731355D01*
X165512685Y-83674546D01*
X165514440Y-83673385D01*
X165534430Y-83656715D01*
X165426572Y-83656715D01*
X165398959Y-83691946D01*
X165390286Y-83693000D01*
X165355055Y-83665388D01*
X165354000Y-83656715D01*
X165381613Y-83621483D01*
X165390286Y-83620429D01*
X165425517Y-83648041D01*
X165426572Y-83656715D01*
X165534430Y-83656715D01*
X165569686Y-83627316D01*
X165604980Y-83581958D01*
X165611243Y-83554334D01*
X165579398Y-83561466D01*
X165571715Y-83566000D01*
X165540973Y-83557384D01*
X165535429Y-83529715D01*
X165538341Y-83523667D01*
X165414476Y-83523667D01*
X165409495Y-83545239D01*
X165390286Y-83547857D01*
X165360419Y-83534581D01*
X165366095Y-83523667D01*
X165409158Y-83519324D01*
X165414476Y-83523667D01*
X165538341Y-83523667D01*
X165554347Y-83490425D01*
X165580786Y-83496611D01*
X165607487Y-83506557D01*
X165584372Y-83476939D01*
X165515013Y-83449046D01*
X165421087Y-83460319D01*
X165321885Y-83477799D01*
X165247688Y-83480963D01*
X165245143Y-83480619D01*
X165209404Y-83479240D01*
X165236474Y-83502934D01*
X165244092Y-83508086D01*
X165278356Y-83548714D01*
X165274455Y-83566927D01*
X165231968Y-83564878D01*
X165158943Y-83529221D01*
X165150054Y-83523543D01*
X165048668Y-83457143D01*
X165352803Y-83420857D01*
X165509375Y-83397124D01*
X165619204Y-83369968D01*
X165670161Y-83342491D01*
X165671779Y-83339215D01*
X165667020Y-83318024D01*
X165452914Y-83318024D01*
X165438384Y-83358540D01*
X165360460Y-83384545D01*
X165215308Y-83397208D01*
X165190714Y-83397950D01*
X165103603Y-83395434D01*
X165083925Y-83380776D01*
X165099127Y-83367737D01*
X165126398Y-83338379D01*
X165093428Y-83310454D01*
X165062841Y-83296976D01*
X165027120Y-83277680D01*
X165044185Y-83267774D01*
X165121452Y-83265750D01*
X165205977Y-83267898D01*
X165339404Y-83278648D01*
X165426725Y-83298696D01*
X165452914Y-83318024D01*
X165667020Y-83318024D01*
X165662556Y-83298154D01*
X165647310Y-83293857D01*
X165609668Y-83268008D01*
X165608000Y-83257572D01*
X165636963Y-83224449D01*
X165656854Y-83221286D01*
X165751196Y-83196785D01*
X165867409Y-83133568D01*
X165979038Y-83047061D01*
X166012221Y-83014040D01*
X166052259Y-82964167D01*
X166092769Y-82896682D01*
X166138389Y-82801120D01*
X166193757Y-82667015D01*
X166263513Y-82483902D01*
X166341391Y-82271409D01*
X166393588Y-82173985D01*
X166445887Y-82111571D01*
X166502452Y-82013379D01*
X166515143Y-81911852D01*
X166515143Y-81774808D01*
X166242873Y-81714233D01*
X166110888Y-81681848D01*
X166008972Y-81651180D01*
X165955866Y-81627999D01*
X165952828Y-81624899D01*
X165954599Y-81576380D01*
X165980499Y-81489715D01*
X165993716Y-81456212D01*
X166027060Y-81328752D01*
X166028475Y-81316290D01*
X165437762Y-81316290D01*
X165402022Y-81348574D01*
X165311019Y-81395262D01*
X165191541Y-81441281D01*
X165067332Y-81479343D01*
X164962134Y-81502161D01*
X164900109Y-81502613D01*
X164853385Y-81498026D01*
X164846000Y-81508683D01*
X164813629Y-81549791D01*
X164728624Y-81599383D01*
X164609149Y-81649994D01*
X164473367Y-81694162D01*
X164339443Y-81724420D01*
X164310786Y-81728631D01*
X164181513Y-81737652D01*
X164030433Y-81736969D01*
X163877685Y-81728112D01*
X163743411Y-81712612D01*
X163647750Y-81691999D01*
X163614938Y-81675747D01*
X163594358Y-81623783D01*
X163594143Y-81618317D01*
X163560158Y-81577600D01*
X163467334Y-81538154D01*
X163329365Y-81503557D01*
X163159946Y-81477388D01*
X163006163Y-81464677D01*
X162864207Y-81455363D01*
X162750115Y-81443916D01*
X162683404Y-81432421D01*
X162675736Y-81429395D01*
X162627318Y-81432691D01*
X162537759Y-81462754D01*
X162465430Y-81494682D01*
X162343147Y-81543858D01*
X162180942Y-81596268D01*
X162010250Y-81641930D01*
X161979429Y-81649025D01*
X161826432Y-81685835D01*
X161731962Y-81716878D01*
X161682912Y-81748013D01*
X161666176Y-81785099D01*
X161665786Y-81789211D01*
X161659420Y-81872693D01*
X161656714Y-81905929D01*
X161631656Y-81947463D01*
X161593752Y-81939979D01*
X161580286Y-81902262D01*
X161583477Y-81890810D01*
X161205334Y-81890810D01*
X161200353Y-81912382D01*
X161181143Y-81915000D01*
X161151276Y-81901724D01*
X161156953Y-81890810D01*
X161200015Y-81886467D01*
X161205334Y-81890810D01*
X161583477Y-81890810D01*
X161596431Y-81844323D01*
X161637842Y-81748656D01*
X161672891Y-81679072D01*
X161725551Y-81562010D01*
X161750629Y-81479156D01*
X161053886Y-81479156D01*
X161048046Y-81499776D01*
X161019742Y-81493417D01*
X160970720Y-81497009D01*
X160961908Y-81521047D01*
X160946885Y-81520284D01*
X160912198Y-81475762D01*
X160870812Y-81408541D01*
X160854013Y-81375601D01*
X160743164Y-81375601D01*
X160743151Y-81382378D01*
X160740588Y-81497715D01*
X160669822Y-81338211D01*
X160631350Y-81242558D01*
X160612830Y-81178069D01*
X160613636Y-81164126D01*
X160649807Y-81166708D01*
X160692111Y-81217407D01*
X160727560Y-81294334D01*
X160743164Y-81375601D01*
X160854013Y-81375601D01*
X160835694Y-81339684D01*
X160819809Y-81290254D01*
X160819807Y-81290211D01*
X160845334Y-81278056D01*
X160872714Y-81285021D01*
X160918607Y-81334505D01*
X160927143Y-81374597D01*
X160949992Y-81431284D01*
X160979430Y-81443286D01*
X161041031Y-81465131D01*
X161053886Y-81479156D01*
X161750629Y-81479156D01*
X161757892Y-81455164D01*
X161763007Y-81410596D01*
X161760057Y-81305684D01*
X161755301Y-81144422D01*
X161751729Y-81025749D01*
X160954300Y-81025749D01*
X160942694Y-81095980D01*
X160919696Y-81159905D01*
X160900285Y-81174523D01*
X160894803Y-81129925D01*
X160899983Y-81098572D01*
X160673143Y-81098572D01*
X160655000Y-81116715D01*
X160636857Y-81098572D01*
X160655000Y-81080429D01*
X160673143Y-81098572D01*
X160899983Y-81098572D01*
X160906408Y-81059694D01*
X160929406Y-80995769D01*
X160948818Y-80981151D01*
X160954300Y-81025749D01*
X161751729Y-81025749D01*
X161749237Y-80942996D01*
X161744759Y-80796191D01*
X161435143Y-80796191D01*
X161425910Y-80931152D01*
X161397690Y-80998575D01*
X161374320Y-81007857D01*
X161369630Y-80975526D01*
X161371314Y-80917143D01*
X161290000Y-80917143D01*
X161271857Y-80935286D01*
X161253715Y-80917143D01*
X161271857Y-80899000D01*
X161290000Y-80917143D01*
X161371314Y-80917143D01*
X161371993Y-80893626D01*
X161374200Y-80862715D01*
X160890857Y-80862715D01*
X160877581Y-80892582D01*
X160866667Y-80886905D01*
X160862324Y-80843842D01*
X160866667Y-80838524D01*
X160888239Y-80843505D01*
X160890857Y-80862715D01*
X161374200Y-80862715D01*
X161375587Y-80843305D01*
X161380013Y-80808286D01*
X161108572Y-80808286D01*
X161090429Y-80826429D01*
X161072286Y-80808286D01*
X161090429Y-80790143D01*
X161108572Y-80808286D01*
X161380013Y-80808286D01*
X161383161Y-80783375D01*
X160540704Y-80783375D01*
X160534944Y-80848038D01*
X160534368Y-80850892D01*
X160517490Y-80912082D01*
X160503903Y-80904610D01*
X160499185Y-80886075D01*
X160503761Y-80812104D01*
X160520091Y-80783538D01*
X160540704Y-80783375D01*
X161383161Y-80783375D01*
X161390607Y-80724469D01*
X161392996Y-80716433D01*
X160963429Y-80716433D01*
X160936831Y-80736398D01*
X160909000Y-80730694D01*
X160861257Y-80704939D01*
X160854572Y-80695547D01*
X160884202Y-80682862D01*
X160909000Y-80681286D01*
X160957297Y-80700276D01*
X160963429Y-80716433D01*
X161392996Y-80716433D01*
X161408206Y-80665283D01*
X161424065Y-80669166D01*
X161433862Y-80739536D01*
X161435143Y-80796191D01*
X161744759Y-80796191D01*
X161742361Y-80717591D01*
X161737234Y-80551262D01*
X161432278Y-80551262D01*
X161425607Y-80598325D01*
X161413220Y-80598887D01*
X161411737Y-80590572D01*
X160346572Y-80590572D01*
X160328429Y-80608715D01*
X160310286Y-80590572D01*
X160328429Y-80572429D01*
X160346572Y-80590572D01*
X161411737Y-80590572D01*
X161404558Y-80550323D01*
X161410356Y-80529340D01*
X161426468Y-80515595D01*
X161432278Y-80551262D01*
X161737234Y-80551262D01*
X161735172Y-80484392D01*
X161728166Y-80259586D01*
X161721840Y-80059356D01*
X161716693Y-79899889D01*
X161715356Y-79859540D01*
X161702103Y-79656598D01*
X161678367Y-79521946D01*
X161652714Y-79465542D01*
X161621827Y-79412773D01*
X161647422Y-79370738D01*
X161672370Y-79351355D01*
X161766555Y-79301536D01*
X161834286Y-79279761D01*
X161944849Y-79252466D01*
X162015715Y-79232203D01*
X162116896Y-79214934D01*
X162233090Y-79212710D01*
X162233429Y-79212733D01*
X162348075Y-79220022D01*
X162446102Y-79225560D01*
X162446515Y-79225580D01*
X162504874Y-79235795D01*
X162500939Y-79266771D01*
X162487429Y-79284286D01*
X162464298Y-79325589D01*
X162501319Y-79338309D01*
X162522295Y-79338715D01*
X162580831Y-79355108D01*
X162586819Y-79384072D01*
X162607646Y-79425301D01*
X162682326Y-79473861D01*
X162719867Y-79490902D01*
X162794312Y-79527014D01*
X162817576Y-79550154D01*
X162804929Y-79554402D01*
X162751042Y-79565738D01*
X162754117Y-79590204D01*
X162801117Y-79621786D01*
X162879003Y-79654474D01*
X162974735Y-79682253D01*
X163075276Y-79699114D01*
X163124111Y-79701572D01*
X163180165Y-79705545D01*
X163255718Y-79719451D01*
X163362325Y-79746270D01*
X163511539Y-79788985D01*
X163714915Y-79850574D01*
X163782779Y-79871496D01*
X163891101Y-79911862D01*
X163967270Y-79953087D01*
X163988882Y-79975322D01*
X164032010Y-80014818D01*
X164117552Y-80056529D01*
X164144960Y-80066281D01*
X164266655Y-80121049D01*
X164399498Y-80204067D01*
X164528217Y-80302614D01*
X164637542Y-80403965D01*
X164712201Y-80495397D01*
X164737143Y-80559668D01*
X164758582Y-80604396D01*
X164773429Y-80608715D01*
X164806310Y-80637794D01*
X164809714Y-80658996D01*
X164836101Y-80757258D01*
X164903426Y-80869207D01*
X164993936Y-80965844D01*
X165001105Y-80971620D01*
X165076818Y-81019548D01*
X165142719Y-81019929D01*
X165191943Y-81000695D01*
X165267305Y-80975508D01*
X165314775Y-80995075D01*
X165339832Y-81025300D01*
X165381087Y-81116503D01*
X165390286Y-81175937D01*
X165405871Y-81250776D01*
X165429237Y-81281647D01*
X165437762Y-81316290D01*
X166028475Y-81316290D01*
X166047354Y-81150125D01*
X166055183Y-80939263D01*
X166051133Y-80715100D01*
X166035792Y-80496568D01*
X166009745Y-80302597D01*
X165973579Y-80152121D01*
X165951671Y-80098697D01*
X165814396Y-79862615D01*
X165635245Y-79598787D01*
X165626224Y-79586898D01*
X164335982Y-79586898D01*
X164320441Y-79586736D01*
X164311637Y-79584039D01*
X163596548Y-79584039D01*
X163560881Y-79589850D01*
X163513818Y-79583179D01*
X163513256Y-79570792D01*
X163561821Y-79562130D01*
X163582804Y-79567927D01*
X163596548Y-79584039D01*
X164311637Y-79584039D01*
X164289675Y-79577312D01*
X164210113Y-79559275D01*
X164178682Y-79556429D01*
X164116765Y-79536049D01*
X164063721Y-79503170D01*
X164022754Y-79469131D01*
X164035843Y-79463433D01*
X164108539Y-79481727D01*
X164211502Y-79517502D01*
X164289968Y-79555868D01*
X164335982Y-79586898D01*
X165626224Y-79586898D01*
X165525208Y-79453777D01*
X163853945Y-79453777D01*
X163843803Y-79474384D01*
X163830000Y-79483857D01*
X163754104Y-79510344D01*
X163671343Y-79519588D01*
X163602306Y-79514522D01*
X163594020Y-79491290D01*
X163612286Y-79465715D01*
X163629311Y-79434304D01*
X163605175Y-79417578D01*
X163527406Y-79410886D01*
X163462515Y-79409833D01*
X163267572Y-79408380D01*
X163375764Y-79349841D01*
X163477819Y-79310949D01*
X163584778Y-79294794D01*
X163680234Y-79299362D01*
X163747780Y-79322639D01*
X163771008Y-79362610D01*
X163754748Y-79396374D01*
X163735585Y-79434690D01*
X163775768Y-79447525D01*
X163798343Y-79448127D01*
X163853945Y-79453777D01*
X165525208Y-79453777D01*
X165428142Y-79325862D01*
X165428031Y-79325729D01*
X164177055Y-79325729D01*
X164134947Y-79323393D01*
X164102143Y-79316569D01*
X164020866Y-79295556D01*
X163978184Y-79279196D01*
X163978167Y-79279182D01*
X163982523Y-79265376D01*
X164030384Y-79266762D01*
X164095184Y-79279632D01*
X164150361Y-79300276D01*
X164156572Y-79304087D01*
X164177055Y-79325729D01*
X165428031Y-79325729D01*
X165411986Y-79306619D01*
X164410572Y-79306619D01*
X164385435Y-79315852D01*
X164339650Y-79295039D01*
X164289013Y-79256684D01*
X164281334Y-79241953D01*
X162693048Y-79241953D01*
X162688067Y-79263525D01*
X162668857Y-79266143D01*
X162638990Y-79252867D01*
X162644667Y-79241953D01*
X162687730Y-79237610D01*
X162693048Y-79241953D01*
X164281334Y-79241953D01*
X164280028Y-79239448D01*
X164321391Y-79239411D01*
X164377843Y-79267347D01*
X164410172Y-79303081D01*
X164410572Y-79306619D01*
X165411986Y-79306619D01*
X165332305Y-79211715D01*
X164410572Y-79211715D01*
X164392429Y-79229857D01*
X164374286Y-79211715D01*
X164392429Y-79193572D01*
X164410572Y-79211715D01*
X165332305Y-79211715D01*
X165315088Y-79191209D01*
X164329104Y-79191209D01*
X164324140Y-79193572D01*
X164311647Y-79183934D01*
X164065857Y-79183934D01*
X163884429Y-79170159D01*
X163784117Y-79165419D01*
X163750538Y-79172386D01*
X163775572Y-79190570D01*
X163792543Y-79208220D01*
X163748304Y-79218277D01*
X163638205Y-79221449D01*
X163576000Y-79220968D01*
X163465138Y-79217778D01*
X163415784Y-79212573D01*
X163432565Y-79206046D01*
X163458072Y-79203289D01*
X163548645Y-79186287D01*
X163604382Y-79160525D01*
X163614732Y-79135637D01*
X163569146Y-79121260D01*
X163548786Y-79120445D01*
X163463326Y-79099507D01*
X163430857Y-79081812D01*
X163425249Y-79061422D01*
X163474335Y-79053083D01*
X163561518Y-79055267D01*
X163670202Y-79066446D01*
X163783790Y-79085092D01*
X163885687Y-79109677D01*
X163938857Y-79128582D01*
X164065857Y-79183934D01*
X164311647Y-79183934D01*
X164291027Y-79168027D01*
X164283572Y-79157286D01*
X164274325Y-79123363D01*
X164279289Y-79121000D01*
X164312402Y-79146545D01*
X164319857Y-79157286D01*
X164329104Y-79191209D01*
X165315088Y-79191209D01*
X165244851Y-79107554D01*
X164178845Y-79107554D01*
X164161952Y-79119666D01*
X164160484Y-79119715D01*
X164102635Y-79110356D01*
X163997279Y-79084494D01*
X163866104Y-79047504D01*
X163852055Y-79043295D01*
X163718464Y-78997232D01*
X163652858Y-78963010D01*
X163654845Y-78944995D01*
X163724030Y-78947549D01*
X163858253Y-78974606D01*
X163967009Y-79006298D01*
X164066565Y-79043759D01*
X164142113Y-79079881D01*
X164178845Y-79107554D01*
X165244851Y-79107554D01*
X165207015Y-79062491D01*
X165053986Y-78896547D01*
X165042052Y-78885143D01*
X163648572Y-78885143D01*
X163630429Y-78903286D01*
X163612286Y-78885143D01*
X163630429Y-78867000D01*
X163648572Y-78885143D01*
X165042052Y-78885143D01*
X164952876Y-78799930D01*
X163961740Y-78799930D01*
X163957547Y-78816289D01*
X163901275Y-78841750D01*
X163841323Y-78864450D01*
X163805415Y-78858208D01*
X163717882Y-78839393D01*
X163598676Y-78812308D01*
X163470522Y-78781226D01*
X162014607Y-78781226D01*
X162004591Y-78809949D01*
X161956422Y-78844876D01*
X161899519Y-78865747D01*
X161890851Y-78866445D01*
X161888945Y-78849661D01*
X161927079Y-78815539D01*
X161987131Y-78782279D01*
X162014607Y-78781226D01*
X163470522Y-78781226D01*
X163467388Y-78780466D01*
X163358219Y-78751512D01*
X163315081Y-78738150D01*
X161932310Y-78738150D01*
X161889752Y-78797122D01*
X161830519Y-78850965D01*
X161760680Y-78884607D01*
X161701094Y-78893038D01*
X161672619Y-78871247D01*
X161676186Y-78848428D01*
X161723630Y-78798231D01*
X161755153Y-78783978D01*
X161841643Y-78754902D01*
X161886148Y-78737739D01*
X161932091Y-78721608D01*
X161932310Y-78738150D01*
X163315081Y-78738150D01*
X163299720Y-78733392D01*
X163257824Y-78711838D01*
X163267529Y-78703715D01*
X162378572Y-78703715D01*
X162360429Y-78721857D01*
X162342286Y-78703715D01*
X162360429Y-78685572D01*
X162378572Y-78703715D01*
X163267529Y-78703715D01*
X163281611Y-78691930D01*
X163306510Y-78681777D01*
X163358468Y-78667429D01*
X162451143Y-78667429D01*
X162433000Y-78685572D01*
X162414857Y-78667429D01*
X162015715Y-78667429D01*
X161997572Y-78685572D01*
X161979429Y-78667429D01*
X161997572Y-78649286D01*
X162015715Y-78667429D01*
X162414857Y-78667429D01*
X162433000Y-78649286D01*
X162451143Y-78667429D01*
X163358468Y-78667429D01*
X163381949Y-78660945D01*
X163456858Y-78652310D01*
X163510109Y-78655972D01*
X163520576Y-78672031D01*
X163509871Y-78680823D01*
X163510625Y-78702631D01*
X163580471Y-78722909D01*
X163660998Y-78734650D01*
X163784742Y-78752190D01*
X163885777Y-78771743D01*
X163924046Y-78782585D01*
X163961740Y-78799930D01*
X164952876Y-78799930D01*
X164944540Y-78791965D01*
X164827666Y-78702341D01*
X164800496Y-78685805D01*
X164222662Y-78685805D01*
X164212118Y-78703764D01*
X164174715Y-78720525D01*
X164131675Y-78734598D01*
X164081037Y-78738247D01*
X164008916Y-78729329D01*
X163901427Y-78705704D01*
X163744685Y-78665229D01*
X163648572Y-78639375D01*
X163475196Y-78601499D01*
X163289039Y-78574748D01*
X163140572Y-78565244D01*
X163028212Y-78563734D01*
X162985678Y-78559423D01*
X163010260Y-78551740D01*
X163049857Y-78546067D01*
X163195000Y-78527370D01*
X163139741Y-78516238D01*
X162874476Y-78516238D01*
X162869495Y-78537810D01*
X162850286Y-78540429D01*
X162820419Y-78527153D01*
X162826095Y-78516238D01*
X162869158Y-78511896D01*
X162874476Y-78516238D01*
X163139741Y-78516238D01*
X163068000Y-78501786D01*
X163003105Y-78487506D01*
X163001820Y-78482378D01*
X163067787Y-78485259D01*
X163111326Y-78488222D01*
X163241923Y-78488721D01*
X163362443Y-78475421D01*
X163392727Y-78468387D01*
X163535785Y-78457452D01*
X163712259Y-78485848D01*
X163845935Y-78517111D01*
X163966183Y-78544626D01*
X164021984Y-78557004D01*
X164088053Y-78581686D01*
X164104035Y-78609939D01*
X164118278Y-78642359D01*
X164166051Y-78665418D01*
X164222662Y-78685805D01*
X164800496Y-78685805D01*
X164684662Y-78615308D01*
X164496823Y-78518497D01*
X164442366Y-78492133D01*
X164268604Y-78413429D01*
X163938857Y-78413429D01*
X163920715Y-78431572D01*
X163902572Y-78413429D01*
X163920715Y-78395286D01*
X163938857Y-78413429D01*
X164268604Y-78413429D01*
X164175142Y-78371096D01*
X163781619Y-78371096D01*
X163776638Y-78392667D01*
X163757429Y-78395286D01*
X163727562Y-78382010D01*
X163733238Y-78371096D01*
X163776301Y-78366753D01*
X163781619Y-78371096D01*
X164175142Y-78371096D01*
X164129284Y-78350325D01*
X163015977Y-78350325D01*
X162980310Y-78356136D01*
X162933247Y-78349464D01*
X162932685Y-78337078D01*
X162981249Y-78328416D01*
X163002232Y-78334213D01*
X163015977Y-78350325D01*
X164129284Y-78350325D01*
X164122523Y-78347263D01*
X163859090Y-78246686D01*
X163652376Y-78190508D01*
X163533129Y-78177572D01*
X163459575Y-78167631D01*
X163430857Y-78145186D01*
X163397847Y-78127796D01*
X163311897Y-78114866D01*
X163208483Y-78109671D01*
X163067163Y-78104408D01*
X162937789Y-78094152D01*
X162872742Y-78085273D01*
X162736055Y-78081578D01*
X162554141Y-78107888D01*
G36*
X159258000Y-88283143D02*
G01*
X159276143Y-88301286D01*
X159294286Y-88283143D01*
X159276143Y-88265000D01*
X159258000Y-88283143D01*
G37*
X159258000Y-88283143D02*
X159276143Y-88301286D01*
X159294286Y-88283143D01*
X159276143Y-88265000D01*
X159258000Y-88283143D01*
G36*
X160468105Y-88220481D02*
G01*
X160455429Y-88250255D01*
X160474393Y-88296507D01*
X160533227Y-88284064D01*
X160558282Y-88269479D01*
X160580359Y-88241757D01*
X160535561Y-88220200D01*
X160531068Y-88219003D01*
X160468105Y-88220481D01*
G37*
X160468105Y-88220481D02*
X160455429Y-88250255D01*
X160474393Y-88296507D01*
X160533227Y-88284064D01*
X160558282Y-88269479D01*
X160580359Y-88241757D01*
X160535561Y-88220200D01*
X160531068Y-88219003D01*
X160468105Y-88220481D01*
G36*
X161945939Y-88212230D02*
G01*
X161943143Y-88224432D01*
X161969623Y-88275728D01*
X161979429Y-88283143D01*
X162012919Y-88281485D01*
X162015715Y-88269283D01*
X161989235Y-88217987D01*
X161979429Y-88210572D01*
X161945939Y-88212230D01*
G37*
X161945939Y-88212230D02*
X161943143Y-88224432D01*
X161969623Y-88275728D01*
X161979429Y-88283143D01*
X162012919Y-88281485D01*
X162015715Y-88269283D01*
X161989235Y-88217987D01*
X161979429Y-88210572D01*
X161945939Y-88212230D01*
G36*
X160455429Y-88392000D02*
G01*
X160473572Y-88410143D01*
X160491714Y-88392000D01*
X160473572Y-88373858D01*
X160455429Y-88392000D01*
G37*
X160455429Y-88392000D02*
X160473572Y-88410143D01*
X160491714Y-88392000D01*
X160473572Y-88373858D01*
X160455429Y-88392000D01*
G36*
X158689524Y-88458524D02*
G01*
X158694505Y-88480096D01*
X158713715Y-88482715D01*
X158743582Y-88469438D01*
X158737905Y-88458524D01*
X158694842Y-88454181D01*
X158689524Y-88458524D01*
G37*
X158689524Y-88458524D02*
X158694505Y-88480096D01*
X158713715Y-88482715D01*
X158743582Y-88469438D01*
X158737905Y-88458524D01*
X158694842Y-88454181D01*
X158689524Y-88458524D01*
G36*
X164375679Y-88383335D02*
G01*
X164414011Y-88426502D01*
X164444472Y-88445152D01*
X164521133Y-88479052D01*
X164552712Y-88470446D01*
X164555714Y-88452253D01*
X164526432Y-88416548D01*
X164465000Y-88380460D01*
X164394447Y-88362403D01*
X164375679Y-88383335D01*
G37*
X164375679Y-88383335D02*
X164414011Y-88426502D01*
X164444472Y-88445152D01*
X164521133Y-88479052D01*
X164552712Y-88470446D01*
X164555714Y-88452253D01*
X164526432Y-88416548D01*
X164465000Y-88380460D01*
X164394447Y-88362403D01*
X164375679Y-88383335D01*
G36*
X162100381Y-88458524D02*
G01*
X162096038Y-88501587D01*
X162100381Y-88506905D01*
X162121953Y-88501924D01*
X162124572Y-88482715D01*
X162111295Y-88452847D01*
X162100381Y-88458524D01*
G37*
X162100381Y-88458524D02*
X162096038Y-88501587D01*
X162100381Y-88506905D01*
X162121953Y-88501924D01*
X162124572Y-88482715D01*
X162111295Y-88452847D01*
X162100381Y-88458524D01*
G36*
X162052000Y-88573429D02*
G01*
X162070143Y-88591572D01*
X162088286Y-88573429D01*
X162070143Y-88555286D01*
X162052000Y-88573429D01*
G37*
X162052000Y-88573429D02*
X162070143Y-88591572D01*
X162088286Y-88573429D01*
X162070143Y-88555286D01*
X162052000Y-88573429D01*
G36*
X158876748Y-88380157D02*
G01*
X158866244Y-88431215D01*
X158881141Y-88510366D01*
X158911581Y-88586047D01*
X158947707Y-88626697D01*
X158954107Y-88627857D01*
X159001512Y-88622455D01*
X159007024Y-88618786D01*
X159012834Y-88580216D01*
X159019302Y-88525374D01*
X159014448Y-88464099D01*
X158971304Y-88456226D01*
X158961849Y-88458476D01*
X158905751Y-88452072D01*
X158895143Y-88418841D01*
X158886124Y-88378806D01*
X158876748Y-88380157D01*
G37*
X158876748Y-88380157D02*
X158866244Y-88431215D01*
X158881141Y-88510366D01*
X158911581Y-88586047D01*
X158947707Y-88626697D01*
X158954107Y-88627857D01*
X159001512Y-88622455D01*
X159007024Y-88618786D01*
X159012834Y-88580216D01*
X159019302Y-88525374D01*
X159014448Y-88464099D01*
X158971304Y-88456226D01*
X158961849Y-88458476D01*
X158905751Y-88452072D01*
X158895143Y-88418841D01*
X158886124Y-88378806D01*
X158876748Y-88380157D01*
G36*
X161276092Y-88531762D02*
G01*
X161299856Y-88597750D01*
X161329414Y-88641735D01*
X161403005Y-88718125D01*
X161450992Y-88729453D01*
X161470985Y-88675416D01*
X161471429Y-88659700D01*
X161479919Y-88607592D01*
X161513975Y-88618252D01*
X161522627Y-88625176D01*
X161574210Y-88648322D01*
X161598832Y-88627205D01*
X161612568Y-88584375D01*
X161577871Y-88559602D01*
X161485307Y-88544277D01*
X161393588Y-88527587D01*
X161336224Y-88506999D01*
X161288499Y-88495886D01*
X161276092Y-88531762D01*
G37*
X161276092Y-88531762D02*
X161299856Y-88597750D01*
X161329414Y-88641735D01*
X161403005Y-88718125D01*
X161450992Y-88729453D01*
X161470985Y-88675416D01*
X161471429Y-88659700D01*
X161479919Y-88607592D01*
X161513975Y-88618252D01*
X161522627Y-88625176D01*
X161574210Y-88648322D01*
X161598832Y-88627205D01*
X161612568Y-88584375D01*
X161577871Y-88559602D01*
X161485307Y-88544277D01*
X161393588Y-88527587D01*
X161336224Y-88506999D01*
X161288499Y-88495886D01*
X161276092Y-88531762D01*
G36*
X161227256Y-88751078D02*
G01*
X161238078Y-88767570D01*
X161274881Y-88770136D01*
X161313599Y-88761274D01*
X161296804Y-88748213D01*
X161240094Y-88743887D01*
X161227256Y-88751078D01*
G37*
X161227256Y-88751078D02*
X161238078Y-88767570D01*
X161274881Y-88770136D01*
X161313599Y-88761274D01*
X161296804Y-88748213D01*
X161240094Y-88743887D01*
X161227256Y-88751078D01*
G36*
X161918953Y-88712524D02*
G01*
X161914610Y-88755587D01*
X161918953Y-88760905D01*
X161940524Y-88755924D01*
X161943143Y-88736715D01*
X161929867Y-88706847D01*
X161918953Y-88712524D01*
G37*
X161918953Y-88712524D02*
X161914610Y-88755587D01*
X161918953Y-88760905D01*
X161940524Y-88755924D01*
X161943143Y-88736715D01*
X161929867Y-88706847D01*
X161918953Y-88712524D01*
G36*
X160941928Y-88618451D02*
G01*
X160935239Y-88679576D01*
X160956788Y-88741561D01*
X160989151Y-88746928D01*
X161030929Y-88752942D01*
X161036000Y-88769118D01*
X161061389Y-88807424D01*
X161072286Y-88809286D01*
X161107517Y-88781674D01*
X161108572Y-88773000D01*
X161080959Y-88737769D01*
X161072286Y-88736715D01*
X161039449Y-88707614D01*
X161036000Y-88686168D01*
X161006753Y-88630035D01*
X160982089Y-88614934D01*
X160941928Y-88618451D01*
G37*
X160941928Y-88618451D02*
X160935239Y-88679576D01*
X160956788Y-88741561D01*
X160989151Y-88746928D01*
X161030929Y-88752942D01*
X161036000Y-88769118D01*
X161061389Y-88807424D01*
X161072286Y-88809286D01*
X161107517Y-88781674D01*
X161108572Y-88773000D01*
X161080959Y-88737769D01*
X161072286Y-88736715D01*
X161039449Y-88707614D01*
X161036000Y-88686168D01*
X161006753Y-88630035D01*
X160982089Y-88614934D01*
X160941928Y-88618451D01*
G36*
X158365587Y-88826877D02*
G01*
X158369000Y-88845572D01*
X158415390Y-88880473D01*
X158425570Y-88881857D01*
X158458737Y-88854181D01*
X158459715Y-88845572D01*
X158430179Y-88813727D01*
X158403144Y-88809286D01*
X158365587Y-88826877D01*
G37*
X158365587Y-88826877D02*
X158369000Y-88845572D01*
X158415390Y-88880473D01*
X158425570Y-88881857D01*
X158458737Y-88854181D01*
X158459715Y-88845572D01*
X158430179Y-88813727D01*
X158403144Y-88809286D01*
X158365587Y-88826877D01*
G36*
X161787052Y-88833094D02*
G01*
X161826518Y-88868631D01*
X161887169Y-88881680D01*
X161934832Y-88868584D01*
X161943143Y-88849802D01*
X161912244Y-88819488D01*
X161855741Y-88801038D01*
X161792758Y-88799545D01*
X161787052Y-88833094D01*
G37*
X161787052Y-88833094D02*
X161826518Y-88868631D01*
X161887169Y-88881680D01*
X161934832Y-88868584D01*
X161943143Y-88849802D01*
X161912244Y-88819488D01*
X161855741Y-88801038D01*
X161792758Y-88799545D01*
X161787052Y-88833094D01*
G36*
X161761715Y-89008857D02*
G01*
X161779857Y-89027000D01*
X161798000Y-89008857D01*
X161779857Y-88990715D01*
X161761715Y-89008857D01*
G37*
X161761715Y-89008857D02*
X161779857Y-89027000D01*
X161798000Y-89008857D01*
X161779857Y-88990715D01*
X161761715Y-89008857D01*
G36*
X162354381Y-89002810D02*
G01*
X162359362Y-89024382D01*
X162378572Y-89027000D01*
X162408439Y-89013724D01*
X162402762Y-89002810D01*
X162359699Y-88998467D01*
X162354381Y-89002810D01*
G37*
X162354381Y-89002810D02*
X162359362Y-89024382D01*
X162378572Y-89027000D01*
X162408439Y-89013724D01*
X162402762Y-89002810D01*
X162359699Y-88998467D01*
X162354381Y-89002810D01*
G36*
X158332971Y-89027416D02*
G01*
X158371781Y-89057496D01*
X158413372Y-89062543D01*
X158423429Y-89049025D01*
X158394966Y-89025721D01*
X158367116Y-89013155D01*
X158329659Y-89010619D01*
X158332971Y-89027416D01*
G37*
X158332971Y-89027416D02*
X158371781Y-89057496D01*
X158413372Y-89062543D01*
X158423429Y-89049025D01*
X158394966Y-89025721D01*
X158367116Y-89013155D01*
X158329659Y-89010619D01*
X158332971Y-89027416D01*
G36*
X161810095Y-89111667D02*
G01*
X161815076Y-89133239D01*
X161834286Y-89135857D01*
X161864153Y-89122581D01*
X161858476Y-89111667D01*
X161815414Y-89107324D01*
X161810095Y-89111667D01*
G37*
X161810095Y-89111667D02*
X161815076Y-89133239D01*
X161834286Y-89135857D01*
X161864153Y-89122581D01*
X161858476Y-89111667D01*
X161815414Y-89107324D01*
X161810095Y-89111667D01*
G36*
X162241734Y-88687771D02*
G01*
X162230029Y-88707993D01*
X162173898Y-88751327D01*
X162135455Y-88747051D01*
X162093437Y-88742713D01*
X162099999Y-88787472D01*
X162103791Y-88869856D01*
X162086879Y-88920772D01*
X162068351Y-88975098D01*
X162100916Y-88990636D01*
X162106321Y-88990715D01*
X162163108Y-89020800D01*
X162190642Y-89064909D01*
X162221630Y-89112985D01*
X162243901Y-89113290D01*
X162269423Y-89053832D01*
X162259766Y-88989319D01*
X162221256Y-88954875D01*
X162215286Y-88954429D01*
X162166361Y-88936408D01*
X162175408Y-88890850D01*
X162238199Y-88831800D01*
X162293815Y-88766488D01*
X162290187Y-88711814D01*
X162266617Y-88666226D01*
X162241734Y-88687771D01*
G37*
X162241734Y-88687771D02*
X162230029Y-88707993D01*
X162173898Y-88751327D01*
X162135455Y-88747051D01*
X162093437Y-88742713D01*
X162099999Y-88787472D01*
X162103791Y-88869856D01*
X162086879Y-88920772D01*
X162068351Y-88975098D01*
X162100916Y-88990636D01*
X162106321Y-88990715D01*
X162163108Y-89020800D01*
X162190642Y-89064909D01*
X162221630Y-89112985D01*
X162243901Y-89113290D01*
X162269423Y-89053832D01*
X162259766Y-88989319D01*
X162221256Y-88954875D01*
X162215286Y-88954429D01*
X162166361Y-88936408D01*
X162175408Y-88890850D01*
X162238199Y-88831800D01*
X162293815Y-88766488D01*
X162290187Y-88711814D01*
X162266617Y-88666226D01*
X162241734Y-88687771D01*
G36*
X158232929Y-89177284D02*
G01*
X158178528Y-89211495D01*
X158187602Y-89228025D01*
X158264408Y-89232599D01*
X158274067Y-89232619D01*
X158342651Y-89226063D01*
X158348735Y-89202077D01*
X158337567Y-89188103D01*
X158273071Y-89163386D01*
X158232929Y-89177284D01*
G37*
X158232929Y-89177284D02*
X158178528Y-89211495D01*
X158187602Y-89228025D01*
X158264408Y-89232599D01*
X158274067Y-89232619D01*
X158342651Y-89226063D01*
X158348735Y-89202077D01*
X158337567Y-89188103D01*
X158273071Y-89163386D01*
X158232929Y-89177284D01*
G36*
X161725429Y-89226572D02*
G01*
X161743572Y-89244715D01*
X161761715Y-89226572D01*
X161743572Y-89208429D01*
X161725429Y-89226572D01*
G37*
X161725429Y-89226572D02*
X161743572Y-89244715D01*
X161761715Y-89226572D01*
X161743572Y-89208429D01*
X161725429Y-89226572D01*
G36*
X161961832Y-89064560D02*
G01*
X161904832Y-89109114D01*
X161892046Y-89130141D01*
X161860895Y-89209509D01*
X161849382Y-89235643D01*
X161844800Y-89279094D01*
X161879273Y-89284834D01*
X161934719Y-89259893D01*
X161993056Y-89211303D01*
X162025919Y-89166999D01*
X162065403Y-89089618D01*
X162079790Y-89044581D01*
X162078763Y-89041668D01*
X162030850Y-89036847D01*
X161961832Y-89064560D01*
G37*
X161961832Y-89064560D02*
X161904832Y-89109114D01*
X161892046Y-89130141D01*
X161860895Y-89209509D01*
X161849382Y-89235643D01*
X161844800Y-89279094D01*
X161879273Y-89284834D01*
X161934719Y-89259893D01*
X161993056Y-89211303D01*
X162025919Y-89166999D01*
X162065403Y-89089618D01*
X162079790Y-89044581D01*
X162078763Y-89041668D01*
X162030850Y-89036847D01*
X161961832Y-89064560D01*
G36*
X158024286Y-89299143D02*
G01*
X158042429Y-89317286D01*
X158060572Y-89299143D01*
X158042429Y-89281000D01*
X158024286Y-89299143D01*
G37*
X158024286Y-89299143D02*
X158042429Y-89317286D01*
X158060572Y-89299143D01*
X158042429Y-89281000D01*
X158024286Y-89299143D01*
G36*
X161480500Y-89328559D02*
G01*
X161469207Y-89339076D01*
X161519381Y-89344802D01*
X161544000Y-89345153D01*
X161610015Y-89341370D01*
X161617796Y-89331951D01*
X161607500Y-89328559D01*
X161515471Y-89322916D01*
X161480500Y-89328559D01*
G37*
X161480500Y-89328559D02*
X161469207Y-89339076D01*
X161519381Y-89344802D01*
X161544000Y-89345153D01*
X161610015Y-89341370D01*
X161617796Y-89331951D01*
X161607500Y-89328559D01*
X161515471Y-89322916D01*
X161480500Y-89328559D01*
G36*
X162027810Y-89329381D02*
G01*
X162032791Y-89350953D01*
X162052000Y-89353572D01*
X162081867Y-89340295D01*
X162076191Y-89329381D01*
X162033128Y-89325039D01*
X162027810Y-89329381D01*
G37*
X162027810Y-89329381D02*
X162032791Y-89350953D01*
X162052000Y-89353572D01*
X162081867Y-89340295D01*
X162076191Y-89329381D01*
X162033128Y-89325039D01*
X162027810Y-89329381D01*
G36*
X162287424Y-89366966D02*
G01*
X162286993Y-89367395D01*
X162249257Y-89411803D01*
X162265716Y-89425548D01*
X162283124Y-89426143D01*
X162346998Y-89403518D01*
X162361921Y-89387443D01*
X162374551Y-89338937D01*
X162343142Y-89330352D01*
X162287424Y-89366966D01*
G37*
X162287424Y-89366966D02*
X162286993Y-89367395D01*
X162249257Y-89411803D01*
X162265716Y-89425548D01*
X162283124Y-89426143D01*
X162346998Y-89403518D01*
X162361921Y-89387443D01*
X162374551Y-89338937D01*
X162343142Y-89330352D01*
X162287424Y-89366966D01*
G36*
X157020381Y-89438238D02*
G01*
X157025362Y-89459810D01*
X157044572Y-89462429D01*
X157074439Y-89449153D01*
X157068762Y-89438238D01*
X157025699Y-89433896D01*
X157020381Y-89438238D01*
G37*
X157020381Y-89438238D02*
X157025362Y-89459810D01*
X157044572Y-89462429D01*
X157074439Y-89449153D01*
X157068762Y-89438238D01*
X157025699Y-89433896D01*
X157020381Y-89438238D01*
G36*
X158134197Y-89417470D02*
G01*
X158133143Y-89426143D01*
X158160756Y-89461375D01*
X158169429Y-89462429D01*
X158204660Y-89434816D01*
X158205715Y-89426143D01*
X158178102Y-89390912D01*
X158169429Y-89389857D01*
X158134197Y-89417470D01*
G37*
X158134197Y-89417470D02*
X158133143Y-89426143D01*
X158160756Y-89461375D01*
X158169429Y-89462429D01*
X158204660Y-89434816D01*
X158205715Y-89426143D01*
X158178102Y-89390912D01*
X158169429Y-89389857D01*
X158134197Y-89417470D01*
G36*
X162432604Y-89126424D02*
G01*
X162439066Y-89156722D01*
X162438601Y-89199825D01*
X162396334Y-89202080D01*
X162334938Y-89211506D01*
X162317057Y-89231908D01*
X162333399Y-89263873D01*
X162367722Y-89268194D01*
X162417919Y-89285536D01*
X162421015Y-89316955D01*
X162408517Y-89399492D01*
X162404613Y-89443955D01*
X162383734Y-89516908D01*
X162362170Y-89543516D01*
X162360969Y-89564055D01*
X162403644Y-89570730D01*
X162476816Y-89556350D01*
X162505572Y-89535000D01*
X162556730Y-89504563D01*
X162598735Y-89498715D01*
X162646571Y-89490647D01*
X162640346Y-89453229D01*
X162623808Y-89424922D01*
X162587807Y-89378455D01*
X162569464Y-89394386D01*
X162566411Y-89406779D01*
X162536814Y-89455491D01*
X162498892Y-89453983D01*
X162483224Y-89417072D01*
X162481141Y-89352496D01*
X162481495Y-89252897D01*
X162481809Y-89235643D01*
X162475665Y-89148203D01*
X162456931Y-89101824D01*
X162450867Y-89099572D01*
X162432604Y-89126424D01*
G37*
X162432604Y-89126424D02*
X162439066Y-89156722D01*
X162438601Y-89199825D01*
X162396334Y-89202080D01*
X162334938Y-89211506D01*
X162317057Y-89231908D01*
X162333399Y-89263873D01*
X162367722Y-89268194D01*
X162417919Y-89285536D01*
X162421015Y-89316955D01*
X162408517Y-89399492D01*
X162404613Y-89443955D01*
X162383734Y-89516908D01*
X162362170Y-89543516D01*
X162360969Y-89564055D01*
X162403644Y-89570730D01*
X162476816Y-89556350D01*
X162505572Y-89535000D01*
X162556730Y-89504563D01*
X162598735Y-89498715D01*
X162646571Y-89490647D01*
X162640346Y-89453229D01*
X162623808Y-89424922D01*
X162587807Y-89378455D01*
X162569464Y-89394386D01*
X162566411Y-89406779D01*
X162536814Y-89455491D01*
X162498892Y-89453983D01*
X162483224Y-89417072D01*
X162481141Y-89352496D01*
X162481495Y-89252897D01*
X162481809Y-89235643D01*
X162475665Y-89148203D01*
X162456931Y-89101824D01*
X162450867Y-89099572D01*
X162432604Y-89126424D01*
G36*
X160992457Y-89564029D02*
G01*
X160974596Y-89596525D01*
X161018536Y-89607307D01*
X161036000Y-89607572D01*
X161093675Y-89600254D01*
X161087878Y-89572894D01*
X161079543Y-89564029D01*
X161030166Y-89539170D01*
X160992457Y-89564029D01*
G37*
X160992457Y-89564029D02*
X160974596Y-89596525D01*
X161018536Y-89607307D01*
X161036000Y-89607572D01*
X161093675Y-89600254D01*
X161087878Y-89572894D01*
X161079543Y-89564029D01*
X161030166Y-89539170D01*
X160992457Y-89564029D01*
G36*
X164798937Y-88761264D02*
G01*
X164798687Y-88808826D01*
X164814587Y-88906405D01*
X164842046Y-89034475D01*
X164876473Y-89173508D01*
X164913277Y-89303979D01*
X164947867Y-89406359D01*
X164954357Y-89422314D01*
X165015276Y-89516228D01*
X165081715Y-89580639D01*
X165168827Y-89644421D01*
X165117499Y-89471782D01*
X165039405Y-89223053D01*
X164967531Y-89021345D01*
X164904228Y-88871898D01*
X164851846Y-88779957D01*
X164812736Y-88750764D01*
X164798937Y-88761264D01*
G37*
X164798937Y-88761264D02*
X164798687Y-88808826D01*
X164814587Y-88906405D01*
X164842046Y-89034475D01*
X164876473Y-89173508D01*
X164913277Y-89303979D01*
X164947867Y-89406359D01*
X164954357Y-89422314D01*
X165015276Y-89516228D01*
X165081715Y-89580639D01*
X165168827Y-89644421D01*
X165117499Y-89471782D01*
X165039405Y-89223053D01*
X164967531Y-89021345D01*
X164904228Y-88871898D01*
X164851846Y-88779957D01*
X164812736Y-88750764D01*
X164798937Y-88761264D01*
G36*
X163886753Y-88913047D02*
G01*
X163844297Y-88994725D01*
X163796933Y-89106550D01*
X163709806Y-89331243D01*
X163815260Y-89526354D01*
X163882730Y-89641522D01*
X163947480Y-89736348D01*
X163984215Y-89778999D01*
X164031725Y-89815730D01*
X164046687Y-89796083D01*
X164047715Y-89762770D01*
X164033977Y-89682523D01*
X163999902Y-89575812D01*
X163989240Y-89549058D01*
X163962422Y-89445680D01*
X163950241Y-89316290D01*
X163952538Y-89186507D01*
X163969154Y-89081951D01*
X163992455Y-89033879D01*
X164030320Y-89043385D01*
X164112658Y-89088875D01*
X164226811Y-89161584D01*
X164360123Y-89252742D01*
X164499937Y-89353583D01*
X164633596Y-89455339D01*
X164748443Y-89549241D01*
X164791386Y-89587309D01*
X164890582Y-89670755D01*
X164959377Y-89712825D01*
X164987352Y-89709658D01*
X164969965Y-89664404D01*
X164910106Y-89589467D01*
X164827313Y-89507267D01*
X164740566Y-89435240D01*
X164619804Y-89343509D01*
X164478131Y-89241047D01*
X164328651Y-89136829D01*
X164184470Y-89039830D01*
X164058692Y-88959022D01*
X163964423Y-88903381D01*
X163914768Y-88881881D01*
X163914036Y-88881857D01*
X163886753Y-88913047D01*
G37*
X163886753Y-88913047D02*
X163844297Y-88994725D01*
X163796933Y-89106550D01*
X163709806Y-89331243D01*
X163815260Y-89526354D01*
X163882730Y-89641522D01*
X163947480Y-89736348D01*
X163984215Y-89778999D01*
X164031725Y-89815730D01*
X164046687Y-89796083D01*
X164047715Y-89762770D01*
X164033977Y-89682523D01*
X163999902Y-89575812D01*
X163989240Y-89549058D01*
X163962422Y-89445680D01*
X163950241Y-89316290D01*
X163952538Y-89186507D01*
X163969154Y-89081951D01*
X163992455Y-89033879D01*
X164030320Y-89043385D01*
X164112658Y-89088875D01*
X164226811Y-89161584D01*
X164360123Y-89252742D01*
X164499937Y-89353583D01*
X164633596Y-89455339D01*
X164748443Y-89549241D01*
X164791386Y-89587309D01*
X164890582Y-89670755D01*
X164959377Y-89712825D01*
X164987352Y-89709658D01*
X164969965Y-89664404D01*
X164910106Y-89589467D01*
X164827313Y-89507267D01*
X164740566Y-89435240D01*
X164619804Y-89343509D01*
X164478131Y-89241047D01*
X164328651Y-89136829D01*
X164184470Y-89039830D01*
X164058692Y-88959022D01*
X163964423Y-88903381D01*
X163914768Y-88881881D01*
X163914036Y-88881857D01*
X163886753Y-88913047D01*
G36*
X157915429Y-89879715D02*
G01*
X157933572Y-89897857D01*
X157951715Y-89879715D01*
X157933572Y-89861572D01*
X157915429Y-89879715D01*
G37*
X157915429Y-89879715D02*
X157933572Y-89897857D01*
X157951715Y-89879715D01*
X157933572Y-89861572D01*
X157915429Y-89879715D01*
G36*
X164892766Y-89831571D02*
G01*
X164905801Y-89852915D01*
X164918572Y-89861572D01*
X164993660Y-89895336D01*
X165026306Y-89873723D01*
X165027429Y-89861572D01*
X164996697Y-89833466D01*
X164945786Y-89825842D01*
X164892766Y-89831571D01*
G37*
X164892766Y-89831571D02*
X164905801Y-89852915D01*
X164918572Y-89861572D01*
X164993660Y-89895336D01*
X165026306Y-89873723D01*
X165027429Y-89861572D01*
X164996697Y-89833466D01*
X164945786Y-89825842D01*
X164892766Y-89831571D01*
G36*
X158096857Y-89916000D02*
G01*
X158115000Y-89934143D01*
X158133143Y-89916000D01*
X158115000Y-89897857D01*
X158096857Y-89916000D01*
G37*
X158096857Y-89916000D02*
X158115000Y-89934143D01*
X158133143Y-89916000D01*
X158115000Y-89897857D01*
X158096857Y-89916000D01*
G36*
X162488483Y-89961756D02*
G01*
X162487429Y-89970429D01*
X162515041Y-90005660D01*
X162523715Y-90006715D01*
X162558946Y-89979102D01*
X162560000Y-89970429D01*
X162532388Y-89935198D01*
X162523715Y-89934143D01*
X162488483Y-89961756D01*
G37*
X162488483Y-89961756D02*
X162487429Y-89970429D01*
X162515041Y-90005660D01*
X162523715Y-90006715D01*
X162558946Y-89979102D01*
X162560000Y-89970429D01*
X162532388Y-89935198D01*
X162523715Y-89934143D01*
X162488483Y-89961756D01*
G36*
X157951715Y-90097429D02*
G01*
X157969857Y-90115572D01*
X157988000Y-90097429D01*
X157969857Y-90079286D01*
X157951715Y-90097429D01*
G37*
X157951715Y-90097429D02*
X157969857Y-90115572D01*
X157988000Y-90097429D01*
X157969857Y-90079286D01*
X157951715Y-90097429D01*
G36*
X162567032Y-89578241D02*
G01*
X162579338Y-89593499D01*
X162614429Y-89610680D01*
X162655249Y-89632793D01*
X162632584Y-89633870D01*
X162589438Y-89626139D01*
X162505811Y-89624721D01*
X162468173Y-89651724D01*
X162487581Y-89694422D01*
X162513880Y-89713095D01*
X162550633Y-89739972D01*
X162525738Y-89750130D01*
X162481754Y-89751611D01*
X162413331Y-89762557D01*
X162399764Y-89803401D01*
X162404344Y-89825286D01*
X162439962Y-89878638D01*
X162521106Y-89897377D01*
X162544951Y-89897857D01*
X162626434Y-89891020D01*
X162651754Y-89863986D01*
X162646613Y-89834357D01*
X162640721Y-89811230D01*
X162547527Y-89811230D01*
X162541857Y-89825286D01*
X162509251Y-89859902D01*
X162503430Y-89861572D01*
X162487845Y-89833498D01*
X162487429Y-89825286D01*
X162515324Y-89790395D01*
X162525856Y-89789000D01*
X162547527Y-89811230D01*
X162640721Y-89811230D01*
X162635680Y-89791449D01*
X162654369Y-89805123D01*
X162679428Y-89834988D01*
X162740698Y-89880727D01*
X162782176Y-89886292D01*
X162813821Y-89882296D01*
X162808781Y-89887401D01*
X162797211Y-89928993D01*
X162803027Y-89968671D01*
X162792593Y-90031649D01*
X162739952Y-90061612D01*
X162687687Y-90086490D01*
X162701216Y-90113477D01*
X162709420Y-90118983D01*
X162782130Y-90149670D01*
X162813234Y-90125656D01*
X162814000Y-90115572D01*
X162844391Y-90086090D01*
X162886572Y-90079286D01*
X162949243Y-90062289D01*
X162947934Y-90017088D01*
X162905114Y-89970761D01*
X162867781Y-89921975D01*
X162867710Y-89899021D01*
X162857689Y-89857317D01*
X162809535Y-89802455D01*
X162747972Y-89755893D01*
X162697727Y-89739087D01*
X162688275Y-89743311D01*
X162674423Y-89733935D01*
X162682107Y-89673094D01*
X162682587Y-89671072D01*
X162691939Y-89599807D01*
X162662737Y-89575161D01*
X162624192Y-89573836D01*
X162567032Y-89578241D01*
G37*
X162567032Y-89578241D02*
X162579338Y-89593499D01*
X162614429Y-89610680D01*
X162655249Y-89632793D01*
X162632584Y-89633870D01*
X162589438Y-89626139D01*
X162505811Y-89624721D01*
X162468173Y-89651724D01*
X162487581Y-89694422D01*
X162513880Y-89713095D01*
X162550633Y-89739972D01*
X162525738Y-89750130D01*
X162481754Y-89751611D01*
X162413331Y-89762557D01*
X162399764Y-89803401D01*
X162404344Y-89825286D01*
X162439962Y-89878638D01*
X162521106Y-89897377D01*
X162544951Y-89897857D01*
X162626434Y-89891020D01*
X162651754Y-89863986D01*
X162646613Y-89834357D01*
X162640721Y-89811230D01*
X162547527Y-89811230D01*
X162541857Y-89825286D01*
X162509251Y-89859902D01*
X162503430Y-89861572D01*
X162487845Y-89833498D01*
X162487429Y-89825286D01*
X162515324Y-89790395D01*
X162525856Y-89789000D01*
X162547527Y-89811230D01*
X162640721Y-89811230D01*
X162635680Y-89791449D01*
X162654369Y-89805123D01*
X162679428Y-89834988D01*
X162740698Y-89880727D01*
X162782176Y-89886292D01*
X162813821Y-89882296D01*
X162808781Y-89887401D01*
X162797211Y-89928993D01*
X162803027Y-89968671D01*
X162792593Y-90031649D01*
X162739952Y-90061612D01*
X162687687Y-90086490D01*
X162701216Y-90113477D01*
X162709420Y-90118983D01*
X162782130Y-90149670D01*
X162813234Y-90125656D01*
X162814000Y-90115572D01*
X162844391Y-90086090D01*
X162886572Y-90079286D01*
X162949243Y-90062289D01*
X162947934Y-90017088D01*
X162905114Y-89970761D01*
X162867781Y-89921975D01*
X162867710Y-89899021D01*
X162857689Y-89857317D01*
X162809535Y-89802455D01*
X162747972Y-89755893D01*
X162697727Y-89739087D01*
X162688275Y-89743311D01*
X162674423Y-89733935D01*
X162682107Y-89673094D01*
X162682587Y-89671072D01*
X162691939Y-89599807D01*
X162662737Y-89575161D01*
X162624192Y-89573836D01*
X162567032Y-89578241D01*
G36*
X157879143Y-90170000D02*
G01*
X157897286Y-90188143D01*
X157915429Y-90170000D01*
X157897286Y-90151857D01*
X157879143Y-90170000D01*
G37*
X157879143Y-90170000D02*
X157897286Y-90188143D01*
X157915429Y-90170000D01*
X157897286Y-90151857D01*
X157879143Y-90170000D01*
G36*
X162632572Y-90242572D02*
G01*
X162650715Y-90260715D01*
X162668857Y-90242572D01*
X162650715Y-90224429D01*
X162632572Y-90242572D01*
G37*
X162632572Y-90242572D02*
X162650715Y-90260715D01*
X162668857Y-90242572D01*
X162650715Y-90224429D01*
X162632572Y-90242572D01*
G36*
X158064665Y-90217533D02*
G01*
X158060572Y-90242572D01*
X158080165Y-90290860D01*
X158096857Y-90297000D01*
X158129049Y-90267610D01*
X158133143Y-90242572D01*
X158113550Y-90194284D01*
X158096857Y-90188143D01*
X158064665Y-90217533D01*
G37*
X158064665Y-90217533D02*
X158060572Y-90242572D01*
X158080165Y-90290860D01*
X158096857Y-90297000D01*
X158129049Y-90267610D01*
X158133143Y-90242572D01*
X158113550Y-90194284D01*
X158096857Y-90188143D01*
X158064665Y-90217533D01*
G36*
X158283608Y-90214535D02*
G01*
X158278286Y-90240430D01*
X158290244Y-90292857D01*
X158321664Y-90277141D01*
X158331165Y-90263222D01*
X158326615Y-90216619D01*
X158315164Y-90206652D01*
X158283608Y-90214535D01*
G37*
X158283608Y-90214535D02*
X158278286Y-90240430D01*
X158290244Y-90292857D01*
X158321664Y-90277141D01*
X158331165Y-90263222D01*
X158326615Y-90216619D01*
X158315164Y-90206652D01*
X158283608Y-90214535D01*
G36*
X162356375Y-90306560D02*
G01*
X162306000Y-90333286D01*
X162271996Y-90361466D01*
X162304679Y-90368893D01*
X162312930Y-90369016D01*
X162378539Y-90350526D01*
X162396715Y-90333286D01*
X162399643Y-90301232D01*
X162356375Y-90306560D01*
G37*
X162356375Y-90306560D02*
X162306000Y-90333286D01*
X162271996Y-90361466D01*
X162304679Y-90368893D01*
X162312930Y-90369016D01*
X162378539Y-90350526D01*
X162396715Y-90333286D01*
X162399643Y-90301232D01*
X162356375Y-90306560D01*
G36*
X158024286Y-90387715D02*
G01*
X158042429Y-90405857D01*
X158060572Y-90387715D01*
X158042429Y-90369572D01*
X158024286Y-90387715D01*
G37*
X158024286Y-90387715D02*
X158042429Y-90405857D01*
X158060572Y-90387715D01*
X158042429Y-90369572D01*
X158024286Y-90387715D01*
G36*
X158205715Y-90351429D02*
G01*
X158171099Y-90384036D01*
X158169429Y-90389856D01*
X158197503Y-90405441D01*
X158205715Y-90405857D01*
X158240606Y-90377963D01*
X158242000Y-90367430D01*
X158219770Y-90345759D01*
X158205715Y-90351429D01*
G37*
X158205715Y-90351429D02*
X158171099Y-90384036D01*
X158169429Y-90389856D01*
X158197503Y-90405441D01*
X158205715Y-90405857D01*
X158240606Y-90377963D01*
X158242000Y-90367430D01*
X158219770Y-90345759D01*
X158205715Y-90351429D01*
G36*
X163013572Y-90356450D02*
G01*
X162965555Y-90392067D01*
X162959143Y-90409740D01*
X162983462Y-90440333D01*
X163032782Y-90427343D01*
X163043810Y-90417953D01*
X163067999Y-90369718D01*
X163038346Y-90350558D01*
X163013572Y-90356450D01*
G37*
X163013572Y-90356450D02*
X162965555Y-90392067D01*
X162959143Y-90409740D01*
X162983462Y-90440333D01*
X163032782Y-90427343D01*
X163043810Y-90417953D01*
X163067999Y-90369718D01*
X163038346Y-90350558D01*
X163013572Y-90356450D01*
G36*
X158387143Y-90387715D02*
G01*
X158352241Y-90434104D01*
X158350857Y-90444285D01*
X158378534Y-90477452D01*
X158387143Y-90478429D01*
X158418988Y-90448894D01*
X158423429Y-90421859D01*
X158405838Y-90384301D01*
X158387143Y-90387715D01*
G37*
X158387143Y-90387715D02*
X158352241Y-90434104D01*
X158350857Y-90444285D01*
X158378534Y-90477452D01*
X158387143Y-90478429D01*
X158418988Y-90448894D01*
X158423429Y-90421859D01*
X158405838Y-90384301D01*
X158387143Y-90387715D01*
G36*
X165047095Y-90038285D02*
G01*
X165055893Y-90107074D01*
X165066603Y-90166253D01*
X165092315Y-90277889D01*
X165120222Y-90361229D01*
X165132685Y-90383848D01*
X165163401Y-90449371D01*
X165178910Y-90514715D01*
X165192203Y-90605429D01*
X165216730Y-90518226D01*
X165217164Y-90411666D01*
X165188771Y-90329528D01*
X165151318Y-90242256D01*
X165136286Y-90178738D01*
X165116133Y-90112108D01*
X165084870Y-90059126D01*
X165056193Y-90025588D01*
X165047095Y-90038285D01*
G37*
X165047095Y-90038285D02*
X165055893Y-90107074D01*
X165066603Y-90166253D01*
X165092315Y-90277889D01*
X165120222Y-90361229D01*
X165132685Y-90383848D01*
X165163401Y-90449371D01*
X165178910Y-90514715D01*
X165192203Y-90605429D01*
X165216730Y-90518226D01*
X165217164Y-90411666D01*
X165188771Y-90329528D01*
X165151318Y-90242256D01*
X165136286Y-90178738D01*
X165116133Y-90112108D01*
X165084870Y-90059126D01*
X165056193Y-90025588D01*
X165047095Y-90038285D01*
G36*
X157092953Y-90635667D02*
G01*
X157088610Y-90678730D01*
X157092953Y-90684048D01*
X157114524Y-90679067D01*
X157117143Y-90659857D01*
X157103867Y-90629990D01*
X157092953Y-90635667D01*
G37*
X157092953Y-90635667D02*
X157088610Y-90678730D01*
X157092953Y-90684048D01*
X157114524Y-90679067D01*
X157117143Y-90659857D01*
X157103867Y-90629990D01*
X157092953Y-90635667D01*
G36*
X158501222Y-90722512D02*
G01*
X158496000Y-90748430D01*
X158514945Y-90798077D01*
X158532286Y-90805000D01*
X158567533Y-90778957D01*
X158568572Y-90770856D01*
X158542196Y-90721713D01*
X158532286Y-90714286D01*
X158501222Y-90722512D01*
G37*
X158501222Y-90722512D02*
X158496000Y-90748430D01*
X158514945Y-90798077D01*
X158532286Y-90805000D01*
X158567533Y-90778957D01*
X158568572Y-90770856D01*
X158542196Y-90721713D01*
X158532286Y-90714286D01*
X158501222Y-90722512D01*
G36*
X164594580Y-89861978D02*
G01*
X164530270Y-89927831D01*
X164452595Y-90032830D01*
X164371387Y-90164236D01*
X164324914Y-90250735D01*
X164267355Y-90356219D01*
X164217639Y-90433414D01*
X164193978Y-90459594D01*
X164152846Y-90503693D01*
X164099044Y-90583505D01*
X164044845Y-90677233D01*
X164002522Y-90763081D01*
X163984350Y-90819252D01*
X163986356Y-90828309D01*
X164015443Y-90810852D01*
X164074867Y-90746689D01*
X164153218Y-90648476D01*
X164175944Y-90618027D01*
X164265935Y-90491545D01*
X164345193Y-90372698D01*
X164397916Y-90285270D01*
X164401282Y-90278857D01*
X164456524Y-90181542D01*
X164530315Y-90063966D01*
X164561007Y-90018045D01*
X164614705Y-89928766D01*
X164639112Y-89865491D01*
X164635697Y-89848009D01*
X164594580Y-89861978D01*
G37*
X164594580Y-89861978D02*
X164530270Y-89927831D01*
X164452595Y-90032830D01*
X164371387Y-90164236D01*
X164324914Y-90250735D01*
X164267355Y-90356219D01*
X164217639Y-90433414D01*
X164193978Y-90459594D01*
X164152846Y-90503693D01*
X164099044Y-90583505D01*
X164044845Y-90677233D01*
X164002522Y-90763081D01*
X163984350Y-90819252D01*
X163986356Y-90828309D01*
X164015443Y-90810852D01*
X164074867Y-90746689D01*
X164153218Y-90648476D01*
X164175944Y-90618027D01*
X164265935Y-90491545D01*
X164345193Y-90372698D01*
X164397916Y-90285270D01*
X164401282Y-90278857D01*
X164456524Y-90181542D01*
X164530315Y-90063966D01*
X164561007Y-90018045D01*
X164614705Y-89928766D01*
X164639112Y-89865491D01*
X164635697Y-89848009D01*
X164594580Y-89861978D01*
G36*
X157018737Y-90920863D02*
G01*
X157008286Y-90974334D01*
X157011785Y-91043185D01*
X157032026Y-91046490D01*
X157071786Y-91004723D01*
X157113809Y-90935143D01*
X157096288Y-90895588D01*
X157062715Y-90889667D01*
X157018737Y-90920863D01*
G37*
X157018737Y-90920863D02*
X157008286Y-90974334D01*
X157011785Y-91043185D01*
X157032026Y-91046490D01*
X157071786Y-91004723D01*
X157113809Y-90935143D01*
X157096288Y-90895588D01*
X157062715Y-90889667D01*
X157018737Y-90920863D01*
G36*
X157020381Y-91107381D02*
G01*
X157016038Y-91150444D01*
X157020381Y-91155762D01*
X157041953Y-91150781D01*
X157044572Y-91131572D01*
X157031295Y-91101705D01*
X157020381Y-91107381D01*
G37*
X157020381Y-91107381D02*
X157016038Y-91150444D01*
X157020381Y-91155762D01*
X157041953Y-91150781D01*
X157044572Y-91131572D01*
X157031295Y-91101705D01*
X157020381Y-91107381D01*
G36*
X157213961Y-91110467D02*
G01*
X157141234Y-91128478D01*
X157114175Y-91131572D01*
X157081806Y-91159272D01*
X157080857Y-91167857D01*
X157102551Y-91201981D01*
X157163612Y-91180470D01*
X157209994Y-91146752D01*
X157256165Y-91106451D01*
X157245889Y-91101094D01*
X157213961Y-91110467D01*
G37*
X157213961Y-91110467D02*
X157141234Y-91128478D01*
X157114175Y-91131572D01*
X157081806Y-91159272D01*
X157080857Y-91167857D01*
X157102551Y-91201981D01*
X157163612Y-91180470D01*
X157209994Y-91146752D01*
X157256165Y-91106451D01*
X157245889Y-91101094D01*
X157213961Y-91110467D01*
G36*
X157190769Y-91231756D02*
G01*
X157189715Y-91240429D01*
X157217327Y-91275660D01*
X157226000Y-91276715D01*
X157261232Y-91249102D01*
X157262286Y-91240429D01*
X157234673Y-91205198D01*
X157226000Y-91204143D01*
X157190769Y-91231756D01*
G37*
X157190769Y-91231756D02*
X157189715Y-91240429D01*
X157217327Y-91275660D01*
X157226000Y-91276715D01*
X157261232Y-91249102D01*
X157262286Y-91240429D01*
X157234673Y-91205198D01*
X157226000Y-91204143D01*
X157190769Y-91231756D01*
G36*
X157020381Y-91325096D02*
G01*
X157016038Y-91368158D01*
X157020381Y-91373477D01*
X157041953Y-91368496D01*
X157044572Y-91349286D01*
X157031295Y-91319419D01*
X157020381Y-91325096D01*
G37*
X157020381Y-91325096D02*
X157016038Y-91368158D01*
X157020381Y-91373477D01*
X157041953Y-91368496D01*
X157044572Y-91349286D01*
X157031295Y-91319419D01*
X157020381Y-91325096D01*
G36*
X163188953Y-91361381D02*
G01*
X163193934Y-91382953D01*
X163213143Y-91385572D01*
X163243010Y-91372295D01*
X163237334Y-91361381D01*
X163194271Y-91357039D01*
X163188953Y-91361381D01*
G37*
X163188953Y-91361381D02*
X163193934Y-91382953D01*
X163213143Y-91385572D01*
X163243010Y-91372295D01*
X163237334Y-91361381D01*
X163194271Y-91357039D01*
X163188953Y-91361381D01*
G36*
X157020381Y-91470238D02*
G01*
X157016038Y-91513301D01*
X157020381Y-91518619D01*
X157041953Y-91513638D01*
X157044572Y-91494429D01*
X157031295Y-91464562D01*
X157020381Y-91470238D01*
G37*
X157020381Y-91470238D02*
X157016038Y-91513301D01*
X157020381Y-91518619D01*
X157041953Y-91513638D01*
X157044572Y-91494429D01*
X157031295Y-91464562D01*
X157020381Y-91470238D01*
G36*
X157262591Y-91466087D02*
G01*
X157262286Y-91494429D01*
X157267328Y-91544443D01*
X157295305Y-91559525D01*
X157365487Y-91544689D01*
X157407429Y-91532189D01*
X157498143Y-91504612D01*
X157395995Y-91463235D01*
X157310266Y-91430693D01*
X157272278Y-91430131D01*
X157262591Y-91466087D01*
G37*
X157262591Y-91466087D02*
X157262286Y-91494429D01*
X157267328Y-91544443D01*
X157295305Y-91559525D01*
X157365487Y-91544689D01*
X157407429Y-91532189D01*
X157498143Y-91504612D01*
X157395995Y-91463235D01*
X157310266Y-91430693D01*
X157272278Y-91430131D01*
X157262591Y-91466087D01*
G36*
X157152057Y-91559088D02*
G01*
X157140307Y-91585143D01*
X157139553Y-91631867D01*
X157154568Y-91639572D01*
X157185755Y-91610165D01*
X157189715Y-91585143D01*
X157181951Y-91536731D01*
X157175454Y-91530715D01*
X157152057Y-91559088D01*
G37*
X157152057Y-91559088D02*
X157140307Y-91585143D01*
X157139553Y-91631867D01*
X157154568Y-91639572D01*
X157185755Y-91610165D01*
X157189715Y-91585143D01*
X157181951Y-91536731D01*
X157175454Y-91530715D01*
X157152057Y-91559088D01*
G36*
X159988786Y-87393370D02*
G01*
X159908021Y-87421776D01*
X159852629Y-87455095D01*
X159844619Y-87466777D01*
X159803280Y-87496223D01*
X159753905Y-87504104D01*
X159700112Y-87508518D01*
X159714648Y-87527563D01*
X159740686Y-87543256D01*
X159819361Y-87560888D01*
X159849543Y-87547393D01*
X159913653Y-87513054D01*
X159987980Y-87491448D01*
X160043699Y-87489065D01*
X160056286Y-87500852D01*
X160027869Y-87536366D01*
X159974643Y-87570781D01*
X159919326Y-87601159D01*
X159930164Y-87605610D01*
X159985156Y-87595692D01*
X160055553Y-87594444D01*
X160081248Y-87636582D01*
X160082780Y-87650605D01*
X160077076Y-87697216D01*
X160037372Y-87712257D01*
X159954338Y-87705221D01*
X159886927Y-87698585D01*
X159877599Y-87703382D01*
X159890983Y-87708002D01*
X159935478Y-87726013D01*
X159922475Y-87748533D01*
X159872841Y-87777877D01*
X159815262Y-87813104D01*
X159818978Y-87827723D01*
X159856714Y-87832143D01*
X159956500Y-87839369D01*
X159998675Y-87842500D01*
X160063686Y-87871705D01*
X160083080Y-87902143D01*
X160085099Y-87932879D01*
X160068120Y-87915281D01*
X160014874Y-87893628D01*
X159924967Y-87893791D01*
X159829001Y-87911330D01*
X159757579Y-87941807D01*
X159739694Y-87962919D01*
X159755001Y-87990497D01*
X159809285Y-87985468D01*
X159865476Y-87975666D01*
X159858625Y-87994090D01*
X159834571Y-88015537D01*
X159772063Y-88090262D01*
X159752364Y-88160253D01*
X159781159Y-88204340D01*
X159783618Y-88205349D01*
X159816707Y-88252456D01*
X159812298Y-88303203D01*
X159792749Y-88355689D01*
X159769960Y-88342151D01*
X159758883Y-88323566D01*
X159700219Y-88278194D01*
X159636058Y-88265000D01*
X159559504Y-88245418D01*
X159525122Y-88210572D01*
X159476484Y-88168453D01*
X159426475Y-88160352D01*
X159376780Y-88165848D01*
X159396663Y-88176747D01*
X159414879Y-88181669D01*
X159461713Y-88217202D01*
X159462088Y-88248174D01*
X159475371Y-88297593D01*
X159513852Y-88320017D01*
X159577918Y-88350443D01*
X159575544Y-88376048D01*
X159512858Y-88392893D01*
X159395985Y-88397042D01*
X159394072Y-88396993D01*
X159280465Y-88398302D01*
X159225237Y-88412391D01*
X159214775Y-88442917D01*
X159215205Y-88445043D01*
X159198661Y-88507332D01*
X159165296Y-88543085D01*
X159123116Y-88606640D01*
X159126414Y-88647132D01*
X159130809Y-88686199D01*
X159089485Y-88691629D01*
X159043784Y-88683054D01*
X158955115Y-88678929D01*
X158893620Y-88724957D01*
X158881340Y-88741531D01*
X158792668Y-88810457D01*
X158705449Y-88825361D01*
X158620975Y-88837074D01*
X158591938Y-88873714D01*
X158591754Y-88891009D01*
X158568347Y-88944674D01*
X158528254Y-88954429D01*
X158470683Y-88972547D01*
X158464378Y-89009508D01*
X158500944Y-89034696D01*
X158520625Y-89066085D01*
X158491872Y-89130797D01*
X158462739Y-89194351D01*
X158481298Y-89241754D01*
X158526994Y-89283169D01*
X158596730Y-89326655D01*
X158644803Y-89333166D01*
X158644923Y-89333093D01*
X158675697Y-89336022D01*
X158677429Y-89345344D01*
X158644813Y-89360303D01*
X158560632Y-89365069D01*
X158477857Y-89361135D01*
X158363902Y-89353578D01*
X158304463Y-89359731D01*
X158281829Y-89386229D01*
X158278286Y-89435911D01*
X158255307Y-89519869D01*
X158199442Y-89554646D01*
X158130299Y-89541171D01*
X158067488Y-89480374D01*
X158041976Y-89424718D01*
X158001398Y-89376332D01*
X157965834Y-89378280D01*
X157903722Y-89370032D01*
X157823792Y-89321210D01*
X157813477Y-89312381D01*
X157711342Y-89234454D01*
X157596035Y-89163347D01*
X157588857Y-89159566D01*
X157461857Y-89093655D01*
X157588857Y-89210623D01*
X157759837Y-89368728D01*
X157884004Y-89485868D01*
X157968334Y-89569795D01*
X158019802Y-89628262D01*
X158045384Y-89669022D01*
X158052055Y-89699827D01*
X158048685Y-89721678D01*
X158046991Y-89768092D01*
X158061792Y-89770103D01*
X158108375Y-89777607D01*
X158164255Y-89828723D01*
X158211007Y-89899996D01*
X158230202Y-89967971D01*
X158228412Y-89982185D01*
X158229367Y-90030364D01*
X158262791Y-90028863D01*
X158307677Y-90035765D01*
X158314572Y-90057839D01*
X158340102Y-90120952D01*
X158366843Y-90150067D01*
X158401764Y-90210597D01*
X158399364Y-90244919D01*
X158409869Y-90299725D01*
X158435590Y-90317869D01*
X158481933Y-90365690D01*
X158516142Y-90451298D01*
X158516687Y-90453728D01*
X158548978Y-90545461D01*
X158591096Y-90604910D01*
X158625363Y-90662313D01*
X158649770Y-90759712D01*
X158653418Y-90790515D01*
X158667896Y-90895307D01*
X158687721Y-90971254D01*
X158693208Y-90982605D01*
X158696953Y-91044789D01*
X158682608Y-91070903D01*
X158663014Y-91142101D01*
X158673794Y-91242456D01*
X158687429Y-91344489D01*
X158682358Y-91423274D01*
X158680810Y-91428110D01*
X158659286Y-91461002D01*
X158626106Y-91440205D01*
X158594092Y-91400110D01*
X158557897Y-91339805D01*
X158558428Y-91331143D01*
X158459715Y-91331143D01*
X158441572Y-91349286D01*
X158423429Y-91331143D01*
X158441572Y-91313000D01*
X158459715Y-91331143D01*
X158558428Y-91331143D01*
X158559538Y-91313076D01*
X158560814Y-91313000D01*
X158584430Y-91284131D01*
X158584169Y-91218671D01*
X158560643Y-91148345D01*
X158557523Y-91143050D01*
X158549918Y-91080481D01*
X158565995Y-91011348D01*
X158583252Y-90921099D01*
X158548177Y-90880104D01*
X158526238Y-90877572D01*
X158501141Y-90907816D01*
X158496000Y-90945700D01*
X158470851Y-91025532D01*
X158445750Y-91055533D01*
X158401521Y-91064078D01*
X158373124Y-91009403D01*
X158362246Y-90899468D01*
X158370577Y-90742234D01*
X158373560Y-90715302D01*
X158381170Y-90606220D01*
X158376256Y-90533500D01*
X158364925Y-90514998D01*
X158323424Y-90546480D01*
X158286123Y-90620398D01*
X158264724Y-90707004D01*
X158266707Y-90764643D01*
X158263859Y-90832411D01*
X158244735Y-90857739D01*
X158209828Y-90845641D01*
X158182678Y-90771442D01*
X158182317Y-90769657D01*
X158154990Y-90689974D01*
X158107322Y-90665897D01*
X158082958Y-90667466D01*
X158019352Y-90655694D01*
X157994129Y-90593162D01*
X157972439Y-90532442D01*
X157917413Y-90525259D01*
X157894344Y-90530354D01*
X157827629Y-90534605D01*
X157806572Y-90515406D01*
X157835028Y-90480731D01*
X157850114Y-90478429D01*
X157874547Y-90466167D01*
X157852950Y-90437722D01*
X157827178Y-90373855D01*
X157829231Y-90360897D01*
X157427977Y-90360897D01*
X157392310Y-90366707D01*
X157345247Y-90360036D01*
X157344685Y-90347649D01*
X157393249Y-90338987D01*
X157414232Y-90344785D01*
X157427977Y-90360897D01*
X157829231Y-90360897D01*
X157831432Y-90347007D01*
X157820992Y-90305970D01*
X157774168Y-90297000D01*
X157710962Y-90273317D01*
X157697715Y-90224429D01*
X157689253Y-90200238D01*
X157613048Y-90200238D01*
X157608067Y-90221810D01*
X157588857Y-90224429D01*
X157558990Y-90211153D01*
X157564667Y-90200238D01*
X157607730Y-90195896D01*
X157613048Y-90200238D01*
X157689253Y-90200238D01*
X157677125Y-90165568D01*
X157648318Y-90151857D01*
X157613484Y-90122753D01*
X157614023Y-90052072D01*
X157629125Y-89952286D01*
X157573991Y-90043000D01*
X157535603Y-90093701D01*
X157517701Y-90092939D01*
X157517572Y-90090949D01*
X157492969Y-90034081D01*
X157470775Y-90006715D01*
X157153429Y-90006715D01*
X157140152Y-90036582D01*
X157129238Y-90030905D01*
X157124896Y-89987842D01*
X157129238Y-89982524D01*
X157150810Y-89987505D01*
X157153429Y-90006715D01*
X157470775Y-90006715D01*
X157452786Y-89984536D01*
X157403196Y-89920940D01*
X157401284Y-89916000D01*
X157153429Y-89916000D01*
X157135286Y-89934143D01*
X157117143Y-89916000D01*
X157135286Y-89897857D01*
X157153429Y-89916000D01*
X157401284Y-89916000D01*
X157388179Y-89882159D01*
X157370140Y-89827683D01*
X157359689Y-89807143D01*
X157153429Y-89807143D01*
X157135286Y-89825286D01*
X157117143Y-89807143D01*
X157080857Y-89807143D01*
X157062715Y-89825286D01*
X157044572Y-89807143D01*
X157062715Y-89789000D01*
X157080857Y-89807143D01*
X157117143Y-89807143D01*
X157135286Y-89789000D01*
X157153429Y-89807143D01*
X157359689Y-89807143D01*
X157327093Y-89743086D01*
X157316856Y-89725500D01*
X157247310Y-89635894D01*
X157186460Y-89609500D01*
X157141128Y-89649109D01*
X157139366Y-89652929D01*
X157123697Y-89671801D01*
X157122498Y-89643857D01*
X157120027Y-89547997D01*
X157092015Y-89505819D01*
X157053643Y-89499270D01*
X157013392Y-89506383D01*
X157039606Y-89531164D01*
X157070896Y-89561612D01*
X157039606Y-89585037D01*
X157010845Y-89610321D01*
X157034192Y-89628302D01*
X157059891Y-89660659D01*
X157036375Y-89716070D01*
X157014359Y-89785446D01*
X157046755Y-89846383D01*
X157076956Y-89901947D01*
X157057566Y-89923617D01*
X157039770Y-89963021D01*
X157048303Y-90042421D01*
X157076727Y-90137062D01*
X157118604Y-90222190D01*
X157143646Y-90254569D01*
X157172308Y-90312508D01*
X157167256Y-90340268D01*
X157172218Y-90388701D01*
X157194137Y-90409914D01*
X157224785Y-90442664D01*
X157190305Y-90477485D01*
X157189715Y-90477873D01*
X157153598Y-90506740D01*
X157180483Y-90514514D01*
X157189715Y-90514778D01*
X157233184Y-90547297D01*
X157288358Y-90632640D01*
X157331831Y-90723977D01*
X157390016Y-90848699D01*
X157449471Y-90955334D01*
X157486045Y-91006910D01*
X157535621Y-91077142D01*
X157552572Y-91124839D01*
X157576543Y-91165292D01*
X157588857Y-91167857D01*
X157621789Y-91196913D01*
X157625143Y-91217843D01*
X157650771Y-91280544D01*
X157683090Y-91315920D01*
X157720820Y-91356226D01*
X157695616Y-91381389D01*
X157674018Y-91390384D01*
X157628773Y-91411252D01*
X157650738Y-91418326D01*
X157670500Y-91419307D01*
X157724420Y-91438652D01*
X157734000Y-91458143D01*
X157762695Y-91491784D01*
X157779824Y-91494429D01*
X157828332Y-91523953D01*
X157861467Y-91575009D01*
X157910683Y-91627064D01*
X157992791Y-91671422D01*
X158078979Y-91696709D01*
X158140435Y-91691553D01*
X158145910Y-91687281D01*
X158183813Y-91684766D01*
X158288393Y-91682438D01*
X158453758Y-91680330D01*
X158674014Y-91678471D01*
X158943267Y-91676893D01*
X159255625Y-91675625D01*
X159605193Y-91674700D01*
X159986079Y-91674147D01*
X160392389Y-91673997D01*
X160666742Y-91674130D01*
X161234425Y-91674053D01*
X161730245Y-91672836D01*
X162154107Y-91670480D01*
X162505915Y-91666986D01*
X162785572Y-91662355D01*
X162992983Y-91656590D01*
X163128051Y-91649691D01*
X163190681Y-91641660D01*
X163195267Y-91639141D01*
X163215897Y-91630897D01*
X162471691Y-91630897D01*
X162436024Y-91636707D01*
X162388961Y-91630036D01*
X162388571Y-91621429D01*
X158677429Y-91621429D01*
X158659286Y-91639572D01*
X158641143Y-91621429D01*
X158659286Y-91603286D01*
X158677429Y-91621429D01*
X162388571Y-91621429D01*
X162388399Y-91617649D01*
X162436963Y-91608987D01*
X162457947Y-91614785D01*
X162471691Y-91630897D01*
X163215897Y-91630897D01*
X163240429Y-91621094D01*
X163261007Y-91629043D01*
X163338333Y-91655864D01*
X163434198Y-91663578D01*
X163518729Y-91652645D01*
X163561730Y-91624423D01*
X163561132Y-91615381D01*
X163346191Y-91615381D01*
X163341210Y-91636953D01*
X163322000Y-91639572D01*
X163292133Y-91626295D01*
X163297810Y-91615381D01*
X163340872Y-91611039D01*
X163346191Y-91615381D01*
X163561132Y-91615381D01*
X163557929Y-91567000D01*
X163485286Y-91567000D01*
X163482409Y-91600437D01*
X163469285Y-91603286D01*
X163432334Y-91576946D01*
X163430857Y-91567000D01*
X163443237Y-91531658D01*
X163446859Y-91530715D01*
X163477838Y-91556141D01*
X163485286Y-91567000D01*
X163557929Y-91567000D01*
X163557781Y-91564770D01*
X163526040Y-91472096D01*
X163509142Y-91435862D01*
X163460529Y-91335407D01*
X163425326Y-91256120D01*
X163419303Y-91240429D01*
X163404010Y-91221419D01*
X163397436Y-91266504D01*
X163378485Y-91325516D01*
X163346191Y-91328443D01*
X163304388Y-91339500D01*
X163297810Y-91365867D01*
X163323120Y-91415037D01*
X163346191Y-91421857D01*
X163390462Y-91443550D01*
X163394572Y-91458143D01*
X163363090Y-91483815D01*
X163287856Y-91494429D01*
X163203921Y-91505804D01*
X163158349Y-91531307D01*
X163120007Y-91554986D01*
X163085132Y-91521854D01*
X163074822Y-91476286D01*
X162124572Y-91476286D01*
X162106429Y-91494429D01*
X162088286Y-91476286D01*
X162106429Y-91458143D01*
X162124572Y-91476286D01*
X163074822Y-91476286D01*
X163068158Y-91446837D01*
X163068000Y-91437859D01*
X163051443Y-91373683D01*
X162903960Y-91373683D01*
X162899694Y-91403715D01*
X162876011Y-91451392D01*
X162868429Y-91458143D01*
X162855630Y-91440000D01*
X161652857Y-91440000D01*
X161634715Y-91458143D01*
X161616572Y-91440000D01*
X161326286Y-91440000D01*
X161308143Y-91458143D01*
X161290000Y-91440000D01*
X161308143Y-91421857D01*
X161326286Y-91440000D01*
X161616572Y-91440000D01*
X161634715Y-91421857D01*
X161652857Y-91440000D01*
X162855630Y-91440000D01*
X162848496Y-91429889D01*
X162837164Y-91403715D01*
X162841342Y-91367429D01*
X162705143Y-91367429D01*
X162687000Y-91385572D01*
X162668857Y-91367429D01*
X162088286Y-91367429D01*
X162070143Y-91385572D01*
X162052000Y-91367429D01*
X162070143Y-91349286D01*
X161725429Y-91349286D01*
X161712152Y-91379153D01*
X161701238Y-91373477D01*
X161700629Y-91367429D01*
X161507715Y-91367429D01*
X161489572Y-91385572D01*
X161471429Y-91367429D01*
X161488788Y-91350070D01*
X158848940Y-91350070D01*
X158840037Y-91399853D01*
X158820376Y-91402357D01*
X158789044Y-91351254D01*
X158786286Y-91329002D01*
X158800495Y-91280637D01*
X158828501Y-91288064D01*
X158848371Y-91343906D01*
X158848940Y-91350070D01*
X161488788Y-91350070D01*
X161489572Y-91349286D01*
X161507715Y-91367429D01*
X161700629Y-91367429D01*
X161696896Y-91330414D01*
X161701238Y-91325096D01*
X161722810Y-91330077D01*
X161725429Y-91349286D01*
X162070143Y-91349286D01*
X162088286Y-91367429D01*
X162668857Y-91367429D01*
X162687000Y-91349286D01*
X162705143Y-91367429D01*
X162841342Y-91367429D01*
X162842560Y-91356861D01*
X162868429Y-91349286D01*
X162903960Y-91373683D01*
X163051443Y-91373683D01*
X163050107Y-91368508D01*
X163017454Y-91349286D01*
X162961436Y-91319135D01*
X162950328Y-91285786D01*
X162812846Y-91285786D01*
X162796668Y-91313570D01*
X162755071Y-91291248D01*
X162736578Y-91268253D01*
X162508506Y-91268253D01*
X162503656Y-91279814D01*
X162459605Y-91297791D01*
X162448044Y-91292942D01*
X162431550Y-91252524D01*
X161931048Y-91252524D01*
X161926067Y-91274096D01*
X161906857Y-91276715D01*
X161876990Y-91263438D01*
X161882667Y-91252524D01*
X161925730Y-91248181D01*
X161931048Y-91252524D01*
X162431550Y-91252524D01*
X162430066Y-91248890D01*
X162434916Y-91237330D01*
X162471777Y-91222286D01*
X162124572Y-91222286D01*
X162106429Y-91240429D01*
X162088286Y-91222286D01*
X162106429Y-91204143D01*
X162124572Y-91222286D01*
X162471777Y-91222286D01*
X162478967Y-91219352D01*
X162490528Y-91224201D01*
X162508506Y-91268253D01*
X162736578Y-91268253D01*
X162711357Y-91236895D01*
X162682643Y-91171685D01*
X162684861Y-91139759D01*
X162717185Y-91149112D01*
X162763887Y-91195471D01*
X162802567Y-91253279D01*
X162812846Y-91285786D01*
X162950328Y-91285786D01*
X162937474Y-91247196D01*
X162948256Y-91180178D01*
X162966117Y-91149715D01*
X162886572Y-91149715D01*
X162868429Y-91167857D01*
X162850286Y-91149715D01*
X162868429Y-91131572D01*
X162886572Y-91149715D01*
X162966117Y-91149715D01*
X162969133Y-91144573D01*
X162990354Y-91172630D01*
X163000376Y-91198320D01*
X163043279Y-91257625D01*
X163096561Y-91275053D01*
X163134905Y-91247294D01*
X163140572Y-91216662D01*
X163145758Y-91176817D01*
X163173686Y-91187714D01*
X163206929Y-91216662D01*
X163279233Y-91269596D01*
X163315576Y-91262548D01*
X163322000Y-91225310D01*
X163345356Y-91170542D01*
X163361229Y-91160829D01*
X163375910Y-91119461D01*
X163367293Y-91087677D01*
X163125628Y-91087677D01*
X163121493Y-91096801D01*
X163075994Y-91113834D01*
X163048695Y-91107962D01*
X163021387Y-91071096D01*
X162947048Y-91071096D01*
X162942067Y-91092667D01*
X162922857Y-91095286D01*
X162892990Y-91082010D01*
X162898667Y-91071096D01*
X162941730Y-91066753D01*
X162947048Y-91071096D01*
X163021387Y-91071096D01*
X163009229Y-91054684D01*
X162999346Y-90968426D01*
X162882078Y-90968426D01*
X162873348Y-91007258D01*
X162825973Y-91038204D01*
X162762198Y-91037996D01*
X162739315Y-91019295D01*
X162691911Y-90995731D01*
X162672322Y-91002430D01*
X162647195Y-91045594D01*
X162652007Y-91061092D01*
X162643869Y-91079194D01*
X162616313Y-91072845D01*
X162569372Y-91075362D01*
X162563166Y-91112653D01*
X162596286Y-91149715D01*
X162631263Y-91200532D01*
X162632572Y-91211909D01*
X162610664Y-91220779D01*
X162561776Y-91187608D01*
X162527503Y-91129209D01*
X161825389Y-91129209D01*
X161820426Y-91131572D01*
X161787312Y-91106027D01*
X161779857Y-91095286D01*
X161770611Y-91061363D01*
X161775574Y-91059000D01*
X160782000Y-91059000D01*
X160754388Y-91094232D01*
X160745714Y-91095286D01*
X160710483Y-91067674D01*
X160709429Y-91059000D01*
X160737041Y-91023769D01*
X160745714Y-91022715D01*
X160780946Y-91050327D01*
X160782000Y-91059000D01*
X161775574Y-91059000D01*
X161808688Y-91084545D01*
X161816143Y-91095286D01*
X161825389Y-91129209D01*
X162527503Y-91129209D01*
X162507593Y-91095286D01*
X162414857Y-91095286D01*
X162401581Y-91125153D01*
X162390667Y-91119477D01*
X162386324Y-91076414D01*
X162390667Y-91071096D01*
X162412239Y-91076077D01*
X162414857Y-91095286D01*
X162507593Y-91095286D01*
X162504920Y-91090733D01*
X162498276Y-91017889D01*
X162500642Y-91004572D01*
X162088286Y-91004572D01*
X162070143Y-91022715D01*
X162052000Y-91004572D01*
X162070143Y-90986429D01*
X162088286Y-91004572D01*
X162500642Y-91004572D01*
X162511307Y-90944565D01*
X162550799Y-90925360D01*
X162602537Y-90933455D01*
X162676034Y-90938360D01*
X162708957Y-90898968D01*
X162715859Y-90870764D01*
X162724199Y-90827981D01*
X162414857Y-90827981D01*
X162396967Y-90881186D01*
X162361117Y-90901910D01*
X162347729Y-90895110D01*
X162350085Y-90877572D01*
X161652857Y-90877572D01*
X161625245Y-90912803D01*
X161616572Y-90913857D01*
X161581340Y-90886245D01*
X161580286Y-90877572D01*
X161398857Y-90877572D01*
X161371245Y-90912803D01*
X161362572Y-90913857D01*
X161327340Y-90886245D01*
X161326286Y-90877572D01*
X161353898Y-90842340D01*
X161362572Y-90841286D01*
X161397803Y-90868899D01*
X161398857Y-90877572D01*
X161580286Y-90877572D01*
X161607898Y-90842340D01*
X161616572Y-90841286D01*
X161651803Y-90868899D01*
X161652857Y-90877572D01*
X162350085Y-90877572D01*
X162352737Y-90857831D01*
X162371919Y-90833424D01*
X162375076Y-90831656D01*
X160924073Y-90831656D01*
X160891499Y-90899038D01*
X160882129Y-90914350D01*
X160832347Y-90972727D01*
X160793584Y-90984326D01*
X160782000Y-90955767D01*
X160806263Y-90910977D01*
X160854572Y-90859429D01*
X160911303Y-90817535D01*
X160924073Y-90831656D01*
X162375076Y-90831656D01*
X162408451Y-90812968D01*
X162414857Y-90827981D01*
X162724199Y-90827981D01*
X162732216Y-90786857D01*
X162088286Y-90786857D01*
X162070143Y-90805000D01*
X162052000Y-90786857D01*
X161544000Y-90786857D01*
X161525857Y-90805000D01*
X161507715Y-90786857D01*
X161525857Y-90768715D01*
X161544000Y-90786857D01*
X162052000Y-90786857D01*
X162070143Y-90768715D01*
X162088286Y-90786857D01*
X162732216Y-90786857D01*
X162759197Y-90868500D01*
X162798829Y-90931918D01*
X162836375Y-90950143D01*
X162882078Y-90968426D01*
X162999346Y-90968426D01*
X162995450Y-90934427D01*
X162995429Y-90928118D01*
X163000292Y-90856405D01*
X162956278Y-90856405D01*
X162949607Y-90903468D01*
X162937220Y-90904030D01*
X162928558Y-90855466D01*
X162934356Y-90834482D01*
X162950468Y-90820738D01*
X162956278Y-90856405D01*
X163000292Y-90856405D01*
X163001942Y-90832082D01*
X163016785Y-90780810D01*
X162874476Y-90780810D01*
X162869495Y-90802382D01*
X162850286Y-90805000D01*
X162820419Y-90791724D01*
X162826095Y-90780810D01*
X162869158Y-90776467D01*
X162874476Y-90780810D01*
X163016785Y-90780810D01*
X163018381Y-90775300D01*
X163027482Y-90768715D01*
X163047196Y-90750572D01*
X162959143Y-90750572D01*
X162941000Y-90768715D01*
X162922857Y-90750572D01*
X162941000Y-90732429D01*
X162959143Y-90750572D01*
X163047196Y-90750572D01*
X163060543Y-90738290D01*
X163080472Y-90688656D01*
X163086253Y-90671953D01*
X162705143Y-90671953D01*
X162684304Y-90738846D01*
X162638619Y-90768715D01*
X162639317Y-90750572D01*
X160963429Y-90750572D01*
X160945286Y-90768715D01*
X160927143Y-90750572D01*
X160945286Y-90732429D01*
X160963429Y-90750572D01*
X162639317Y-90750572D01*
X162639326Y-90750358D01*
X162644352Y-90744839D01*
X162645370Y-90701208D01*
X162629755Y-90675467D01*
X162378572Y-90675467D01*
X162363586Y-90707685D01*
X162307207Y-90705709D01*
X162264786Y-90694730D01*
X162180594Y-90666734D01*
X162132628Y-90643655D01*
X162131739Y-90642834D01*
X162150503Y-90630490D01*
X162221129Y-90623908D01*
X162245524Y-90623572D01*
X162343902Y-90635301D01*
X162378417Y-90671798D01*
X162378572Y-90675467D01*
X162629755Y-90675467D01*
X162627814Y-90672268D01*
X162609005Y-90632812D01*
X162646272Y-90623572D01*
X162697236Y-90647810D01*
X162705143Y-90671953D01*
X163086253Y-90671953D01*
X163101461Y-90628015D01*
X163031715Y-90628015D01*
X163018666Y-90658867D01*
X163001900Y-90643556D01*
X162862542Y-90643556D01*
X162832282Y-90653760D01*
X162784972Y-90616315D01*
X162778289Y-90605155D01*
X161536047Y-90605155D01*
X161521654Y-90672316D01*
X161496590Y-90724149D01*
X161483244Y-90732429D01*
X161476747Y-90705222D01*
X161484551Y-90678000D01*
X161036000Y-90678000D01*
X161017857Y-90696143D01*
X160999714Y-90678000D01*
X161017857Y-90659857D01*
X161036000Y-90678000D01*
X161484551Y-90678000D01*
X161478624Y-90633718D01*
X161424933Y-90621116D01*
X161344429Y-90618660D01*
X161426419Y-90579130D01*
X161480990Y-90561401D01*
X161102723Y-90561401D01*
X161093894Y-90581680D01*
X161057358Y-90620634D01*
X161036353Y-90612643D01*
X161036000Y-90607570D01*
X161061773Y-90576879D01*
X161077892Y-90565678D01*
X161102723Y-90561401D01*
X161480990Y-90561401D01*
X161495935Y-90556546D01*
X161529518Y-90560709D01*
X161536047Y-90605155D01*
X162778289Y-90605155D01*
X162756722Y-90569143D01*
X161906857Y-90569143D01*
X161888715Y-90587286D01*
X161870572Y-90569143D01*
X161888715Y-90551000D01*
X161906857Y-90569143D01*
X162756722Y-90569143D01*
X162745905Y-90551082D01*
X162752054Y-90496759D01*
X162791627Y-90478429D01*
X162835330Y-90509528D01*
X162859167Y-90569143D01*
X162862542Y-90643556D01*
X163001900Y-90643556D01*
X162983878Y-90627098D01*
X162954479Y-90578215D01*
X162927871Y-90523072D01*
X162941668Y-90522992D01*
X162971345Y-90546372D01*
X163020183Y-90599841D01*
X163031715Y-90628015D01*
X163101461Y-90628015D01*
X163102131Y-90626081D01*
X163115344Y-90627339D01*
X163118786Y-90684041D01*
X163111131Y-90787801D01*
X163104574Y-90841286D01*
X163095061Y-90952571D01*
X163098724Y-91030221D01*
X163109361Y-91053028D01*
X163125628Y-91087677D01*
X163367293Y-91087677D01*
X163348843Y-91019635D01*
X163338722Y-90993459D01*
X163294132Y-90898140D01*
X163253519Y-90859200D01*
X163205444Y-90861873D01*
X163152493Y-90866738D01*
X163147429Y-90822542D01*
X163148463Y-90817576D01*
X163179500Y-90766146D01*
X163206227Y-90759643D01*
X163239412Y-90761450D01*
X163244268Y-90737321D01*
X163219051Y-90672393D01*
X163188280Y-90606660D01*
X163135298Y-90524382D01*
X163080323Y-90480613D01*
X163068514Y-90478429D01*
X162982645Y-90461888D01*
X162894007Y-90422011D01*
X162829914Y-90373421D01*
X162814283Y-90342357D01*
X162843237Y-90302199D01*
X162868429Y-90297000D01*
X162916679Y-90318938D01*
X162922857Y-90337729D01*
X162940406Y-90356904D01*
X162977286Y-90333286D01*
X163026414Y-90261860D01*
X163017259Y-90192797D01*
X162989822Y-90166535D01*
X162965005Y-90162516D01*
X162977003Y-90191608D01*
X162991033Y-90223506D01*
X162961277Y-90200972D01*
X162957209Y-90197215D01*
X162887017Y-90156427D01*
X162832033Y-90163661D01*
X162814000Y-90206286D01*
X162794407Y-90254574D01*
X162777715Y-90260715D01*
X162745169Y-90289949D01*
X162741429Y-90313002D01*
X162715690Y-90378298D01*
X162655775Y-90391398D01*
X162614429Y-90369572D01*
X162551333Y-90345627D01*
X162521586Y-90352744D01*
X162518901Y-90383768D01*
X162580790Y-90427109D01*
X162592061Y-90432726D01*
X162669314Y-90484208D01*
X162675933Y-90524751D01*
X162613713Y-90547929D01*
X162558998Y-90551000D01*
X162485335Y-90541359D01*
X162479371Y-90527432D01*
X162046475Y-90527432D01*
X162025311Y-90550908D01*
X162022620Y-90551000D01*
X161987736Y-90526810D01*
X160733619Y-90526810D01*
X160728638Y-90548382D01*
X160709429Y-90551000D01*
X160679562Y-90537724D01*
X160685238Y-90526810D01*
X160728301Y-90522467D01*
X160733619Y-90526810D01*
X161987736Y-90526810D01*
X161980692Y-90521926D01*
X161965143Y-90493540D01*
X161964159Y-90451002D01*
X161986208Y-90450450D01*
X162029726Y-90483689D01*
X162046475Y-90527432D01*
X162479371Y-90527432D01*
X162470853Y-90507544D01*
X162474307Y-90496572D01*
X162471961Y-90467642D01*
X162210773Y-90467642D01*
X162160857Y-90472700D01*
X162109345Y-90466997D01*
X162115500Y-90454398D01*
X162189790Y-90449605D01*
X162206215Y-90454398D01*
X162210773Y-90467642D01*
X162471961Y-90467642D01*
X162471105Y-90457095D01*
X162411875Y-90442683D01*
X162386336Y-90442143D01*
X161507715Y-90442143D01*
X161477323Y-90471625D01*
X161435143Y-90478429D01*
X161376180Y-90463233D01*
X161362572Y-90442143D01*
X161392963Y-90412662D01*
X161435143Y-90405857D01*
X161494106Y-90421053D01*
X161507715Y-90442143D01*
X162386336Y-90442143D01*
X162294837Y-90423458D01*
X162255454Y-90384747D01*
X162250497Y-90369572D01*
X162088286Y-90369572D01*
X162075010Y-90399439D01*
X162064095Y-90393762D01*
X162063486Y-90387715D01*
X161217429Y-90387715D01*
X161199286Y-90405857D01*
X161181143Y-90387715D01*
X161199286Y-90369572D01*
X161217429Y-90387715D01*
X162063486Y-90387715D01*
X162059753Y-90350700D01*
X162064095Y-90345381D01*
X162085667Y-90350362D01*
X162088286Y-90369572D01*
X162250497Y-90369572D01*
X162238312Y-90332277D01*
X162247685Y-90309096D01*
X161459334Y-90309096D01*
X161454353Y-90330667D01*
X161435143Y-90333286D01*
X161405276Y-90320010D01*
X161410953Y-90309096D01*
X161454015Y-90304753D01*
X161459334Y-90309096D01*
X162247685Y-90309096D01*
X162250398Y-90302387D01*
X162307090Y-90278167D01*
X162369733Y-90259076D01*
X162412887Y-90242572D01*
X162124572Y-90242572D01*
X162106429Y-90260715D01*
X162088286Y-90242572D01*
X162106429Y-90224429D01*
X162124572Y-90242572D01*
X162412887Y-90242572D01*
X162513601Y-90204055D01*
X162518591Y-90200238D01*
X162293905Y-90200238D01*
X162288924Y-90221810D01*
X162269715Y-90224429D01*
X162239847Y-90211153D01*
X162245524Y-90200238D01*
X162288587Y-90195896D01*
X162293905Y-90200238D01*
X162518591Y-90200238D01*
X162601548Y-90136793D01*
X162650221Y-90044556D01*
X162650222Y-90044553D01*
X162666326Y-89984413D01*
X162650377Y-89985238D01*
X162619216Y-90014887D01*
X162572266Y-90075569D01*
X162560000Y-90109098D01*
X162531301Y-90148769D01*
X162472223Y-90175855D01*
X162423295Y-90172248D01*
X162421759Y-90170854D01*
X162430567Y-90153262D01*
X162445095Y-90151857D01*
X162482612Y-90122568D01*
X162487429Y-90097429D01*
X162467995Y-90048566D01*
X162428216Y-90055294D01*
X162403218Y-90093567D01*
X162364088Y-90123131D01*
X162287067Y-90146185D01*
X162196019Y-90159888D01*
X162114804Y-90161397D01*
X162067284Y-90147872D01*
X162063802Y-90133983D01*
X162104070Y-90109021D01*
X162157202Y-90097429D01*
X161435143Y-90097429D01*
X161415550Y-90145717D01*
X161398857Y-90151857D01*
X161366368Y-90181117D01*
X161362572Y-90204483D01*
X161339211Y-90253523D01*
X161288232Y-90299877D01*
X161238291Y-90320604D01*
X161223863Y-90315529D01*
X161229166Y-90278373D01*
X161237115Y-90260715D01*
X160346572Y-90260715D01*
X160333295Y-90290582D01*
X160322381Y-90284905D01*
X160318038Y-90241842D01*
X160322381Y-90236524D01*
X160343953Y-90241505D01*
X160346572Y-90260715D01*
X161237115Y-90260715D01*
X161252051Y-90227537D01*
X161296735Y-90168572D01*
X161327563Y-90151857D01*
X161358628Y-90122448D01*
X161362572Y-90097429D01*
X161377295Y-90061143D01*
X161253715Y-90061143D01*
X161235572Y-90079286D01*
X161217429Y-90061143D01*
X161223476Y-90055096D01*
X158737905Y-90055096D01*
X158732924Y-90076667D01*
X158713715Y-90079286D01*
X158683847Y-90066010D01*
X158689524Y-90055096D01*
X158732587Y-90050753D01*
X158737905Y-90055096D01*
X161223476Y-90055096D01*
X161235572Y-90043000D01*
X161253715Y-90061143D01*
X161377295Y-90061143D01*
X161382165Y-90049141D01*
X161398857Y-90043000D01*
X161431049Y-90072390D01*
X161435143Y-90097429D01*
X162157202Y-90097429D01*
X162190749Y-90090110D01*
X162229154Y-90086175D01*
X162347256Y-90063483D01*
X162402328Y-90020314D01*
X162187406Y-90020314D01*
X162186601Y-90038349D01*
X162144856Y-90043000D01*
X162084513Y-90023072D01*
X162072234Y-90010099D01*
X162083845Y-89991555D01*
X162124522Y-89996188D01*
X162187406Y-90020314D01*
X162402328Y-90020314D01*
X162403924Y-90019063D01*
X162404587Y-90017427D01*
X162398220Y-89951283D01*
X162350438Y-89909953D01*
X162003619Y-89909953D01*
X161998638Y-89931525D01*
X161979429Y-89934143D01*
X161949562Y-89920867D01*
X161955238Y-89909953D01*
X161998301Y-89905610D01*
X162003619Y-89909953D01*
X162350438Y-89909953D01*
X162338720Y-89899818D01*
X162245475Y-89875032D01*
X162179706Y-89878242D01*
X162117894Y-89885435D01*
X162114402Y-89881476D01*
X161782913Y-89881476D01*
X161779600Y-89898273D01*
X161740791Y-89928353D01*
X161699200Y-89933401D01*
X161689143Y-89919883D01*
X161717606Y-89896578D01*
X161745456Y-89884012D01*
X161782913Y-89881476D01*
X162114402Y-89881476D01*
X162111538Y-89878230D01*
X162115500Y-89876264D01*
X162120045Y-89871973D01*
X161538151Y-89871973D01*
X161529322Y-89892251D01*
X161492786Y-89931205D01*
X161471782Y-89923214D01*
X161471429Y-89918142D01*
X161497202Y-89887451D01*
X161513321Y-89876250D01*
X161538151Y-89871973D01*
X162120045Y-89871973D01*
X162133330Y-89859430D01*
X161144857Y-89859430D01*
X161118517Y-89896381D01*
X161108572Y-89897857D01*
X161087067Y-89890324D01*
X158597616Y-89890324D01*
X158586715Y-89896746D01*
X158527083Y-89878679D01*
X158496000Y-89861572D01*
X158466956Y-89832820D01*
X158477857Y-89826397D01*
X158537488Y-89844464D01*
X158568572Y-89861572D01*
X158597616Y-89890324D01*
X161087067Y-89890324D01*
X161073229Y-89885477D01*
X161072286Y-89881856D01*
X161097713Y-89850876D01*
X161108572Y-89843429D01*
X158822572Y-89843429D01*
X158804429Y-89861572D01*
X158786286Y-89843429D01*
X158804429Y-89825286D01*
X158822572Y-89843429D01*
X161108572Y-89843429D01*
X161142008Y-89846306D01*
X161144857Y-89859430D01*
X162133330Y-89859430D01*
X162157385Y-89836721D01*
X162160857Y-89822490D01*
X162132447Y-89800720D01*
X162067319Y-89804989D01*
X161995630Y-89833147D01*
X161993561Y-89834421D01*
X161939623Y-89841365D01*
X161931677Y-89825286D01*
X161616572Y-89825286D01*
X161603295Y-89855153D01*
X161592381Y-89849477D01*
X161588038Y-89806414D01*
X161592381Y-89801096D01*
X161613953Y-89806077D01*
X161616572Y-89825286D01*
X161931677Y-89825286D01*
X161910821Y-89783086D01*
X161908615Y-89752715D01*
X161072286Y-89752715D01*
X161046243Y-89787962D01*
X161038142Y-89789000D01*
X161033742Y-89786638D01*
X158632247Y-89786638D01*
X158627283Y-89789000D01*
X158594169Y-89763456D01*
X158586715Y-89752715D01*
X158577468Y-89718791D01*
X158582432Y-89716429D01*
X158615545Y-89741973D01*
X158623000Y-89752715D01*
X158632247Y-89786638D01*
X161033742Y-89786638D01*
X160988999Y-89762624D01*
X160981572Y-89752715D01*
X160989798Y-89721650D01*
X161015716Y-89716429D01*
X161065363Y-89735374D01*
X161072286Y-89752715D01*
X161908615Y-89752715D01*
X161906857Y-89728524D01*
X161889377Y-89662672D01*
X161824489Y-89643888D01*
X161820025Y-89643857D01*
X161744401Y-89665009D01*
X161711424Y-89700586D01*
X161674981Y-89737775D01*
X161652018Y-89734053D01*
X161646677Y-89694406D01*
X161695344Y-89626675D01*
X161696541Y-89625427D01*
X161749820Y-89583381D01*
X161495619Y-89583381D01*
X161490638Y-89604953D01*
X161471429Y-89607572D01*
X161441562Y-89594295D01*
X161447238Y-89583381D01*
X161490301Y-89579039D01*
X161495619Y-89583381D01*
X161749820Y-89583381D01*
X161759057Y-89576092D01*
X161799140Y-89573660D01*
X161800974Y-89576097D01*
X161847602Y-89594517D01*
X161938012Y-89597718D01*
X161977222Y-89594443D01*
X162064808Y-89588665D01*
X162107519Y-89594581D01*
X162107182Y-89600771D01*
X162053471Y-89622240D01*
X162022225Y-89625252D01*
X161968792Y-89645262D01*
X161964481Y-89687773D01*
X162003078Y-89728334D01*
X162052000Y-89742446D01*
X162158180Y-89757126D01*
X162247893Y-89774921D01*
X162319512Y-89784537D01*
X162330665Y-89763925D01*
X162327395Y-89757976D01*
X162271546Y-89719648D01*
X162249430Y-89716429D01*
X162202533Y-89696141D01*
X162197143Y-89680143D01*
X162224756Y-89644912D01*
X162233429Y-89643857D01*
X162265621Y-89614468D01*
X162269715Y-89589429D01*
X162247807Y-89553143D01*
X161870572Y-89553143D01*
X161852429Y-89571286D01*
X161834286Y-89553143D01*
X161852429Y-89535000D01*
X161870572Y-89553143D01*
X162247807Y-89553143D01*
X162240669Y-89541322D01*
X162215286Y-89535000D01*
X162167135Y-89507948D01*
X162164669Y-89498715D01*
X161616572Y-89498715D01*
X161588959Y-89533946D01*
X161580286Y-89535000D01*
X161545055Y-89507388D01*
X161544000Y-89498715D01*
X161571613Y-89463483D01*
X161580286Y-89462429D01*
X161615517Y-89490041D01*
X161616572Y-89498715D01*
X162164669Y-89498715D01*
X162162350Y-89490039D01*
X162072548Y-89490039D01*
X162036881Y-89495850D01*
X161989818Y-89489179D01*
X161989256Y-89476792D01*
X162037821Y-89468130D01*
X162058804Y-89473927D01*
X162072548Y-89490039D01*
X162162350Y-89490039D01*
X162160857Y-89484454D01*
X162133456Y-89427434D01*
X162061540Y-89414225D01*
X161962024Y-89446965D01*
X161875158Y-89478264D01*
X161823287Y-89471651D01*
X161819592Y-89431952D01*
X161839262Y-89402004D01*
X161864602Y-89351025D01*
X161831953Y-89315076D01*
X161759742Y-89283656D01*
X161728018Y-89309424D01*
X161725429Y-89335429D01*
X161695407Y-89384236D01*
X161661929Y-89395384D01*
X161573479Y-89402893D01*
X161544000Y-89405317D01*
X161502915Y-89437887D01*
X161500234Y-89472361D01*
X161484764Y-89523733D01*
X161434289Y-89535000D01*
X161378847Y-89549090D01*
X161379363Y-89603205D01*
X161380714Y-89607572D01*
X161384169Y-89666199D01*
X161338236Y-89677154D01*
X161275033Y-89658198D01*
X161237629Y-89621572D01*
X161241387Y-89598163D01*
X161241426Y-89577190D01*
X161226442Y-89583859D01*
X161203623Y-89633504D01*
X161207227Y-89689251D01*
X161217014Y-89744481D01*
X161198520Y-89735573D01*
X161176606Y-89709615D01*
X161105179Y-89661145D01*
X161017857Y-89637044D01*
X160938896Y-89617157D01*
X160933340Y-89607572D01*
X158895143Y-89607572D01*
X158881867Y-89637439D01*
X158870953Y-89631762D01*
X158866684Y-89589429D01*
X158641143Y-89589429D01*
X158623000Y-89607572D01*
X158604857Y-89589429D01*
X158623000Y-89571286D01*
X158641143Y-89589429D01*
X158866684Y-89589429D01*
X158866610Y-89588700D01*
X158870953Y-89583381D01*
X158892524Y-89588362D01*
X158895143Y-89607572D01*
X160933340Y-89607572D01*
X160922008Y-89588024D01*
X160544156Y-89588024D01*
X160497143Y-89583219D01*
X160441512Y-89547129D01*
X158537450Y-89547129D01*
X158525884Y-89574356D01*
X158474881Y-89602940D01*
X158414357Y-89617609D01*
X158325321Y-89629380D01*
X158271485Y-89637808D01*
X158270353Y-89638050D01*
X158258166Y-89616527D01*
X158265164Y-89589429D01*
X158302129Y-89541381D01*
X158320899Y-89535000D01*
X158339485Y-89506652D01*
X158332715Y-89462429D01*
X158329617Y-89405517D01*
X158381621Y-89389873D01*
X158384698Y-89389857D01*
X158446984Y-89414279D01*
X158459715Y-89462429D01*
X158474910Y-89521392D01*
X158496000Y-89535000D01*
X158537450Y-89547129D01*
X160441512Y-89547129D01*
X160432219Y-89541101D01*
X160412786Y-89504431D01*
X160409523Y-89444286D01*
X158604857Y-89444286D01*
X158586715Y-89462429D01*
X158568572Y-89444286D01*
X158586715Y-89426143D01*
X158604857Y-89444286D01*
X160409523Y-89444286D01*
X160408888Y-89432591D01*
X160414686Y-89324009D01*
X160416284Y-89308611D01*
X159060834Y-89308611D01*
X159025167Y-89314421D01*
X158978104Y-89307750D01*
X158977542Y-89295363D01*
X159026106Y-89286701D01*
X159047089Y-89292499D01*
X159060834Y-89308611D01*
X160416284Y-89308611D01*
X160419152Y-89281000D01*
X160429947Y-89190286D01*
X159185429Y-89190286D01*
X159167286Y-89208429D01*
X159149143Y-89190286D01*
X159167286Y-89172143D01*
X159185429Y-89190286D01*
X160429947Y-89190286D01*
X160434265Y-89154000D01*
X158604857Y-89154000D01*
X158586715Y-89172143D01*
X158568572Y-89154000D01*
X158586715Y-89135857D01*
X158604857Y-89154000D01*
X160434265Y-89154000D01*
X160438584Y-89117715D01*
X160467482Y-89316379D01*
X160489849Y-89434971D01*
X160516270Y-89526270D01*
X160532407Y-89558453D01*
X160544156Y-89588024D01*
X160922008Y-89588024D01*
X160908947Y-89565494D01*
X160905338Y-89525929D01*
X160914917Y-89454183D01*
X160960943Y-89421418D01*
X161058960Y-89418274D01*
X161081357Y-89419966D01*
X161134733Y-89399601D01*
X161144857Y-89371287D01*
X161172562Y-89335429D01*
X161072286Y-89335429D01*
X161054143Y-89353572D01*
X161036000Y-89335429D01*
X161042048Y-89329381D01*
X160915048Y-89329381D01*
X160910067Y-89350953D01*
X160890857Y-89353572D01*
X160860990Y-89340295D01*
X160866667Y-89329381D01*
X160909730Y-89325039D01*
X160915048Y-89329381D01*
X161042048Y-89329381D01*
X161054143Y-89317286D01*
X161072286Y-89335429D01*
X161172562Y-89335429D01*
X161178225Y-89328100D01*
X161262786Y-89313669D01*
X161338329Y-89309829D01*
X161346302Y-89301119D01*
X161291700Y-89281545D01*
X161290000Y-89281000D01*
X161238930Y-89259182D01*
X161244643Y-89248332D01*
X161286898Y-89221390D01*
X161290000Y-89207738D01*
X161259827Y-89187388D01*
X161193320Y-89195026D01*
X161126545Y-89205541D01*
X161112712Y-89182480D01*
X161120748Y-89156464D01*
X161137685Y-89081429D01*
X160056286Y-89081429D01*
X160038143Y-89099572D01*
X160020000Y-89081429D01*
X159004000Y-89081429D01*
X158985857Y-89099572D01*
X158967714Y-89081429D01*
X158985857Y-89063286D01*
X159004000Y-89081429D01*
X160020000Y-89081429D01*
X160038143Y-89063286D01*
X160056286Y-89081429D01*
X161137685Y-89081429D01*
X161139922Y-89071523D01*
X161146011Y-88996818D01*
X161146535Y-88990715D01*
X160455429Y-88990715D01*
X160442152Y-89020582D01*
X160431238Y-89014905D01*
X160430155Y-89004161D01*
X159021659Y-89004161D01*
X159006901Y-89024793D01*
X158966410Y-89027000D01*
X158914622Y-89014654D01*
X158910722Y-88994864D01*
X158895663Y-88965507D01*
X158839426Y-88945302D01*
X158753607Y-88946133D01*
X158723828Y-88985474D01*
X158755948Y-89053527D01*
X158784827Y-89095934D01*
X158758738Y-89095647D01*
X158737961Y-89088223D01*
X158671004Y-89067278D01*
X158647247Y-89063286D01*
X158628787Y-89032259D01*
X158623000Y-88975504D01*
X158631954Y-88919334D01*
X158671845Y-88890592D01*
X158762215Y-88876708D01*
X158778735Y-88875336D01*
X158885395Y-88874222D01*
X158948871Y-88898824D01*
X158988214Y-88944975D01*
X159021659Y-89004161D01*
X160430155Y-89004161D01*
X160426896Y-88971842D01*
X160431238Y-88966524D01*
X160452810Y-88971505D01*
X160455429Y-88990715D01*
X161146535Y-88990715D01*
X161151477Y-88933250D01*
X161171857Y-88933456D01*
X161191369Y-88955750D01*
X161257673Y-88996592D01*
X161299072Y-88998446D01*
X161352117Y-89005146D01*
X161362572Y-89024340D01*
X161334195Y-89060905D01*
X161319351Y-89063286D01*
X161310443Y-89080635D01*
X161346565Y-89116561D01*
X161436270Y-89157313D01*
X161521229Y-89170989D01*
X161590423Y-89166643D01*
X161598858Y-89143898D01*
X161578392Y-89115433D01*
X161553051Y-89076352D01*
X161582011Y-89072349D01*
X161619620Y-89080883D01*
X161681792Y-89087658D01*
X161706884Y-89052466D01*
X161711475Y-89002810D01*
X161604476Y-89002810D01*
X161599495Y-89024382D01*
X161580286Y-89027000D01*
X161550419Y-89013724D01*
X161556095Y-89002810D01*
X161599158Y-88998467D01*
X161604476Y-89002810D01*
X161711475Y-89002810D01*
X161712433Y-88992450D01*
X161699275Y-88907525D01*
X161647704Y-88881657D01*
X161553679Y-88913100D01*
X161542431Y-88918983D01*
X161492900Y-88938346D01*
X161490600Y-88910998D01*
X161494270Y-88900840D01*
X161495851Y-88899449D01*
X161311557Y-88899449D01*
X161308143Y-88918143D01*
X161261753Y-88953045D01*
X161251573Y-88954429D01*
X161218406Y-88926752D01*
X161217429Y-88918143D01*
X161246964Y-88886298D01*
X161273999Y-88881857D01*
X159766000Y-88881857D01*
X159738388Y-88917089D01*
X159729714Y-88918143D01*
X159694483Y-88890531D01*
X159693429Y-88881857D01*
X159721041Y-88846626D01*
X159729714Y-88845572D01*
X159764946Y-88873184D01*
X159766000Y-88881857D01*
X161273999Y-88881857D01*
X161311557Y-88899449D01*
X161495851Y-88899449D01*
X161543102Y-88857886D01*
X161602311Y-88845572D01*
X161671292Y-88826754D01*
X161689143Y-88793425D01*
X161671058Y-88760606D01*
X161606679Y-88755516D01*
X161553072Y-88762174D01*
X161453077Y-88783941D01*
X161382938Y-88810482D01*
X161376242Y-88814947D01*
X161310019Y-88831413D01*
X161278194Y-88824840D01*
X161202354Y-88820763D01*
X161174731Y-88831392D01*
X161111018Y-88850748D01*
X161009052Y-88863888D01*
X160976302Y-88865723D01*
X160873172Y-88862241D01*
X160821705Y-88836932D01*
X160806875Y-88805856D01*
X160811183Y-88744473D01*
X160831209Y-88725279D01*
X160852626Y-88693707D01*
X160845125Y-88680831D01*
X160805986Y-88682381D01*
X160768987Y-88717693D01*
X160716536Y-88760502D01*
X160681747Y-88760175D01*
X160635919Y-88764501D01*
X160623739Y-88781846D01*
X160616579Y-88778192D01*
X160620097Y-88717633D01*
X160626166Y-88667658D01*
X160634265Y-88565767D01*
X160621166Y-88528960D01*
X160608328Y-88532350D01*
X160561280Y-88525859D01*
X160531334Y-88492549D01*
X160506087Y-88461027D01*
X160492962Y-88486598D01*
X160487069Y-88555286D01*
X160484226Y-88664185D01*
X160486816Y-88751977D01*
X160487008Y-88754086D01*
X160481238Y-88798942D01*
X160461845Y-88790372D01*
X160451907Y-88764325D01*
X159786548Y-88764325D01*
X159750881Y-88770136D01*
X159703818Y-88763464D01*
X159703256Y-88751078D01*
X159751821Y-88742416D01*
X159772804Y-88748213D01*
X159786548Y-88764325D01*
X160451907Y-88764325D01*
X160442807Y-88740475D01*
X160437741Y-88718572D01*
X159475714Y-88718572D01*
X159457572Y-88736715D01*
X159445782Y-88724925D01*
X159237757Y-88724925D01*
X159230768Y-88765777D01*
X159168736Y-88869793D01*
X159089628Y-88914687D01*
X159076572Y-88915609D01*
X159045438Y-88907896D01*
X159074075Y-88876584D01*
X159085643Y-88867632D01*
X159136775Y-88813497D01*
X159149143Y-88781954D01*
X159154956Y-88773000D01*
X159076572Y-88773000D01*
X159048959Y-88808232D01*
X159040286Y-88809286D01*
X159005055Y-88781674D01*
X159004000Y-88773000D01*
X159031613Y-88737769D01*
X159040286Y-88736715D01*
X159075517Y-88764327D01*
X159076572Y-88773000D01*
X159154956Y-88773000D01*
X159178060Y-88737417D01*
X159201724Y-88724302D01*
X159237757Y-88724925D01*
X159445782Y-88724925D01*
X159439429Y-88718572D01*
X159457572Y-88700429D01*
X159475714Y-88718572D01*
X160437741Y-88718572D01*
X160418863Y-88636969D01*
X160404221Y-88555286D01*
X160092572Y-88555286D01*
X160079295Y-88585153D01*
X160068381Y-88579477D01*
X160067772Y-88573429D01*
X159838572Y-88573429D01*
X159820429Y-88591572D01*
X159802286Y-88573429D01*
X159820429Y-88555286D01*
X159838572Y-88573429D01*
X160067772Y-88573429D01*
X160064038Y-88536414D01*
X160068381Y-88531096D01*
X160089953Y-88536077D01*
X160092572Y-88555286D01*
X160404221Y-88555286D01*
X160398299Y-88522247D01*
X159707565Y-88522247D01*
X159706882Y-88563365D01*
X159690369Y-88618786D01*
X159645954Y-88687302D01*
X159595791Y-88695296D01*
X159569426Y-88668993D01*
X159578620Y-88629600D01*
X159618415Y-88577389D01*
X159362404Y-88577389D01*
X159353396Y-88627572D01*
X159342667Y-88639953D01*
X159289557Y-88663066D01*
X159259217Y-88625300D01*
X159258000Y-88609715D01*
X159287046Y-88561608D01*
X159312429Y-88555286D01*
X159362404Y-88577389D01*
X159618415Y-88577389D01*
X159619993Y-88575320D01*
X159670272Y-88530879D01*
X159706184Y-88520998D01*
X159707565Y-88522247D01*
X160398299Y-88522247D01*
X160394000Y-88498269D01*
X160388912Y-88464572D01*
X159802286Y-88464572D01*
X159784143Y-88482715D01*
X159766000Y-88464572D01*
X159784143Y-88446429D01*
X159802286Y-88464572D01*
X160388912Y-88464572D01*
X160383433Y-88428286D01*
X160092572Y-88428286D01*
X160074429Y-88446429D01*
X160056286Y-88428286D01*
X160074429Y-88410143D01*
X160092572Y-88428286D01*
X160383433Y-88428286D01*
X160377005Y-88392107D01*
X160010641Y-88392107D01*
X159976051Y-88435483D01*
X159945287Y-88446429D01*
X159911822Y-88419058D01*
X159911143Y-88412285D01*
X159935248Y-88366485D01*
X159982582Y-88342374D01*
X160007905Y-88349667D01*
X160010641Y-88392107D01*
X160377005Y-88392107D01*
X160359037Y-88290986D01*
X160353340Y-88265000D01*
X160255857Y-88265000D01*
X160252980Y-88298437D01*
X160239856Y-88301286D01*
X160202905Y-88274946D01*
X160201429Y-88265000D01*
X160209902Y-88240810D01*
X159971619Y-88240810D01*
X159966638Y-88262382D01*
X159947429Y-88265000D01*
X159917562Y-88251724D01*
X159923238Y-88240810D01*
X159966301Y-88236467D01*
X159971619Y-88240810D01*
X160209902Y-88240810D01*
X160213809Y-88229658D01*
X160217430Y-88228715D01*
X160248410Y-88254141D01*
X160255857Y-88265000D01*
X160353340Y-88265000D01*
X160335307Y-88182748D01*
X160187815Y-88182748D01*
X160171728Y-88192429D01*
X160118545Y-88165724D01*
X160109222Y-88153729D01*
X160096441Y-88109281D01*
X159968953Y-88109281D01*
X159964022Y-88122365D01*
X159919057Y-88151757D01*
X159864485Y-88151331D01*
X159838572Y-88121999D01*
X159867255Y-88071409D01*
X159926502Y-88057545D01*
X159948021Y-88065795D01*
X159968953Y-88109281D01*
X160096441Y-88109281D01*
X160095639Y-88106492D01*
X160123798Y-88102616D01*
X160164415Y-88137123D01*
X160187815Y-88182748D01*
X160335307Y-88182748D01*
X160321638Y-88120403D01*
X160275934Y-87934145D01*
X160226620Y-87749822D01*
X160178392Y-87585042D01*
X160135947Y-87457415D01*
X160105923Y-87387745D01*
X160064797Y-87378989D01*
X159988786Y-87393370D01*
G37*
X159988786Y-87393370D02*
X159908021Y-87421776D01*
X159852629Y-87455095D01*
X159844619Y-87466777D01*
X159803280Y-87496223D01*
X159753905Y-87504104D01*
X159700112Y-87508518D01*
X159714648Y-87527563D01*
X159740686Y-87543256D01*
X159819361Y-87560888D01*
X159849543Y-87547393D01*
X159913653Y-87513054D01*
X159987980Y-87491448D01*
X160043699Y-87489065D01*
X160056286Y-87500852D01*
X160027869Y-87536366D01*
X159974643Y-87570781D01*
X159919326Y-87601159D01*
X159930164Y-87605610D01*
X159985156Y-87595692D01*
X160055553Y-87594444D01*
X160081248Y-87636582D01*
X160082780Y-87650605D01*
X160077076Y-87697216D01*
X160037372Y-87712257D01*
X159954338Y-87705221D01*
X159886927Y-87698585D01*
X159877599Y-87703382D01*
X159890983Y-87708002D01*
X159935478Y-87726013D01*
X159922475Y-87748533D01*
X159872841Y-87777877D01*
X159815262Y-87813104D01*
X159818978Y-87827723D01*
X159856714Y-87832143D01*
X159956500Y-87839369D01*
X159998675Y-87842500D01*
X160063686Y-87871705D01*
X160083080Y-87902143D01*
X160085099Y-87932879D01*
X160068120Y-87915281D01*
X160014874Y-87893628D01*
X159924967Y-87893791D01*
X159829001Y-87911330D01*
X159757579Y-87941807D01*
X159739694Y-87962919D01*
X159755001Y-87990497D01*
X159809285Y-87985468D01*
X159865476Y-87975666D01*
X159858625Y-87994090D01*
X159834571Y-88015537D01*
X159772063Y-88090262D01*
X159752364Y-88160253D01*
X159781159Y-88204340D01*
X159783618Y-88205349D01*
X159816707Y-88252456D01*
X159812298Y-88303203D01*
X159792749Y-88355689D01*
X159769960Y-88342151D01*
X159758883Y-88323566D01*
X159700219Y-88278194D01*
X159636058Y-88265000D01*
X159559504Y-88245418D01*
X159525122Y-88210572D01*
X159476484Y-88168453D01*
X159426475Y-88160352D01*
X159376780Y-88165848D01*
X159396663Y-88176747D01*
X159414879Y-88181669D01*
X159461713Y-88217202D01*
X159462088Y-88248174D01*
X159475371Y-88297593D01*
X159513852Y-88320017D01*
X159577918Y-88350443D01*
X159575544Y-88376048D01*
X159512858Y-88392893D01*
X159395985Y-88397042D01*
X159394072Y-88396993D01*
X159280465Y-88398302D01*
X159225237Y-88412391D01*
X159214775Y-88442917D01*
X159215205Y-88445043D01*
X159198661Y-88507332D01*
X159165296Y-88543085D01*
X159123116Y-88606640D01*
X159126414Y-88647132D01*
X159130809Y-88686199D01*
X159089485Y-88691629D01*
X159043784Y-88683054D01*
X158955115Y-88678929D01*
X158893620Y-88724957D01*
X158881340Y-88741531D01*
X158792668Y-88810457D01*
X158705449Y-88825361D01*
X158620975Y-88837074D01*
X158591938Y-88873714D01*
X158591754Y-88891009D01*
X158568347Y-88944674D01*
X158528254Y-88954429D01*
X158470683Y-88972547D01*
X158464378Y-89009508D01*
X158500944Y-89034696D01*
X158520625Y-89066085D01*
X158491872Y-89130797D01*
X158462739Y-89194351D01*
X158481298Y-89241754D01*
X158526994Y-89283169D01*
X158596730Y-89326655D01*
X158644803Y-89333166D01*
X158644923Y-89333093D01*
X158675697Y-89336022D01*
X158677429Y-89345344D01*
X158644813Y-89360303D01*
X158560632Y-89365069D01*
X158477857Y-89361135D01*
X158363902Y-89353578D01*
X158304463Y-89359731D01*
X158281829Y-89386229D01*
X158278286Y-89435911D01*
X158255307Y-89519869D01*
X158199442Y-89554646D01*
X158130299Y-89541171D01*
X158067488Y-89480374D01*
X158041976Y-89424718D01*
X158001398Y-89376332D01*
X157965834Y-89378280D01*
X157903722Y-89370032D01*
X157823792Y-89321210D01*
X157813477Y-89312381D01*
X157711342Y-89234454D01*
X157596035Y-89163347D01*
X157588857Y-89159566D01*
X157461857Y-89093655D01*
X157588857Y-89210623D01*
X157759837Y-89368728D01*
X157884004Y-89485868D01*
X157968334Y-89569795D01*
X158019802Y-89628262D01*
X158045384Y-89669022D01*
X158052055Y-89699827D01*
X158048685Y-89721678D01*
X158046991Y-89768092D01*
X158061792Y-89770103D01*
X158108375Y-89777607D01*
X158164255Y-89828723D01*
X158211007Y-89899996D01*
X158230202Y-89967971D01*
X158228412Y-89982185D01*
X158229367Y-90030364D01*
X158262791Y-90028863D01*
X158307677Y-90035765D01*
X158314572Y-90057839D01*
X158340102Y-90120952D01*
X158366843Y-90150067D01*
X158401764Y-90210597D01*
X158399364Y-90244919D01*
X158409869Y-90299725D01*
X158435590Y-90317869D01*
X158481933Y-90365690D01*
X158516142Y-90451298D01*
X158516687Y-90453728D01*
X158548978Y-90545461D01*
X158591096Y-90604910D01*
X158625363Y-90662313D01*
X158649770Y-90759712D01*
X158653418Y-90790515D01*
X158667896Y-90895307D01*
X158687721Y-90971254D01*
X158693208Y-90982605D01*
X158696953Y-91044789D01*
X158682608Y-91070903D01*
X158663014Y-91142101D01*
X158673794Y-91242456D01*
X158687429Y-91344489D01*
X158682358Y-91423274D01*
X158680810Y-91428110D01*
X158659286Y-91461002D01*
X158626106Y-91440205D01*
X158594092Y-91400110D01*
X158557897Y-91339805D01*
X158558428Y-91331143D01*
X158459715Y-91331143D01*
X158441572Y-91349286D01*
X158423429Y-91331143D01*
X158441572Y-91313000D01*
X158459715Y-91331143D01*
X158558428Y-91331143D01*
X158559538Y-91313076D01*
X158560814Y-91313000D01*
X158584430Y-91284131D01*
X158584169Y-91218671D01*
X158560643Y-91148345D01*
X158557523Y-91143050D01*
X158549918Y-91080481D01*
X158565995Y-91011348D01*
X158583252Y-90921099D01*
X158548177Y-90880104D01*
X158526238Y-90877572D01*
X158501141Y-90907816D01*
X158496000Y-90945700D01*
X158470851Y-91025532D01*
X158445750Y-91055533D01*
X158401521Y-91064078D01*
X158373124Y-91009403D01*
X158362246Y-90899468D01*
X158370577Y-90742234D01*
X158373560Y-90715302D01*
X158381170Y-90606220D01*
X158376256Y-90533500D01*
X158364925Y-90514998D01*
X158323424Y-90546480D01*
X158286123Y-90620398D01*
X158264724Y-90707004D01*
X158266707Y-90764643D01*
X158263859Y-90832411D01*
X158244735Y-90857739D01*
X158209828Y-90845641D01*
X158182678Y-90771442D01*
X158182317Y-90769657D01*
X158154990Y-90689974D01*
X158107322Y-90665897D01*
X158082958Y-90667466D01*
X158019352Y-90655694D01*
X157994129Y-90593162D01*
X157972439Y-90532442D01*
X157917413Y-90525259D01*
X157894344Y-90530354D01*
X157827629Y-90534605D01*
X157806572Y-90515406D01*
X157835028Y-90480731D01*
X157850114Y-90478429D01*
X157874547Y-90466167D01*
X157852950Y-90437722D01*
X157827178Y-90373855D01*
X157829231Y-90360897D01*
X157427977Y-90360897D01*
X157392310Y-90366707D01*
X157345247Y-90360036D01*
X157344685Y-90347649D01*
X157393249Y-90338987D01*
X157414232Y-90344785D01*
X157427977Y-90360897D01*
X157829231Y-90360897D01*
X157831432Y-90347007D01*
X157820992Y-90305970D01*
X157774168Y-90297000D01*
X157710962Y-90273317D01*
X157697715Y-90224429D01*
X157689253Y-90200238D01*
X157613048Y-90200238D01*
X157608067Y-90221810D01*
X157588857Y-90224429D01*
X157558990Y-90211153D01*
X157564667Y-90200238D01*
X157607730Y-90195896D01*
X157613048Y-90200238D01*
X157689253Y-90200238D01*
X157677125Y-90165568D01*
X157648318Y-90151857D01*
X157613484Y-90122753D01*
X157614023Y-90052072D01*
X157629125Y-89952286D01*
X157573991Y-90043000D01*
X157535603Y-90093701D01*
X157517701Y-90092939D01*
X157517572Y-90090949D01*
X157492969Y-90034081D01*
X157470775Y-90006715D01*
X157153429Y-90006715D01*
X157140152Y-90036582D01*
X157129238Y-90030905D01*
X157124896Y-89987842D01*
X157129238Y-89982524D01*
X157150810Y-89987505D01*
X157153429Y-90006715D01*
X157470775Y-90006715D01*
X157452786Y-89984536D01*
X157403196Y-89920940D01*
X157401284Y-89916000D01*
X157153429Y-89916000D01*
X157135286Y-89934143D01*
X157117143Y-89916000D01*
X157135286Y-89897857D01*
X157153429Y-89916000D01*
X157401284Y-89916000D01*
X157388179Y-89882159D01*
X157370140Y-89827683D01*
X157359689Y-89807143D01*
X157153429Y-89807143D01*
X157135286Y-89825286D01*
X157117143Y-89807143D01*
X157080857Y-89807143D01*
X157062715Y-89825286D01*
X157044572Y-89807143D01*
X157062715Y-89789000D01*
X157080857Y-89807143D01*
X157117143Y-89807143D01*
X157135286Y-89789000D01*
X157153429Y-89807143D01*
X157359689Y-89807143D01*
X157327093Y-89743086D01*
X157316856Y-89725500D01*
X157247310Y-89635894D01*
X157186460Y-89609500D01*
X157141128Y-89649109D01*
X157139366Y-89652929D01*
X157123697Y-89671801D01*
X157122498Y-89643857D01*
X157120027Y-89547997D01*
X157092015Y-89505819D01*
X157053643Y-89499270D01*
X157013392Y-89506383D01*
X157039606Y-89531164D01*
X157070896Y-89561612D01*
X157039606Y-89585037D01*
X157010845Y-89610321D01*
X157034192Y-89628302D01*
X157059891Y-89660659D01*
X157036375Y-89716070D01*
X157014359Y-89785446D01*
X157046755Y-89846383D01*
X157076956Y-89901947D01*
X157057566Y-89923617D01*
X157039770Y-89963021D01*
X157048303Y-90042421D01*
X157076727Y-90137062D01*
X157118604Y-90222190D01*
X157143646Y-90254569D01*
X157172308Y-90312508D01*
X157167256Y-90340268D01*
X157172218Y-90388701D01*
X157194137Y-90409914D01*
X157224785Y-90442664D01*
X157190305Y-90477485D01*
X157189715Y-90477873D01*
X157153598Y-90506740D01*
X157180483Y-90514514D01*
X157189715Y-90514778D01*
X157233184Y-90547297D01*
X157288358Y-90632640D01*
X157331831Y-90723977D01*
X157390016Y-90848699D01*
X157449471Y-90955334D01*
X157486045Y-91006910D01*
X157535621Y-91077142D01*
X157552572Y-91124839D01*
X157576543Y-91165292D01*
X157588857Y-91167857D01*
X157621789Y-91196913D01*
X157625143Y-91217843D01*
X157650771Y-91280544D01*
X157683090Y-91315920D01*
X157720820Y-91356226D01*
X157695616Y-91381389D01*
X157674018Y-91390384D01*
X157628773Y-91411252D01*
X157650738Y-91418326D01*
X157670500Y-91419307D01*
X157724420Y-91438652D01*
X157734000Y-91458143D01*
X157762695Y-91491784D01*
X157779824Y-91494429D01*
X157828332Y-91523953D01*
X157861467Y-91575009D01*
X157910683Y-91627064D01*
X157992791Y-91671422D01*
X158078979Y-91696709D01*
X158140435Y-91691553D01*
X158145910Y-91687281D01*
X158183813Y-91684766D01*
X158288393Y-91682438D01*
X158453758Y-91680330D01*
X158674014Y-91678471D01*
X158943267Y-91676893D01*
X159255625Y-91675625D01*
X159605193Y-91674700D01*
X159986079Y-91674147D01*
X160392389Y-91673997D01*
X160666742Y-91674130D01*
X161234425Y-91674053D01*
X161730245Y-91672836D01*
X162154107Y-91670480D01*
X162505915Y-91666986D01*
X162785572Y-91662355D01*
X162992983Y-91656590D01*
X163128051Y-91649691D01*
X163190681Y-91641660D01*
X163195267Y-91639141D01*
X163215897Y-91630897D01*
X162471691Y-91630897D01*
X162436024Y-91636707D01*
X162388961Y-91630036D01*
X162388571Y-91621429D01*
X158677429Y-91621429D01*
X158659286Y-91639572D01*
X158641143Y-91621429D01*
X158659286Y-91603286D01*
X158677429Y-91621429D01*
X162388571Y-91621429D01*
X162388399Y-91617649D01*
X162436963Y-91608987D01*
X162457947Y-91614785D01*
X162471691Y-91630897D01*
X163215897Y-91630897D01*
X163240429Y-91621094D01*
X163261007Y-91629043D01*
X163338333Y-91655864D01*
X163434198Y-91663578D01*
X163518729Y-91652645D01*
X163561730Y-91624423D01*
X163561132Y-91615381D01*
X163346191Y-91615381D01*
X163341210Y-91636953D01*
X163322000Y-91639572D01*
X163292133Y-91626295D01*
X163297810Y-91615381D01*
X163340872Y-91611039D01*
X163346191Y-91615381D01*
X163561132Y-91615381D01*
X163557929Y-91567000D01*
X163485286Y-91567000D01*
X163482409Y-91600437D01*
X163469285Y-91603286D01*
X163432334Y-91576946D01*
X163430857Y-91567000D01*
X163443237Y-91531658D01*
X163446859Y-91530715D01*
X163477838Y-91556141D01*
X163485286Y-91567000D01*
X163557929Y-91567000D01*
X163557781Y-91564770D01*
X163526040Y-91472096D01*
X163509142Y-91435862D01*
X163460529Y-91335407D01*
X163425326Y-91256120D01*
X163419303Y-91240429D01*
X163404010Y-91221419D01*
X163397436Y-91266504D01*
X163378485Y-91325516D01*
X163346191Y-91328443D01*
X163304388Y-91339500D01*
X163297810Y-91365867D01*
X163323120Y-91415037D01*
X163346191Y-91421857D01*
X163390462Y-91443550D01*
X163394572Y-91458143D01*
X163363090Y-91483815D01*
X163287856Y-91494429D01*
X163203921Y-91505804D01*
X163158349Y-91531307D01*
X163120007Y-91554986D01*
X163085132Y-91521854D01*
X163074822Y-91476286D01*
X162124572Y-91476286D01*
X162106429Y-91494429D01*
X162088286Y-91476286D01*
X162106429Y-91458143D01*
X162124572Y-91476286D01*
X163074822Y-91476286D01*
X163068158Y-91446837D01*
X163068000Y-91437859D01*
X163051443Y-91373683D01*
X162903960Y-91373683D01*
X162899694Y-91403715D01*
X162876011Y-91451392D01*
X162868429Y-91458143D01*
X162855630Y-91440000D01*
X161652857Y-91440000D01*
X161634715Y-91458143D01*
X161616572Y-91440000D01*
X161326286Y-91440000D01*
X161308143Y-91458143D01*
X161290000Y-91440000D01*
X161308143Y-91421857D01*
X161326286Y-91440000D01*
X161616572Y-91440000D01*
X161634715Y-91421857D01*
X161652857Y-91440000D01*
X162855630Y-91440000D01*
X162848496Y-91429889D01*
X162837164Y-91403715D01*
X162841342Y-91367429D01*
X162705143Y-91367429D01*
X162687000Y-91385572D01*
X162668857Y-91367429D01*
X162088286Y-91367429D01*
X162070143Y-91385572D01*
X162052000Y-91367429D01*
X162070143Y-91349286D01*
X161725429Y-91349286D01*
X161712152Y-91379153D01*
X161701238Y-91373477D01*
X161700629Y-91367429D01*
X161507715Y-91367429D01*
X161489572Y-91385572D01*
X161471429Y-91367429D01*
X161488788Y-91350070D01*
X158848940Y-91350070D01*
X158840037Y-91399853D01*
X158820376Y-91402357D01*
X158789044Y-91351254D01*
X158786286Y-91329002D01*
X158800495Y-91280637D01*
X158828501Y-91288064D01*
X158848371Y-91343906D01*
X158848940Y-91350070D01*
X161488788Y-91350070D01*
X161489572Y-91349286D01*
X161507715Y-91367429D01*
X161700629Y-91367429D01*
X161696896Y-91330414D01*
X161701238Y-91325096D01*
X161722810Y-91330077D01*
X161725429Y-91349286D01*
X162070143Y-91349286D01*
X162088286Y-91367429D01*
X162668857Y-91367429D01*
X162687000Y-91349286D01*
X162705143Y-91367429D01*
X162841342Y-91367429D01*
X162842560Y-91356861D01*
X162868429Y-91349286D01*
X162903960Y-91373683D01*
X163051443Y-91373683D01*
X163050107Y-91368508D01*
X163017454Y-91349286D01*
X162961436Y-91319135D01*
X162950328Y-91285786D01*
X162812846Y-91285786D01*
X162796668Y-91313570D01*
X162755071Y-91291248D01*
X162736578Y-91268253D01*
X162508506Y-91268253D01*
X162503656Y-91279814D01*
X162459605Y-91297791D01*
X162448044Y-91292942D01*
X162431550Y-91252524D01*
X161931048Y-91252524D01*
X161926067Y-91274096D01*
X161906857Y-91276715D01*
X161876990Y-91263438D01*
X161882667Y-91252524D01*
X161925730Y-91248181D01*
X161931048Y-91252524D01*
X162431550Y-91252524D01*
X162430066Y-91248890D01*
X162434916Y-91237330D01*
X162471777Y-91222286D01*
X162124572Y-91222286D01*
X162106429Y-91240429D01*
X162088286Y-91222286D01*
X162106429Y-91204143D01*
X162124572Y-91222286D01*
X162471777Y-91222286D01*
X162478967Y-91219352D01*
X162490528Y-91224201D01*
X162508506Y-91268253D01*
X162736578Y-91268253D01*
X162711357Y-91236895D01*
X162682643Y-91171685D01*
X162684861Y-91139759D01*
X162717185Y-91149112D01*
X162763887Y-91195471D01*
X162802567Y-91253279D01*
X162812846Y-91285786D01*
X162950328Y-91285786D01*
X162937474Y-91247196D01*
X162948256Y-91180178D01*
X162966117Y-91149715D01*
X162886572Y-91149715D01*
X162868429Y-91167857D01*
X162850286Y-91149715D01*
X162868429Y-91131572D01*
X162886572Y-91149715D01*
X162966117Y-91149715D01*
X162969133Y-91144573D01*
X162990354Y-91172630D01*
X163000376Y-91198320D01*
X163043279Y-91257625D01*
X163096561Y-91275053D01*
X163134905Y-91247294D01*
X163140572Y-91216662D01*
X163145758Y-91176817D01*
X163173686Y-91187714D01*
X163206929Y-91216662D01*
X163279233Y-91269596D01*
X163315576Y-91262548D01*
X163322000Y-91225310D01*
X163345356Y-91170542D01*
X163361229Y-91160829D01*
X163375910Y-91119461D01*
X163367293Y-91087677D01*
X163125628Y-91087677D01*
X163121493Y-91096801D01*
X163075994Y-91113834D01*
X163048695Y-91107962D01*
X163021387Y-91071096D01*
X162947048Y-91071096D01*
X162942067Y-91092667D01*
X162922857Y-91095286D01*
X162892990Y-91082010D01*
X162898667Y-91071096D01*
X162941730Y-91066753D01*
X162947048Y-91071096D01*
X163021387Y-91071096D01*
X163009229Y-91054684D01*
X162999346Y-90968426D01*
X162882078Y-90968426D01*
X162873348Y-91007258D01*
X162825973Y-91038204D01*
X162762198Y-91037996D01*
X162739315Y-91019295D01*
X162691911Y-90995731D01*
X162672322Y-91002430D01*
X162647195Y-91045594D01*
X162652007Y-91061092D01*
X162643869Y-91079194D01*
X162616313Y-91072845D01*
X162569372Y-91075362D01*
X162563166Y-91112653D01*
X162596286Y-91149715D01*
X162631263Y-91200532D01*
X162632572Y-91211909D01*
X162610664Y-91220779D01*
X162561776Y-91187608D01*
X162527503Y-91129209D01*
X161825389Y-91129209D01*
X161820426Y-91131572D01*
X161787312Y-91106027D01*
X161779857Y-91095286D01*
X161770611Y-91061363D01*
X161775574Y-91059000D01*
X160782000Y-91059000D01*
X160754388Y-91094232D01*
X160745714Y-91095286D01*
X160710483Y-91067674D01*
X160709429Y-91059000D01*
X160737041Y-91023769D01*
X160745714Y-91022715D01*
X160780946Y-91050327D01*
X160782000Y-91059000D01*
X161775574Y-91059000D01*
X161808688Y-91084545D01*
X161816143Y-91095286D01*
X161825389Y-91129209D01*
X162527503Y-91129209D01*
X162507593Y-91095286D01*
X162414857Y-91095286D01*
X162401581Y-91125153D01*
X162390667Y-91119477D01*
X162386324Y-91076414D01*
X162390667Y-91071096D01*
X162412239Y-91076077D01*
X162414857Y-91095286D01*
X162507593Y-91095286D01*
X162504920Y-91090733D01*
X162498276Y-91017889D01*
X162500642Y-91004572D01*
X162088286Y-91004572D01*
X162070143Y-91022715D01*
X162052000Y-91004572D01*
X162070143Y-90986429D01*
X162088286Y-91004572D01*
X162500642Y-91004572D01*
X162511307Y-90944565D01*
X162550799Y-90925360D01*
X162602537Y-90933455D01*
X162676034Y-90938360D01*
X162708957Y-90898968D01*
X162715859Y-90870764D01*
X162724199Y-90827981D01*
X162414857Y-90827981D01*
X162396967Y-90881186D01*
X162361117Y-90901910D01*
X162347729Y-90895110D01*
X162350085Y-90877572D01*
X161652857Y-90877572D01*
X161625245Y-90912803D01*
X161616572Y-90913857D01*
X161581340Y-90886245D01*
X161580286Y-90877572D01*
X161398857Y-90877572D01*
X161371245Y-90912803D01*
X161362572Y-90913857D01*
X161327340Y-90886245D01*
X161326286Y-90877572D01*
X161353898Y-90842340D01*
X161362572Y-90841286D01*
X161397803Y-90868899D01*
X161398857Y-90877572D01*
X161580286Y-90877572D01*
X161607898Y-90842340D01*
X161616572Y-90841286D01*
X161651803Y-90868899D01*
X161652857Y-90877572D01*
X162350085Y-90877572D01*
X162352737Y-90857831D01*
X162371919Y-90833424D01*
X162375076Y-90831656D01*
X160924073Y-90831656D01*
X160891499Y-90899038D01*
X160882129Y-90914350D01*
X160832347Y-90972727D01*
X160793584Y-90984326D01*
X160782000Y-90955767D01*
X160806263Y-90910977D01*
X160854572Y-90859429D01*
X160911303Y-90817535D01*
X160924073Y-90831656D01*
X162375076Y-90831656D01*
X162408451Y-90812968D01*
X162414857Y-90827981D01*
X162724199Y-90827981D01*
X162732216Y-90786857D01*
X162088286Y-90786857D01*
X162070143Y-90805000D01*
X162052000Y-90786857D01*
X161544000Y-90786857D01*
X161525857Y-90805000D01*
X161507715Y-90786857D01*
X161525857Y-90768715D01*
X161544000Y-90786857D01*
X162052000Y-90786857D01*
X162070143Y-90768715D01*
X162088286Y-90786857D01*
X162732216Y-90786857D01*
X162759197Y-90868500D01*
X162798829Y-90931918D01*
X162836375Y-90950143D01*
X162882078Y-90968426D01*
X162999346Y-90968426D01*
X162995450Y-90934427D01*
X162995429Y-90928118D01*
X163000292Y-90856405D01*
X162956278Y-90856405D01*
X162949607Y-90903468D01*
X162937220Y-90904030D01*
X162928558Y-90855466D01*
X162934356Y-90834482D01*
X162950468Y-90820738D01*
X162956278Y-90856405D01*
X163000292Y-90856405D01*
X163001942Y-90832082D01*
X163016785Y-90780810D01*
X162874476Y-90780810D01*
X162869495Y-90802382D01*
X162850286Y-90805000D01*
X162820419Y-90791724D01*
X162826095Y-90780810D01*
X162869158Y-90776467D01*
X162874476Y-90780810D01*
X163016785Y-90780810D01*
X163018381Y-90775300D01*
X163027482Y-90768715D01*
X163047196Y-90750572D01*
X162959143Y-90750572D01*
X162941000Y-90768715D01*
X162922857Y-90750572D01*
X162941000Y-90732429D01*
X162959143Y-90750572D01*
X163047196Y-90750572D01*
X163060543Y-90738290D01*
X163080472Y-90688656D01*
X163086253Y-90671953D01*
X162705143Y-90671953D01*
X162684304Y-90738846D01*
X162638619Y-90768715D01*
X162639317Y-90750572D01*
X160963429Y-90750572D01*
X160945286Y-90768715D01*
X160927143Y-90750572D01*
X160945286Y-90732429D01*
X160963429Y-90750572D01*
X162639317Y-90750572D01*
X162639326Y-90750358D01*
X162644352Y-90744839D01*
X162645370Y-90701208D01*
X162629755Y-90675467D01*
X162378572Y-90675467D01*
X162363586Y-90707685D01*
X162307207Y-90705709D01*
X162264786Y-90694730D01*
X162180594Y-90666734D01*
X162132628Y-90643655D01*
X162131739Y-90642834D01*
X162150503Y-90630490D01*
X162221129Y-90623908D01*
X162245524Y-90623572D01*
X162343902Y-90635301D01*
X162378417Y-90671798D01*
X162378572Y-90675467D01*
X162629755Y-90675467D01*
X162627814Y-90672268D01*
X162609005Y-90632812D01*
X162646272Y-90623572D01*
X162697236Y-90647810D01*
X162705143Y-90671953D01*
X163086253Y-90671953D01*
X163101461Y-90628015D01*
X163031715Y-90628015D01*
X163018666Y-90658867D01*
X163001900Y-90643556D01*
X162862542Y-90643556D01*
X162832282Y-90653760D01*
X162784972Y-90616315D01*
X162778289Y-90605155D01*
X161536047Y-90605155D01*
X161521654Y-90672316D01*
X161496590Y-90724149D01*
X161483244Y-90732429D01*
X161476747Y-90705222D01*
X161484551Y-90678000D01*
X161036000Y-90678000D01*
X161017857Y-90696143D01*
X160999714Y-90678000D01*
X161017857Y-90659857D01*
X161036000Y-90678000D01*
X161484551Y-90678000D01*
X161478624Y-90633718D01*
X161424933Y-90621116D01*
X161344429Y-90618660D01*
X161426419Y-90579130D01*
X161480990Y-90561401D01*
X161102723Y-90561401D01*
X161093894Y-90581680D01*
X161057358Y-90620634D01*
X161036353Y-90612643D01*
X161036000Y-90607570D01*
X161061773Y-90576879D01*
X161077892Y-90565678D01*
X161102723Y-90561401D01*
X161480990Y-90561401D01*
X161495935Y-90556546D01*
X161529518Y-90560709D01*
X161536047Y-90605155D01*
X162778289Y-90605155D01*
X162756722Y-90569143D01*
X161906857Y-90569143D01*
X161888715Y-90587286D01*
X161870572Y-90569143D01*
X161888715Y-90551000D01*
X161906857Y-90569143D01*
X162756722Y-90569143D01*
X162745905Y-90551082D01*
X162752054Y-90496759D01*
X162791627Y-90478429D01*
X162835330Y-90509528D01*
X162859167Y-90569143D01*
X162862542Y-90643556D01*
X163001900Y-90643556D01*
X162983878Y-90627098D01*
X162954479Y-90578215D01*
X162927871Y-90523072D01*
X162941668Y-90522992D01*
X162971345Y-90546372D01*
X163020183Y-90599841D01*
X163031715Y-90628015D01*
X163101461Y-90628015D01*
X163102131Y-90626081D01*
X163115344Y-90627339D01*
X163118786Y-90684041D01*
X163111131Y-90787801D01*
X163104574Y-90841286D01*
X163095061Y-90952571D01*
X163098724Y-91030221D01*
X163109361Y-91053028D01*
X163125628Y-91087677D01*
X163367293Y-91087677D01*
X163348843Y-91019635D01*
X163338722Y-90993459D01*
X163294132Y-90898140D01*
X163253519Y-90859200D01*
X163205444Y-90861873D01*
X163152493Y-90866738D01*
X163147429Y-90822542D01*
X163148463Y-90817576D01*
X163179500Y-90766146D01*
X163206227Y-90759643D01*
X163239412Y-90761450D01*
X163244268Y-90737321D01*
X163219051Y-90672393D01*
X163188280Y-90606660D01*
X163135298Y-90524382D01*
X163080323Y-90480613D01*
X163068514Y-90478429D01*
X162982645Y-90461888D01*
X162894007Y-90422011D01*
X162829914Y-90373421D01*
X162814283Y-90342357D01*
X162843237Y-90302199D01*
X162868429Y-90297000D01*
X162916679Y-90318938D01*
X162922857Y-90337729D01*
X162940406Y-90356904D01*
X162977286Y-90333286D01*
X163026414Y-90261860D01*
X163017259Y-90192797D01*
X162989822Y-90166535D01*
X162965005Y-90162516D01*
X162977003Y-90191608D01*
X162991033Y-90223506D01*
X162961277Y-90200972D01*
X162957209Y-90197215D01*
X162887017Y-90156427D01*
X162832033Y-90163661D01*
X162814000Y-90206286D01*
X162794407Y-90254574D01*
X162777715Y-90260715D01*
X162745169Y-90289949D01*
X162741429Y-90313002D01*
X162715690Y-90378298D01*
X162655775Y-90391398D01*
X162614429Y-90369572D01*
X162551333Y-90345627D01*
X162521586Y-90352744D01*
X162518901Y-90383768D01*
X162580790Y-90427109D01*
X162592061Y-90432726D01*
X162669314Y-90484208D01*
X162675933Y-90524751D01*
X162613713Y-90547929D01*
X162558998Y-90551000D01*
X162485335Y-90541359D01*
X162479371Y-90527432D01*
X162046475Y-90527432D01*
X162025311Y-90550908D01*
X162022620Y-90551000D01*
X161987736Y-90526810D01*
X160733619Y-90526810D01*
X160728638Y-90548382D01*
X160709429Y-90551000D01*
X160679562Y-90537724D01*
X160685238Y-90526810D01*
X160728301Y-90522467D01*
X160733619Y-90526810D01*
X161987736Y-90526810D01*
X161980692Y-90521926D01*
X161965143Y-90493540D01*
X161964159Y-90451002D01*
X161986208Y-90450450D01*
X162029726Y-90483689D01*
X162046475Y-90527432D01*
X162479371Y-90527432D01*
X162470853Y-90507544D01*
X162474307Y-90496572D01*
X162471961Y-90467642D01*
X162210773Y-90467642D01*
X162160857Y-90472700D01*
X162109345Y-90466997D01*
X162115500Y-90454398D01*
X162189790Y-90449605D01*
X162206215Y-90454398D01*
X162210773Y-90467642D01*
X162471961Y-90467642D01*
X162471105Y-90457095D01*
X162411875Y-90442683D01*
X162386336Y-90442143D01*
X161507715Y-90442143D01*
X161477323Y-90471625D01*
X161435143Y-90478429D01*
X161376180Y-90463233D01*
X161362572Y-90442143D01*
X161392963Y-90412662D01*
X161435143Y-90405857D01*
X161494106Y-90421053D01*
X161507715Y-90442143D01*
X162386336Y-90442143D01*
X162294837Y-90423458D01*
X162255454Y-90384747D01*
X162250497Y-90369572D01*
X162088286Y-90369572D01*
X162075010Y-90399439D01*
X162064095Y-90393762D01*
X162063486Y-90387715D01*
X161217429Y-90387715D01*
X161199286Y-90405857D01*
X161181143Y-90387715D01*
X161199286Y-90369572D01*
X161217429Y-90387715D01*
X162063486Y-90387715D01*
X162059753Y-90350700D01*
X162064095Y-90345381D01*
X162085667Y-90350362D01*
X162088286Y-90369572D01*
X162250497Y-90369572D01*
X162238312Y-90332277D01*
X162247685Y-90309096D01*
X161459334Y-90309096D01*
X161454353Y-90330667D01*
X161435143Y-90333286D01*
X161405276Y-90320010D01*
X161410953Y-90309096D01*
X161454015Y-90304753D01*
X161459334Y-90309096D01*
X162247685Y-90309096D01*
X162250398Y-90302387D01*
X162307090Y-90278167D01*
X162369733Y-90259076D01*
X162412887Y-90242572D01*
X162124572Y-90242572D01*
X162106429Y-90260715D01*
X162088286Y-90242572D01*
X162106429Y-90224429D01*
X162124572Y-90242572D01*
X162412887Y-90242572D01*
X162513601Y-90204055D01*
X162518591Y-90200238D01*
X162293905Y-90200238D01*
X162288924Y-90221810D01*
X162269715Y-90224429D01*
X162239847Y-90211153D01*
X162245524Y-90200238D01*
X162288587Y-90195896D01*
X162293905Y-90200238D01*
X162518591Y-90200238D01*
X162601548Y-90136793D01*
X162650221Y-90044556D01*
X162650222Y-90044553D01*
X162666326Y-89984413D01*
X162650377Y-89985238D01*
X162619216Y-90014887D01*
X162572266Y-90075569D01*
X162560000Y-90109098D01*
X162531301Y-90148769D01*
X162472223Y-90175855D01*
X162423295Y-90172248D01*
X162421759Y-90170854D01*
X162430567Y-90153262D01*
X162445095Y-90151857D01*
X162482612Y-90122568D01*
X162487429Y-90097429D01*
X162467995Y-90048566D01*
X162428216Y-90055294D01*
X162403218Y-90093567D01*
X162364088Y-90123131D01*
X162287067Y-90146185D01*
X162196019Y-90159888D01*
X162114804Y-90161397D01*
X162067284Y-90147872D01*
X162063802Y-90133983D01*
X162104070Y-90109021D01*
X162157202Y-90097429D01*
X161435143Y-90097429D01*
X161415550Y-90145717D01*
X161398857Y-90151857D01*
X161366368Y-90181117D01*
X161362572Y-90204483D01*
X161339211Y-90253523D01*
X161288232Y-90299877D01*
X161238291Y-90320604D01*
X161223863Y-90315529D01*
X161229166Y-90278373D01*
X161237115Y-90260715D01*
X160346572Y-90260715D01*
X160333295Y-90290582D01*
X160322381Y-90284905D01*
X160318038Y-90241842D01*
X160322381Y-90236524D01*
X160343953Y-90241505D01*
X160346572Y-90260715D01*
X161237115Y-90260715D01*
X161252051Y-90227537D01*
X161296735Y-90168572D01*
X161327563Y-90151857D01*
X161358628Y-90122448D01*
X161362572Y-90097429D01*
X161377295Y-90061143D01*
X161253715Y-90061143D01*
X161235572Y-90079286D01*
X161217429Y-90061143D01*
X161223476Y-90055096D01*
X158737905Y-90055096D01*
X158732924Y-90076667D01*
X158713715Y-90079286D01*
X158683847Y-90066010D01*
X158689524Y-90055096D01*
X158732587Y-90050753D01*
X158737905Y-90055096D01*
X161223476Y-90055096D01*
X161235572Y-90043000D01*
X161253715Y-90061143D01*
X161377295Y-90061143D01*
X161382165Y-90049141D01*
X161398857Y-90043000D01*
X161431049Y-90072390D01*
X161435143Y-90097429D01*
X162157202Y-90097429D01*
X162190749Y-90090110D01*
X162229154Y-90086175D01*
X162347256Y-90063483D01*
X162402328Y-90020314D01*
X162187406Y-90020314D01*
X162186601Y-90038349D01*
X162144856Y-90043000D01*
X162084513Y-90023072D01*
X162072234Y-90010099D01*
X162083845Y-89991555D01*
X162124522Y-89996188D01*
X162187406Y-90020314D01*
X162402328Y-90020314D01*
X162403924Y-90019063D01*
X162404587Y-90017427D01*
X162398220Y-89951283D01*
X162350438Y-89909953D01*
X162003619Y-89909953D01*
X161998638Y-89931525D01*
X161979429Y-89934143D01*
X161949562Y-89920867D01*
X161955238Y-89909953D01*
X161998301Y-89905610D01*
X162003619Y-89909953D01*
X162350438Y-89909953D01*
X162338720Y-89899818D01*
X162245475Y-89875032D01*
X162179706Y-89878242D01*
X162117894Y-89885435D01*
X162114402Y-89881476D01*
X161782913Y-89881476D01*
X161779600Y-89898273D01*
X161740791Y-89928353D01*
X161699200Y-89933401D01*
X161689143Y-89919883D01*
X161717606Y-89896578D01*
X161745456Y-89884012D01*
X161782913Y-89881476D01*
X162114402Y-89881476D01*
X162111538Y-89878230D01*
X162115500Y-89876264D01*
X162120045Y-89871973D01*
X161538151Y-89871973D01*
X161529322Y-89892251D01*
X161492786Y-89931205D01*
X161471782Y-89923214D01*
X161471429Y-89918142D01*
X161497202Y-89887451D01*
X161513321Y-89876250D01*
X161538151Y-89871973D01*
X162120045Y-89871973D01*
X162133330Y-89859430D01*
X161144857Y-89859430D01*
X161118517Y-89896381D01*
X161108572Y-89897857D01*
X161087067Y-89890324D01*
X158597616Y-89890324D01*
X158586715Y-89896746D01*
X158527083Y-89878679D01*
X158496000Y-89861572D01*
X158466956Y-89832820D01*
X158477857Y-89826397D01*
X158537488Y-89844464D01*
X158568572Y-89861572D01*
X158597616Y-89890324D01*
X161087067Y-89890324D01*
X161073229Y-89885477D01*
X161072286Y-89881856D01*
X161097713Y-89850876D01*
X161108572Y-89843429D01*
X158822572Y-89843429D01*
X158804429Y-89861572D01*
X158786286Y-89843429D01*
X158804429Y-89825286D01*
X158822572Y-89843429D01*
X161108572Y-89843429D01*
X161142008Y-89846306D01*
X161144857Y-89859430D01*
X162133330Y-89859430D01*
X162157385Y-89836721D01*
X162160857Y-89822490D01*
X162132447Y-89800720D01*
X162067319Y-89804989D01*
X161995630Y-89833147D01*
X161993561Y-89834421D01*
X161939623Y-89841365D01*
X161931677Y-89825286D01*
X161616572Y-89825286D01*
X161603295Y-89855153D01*
X161592381Y-89849477D01*
X161588038Y-89806414D01*
X161592381Y-89801096D01*
X161613953Y-89806077D01*
X161616572Y-89825286D01*
X161931677Y-89825286D01*
X161910821Y-89783086D01*
X161908615Y-89752715D01*
X161072286Y-89752715D01*
X161046243Y-89787962D01*
X161038142Y-89789000D01*
X161033742Y-89786638D01*
X158632247Y-89786638D01*
X158627283Y-89789000D01*
X158594169Y-89763456D01*
X158586715Y-89752715D01*
X158577468Y-89718791D01*
X158582432Y-89716429D01*
X158615545Y-89741973D01*
X158623000Y-89752715D01*
X158632247Y-89786638D01*
X161033742Y-89786638D01*
X160988999Y-89762624D01*
X160981572Y-89752715D01*
X160989798Y-89721650D01*
X161015716Y-89716429D01*
X161065363Y-89735374D01*
X161072286Y-89752715D01*
X161908615Y-89752715D01*
X161906857Y-89728524D01*
X161889377Y-89662672D01*
X161824489Y-89643888D01*
X161820025Y-89643857D01*
X161744401Y-89665009D01*
X161711424Y-89700586D01*
X161674981Y-89737775D01*
X161652018Y-89734053D01*
X161646677Y-89694406D01*
X161695344Y-89626675D01*
X161696541Y-89625427D01*
X161749820Y-89583381D01*
X161495619Y-89583381D01*
X161490638Y-89604953D01*
X161471429Y-89607572D01*
X161441562Y-89594295D01*
X161447238Y-89583381D01*
X161490301Y-89579039D01*
X161495619Y-89583381D01*
X161749820Y-89583381D01*
X161759057Y-89576092D01*
X161799140Y-89573660D01*
X161800974Y-89576097D01*
X161847602Y-89594517D01*
X161938012Y-89597718D01*
X161977222Y-89594443D01*
X162064808Y-89588665D01*
X162107519Y-89594581D01*
X162107182Y-89600771D01*
X162053471Y-89622240D01*
X162022225Y-89625252D01*
X161968792Y-89645262D01*
X161964481Y-89687773D01*
X162003078Y-89728334D01*
X162052000Y-89742446D01*
X162158180Y-89757126D01*
X162247893Y-89774921D01*
X162319512Y-89784537D01*
X162330665Y-89763925D01*
X162327395Y-89757976D01*
X162271546Y-89719648D01*
X162249430Y-89716429D01*
X162202533Y-89696141D01*
X162197143Y-89680143D01*
X162224756Y-89644912D01*
X162233429Y-89643857D01*
X162265621Y-89614468D01*
X162269715Y-89589429D01*
X162247807Y-89553143D01*
X161870572Y-89553143D01*
X161852429Y-89571286D01*
X161834286Y-89553143D01*
X161852429Y-89535000D01*
X161870572Y-89553143D01*
X162247807Y-89553143D01*
X162240669Y-89541322D01*
X162215286Y-89535000D01*
X162167135Y-89507948D01*
X162164669Y-89498715D01*
X161616572Y-89498715D01*
X161588959Y-89533946D01*
X161580286Y-89535000D01*
X161545055Y-89507388D01*
X161544000Y-89498715D01*
X161571613Y-89463483D01*
X161580286Y-89462429D01*
X161615517Y-89490041D01*
X161616572Y-89498715D01*
X162164669Y-89498715D01*
X162162350Y-89490039D01*
X162072548Y-89490039D01*
X162036881Y-89495850D01*
X161989818Y-89489179D01*
X161989256Y-89476792D01*
X162037821Y-89468130D01*
X162058804Y-89473927D01*
X162072548Y-89490039D01*
X162162350Y-89490039D01*
X162160857Y-89484454D01*
X162133456Y-89427434D01*
X162061540Y-89414225D01*
X161962024Y-89446965D01*
X161875158Y-89478264D01*
X161823287Y-89471651D01*
X161819592Y-89431952D01*
X161839262Y-89402004D01*
X161864602Y-89351025D01*
X161831953Y-89315076D01*
X161759742Y-89283656D01*
X161728018Y-89309424D01*
X161725429Y-89335429D01*
X161695407Y-89384236D01*
X161661929Y-89395384D01*
X161573479Y-89402893D01*
X161544000Y-89405317D01*
X161502915Y-89437887D01*
X161500234Y-89472361D01*
X161484764Y-89523733D01*
X161434289Y-89535000D01*
X161378847Y-89549090D01*
X161379363Y-89603205D01*
X161380714Y-89607572D01*
X161384169Y-89666199D01*
X161338236Y-89677154D01*
X161275033Y-89658198D01*
X161237629Y-89621572D01*
X161241387Y-89598163D01*
X161241426Y-89577190D01*
X161226442Y-89583859D01*
X161203623Y-89633504D01*
X161207227Y-89689251D01*
X161217014Y-89744481D01*
X161198520Y-89735573D01*
X161176606Y-89709615D01*
X161105179Y-89661145D01*
X161017857Y-89637044D01*
X160938896Y-89617157D01*
X160933340Y-89607572D01*
X158895143Y-89607572D01*
X158881867Y-89637439D01*
X158870953Y-89631762D01*
X158866684Y-89589429D01*
X158641143Y-89589429D01*
X158623000Y-89607572D01*
X158604857Y-89589429D01*
X158623000Y-89571286D01*
X158641143Y-89589429D01*
X158866684Y-89589429D01*
X158866610Y-89588700D01*
X158870953Y-89583381D01*
X158892524Y-89588362D01*
X158895143Y-89607572D01*
X160933340Y-89607572D01*
X160922008Y-89588024D01*
X160544156Y-89588024D01*
X160497143Y-89583219D01*
X160441512Y-89547129D01*
X158537450Y-89547129D01*
X158525884Y-89574356D01*
X158474881Y-89602940D01*
X158414357Y-89617609D01*
X158325321Y-89629380D01*
X158271485Y-89637808D01*
X158270353Y-89638050D01*
X158258166Y-89616527D01*
X158265164Y-89589429D01*
X158302129Y-89541381D01*
X158320899Y-89535000D01*
X158339485Y-89506652D01*
X158332715Y-89462429D01*
X158329617Y-89405517D01*
X158381621Y-89389873D01*
X158384698Y-89389857D01*
X158446984Y-89414279D01*
X158459715Y-89462429D01*
X158474910Y-89521392D01*
X158496000Y-89535000D01*
X158537450Y-89547129D01*
X160441512Y-89547129D01*
X160432219Y-89541101D01*
X160412786Y-89504431D01*
X160409523Y-89444286D01*
X158604857Y-89444286D01*
X158586715Y-89462429D01*
X158568572Y-89444286D01*
X158586715Y-89426143D01*
X158604857Y-89444286D01*
X160409523Y-89444286D01*
X160408888Y-89432591D01*
X160414686Y-89324009D01*
X160416284Y-89308611D01*
X159060834Y-89308611D01*
X159025167Y-89314421D01*
X158978104Y-89307750D01*
X158977542Y-89295363D01*
X159026106Y-89286701D01*
X159047089Y-89292499D01*
X159060834Y-89308611D01*
X160416284Y-89308611D01*
X160419152Y-89281000D01*
X160429947Y-89190286D01*
X159185429Y-89190286D01*
X159167286Y-89208429D01*
X159149143Y-89190286D01*
X159167286Y-89172143D01*
X159185429Y-89190286D01*
X160429947Y-89190286D01*
X160434265Y-89154000D01*
X158604857Y-89154000D01*
X158586715Y-89172143D01*
X158568572Y-89154000D01*
X158586715Y-89135857D01*
X158604857Y-89154000D01*
X160434265Y-89154000D01*
X160438584Y-89117715D01*
X160467482Y-89316379D01*
X160489849Y-89434971D01*
X160516270Y-89526270D01*
X160532407Y-89558453D01*
X160544156Y-89588024D01*
X160922008Y-89588024D01*
X160908947Y-89565494D01*
X160905338Y-89525929D01*
X160914917Y-89454183D01*
X160960943Y-89421418D01*
X161058960Y-89418274D01*
X161081357Y-89419966D01*
X161134733Y-89399601D01*
X161144857Y-89371287D01*
X161172562Y-89335429D01*
X161072286Y-89335429D01*
X161054143Y-89353572D01*
X161036000Y-89335429D01*
X161042048Y-89329381D01*
X160915048Y-89329381D01*
X160910067Y-89350953D01*
X160890857Y-89353572D01*
X160860990Y-89340295D01*
X160866667Y-89329381D01*
X160909730Y-89325039D01*
X160915048Y-89329381D01*
X161042048Y-89329381D01*
X161054143Y-89317286D01*
X161072286Y-89335429D01*
X161172562Y-89335429D01*
X161178225Y-89328100D01*
X161262786Y-89313669D01*
X161338329Y-89309829D01*
X161346302Y-89301119D01*
X161291700Y-89281545D01*
X161290000Y-89281000D01*
X161238930Y-89259182D01*
X161244643Y-89248332D01*
X161286898Y-89221390D01*
X161290000Y-89207738D01*
X161259827Y-89187388D01*
X161193320Y-89195026D01*
X161126545Y-89205541D01*
X161112712Y-89182480D01*
X161120748Y-89156464D01*
X161137685Y-89081429D01*
X160056286Y-89081429D01*
X160038143Y-89099572D01*
X160020000Y-89081429D01*
X159004000Y-89081429D01*
X158985857Y-89099572D01*
X158967714Y-89081429D01*
X158985857Y-89063286D01*
X159004000Y-89081429D01*
X160020000Y-89081429D01*
X160038143Y-89063286D01*
X160056286Y-89081429D01*
X161137685Y-89081429D01*
X161139922Y-89071523D01*
X161146011Y-88996818D01*
X161146535Y-88990715D01*
X160455429Y-88990715D01*
X160442152Y-89020582D01*
X160431238Y-89014905D01*
X160430155Y-89004161D01*
X159021659Y-89004161D01*
X159006901Y-89024793D01*
X158966410Y-89027000D01*
X158914622Y-89014654D01*
X158910722Y-88994864D01*
X158895663Y-88965507D01*
X158839426Y-88945302D01*
X158753607Y-88946133D01*
X158723828Y-88985474D01*
X158755948Y-89053527D01*
X158784827Y-89095934D01*
X158758738Y-89095647D01*
X158737961Y-89088223D01*
X158671004Y-89067278D01*
X158647247Y-89063286D01*
X158628787Y-89032259D01*
X158623000Y-88975504D01*
X158631954Y-88919334D01*
X158671845Y-88890592D01*
X158762215Y-88876708D01*
X158778735Y-88875336D01*
X158885395Y-88874222D01*
X158948871Y-88898824D01*
X158988214Y-88944975D01*
X159021659Y-89004161D01*
X160430155Y-89004161D01*
X160426896Y-88971842D01*
X160431238Y-88966524D01*
X160452810Y-88971505D01*
X160455429Y-88990715D01*
X161146535Y-88990715D01*
X161151477Y-88933250D01*
X161171857Y-88933456D01*
X161191369Y-88955750D01*
X161257673Y-88996592D01*
X161299072Y-88998446D01*
X161352117Y-89005146D01*
X161362572Y-89024340D01*
X161334195Y-89060905D01*
X161319351Y-89063286D01*
X161310443Y-89080635D01*
X161346565Y-89116561D01*
X161436270Y-89157313D01*
X161521229Y-89170989D01*
X161590423Y-89166643D01*
X161598858Y-89143898D01*
X161578392Y-89115433D01*
X161553051Y-89076352D01*
X161582011Y-89072349D01*
X161619620Y-89080883D01*
X161681792Y-89087658D01*
X161706884Y-89052466D01*
X161711475Y-89002810D01*
X161604476Y-89002810D01*
X161599495Y-89024382D01*
X161580286Y-89027000D01*
X161550419Y-89013724D01*
X161556095Y-89002810D01*
X161599158Y-88998467D01*
X161604476Y-89002810D01*
X161711475Y-89002810D01*
X161712433Y-88992450D01*
X161699275Y-88907525D01*
X161647704Y-88881657D01*
X161553679Y-88913100D01*
X161542431Y-88918983D01*
X161492900Y-88938346D01*
X161490600Y-88910998D01*
X161494270Y-88900840D01*
X161495851Y-88899449D01*
X161311557Y-88899449D01*
X161308143Y-88918143D01*
X161261753Y-88953045D01*
X161251573Y-88954429D01*
X161218406Y-88926752D01*
X161217429Y-88918143D01*
X161246964Y-88886298D01*
X161273999Y-88881857D01*
X159766000Y-88881857D01*
X159738388Y-88917089D01*
X159729714Y-88918143D01*
X159694483Y-88890531D01*
X159693429Y-88881857D01*
X159721041Y-88846626D01*
X159729714Y-88845572D01*
X159764946Y-88873184D01*
X159766000Y-88881857D01*
X161273999Y-88881857D01*
X161311557Y-88899449D01*
X161495851Y-88899449D01*
X161543102Y-88857886D01*
X161602311Y-88845572D01*
X161671292Y-88826754D01*
X161689143Y-88793425D01*
X161671058Y-88760606D01*
X161606679Y-88755516D01*
X161553072Y-88762174D01*
X161453077Y-88783941D01*
X161382938Y-88810482D01*
X161376242Y-88814947D01*
X161310019Y-88831413D01*
X161278194Y-88824840D01*
X161202354Y-88820763D01*
X161174731Y-88831392D01*
X161111018Y-88850748D01*
X161009052Y-88863888D01*
X160976302Y-88865723D01*
X160873172Y-88862241D01*
X160821705Y-88836932D01*
X160806875Y-88805856D01*
X160811183Y-88744473D01*
X160831209Y-88725279D01*
X160852626Y-88693707D01*
X160845125Y-88680831D01*
X160805986Y-88682381D01*
X160768987Y-88717693D01*
X160716536Y-88760502D01*
X160681747Y-88760175D01*
X160635919Y-88764501D01*
X160623739Y-88781846D01*
X160616579Y-88778192D01*
X160620097Y-88717633D01*
X160626166Y-88667658D01*
X160634265Y-88565767D01*
X160621166Y-88528960D01*
X160608328Y-88532350D01*
X160561280Y-88525859D01*
X160531334Y-88492549D01*
X160506087Y-88461027D01*
X160492962Y-88486598D01*
X160487069Y-88555286D01*
X160484226Y-88664185D01*
X160486816Y-88751977D01*
X160487008Y-88754086D01*
X160481238Y-88798942D01*
X160461845Y-88790372D01*
X160451907Y-88764325D01*
X159786548Y-88764325D01*
X159750881Y-88770136D01*
X159703818Y-88763464D01*
X159703256Y-88751078D01*
X159751821Y-88742416D01*
X159772804Y-88748213D01*
X159786548Y-88764325D01*
X160451907Y-88764325D01*
X160442807Y-88740475D01*
X160437741Y-88718572D01*
X159475714Y-88718572D01*
X159457572Y-88736715D01*
X159445782Y-88724925D01*
X159237757Y-88724925D01*
X159230768Y-88765777D01*
X159168736Y-88869793D01*
X159089628Y-88914687D01*
X159076572Y-88915609D01*
X159045438Y-88907896D01*
X159074075Y-88876584D01*
X159085643Y-88867632D01*
X159136775Y-88813497D01*
X159149143Y-88781954D01*
X159154956Y-88773000D01*
X159076572Y-88773000D01*
X159048959Y-88808232D01*
X159040286Y-88809286D01*
X159005055Y-88781674D01*
X159004000Y-88773000D01*
X159031613Y-88737769D01*
X159040286Y-88736715D01*
X159075517Y-88764327D01*
X159076572Y-88773000D01*
X159154956Y-88773000D01*
X159178060Y-88737417D01*
X159201724Y-88724302D01*
X159237757Y-88724925D01*
X159445782Y-88724925D01*
X159439429Y-88718572D01*
X159457572Y-88700429D01*
X159475714Y-88718572D01*
X160437741Y-88718572D01*
X160418863Y-88636969D01*
X160404221Y-88555286D01*
X160092572Y-88555286D01*
X160079295Y-88585153D01*
X160068381Y-88579477D01*
X160067772Y-88573429D01*
X159838572Y-88573429D01*
X159820429Y-88591572D01*
X159802286Y-88573429D01*
X159820429Y-88555286D01*
X159838572Y-88573429D01*
X160067772Y-88573429D01*
X160064038Y-88536414D01*
X160068381Y-88531096D01*
X160089953Y-88536077D01*
X160092572Y-88555286D01*
X160404221Y-88555286D01*
X160398299Y-88522247D01*
X159707565Y-88522247D01*
X159706882Y-88563365D01*
X159690369Y-88618786D01*
X159645954Y-88687302D01*
X159595791Y-88695296D01*
X159569426Y-88668993D01*
X159578620Y-88629600D01*
X159618415Y-88577389D01*
X159362404Y-88577389D01*
X159353396Y-88627572D01*
X159342667Y-88639953D01*
X159289557Y-88663066D01*
X159259217Y-88625300D01*
X159258000Y-88609715D01*
X159287046Y-88561608D01*
X159312429Y-88555286D01*
X159362404Y-88577389D01*
X159618415Y-88577389D01*
X159619993Y-88575320D01*
X159670272Y-88530879D01*
X159706184Y-88520998D01*
X159707565Y-88522247D01*
X160398299Y-88522247D01*
X160394000Y-88498269D01*
X160388912Y-88464572D01*
X159802286Y-88464572D01*
X159784143Y-88482715D01*
X159766000Y-88464572D01*
X159784143Y-88446429D01*
X159802286Y-88464572D01*
X160388912Y-88464572D01*
X160383433Y-88428286D01*
X160092572Y-88428286D01*
X160074429Y-88446429D01*
X160056286Y-88428286D01*
X160074429Y-88410143D01*
X160092572Y-88428286D01*
X160383433Y-88428286D01*
X160377005Y-88392107D01*
X160010641Y-88392107D01*
X159976051Y-88435483D01*
X159945287Y-88446429D01*
X159911822Y-88419058D01*
X159911143Y-88412285D01*
X159935248Y-88366485D01*
X159982582Y-88342374D01*
X160007905Y-88349667D01*
X160010641Y-88392107D01*
X160377005Y-88392107D01*
X160359037Y-88290986D01*
X160353340Y-88265000D01*
X160255857Y-88265000D01*
X160252980Y-88298437D01*
X160239856Y-88301286D01*
X160202905Y-88274946D01*
X160201429Y-88265000D01*
X160209902Y-88240810D01*
X159971619Y-88240810D01*
X159966638Y-88262382D01*
X159947429Y-88265000D01*
X159917562Y-88251724D01*
X159923238Y-88240810D01*
X159966301Y-88236467D01*
X159971619Y-88240810D01*
X160209902Y-88240810D01*
X160213809Y-88229658D01*
X160217430Y-88228715D01*
X160248410Y-88254141D01*
X160255857Y-88265000D01*
X160353340Y-88265000D01*
X160335307Y-88182748D01*
X160187815Y-88182748D01*
X160171728Y-88192429D01*
X160118545Y-88165724D01*
X160109222Y-88153729D01*
X160096441Y-88109281D01*
X159968953Y-88109281D01*
X159964022Y-88122365D01*
X159919057Y-88151757D01*
X159864485Y-88151331D01*
X159838572Y-88121999D01*
X159867255Y-88071409D01*
X159926502Y-88057545D01*
X159948021Y-88065795D01*
X159968953Y-88109281D01*
X160096441Y-88109281D01*
X160095639Y-88106492D01*
X160123798Y-88102616D01*
X160164415Y-88137123D01*
X160187815Y-88182748D01*
X160335307Y-88182748D01*
X160321638Y-88120403D01*
X160275934Y-87934145D01*
X160226620Y-87749822D01*
X160178392Y-87585042D01*
X160135947Y-87457415D01*
X160105923Y-87387745D01*
X160064797Y-87378989D01*
X159988786Y-87393370D01*
G36*
X164793658Y-87136630D02*
G01*
X164803562Y-87224679D01*
X164824476Y-87352601D01*
X164853675Y-87504993D01*
X164888431Y-87666451D01*
X164921146Y-87802604D01*
X164961489Y-87969490D01*
X165007503Y-88172745D01*
X165051363Y-88377434D01*
X165066139Y-88449834D01*
X165108736Y-88645249D01*
X165159352Y-88852186D01*
X165209326Y-89035915D01*
X165226732Y-89093659D01*
X165269545Y-89247128D01*
X165316837Y-89443921D01*
X165362078Y-89655628D01*
X165390742Y-89807143D01*
X165429171Y-90007084D01*
X165480637Y-90249498D01*
X165539038Y-90506856D01*
X165598276Y-90751626D01*
X165611827Y-90805000D01*
X165664520Y-91010335D01*
X165714001Y-91203184D01*
X165756038Y-91367047D01*
X165786396Y-91485422D01*
X165795919Y-91522578D01*
X165824596Y-91618300D01*
X165850259Y-91677632D01*
X165857906Y-91685864D01*
X165897951Y-91687434D01*
X166002581Y-91688425D01*
X166163809Y-91688843D01*
X166373652Y-91688697D01*
X166624125Y-91687993D01*
X166907242Y-91686740D01*
X167215019Y-91684945D01*
X167280860Y-91684508D01*
X168681577Y-91675015D01*
X168560797Y-91212793D01*
X168505433Y-90992535D01*
X168448655Y-90752547D01*
X168397823Y-90524661D01*
X168365822Y-90369572D01*
X168267363Y-89902594D01*
X168164205Y-89486841D01*
X168057799Y-89126956D01*
X167949598Y-88827580D01*
X167841052Y-88593357D01*
X167777157Y-88487193D01*
X167630757Y-88298201D01*
X167475602Y-88160025D01*
X167290339Y-88057489D01*
X167059429Y-87977082D01*
X166943788Y-87941609D01*
X166847533Y-87908321D01*
X166823572Y-87898737D01*
X166755301Y-87871989D01*
X166641047Y-87829954D01*
X166503457Y-87780936D01*
X166478857Y-87772325D01*
X166325377Y-87716561D01*
X166177964Y-87659342D01*
X166066983Y-87612479D01*
X166061572Y-87609989D01*
X165988444Y-87578104D01*
X165868957Y-87528251D01*
X165716056Y-87465614D01*
X165542686Y-87395375D01*
X165361796Y-87322719D01*
X165186329Y-87252829D01*
X165029234Y-87190888D01*
X164903456Y-87142081D01*
X164821941Y-87111591D01*
X164797490Y-87103858D01*
X164793658Y-87136630D01*
G37*
X164793658Y-87136630D02*
X164803562Y-87224679D01*
X164824476Y-87352601D01*
X164853675Y-87504993D01*
X164888431Y-87666451D01*
X164921146Y-87802604D01*
X164961489Y-87969490D01*
X165007503Y-88172745D01*
X165051363Y-88377434D01*
X165066139Y-88449834D01*
X165108736Y-88645249D01*
X165159352Y-88852186D01*
X165209326Y-89035915D01*
X165226732Y-89093659D01*
X165269545Y-89247128D01*
X165316837Y-89443921D01*
X165362078Y-89655628D01*
X165390742Y-89807143D01*
X165429171Y-90007084D01*
X165480637Y-90249498D01*
X165539038Y-90506856D01*
X165598276Y-90751626D01*
X165611827Y-90805000D01*
X165664520Y-91010335D01*
X165714001Y-91203184D01*
X165756038Y-91367047D01*
X165786396Y-91485422D01*
X165795919Y-91522578D01*
X165824596Y-91618300D01*
X165850259Y-91677632D01*
X165857906Y-91685864D01*
X165897951Y-91687434D01*
X166002581Y-91688425D01*
X166163809Y-91688843D01*
X166373652Y-91688697D01*
X166624125Y-91687993D01*
X166907242Y-91686740D01*
X167215019Y-91684945D01*
X167280860Y-91684508D01*
X168681577Y-91675015D01*
X168560797Y-91212793D01*
X168505433Y-90992535D01*
X168448655Y-90752547D01*
X168397823Y-90524661D01*
X168365822Y-90369572D01*
X168267363Y-89902594D01*
X168164205Y-89486841D01*
X168057799Y-89126956D01*
X167949598Y-88827580D01*
X167841052Y-88593357D01*
X167777157Y-88487193D01*
X167630757Y-88298201D01*
X167475602Y-88160025D01*
X167290339Y-88057489D01*
X167059429Y-87977082D01*
X166943788Y-87941609D01*
X166847533Y-87908321D01*
X166823572Y-87898737D01*
X166755301Y-87871989D01*
X166641047Y-87829954D01*
X166503457Y-87780936D01*
X166478857Y-87772325D01*
X166325377Y-87716561D01*
X166177964Y-87659342D01*
X166066983Y-87612479D01*
X166061572Y-87609989D01*
X165988444Y-87578104D01*
X165868957Y-87528251D01*
X165716056Y-87465614D01*
X165542686Y-87395375D01*
X165361796Y-87322719D01*
X165186329Y-87252829D01*
X165029234Y-87190888D01*
X164903456Y-87142081D01*
X164821941Y-87111591D01*
X164797490Y-87103858D01*
X164793658Y-87136630D01*
%TD*%
M02*
