%FSLAX45Y45*%
G04 Gerber Fmt 4.5, Leading zero omitted, Abs format (unit mm)*
G04 Created by KiCad (PCBNEW (6.0.4)) date 2023-01-21 15:00:43*
%MOMM*%
%LPD*%
G01*
G04 APERTURE LIST*
%TA.AperFunction,Profile*%
%ADD10C,0.200000*%
%TD*%
%ADD11C,0.200000*%
%ADD12C,0.040000*%
%ADD13C,0.100000*%
%ADD14C,0.132800*%
%ADD15C,0.160000*%
G04 APERTURE END LIST*
D10*
X14290000Y-12500000D02*
X14290000Y-12830000D01*
X15430000Y-12620000D02*
X15430047Y-9969887D01*
X14380000Y-12920000D02*
X15130000Y-12920000D01*
X15430000Y-9820000D02*
X15430047Y-9969887D01*
X14290000Y-12500000D02*
G75*
G03*
X14190000Y-12400000I-100000J0D01*
G01*
X11550000Y-10020000D02*
X11550000Y-12570000D01*
X11550000Y-12570000D02*
G75*
G03*
X11900000Y-12920000I350000J0D01*
G01*
X14290000Y-12830000D02*
G75*
G03*
X14380000Y-12920000I90000J0D01*
G01*
X11900000Y-12920000D02*
X12590000Y-12920000D01*
X15230000Y-9620000D02*
X15030000Y-9620000D01*
X12590000Y-12920000D02*
G75*
G03*
X12700000Y-12810000I0J110000D01*
G01*
X11950000Y-9620000D02*
G75*
G03*
X11550000Y-10020000I0J-400000D01*
G01*
X15130000Y-12920000D02*
G75*
G03*
X15430000Y-12620000I0J300000D01*
G01*
X12790000Y-12400000D02*
G75*
G03*
X12700000Y-12490000I0J-90000D01*
G01*
X12700000Y-12810000D02*
X12700000Y-12490000D01*
X15430000Y-9820000D02*
G75*
G03*
X15230000Y-9620000I-200000J0D01*
G01*
X12790000Y-12400000D02*
X14190000Y-12400000D01*
X15030000Y-9620000D02*
X11950000Y-9620000D01*
D11*
D12*
X13960000Y-9890000D02*
X14000000Y-9930000D01*
X14000000Y-9890000D02*
X13960000Y-9930000D01*
D13*
X11802500Y-10742000D02*
G75*
G03*
X11802500Y-10742000I-50000J0D01*
G01*
X11802500Y-10996000D02*
G75*
G03*
X11802500Y-10996000I-50000J0D01*
G01*
X11802500Y-11250000D02*
G75*
G03*
X11802500Y-11250000I-50000J0D01*
G01*
X11802500Y-11504000D02*
G75*
G03*
X11802500Y-11504000I-50000J0D01*
G01*
X11802500Y-11758000D02*
G75*
G03*
X11802500Y-11758000I-50000J0D01*
G01*
X15300000Y-10742500D02*
G75*
G03*
X15300000Y-10742500I-50000J0D01*
G01*
X15300000Y-10996500D02*
G75*
G03*
X15300000Y-10996500I-50000J0D01*
G01*
X15300000Y-11250500D02*
G75*
G03*
X15300000Y-11250500I-50000J0D01*
G01*
X15300000Y-11504500D02*
G75*
G03*
X15300000Y-11504500I-50000J0D01*
G01*
X15300000Y-11758500D02*
G75*
G03*
X15300000Y-11758500I-50000J0D01*
G01*
D14*
X14608500Y-9724100D02*
X14608500Y-9856900D01*
X14542100Y-9790500D02*
X14674900Y-9790500D01*
X14608500Y-10078900D02*
X14608500Y-10211700D01*
X14542100Y-10145300D02*
X14674900Y-10145300D01*
X15208500Y-9724100D02*
X15208500Y-9856900D01*
X15142100Y-9790500D02*
X15274900Y-9790500D01*
X15208500Y-10078900D02*
X15208500Y-10211700D01*
X15142100Y-10145300D02*
X15274900Y-10145300D01*
D15*
X12932569Y-12057069D02*
X12932569Y-11943931D01*
X12819431Y-11943931D01*
X12819431Y-12057069D01*
X12932569Y-12057069D01*
X14192569Y-12057069D02*
X14192569Y-11943931D01*
X14079431Y-11943931D01*
X14079431Y-12057069D01*
X14192569Y-12057069D01*
D11*
X11797619Y-13240476D02*
X11797619Y-13040476D01*
X11845238Y-13040476D01*
X11873809Y-13050000D01*
X11892857Y-13069048D01*
X11902381Y-13088095D01*
X11911905Y-13126190D01*
X11911905Y-13154762D01*
X11902381Y-13192857D01*
X11892857Y-13211905D01*
X11873809Y-13230952D01*
X11845238Y-13240476D01*
X11797619Y-13240476D01*
X11997619Y-13240476D02*
X11997619Y-13107143D01*
X11997619Y-13145238D02*
X12007143Y-13126190D01*
X12016667Y-13116667D01*
X12035714Y-13107143D01*
X12054762Y-13107143D01*
X12121428Y-13240476D02*
X12121428Y-13107143D01*
X12121428Y-13040476D02*
X12111905Y-13050000D01*
X12121428Y-13059524D01*
X12130952Y-13050000D01*
X12121428Y-13040476D01*
X12121428Y-13059524D01*
X12245238Y-13240476D02*
X12226190Y-13230952D01*
X12216667Y-13211905D01*
X12216667Y-13040476D01*
X12350000Y-13240476D02*
X12330952Y-13230952D01*
X12321428Y-13211905D01*
X12321428Y-13040476D01*
X12578571Y-13240476D02*
X12578571Y-13040476D01*
X12645238Y-13183333D01*
X12711905Y-13040476D01*
X12711905Y-13240476D01*
X12892857Y-13240476D02*
X12892857Y-13135714D01*
X12883333Y-13116667D01*
X12864286Y-13107143D01*
X12826190Y-13107143D01*
X12807143Y-13116667D01*
X12892857Y-13230952D02*
X12873809Y-13240476D01*
X12826190Y-13240476D01*
X12807143Y-13230952D01*
X12797619Y-13211905D01*
X12797619Y-13192857D01*
X12807143Y-13173809D01*
X12826190Y-13164286D01*
X12873809Y-13164286D01*
X12892857Y-13154762D01*
X12988095Y-13107143D02*
X12988095Y-13307143D01*
X12988095Y-13116667D02*
X13007143Y-13107143D01*
X13045238Y-13107143D01*
X13064286Y-13116667D01*
X13073809Y-13126190D01*
X13083333Y-13145238D01*
X13083333Y-13202381D01*
X13073809Y-13221428D01*
X13064286Y-13230952D01*
X13045238Y-13240476D01*
X13007143Y-13240476D01*
X12988095Y-13230952D01*
X13169048Y-13221428D02*
X13178571Y-13230952D01*
X13169048Y-13240476D01*
X13159524Y-13230952D01*
X13169048Y-13221428D01*
X13169048Y-13240476D01*
X13169048Y-13116667D02*
X13178571Y-13126190D01*
X13169048Y-13135714D01*
X13159524Y-13126190D01*
X13169048Y-13116667D01*
X13169048Y-13135714D01*
D12*
X11500000Y-13550000D02*
X11540000Y-13590000D01*
X11540000Y-13550000D02*
X11500000Y-13590000D01*
D11*
X11835714Y-13460476D02*
X11854762Y-13460476D01*
X11873809Y-13470000D01*
X11883333Y-13479524D01*
X11892857Y-13498571D01*
X11902381Y-13536667D01*
X11902381Y-13584286D01*
X11892857Y-13622381D01*
X11883333Y-13641428D01*
X11873809Y-13650952D01*
X11854762Y-13660476D01*
X11835714Y-13660476D01*
X11816667Y-13650952D01*
X11807143Y-13641428D01*
X11797619Y-13622381D01*
X11788095Y-13584286D01*
X11788095Y-13536667D01*
X11797619Y-13498571D01*
X11807143Y-13479524D01*
X11816667Y-13470000D01*
X11835714Y-13460476D01*
X11988095Y-13641428D02*
X11997619Y-13650952D01*
X11988095Y-13660476D01*
X11978571Y-13650952D01*
X11988095Y-13641428D01*
X11988095Y-13660476D01*
X12169048Y-13527143D02*
X12169048Y-13660476D01*
X12121428Y-13450952D02*
X12073809Y-13593809D01*
X12197619Y-13593809D01*
X12311905Y-13460476D02*
X12330952Y-13460476D01*
X12350000Y-13470000D01*
X12359524Y-13479524D01*
X12369048Y-13498571D01*
X12378571Y-13536667D01*
X12378571Y-13584286D01*
X12369048Y-13622381D01*
X12359524Y-13641428D01*
X12350000Y-13650952D01*
X12330952Y-13660476D01*
X12311905Y-13660476D01*
X12292857Y-13650952D01*
X12283333Y-13641428D01*
X12273809Y-13622381D01*
X12264286Y-13584286D01*
X12264286Y-13536667D01*
X12273809Y-13498571D01*
X12283333Y-13479524D01*
X12292857Y-13470000D01*
X12311905Y-13460476D01*
X12502381Y-13460476D02*
X12521428Y-13460476D01*
X12540476Y-13470000D01*
X12550000Y-13479524D01*
X12559524Y-13498571D01*
X12569048Y-13536667D01*
X12569048Y-13584286D01*
X12559524Y-13622381D01*
X12550000Y-13641428D01*
X12540476Y-13650952D01*
X12521428Y-13660476D01*
X12502381Y-13660476D01*
X12483333Y-13650952D01*
X12473809Y-13641428D01*
X12464286Y-13622381D01*
X12454762Y-13584286D01*
X12454762Y-13536667D01*
X12464286Y-13498571D01*
X12473809Y-13479524D01*
X12483333Y-13470000D01*
X12502381Y-13460476D01*
X12654762Y-13660476D02*
X12654762Y-13527143D01*
X12654762Y-13546190D02*
X12664286Y-13536667D01*
X12683333Y-13527143D01*
X12711905Y-13527143D01*
X12730952Y-13536667D01*
X12740476Y-13555714D01*
X12740476Y-13660476D01*
X12740476Y-13555714D02*
X12750000Y-13536667D01*
X12769048Y-13527143D01*
X12797619Y-13527143D01*
X12816667Y-13536667D01*
X12826190Y-13555714D01*
X12826190Y-13660476D01*
X12921428Y-13660476D02*
X12921428Y-13527143D01*
X12921428Y-13546190D02*
X12930952Y-13536667D01*
X12950000Y-13527143D01*
X12978571Y-13527143D01*
X12997619Y-13536667D01*
X13007143Y-13555714D01*
X13007143Y-13660476D01*
X13007143Y-13555714D02*
X13016667Y-13536667D01*
X13035714Y-13527143D01*
X13064286Y-13527143D01*
X13083333Y-13536667D01*
X13092857Y-13555714D01*
X13092857Y-13660476D01*
X13483333Y-13450952D02*
X13311905Y-13708095D01*
X13740476Y-13460476D02*
X13759524Y-13460476D01*
X13778571Y-13470000D01*
X13788095Y-13479524D01*
X13797619Y-13498571D01*
X13807143Y-13536667D01*
X13807143Y-13584286D01*
X13797619Y-13622381D01*
X13788095Y-13641428D01*
X13778571Y-13650952D01*
X13759524Y-13660476D01*
X13740476Y-13660476D01*
X13721428Y-13650952D01*
X13711905Y-13641428D01*
X13702381Y-13622381D01*
X13692857Y-13584286D01*
X13692857Y-13536667D01*
X13702381Y-13498571D01*
X13711905Y-13479524D01*
X13721428Y-13470000D01*
X13740476Y-13460476D01*
X13892857Y-13641428D02*
X13902381Y-13650952D01*
X13892857Y-13660476D01*
X13883333Y-13650952D01*
X13892857Y-13641428D01*
X13892857Y-13660476D01*
X14026190Y-13460476D02*
X14045238Y-13460476D01*
X14064286Y-13470000D01*
X14073809Y-13479524D01*
X14083333Y-13498571D01*
X14092857Y-13536667D01*
X14092857Y-13584286D01*
X14083333Y-13622381D01*
X14073809Y-13641428D01*
X14064286Y-13650952D01*
X14045238Y-13660476D01*
X14026190Y-13660476D01*
X14007143Y-13650952D01*
X13997619Y-13641428D01*
X13988095Y-13622381D01*
X13978571Y-13584286D01*
X13978571Y-13536667D01*
X13988095Y-13498571D01*
X13997619Y-13479524D01*
X14007143Y-13470000D01*
X14026190Y-13460476D01*
X14283333Y-13660476D02*
X14169048Y-13660476D01*
X14226190Y-13660476D02*
X14226190Y-13460476D01*
X14207143Y-13489048D01*
X14188095Y-13508095D01*
X14169048Y-13517619D01*
X14464286Y-13460476D02*
X14369048Y-13460476D01*
X14359524Y-13555714D01*
X14369048Y-13546190D01*
X14388095Y-13536667D01*
X14435714Y-13536667D01*
X14454762Y-13546190D01*
X14464286Y-13555714D01*
X14473809Y-13574762D01*
X14473809Y-13622381D01*
X14464286Y-13641428D01*
X14454762Y-13650952D01*
X14435714Y-13660476D01*
X14388095Y-13660476D01*
X14369048Y-13650952D01*
X14359524Y-13641428D01*
X14540476Y-13460476D02*
X14673809Y-13460476D01*
X14588095Y-13660476D01*
X14740476Y-13460476D02*
X14740476Y-13498571D01*
X14816667Y-13460476D02*
X14816667Y-13498571D01*
X15111905Y-13736667D02*
X15102381Y-13727143D01*
X15083333Y-13698571D01*
X15073809Y-13679524D01*
X15064286Y-13650952D01*
X15054762Y-13603333D01*
X15054762Y-13565238D01*
X15064286Y-13517619D01*
X15073809Y-13489048D01*
X15083333Y-13470000D01*
X15102381Y-13441428D01*
X15111905Y-13431905D01*
X15292857Y-13660476D02*
X15178571Y-13660476D01*
X15235714Y-13660476D02*
X15235714Y-13460476D01*
X15216667Y-13489048D01*
X15197619Y-13508095D01*
X15178571Y-13517619D01*
X15530952Y-13660476D02*
X15530952Y-13460476D01*
X15616667Y-13660476D02*
X15616667Y-13555714D01*
X15607143Y-13536667D01*
X15588095Y-13527143D01*
X15559524Y-13527143D01*
X15540476Y-13536667D01*
X15530952Y-13546190D01*
X15740476Y-13660476D02*
X15721428Y-13650952D01*
X15711905Y-13641428D01*
X15702381Y-13622381D01*
X15702381Y-13565238D01*
X15711905Y-13546190D01*
X15721428Y-13536667D01*
X15740476Y-13527143D01*
X15769048Y-13527143D01*
X15788095Y-13536667D01*
X15797619Y-13546190D01*
X15807143Y-13565238D01*
X15807143Y-13622381D01*
X15797619Y-13641428D01*
X15788095Y-13650952D01*
X15769048Y-13660476D01*
X15740476Y-13660476D01*
X15921428Y-13660476D02*
X15902381Y-13650952D01*
X15892857Y-13631905D01*
X15892857Y-13460476D01*
X16073809Y-13650952D02*
X16054762Y-13660476D01*
X16016667Y-13660476D01*
X15997619Y-13650952D01*
X15988095Y-13631905D01*
X15988095Y-13555714D01*
X15997619Y-13536667D01*
X16016667Y-13527143D01*
X16054762Y-13527143D01*
X16073809Y-13536667D01*
X16083333Y-13555714D01*
X16083333Y-13574762D01*
X15988095Y-13593809D01*
X16150000Y-13736667D02*
X16159524Y-13727143D01*
X16178571Y-13698571D01*
X16188095Y-13679524D01*
X16197619Y-13650952D01*
X16207143Y-13603333D01*
X16207143Y-13565238D01*
X16197619Y-13517619D01*
X16188095Y-13489048D01*
X16178571Y-13470000D01*
X16159524Y-13441428D01*
X16150000Y-13431905D01*
D13*
X11540000Y-13834000D02*
G75*
G03*
X11540000Y-13834000I-50000J0D01*
G01*
D11*
X11902381Y-13924476D02*
X11788095Y-13924476D01*
X11845238Y-13924476D02*
X11845238Y-13724476D01*
X11826190Y-13753048D01*
X11807143Y-13772095D01*
X11788095Y-13781619D01*
X11988095Y-13905428D02*
X11997619Y-13914952D01*
X11988095Y-13924476D01*
X11978571Y-13914952D01*
X11988095Y-13905428D01*
X11988095Y-13924476D01*
X12121428Y-13724476D02*
X12140476Y-13724476D01*
X12159524Y-13734000D01*
X12169048Y-13743524D01*
X12178571Y-13762571D01*
X12188095Y-13800667D01*
X12188095Y-13848286D01*
X12178571Y-13886381D01*
X12169048Y-13905428D01*
X12159524Y-13914952D01*
X12140476Y-13924476D01*
X12121428Y-13924476D01*
X12102381Y-13914952D01*
X12092857Y-13905428D01*
X12083333Y-13886381D01*
X12073809Y-13848286D01*
X12073809Y-13800667D01*
X12083333Y-13762571D01*
X12092857Y-13743524D01*
X12102381Y-13734000D01*
X12121428Y-13724476D01*
X12311905Y-13724476D02*
X12330952Y-13724476D01*
X12350000Y-13734000D01*
X12359524Y-13743524D01*
X12369048Y-13762571D01*
X12378571Y-13800667D01*
X12378571Y-13848286D01*
X12369048Y-13886381D01*
X12359524Y-13905428D01*
X12350000Y-13914952D01*
X12330952Y-13924476D01*
X12311905Y-13924476D01*
X12292857Y-13914952D01*
X12283333Y-13905428D01*
X12273809Y-13886381D01*
X12264286Y-13848286D01*
X12264286Y-13800667D01*
X12273809Y-13762571D01*
X12283333Y-13743524D01*
X12292857Y-13734000D01*
X12311905Y-13724476D01*
X12502381Y-13724476D02*
X12521428Y-13724476D01*
X12540476Y-13734000D01*
X12550000Y-13743524D01*
X12559524Y-13762571D01*
X12569048Y-13800667D01*
X12569048Y-13848286D01*
X12559524Y-13886381D01*
X12550000Y-13905428D01*
X12540476Y-13914952D01*
X12521428Y-13924476D01*
X12502381Y-13924476D01*
X12483333Y-13914952D01*
X12473809Y-13905428D01*
X12464286Y-13886381D01*
X12454762Y-13848286D01*
X12454762Y-13800667D01*
X12464286Y-13762571D01*
X12473809Y-13743524D01*
X12483333Y-13734000D01*
X12502381Y-13724476D01*
X12654762Y-13924476D02*
X12654762Y-13791143D01*
X12654762Y-13810190D02*
X12664286Y-13800667D01*
X12683333Y-13791143D01*
X12711905Y-13791143D01*
X12730952Y-13800667D01*
X12740476Y-13819714D01*
X12740476Y-13924476D01*
X12740476Y-13819714D02*
X12750000Y-13800667D01*
X12769048Y-13791143D01*
X12797619Y-13791143D01*
X12816667Y-13800667D01*
X12826190Y-13819714D01*
X12826190Y-13924476D01*
X12921428Y-13924476D02*
X12921428Y-13791143D01*
X12921428Y-13810190D02*
X12930952Y-13800667D01*
X12950000Y-13791143D01*
X12978571Y-13791143D01*
X12997619Y-13800667D01*
X13007143Y-13819714D01*
X13007143Y-13924476D01*
X13007143Y-13819714D02*
X13016667Y-13800667D01*
X13035714Y-13791143D01*
X13064286Y-13791143D01*
X13083333Y-13800667D01*
X13092857Y-13819714D01*
X13092857Y-13924476D01*
X13483333Y-13714952D02*
X13311905Y-13972095D01*
X13740476Y-13724476D02*
X13759524Y-13724476D01*
X13778571Y-13734000D01*
X13788095Y-13743524D01*
X13797619Y-13762571D01*
X13807143Y-13800667D01*
X13807143Y-13848286D01*
X13797619Y-13886381D01*
X13788095Y-13905428D01*
X13778571Y-13914952D01*
X13759524Y-13924476D01*
X13740476Y-13924476D01*
X13721428Y-13914952D01*
X13711905Y-13905428D01*
X13702381Y-13886381D01*
X13692857Y-13848286D01*
X13692857Y-13800667D01*
X13702381Y-13762571D01*
X13711905Y-13743524D01*
X13721428Y-13734000D01*
X13740476Y-13724476D01*
X13892857Y-13905428D02*
X13902381Y-13914952D01*
X13892857Y-13924476D01*
X13883333Y-13914952D01*
X13892857Y-13905428D01*
X13892857Y-13924476D01*
X14026190Y-13724476D02*
X14045238Y-13724476D01*
X14064286Y-13734000D01*
X14073809Y-13743524D01*
X14083333Y-13762571D01*
X14092857Y-13800667D01*
X14092857Y-13848286D01*
X14083333Y-13886381D01*
X14073809Y-13905428D01*
X14064286Y-13914952D01*
X14045238Y-13924476D01*
X14026190Y-13924476D01*
X14007143Y-13914952D01*
X13997619Y-13905428D01*
X13988095Y-13886381D01*
X13978571Y-13848286D01*
X13978571Y-13800667D01*
X13988095Y-13762571D01*
X13997619Y-13743524D01*
X14007143Y-13734000D01*
X14026190Y-13724476D01*
X14159524Y-13724476D02*
X14283333Y-13724476D01*
X14216667Y-13800667D01*
X14245238Y-13800667D01*
X14264286Y-13810190D01*
X14273809Y-13819714D01*
X14283333Y-13838762D01*
X14283333Y-13886381D01*
X14273809Y-13905428D01*
X14264286Y-13914952D01*
X14245238Y-13924476D01*
X14188095Y-13924476D01*
X14169048Y-13914952D01*
X14159524Y-13905428D01*
X14378571Y-13924476D02*
X14416667Y-13924476D01*
X14435714Y-13914952D01*
X14445238Y-13905428D01*
X14464286Y-13876857D01*
X14473809Y-13838762D01*
X14473809Y-13762571D01*
X14464286Y-13743524D01*
X14454762Y-13734000D01*
X14435714Y-13724476D01*
X14397619Y-13724476D01*
X14378571Y-13734000D01*
X14369048Y-13743524D01*
X14359524Y-13762571D01*
X14359524Y-13810190D01*
X14369048Y-13829238D01*
X14378571Y-13838762D01*
X14397619Y-13848286D01*
X14435714Y-13848286D01*
X14454762Y-13838762D01*
X14464286Y-13829238D01*
X14473809Y-13810190D01*
X14645238Y-13791143D02*
X14645238Y-13924476D01*
X14597619Y-13714952D02*
X14550000Y-13857809D01*
X14673809Y-13857809D01*
X14740476Y-13724476D02*
X14740476Y-13762571D01*
X14816667Y-13724476D02*
X14816667Y-13762571D01*
X15111905Y-14000667D02*
X15102381Y-13991143D01*
X15083333Y-13962571D01*
X15073809Y-13943524D01*
X15064286Y-13914952D01*
X15054762Y-13867333D01*
X15054762Y-13829238D01*
X15064286Y-13781619D01*
X15073809Y-13753048D01*
X15083333Y-13734000D01*
X15102381Y-13705428D01*
X15111905Y-13695905D01*
X15292857Y-13924476D02*
X15178571Y-13924476D01*
X15235714Y-13924476D02*
X15235714Y-13724476D01*
X15216667Y-13753048D01*
X15197619Y-13772095D01*
X15178571Y-13781619D01*
X15416667Y-13724476D02*
X15435714Y-13724476D01*
X15454762Y-13734000D01*
X15464286Y-13743524D01*
X15473809Y-13762571D01*
X15483333Y-13800667D01*
X15483333Y-13848286D01*
X15473809Y-13886381D01*
X15464286Y-13905428D01*
X15454762Y-13914952D01*
X15435714Y-13924476D01*
X15416667Y-13924476D01*
X15397619Y-13914952D01*
X15388095Y-13905428D01*
X15378571Y-13886381D01*
X15369048Y-13848286D01*
X15369048Y-13800667D01*
X15378571Y-13762571D01*
X15388095Y-13743524D01*
X15397619Y-13734000D01*
X15416667Y-13724476D01*
X15721428Y-13924476D02*
X15721428Y-13724476D01*
X15807143Y-13924476D02*
X15807143Y-13819714D01*
X15797619Y-13800667D01*
X15778571Y-13791143D01*
X15750000Y-13791143D01*
X15730952Y-13800667D01*
X15721428Y-13810190D01*
X15930952Y-13924476D02*
X15911905Y-13914952D01*
X15902381Y-13905428D01*
X15892857Y-13886381D01*
X15892857Y-13829238D01*
X15902381Y-13810190D01*
X15911905Y-13800667D01*
X15930952Y-13791143D01*
X15959524Y-13791143D01*
X15978571Y-13800667D01*
X15988095Y-13810190D01*
X15997619Y-13829238D01*
X15997619Y-13886381D01*
X15988095Y-13905428D01*
X15978571Y-13914952D01*
X15959524Y-13924476D01*
X15930952Y-13924476D01*
X16111905Y-13924476D02*
X16092857Y-13914952D01*
X16083333Y-13895905D01*
X16083333Y-13724476D01*
X16264286Y-13914952D02*
X16245238Y-13924476D01*
X16207143Y-13924476D01*
X16188095Y-13914952D01*
X16178571Y-13895905D01*
X16178571Y-13819714D01*
X16188095Y-13800667D01*
X16207143Y-13791143D01*
X16245238Y-13791143D01*
X16264286Y-13800667D01*
X16273809Y-13819714D01*
X16273809Y-13838762D01*
X16178571Y-13857809D01*
X16350000Y-13914952D02*
X16369048Y-13924476D01*
X16407143Y-13924476D01*
X16426190Y-13914952D01*
X16435714Y-13895905D01*
X16435714Y-13886381D01*
X16426190Y-13867333D01*
X16407143Y-13857809D01*
X16378571Y-13857809D01*
X16359524Y-13848286D01*
X16350000Y-13829238D01*
X16350000Y-13819714D01*
X16359524Y-13800667D01*
X16378571Y-13791143D01*
X16407143Y-13791143D01*
X16426190Y-13800667D01*
X16502381Y-14000667D02*
X16511905Y-13991143D01*
X16530952Y-13962571D01*
X16540476Y-13943524D01*
X16550000Y-13914952D01*
X16559524Y-13867333D01*
X16559524Y-13829238D01*
X16550000Y-13781619D01*
X16540476Y-13753048D01*
X16530952Y-13734000D01*
X16511905Y-13705428D01*
X16502381Y-13695905D01*
D14*
X11473600Y-14031600D02*
X11473600Y-14164400D01*
X11407200Y-14098000D02*
X11540000Y-14098000D01*
D11*
X11902381Y-14188476D02*
X11788095Y-14188476D01*
X11845238Y-14188476D02*
X11845238Y-13988476D01*
X11826190Y-14017048D01*
X11807143Y-14036095D01*
X11788095Y-14045619D01*
X11988095Y-14169428D02*
X11997619Y-14178952D01*
X11988095Y-14188476D01*
X11978571Y-14178952D01*
X11988095Y-14169428D01*
X11988095Y-14188476D01*
X12064286Y-13988476D02*
X12188095Y-13988476D01*
X12121428Y-14064667D01*
X12150000Y-14064667D01*
X12169048Y-14074190D01*
X12178571Y-14083714D01*
X12188095Y-14102762D01*
X12188095Y-14150381D01*
X12178571Y-14169428D01*
X12169048Y-14178952D01*
X12150000Y-14188476D01*
X12092857Y-14188476D01*
X12073809Y-14178952D01*
X12064286Y-14169428D01*
X12264286Y-14007524D02*
X12273809Y-13998000D01*
X12292857Y-13988476D01*
X12340476Y-13988476D01*
X12359524Y-13998000D01*
X12369048Y-14007524D01*
X12378571Y-14026571D01*
X12378571Y-14045619D01*
X12369048Y-14074190D01*
X12254762Y-14188476D01*
X12378571Y-14188476D01*
X12492857Y-14074190D02*
X12473809Y-14064667D01*
X12464286Y-14055143D01*
X12454762Y-14036095D01*
X12454762Y-14026571D01*
X12464286Y-14007524D01*
X12473809Y-13998000D01*
X12492857Y-13988476D01*
X12530952Y-13988476D01*
X12550000Y-13998000D01*
X12559524Y-14007524D01*
X12569048Y-14026571D01*
X12569048Y-14036095D01*
X12559524Y-14055143D01*
X12550000Y-14064667D01*
X12530952Y-14074190D01*
X12492857Y-14074190D01*
X12473809Y-14083714D01*
X12464286Y-14093238D01*
X12454762Y-14112286D01*
X12454762Y-14150381D01*
X12464286Y-14169428D01*
X12473809Y-14178952D01*
X12492857Y-14188476D01*
X12530952Y-14188476D01*
X12550000Y-14178952D01*
X12559524Y-14169428D01*
X12569048Y-14150381D01*
X12569048Y-14112286D01*
X12559524Y-14093238D01*
X12550000Y-14083714D01*
X12530952Y-14074190D01*
X12654762Y-14188476D02*
X12654762Y-14055143D01*
X12654762Y-14074190D02*
X12664286Y-14064667D01*
X12683333Y-14055143D01*
X12711905Y-14055143D01*
X12730952Y-14064667D01*
X12740476Y-14083714D01*
X12740476Y-14188476D01*
X12740476Y-14083714D02*
X12750000Y-14064667D01*
X12769048Y-14055143D01*
X12797619Y-14055143D01*
X12816667Y-14064667D01*
X12826190Y-14083714D01*
X12826190Y-14188476D01*
X12921428Y-14188476D02*
X12921428Y-14055143D01*
X12921428Y-14074190D02*
X12930952Y-14064667D01*
X12950000Y-14055143D01*
X12978571Y-14055143D01*
X12997619Y-14064667D01*
X13007143Y-14083714D01*
X13007143Y-14188476D01*
X13007143Y-14083714D02*
X13016667Y-14064667D01*
X13035714Y-14055143D01*
X13064286Y-14055143D01*
X13083333Y-14064667D01*
X13092857Y-14083714D01*
X13092857Y-14188476D01*
X13483333Y-13978952D02*
X13311905Y-14236095D01*
X13740476Y-13988476D02*
X13759524Y-13988476D01*
X13778571Y-13998000D01*
X13788095Y-14007524D01*
X13797619Y-14026571D01*
X13807143Y-14064667D01*
X13807143Y-14112286D01*
X13797619Y-14150381D01*
X13788095Y-14169428D01*
X13778571Y-14178952D01*
X13759524Y-14188476D01*
X13740476Y-14188476D01*
X13721428Y-14178952D01*
X13711905Y-14169428D01*
X13702381Y-14150381D01*
X13692857Y-14112286D01*
X13692857Y-14064667D01*
X13702381Y-14026571D01*
X13711905Y-14007524D01*
X13721428Y-13998000D01*
X13740476Y-13988476D01*
X13892857Y-14169428D02*
X13902381Y-14178952D01*
X13892857Y-14188476D01*
X13883333Y-14178952D01*
X13892857Y-14169428D01*
X13892857Y-14188476D01*
X14026190Y-13988476D02*
X14045238Y-13988476D01*
X14064286Y-13998000D01*
X14073809Y-14007524D01*
X14083333Y-14026571D01*
X14092857Y-14064667D01*
X14092857Y-14112286D01*
X14083333Y-14150381D01*
X14073809Y-14169428D01*
X14064286Y-14178952D01*
X14045238Y-14188476D01*
X14026190Y-14188476D01*
X14007143Y-14178952D01*
X13997619Y-14169428D01*
X13988095Y-14150381D01*
X13978571Y-14112286D01*
X13978571Y-14064667D01*
X13988095Y-14026571D01*
X13997619Y-14007524D01*
X14007143Y-13998000D01*
X14026190Y-13988476D01*
X14273809Y-13988476D02*
X14178571Y-13988476D01*
X14169048Y-14083714D01*
X14178571Y-14074190D01*
X14197619Y-14064667D01*
X14245238Y-14064667D01*
X14264286Y-14074190D01*
X14273809Y-14083714D01*
X14283333Y-14102762D01*
X14283333Y-14150381D01*
X14273809Y-14169428D01*
X14264286Y-14178952D01*
X14245238Y-14188476D01*
X14197619Y-14188476D01*
X14178571Y-14178952D01*
X14169048Y-14169428D01*
X14359524Y-14007524D02*
X14369048Y-13998000D01*
X14388095Y-13988476D01*
X14435714Y-13988476D01*
X14454762Y-13998000D01*
X14464286Y-14007524D01*
X14473809Y-14026571D01*
X14473809Y-14045619D01*
X14464286Y-14074190D01*
X14350000Y-14188476D01*
X14473809Y-14188476D01*
X14540476Y-13988476D02*
X14664286Y-13988476D01*
X14597619Y-14064667D01*
X14626190Y-14064667D01*
X14645238Y-14074190D01*
X14654762Y-14083714D01*
X14664286Y-14102762D01*
X14664286Y-14150381D01*
X14654762Y-14169428D01*
X14645238Y-14178952D01*
X14626190Y-14188476D01*
X14569048Y-14188476D01*
X14550000Y-14178952D01*
X14540476Y-14169428D01*
X14740476Y-13988476D02*
X14740476Y-14026571D01*
X14816667Y-13988476D02*
X14816667Y-14026571D01*
X15111905Y-14264667D02*
X15102381Y-14255143D01*
X15083333Y-14226571D01*
X15073809Y-14207524D01*
X15064286Y-14178952D01*
X15054762Y-14131333D01*
X15054762Y-14093238D01*
X15064286Y-14045619D01*
X15073809Y-14017048D01*
X15083333Y-13998000D01*
X15102381Y-13969428D01*
X15111905Y-13959905D01*
X15273809Y-14055143D02*
X15273809Y-14188476D01*
X15226190Y-13978952D02*
X15178571Y-14121809D01*
X15302381Y-14121809D01*
X15530952Y-14188476D02*
X15530952Y-13988476D01*
X15616667Y-14188476D02*
X15616667Y-14083714D01*
X15607143Y-14064667D01*
X15588095Y-14055143D01*
X15559524Y-14055143D01*
X15540476Y-14064667D01*
X15530952Y-14074190D01*
X15740476Y-14188476D02*
X15721428Y-14178952D01*
X15711905Y-14169428D01*
X15702381Y-14150381D01*
X15702381Y-14093238D01*
X15711905Y-14074190D01*
X15721428Y-14064667D01*
X15740476Y-14055143D01*
X15769048Y-14055143D01*
X15788095Y-14064667D01*
X15797619Y-14074190D01*
X15807143Y-14093238D01*
X15807143Y-14150381D01*
X15797619Y-14169428D01*
X15788095Y-14178952D01*
X15769048Y-14188476D01*
X15740476Y-14188476D01*
X15921428Y-14188476D02*
X15902381Y-14178952D01*
X15892857Y-14159905D01*
X15892857Y-13988476D01*
X16073809Y-14178952D02*
X16054762Y-14188476D01*
X16016667Y-14188476D01*
X15997619Y-14178952D01*
X15988095Y-14159905D01*
X15988095Y-14083714D01*
X15997619Y-14064667D01*
X16016667Y-14055143D01*
X16054762Y-14055143D01*
X16073809Y-14064667D01*
X16083333Y-14083714D01*
X16083333Y-14102762D01*
X15988095Y-14121809D01*
X16159524Y-14178952D02*
X16178571Y-14188476D01*
X16216667Y-14188476D01*
X16235714Y-14178952D01*
X16245238Y-14159905D01*
X16245238Y-14150381D01*
X16235714Y-14131333D01*
X16216667Y-14121809D01*
X16188095Y-14121809D01*
X16169048Y-14112286D01*
X16159524Y-14093238D01*
X16159524Y-14083714D01*
X16169048Y-14064667D01*
X16188095Y-14055143D01*
X16216667Y-14055143D01*
X16235714Y-14064667D01*
X16311905Y-14264667D02*
X16321428Y-14255143D01*
X16340476Y-14226571D01*
X16350000Y-14207524D01*
X16359524Y-14178952D01*
X16369048Y-14131333D01*
X16369048Y-14093238D01*
X16359524Y-14045619D01*
X16350000Y-14017048D01*
X16340476Y-13998000D01*
X16321428Y-13969428D01*
X16311905Y-13959905D01*
D15*
X11516569Y-14418569D02*
X11516569Y-14305431D01*
X11403431Y-14305431D01*
X11403431Y-14418569D01*
X11516569Y-14418569D01*
D11*
X11902381Y-14452476D02*
X11788095Y-14452476D01*
X11845238Y-14452476D02*
X11845238Y-14252476D01*
X11826190Y-14281048D01*
X11807143Y-14300095D01*
X11788095Y-14309619D01*
X11988095Y-14433428D02*
X11997619Y-14442952D01*
X11988095Y-14452476D01*
X11978571Y-14442952D01*
X11988095Y-14433428D01*
X11988095Y-14452476D01*
X12169048Y-14252476D02*
X12130952Y-14252476D01*
X12111905Y-14262000D01*
X12102381Y-14271524D01*
X12083333Y-14300095D01*
X12073809Y-14338190D01*
X12073809Y-14414381D01*
X12083333Y-14433428D01*
X12092857Y-14442952D01*
X12111905Y-14452476D01*
X12150000Y-14452476D01*
X12169048Y-14442952D01*
X12178571Y-14433428D01*
X12188095Y-14414381D01*
X12188095Y-14366762D01*
X12178571Y-14347714D01*
X12169048Y-14338190D01*
X12150000Y-14328667D01*
X12111905Y-14328667D01*
X12092857Y-14338190D01*
X12083333Y-14347714D01*
X12073809Y-14366762D01*
X12311905Y-14252476D02*
X12330952Y-14252476D01*
X12350000Y-14262000D01*
X12359524Y-14271524D01*
X12369048Y-14290571D01*
X12378571Y-14328667D01*
X12378571Y-14376286D01*
X12369048Y-14414381D01*
X12359524Y-14433428D01*
X12350000Y-14442952D01*
X12330952Y-14452476D01*
X12311905Y-14452476D01*
X12292857Y-14442952D01*
X12283333Y-14433428D01*
X12273809Y-14414381D01*
X12264286Y-14376286D01*
X12264286Y-14328667D01*
X12273809Y-14290571D01*
X12283333Y-14271524D01*
X12292857Y-14262000D01*
X12311905Y-14252476D01*
X12502381Y-14252476D02*
X12521428Y-14252476D01*
X12540476Y-14262000D01*
X12550000Y-14271524D01*
X12559524Y-14290571D01*
X12569048Y-14328667D01*
X12569048Y-14376286D01*
X12559524Y-14414381D01*
X12550000Y-14433428D01*
X12540476Y-14442952D01*
X12521428Y-14452476D01*
X12502381Y-14452476D01*
X12483333Y-14442952D01*
X12473809Y-14433428D01*
X12464286Y-14414381D01*
X12454762Y-14376286D01*
X12454762Y-14328667D01*
X12464286Y-14290571D01*
X12473809Y-14271524D01*
X12483333Y-14262000D01*
X12502381Y-14252476D01*
X12654762Y-14452476D02*
X12654762Y-14319143D01*
X12654762Y-14338190D02*
X12664286Y-14328667D01*
X12683333Y-14319143D01*
X12711905Y-14319143D01*
X12730952Y-14328667D01*
X12740476Y-14347714D01*
X12740476Y-14452476D01*
X12740476Y-14347714D02*
X12750000Y-14328667D01*
X12769048Y-14319143D01*
X12797619Y-14319143D01*
X12816667Y-14328667D01*
X12826190Y-14347714D01*
X12826190Y-14452476D01*
X12921428Y-14452476D02*
X12921428Y-14319143D01*
X12921428Y-14338190D02*
X12930952Y-14328667D01*
X12950000Y-14319143D01*
X12978571Y-14319143D01*
X12997619Y-14328667D01*
X13007143Y-14347714D01*
X13007143Y-14452476D01*
X13007143Y-14347714D02*
X13016667Y-14328667D01*
X13035714Y-14319143D01*
X13064286Y-14319143D01*
X13083333Y-14328667D01*
X13092857Y-14347714D01*
X13092857Y-14452476D01*
X13483333Y-14242952D02*
X13311905Y-14500095D01*
X13740476Y-14252476D02*
X13759524Y-14252476D01*
X13778571Y-14262000D01*
X13788095Y-14271524D01*
X13797619Y-14290571D01*
X13807143Y-14328667D01*
X13807143Y-14376286D01*
X13797619Y-14414381D01*
X13788095Y-14433428D01*
X13778571Y-14442952D01*
X13759524Y-14452476D01*
X13740476Y-14452476D01*
X13721428Y-14442952D01*
X13711905Y-14433428D01*
X13702381Y-14414381D01*
X13692857Y-14376286D01*
X13692857Y-14328667D01*
X13702381Y-14290571D01*
X13711905Y-14271524D01*
X13721428Y-14262000D01*
X13740476Y-14252476D01*
X13892857Y-14433428D02*
X13902381Y-14442952D01*
X13892857Y-14452476D01*
X13883333Y-14442952D01*
X13892857Y-14433428D01*
X13892857Y-14452476D01*
X14026190Y-14252476D02*
X14045238Y-14252476D01*
X14064286Y-14262000D01*
X14073809Y-14271524D01*
X14083333Y-14290571D01*
X14092857Y-14328667D01*
X14092857Y-14376286D01*
X14083333Y-14414381D01*
X14073809Y-14433428D01*
X14064286Y-14442952D01*
X14045238Y-14452476D01*
X14026190Y-14452476D01*
X14007143Y-14442952D01*
X13997619Y-14433428D01*
X13988095Y-14414381D01*
X13978571Y-14376286D01*
X13978571Y-14328667D01*
X13988095Y-14290571D01*
X13997619Y-14271524D01*
X14007143Y-14262000D01*
X14026190Y-14252476D01*
X14264286Y-14252476D02*
X14226190Y-14252476D01*
X14207143Y-14262000D01*
X14197619Y-14271524D01*
X14178571Y-14300095D01*
X14169048Y-14338190D01*
X14169048Y-14414381D01*
X14178571Y-14433428D01*
X14188095Y-14442952D01*
X14207143Y-14452476D01*
X14245238Y-14452476D01*
X14264286Y-14442952D01*
X14273809Y-14433428D01*
X14283333Y-14414381D01*
X14283333Y-14366762D01*
X14273809Y-14347714D01*
X14264286Y-14338190D01*
X14245238Y-14328667D01*
X14207143Y-14328667D01*
X14188095Y-14338190D01*
X14178571Y-14347714D01*
X14169048Y-14366762D01*
X14350000Y-14252476D02*
X14473809Y-14252476D01*
X14407143Y-14328667D01*
X14435714Y-14328667D01*
X14454762Y-14338190D01*
X14464286Y-14347714D01*
X14473809Y-14366762D01*
X14473809Y-14414381D01*
X14464286Y-14433428D01*
X14454762Y-14442952D01*
X14435714Y-14452476D01*
X14378571Y-14452476D01*
X14359524Y-14442952D01*
X14350000Y-14433428D01*
X14597619Y-14252476D02*
X14616667Y-14252476D01*
X14635714Y-14262000D01*
X14645238Y-14271524D01*
X14654762Y-14290571D01*
X14664286Y-14328667D01*
X14664286Y-14376286D01*
X14654762Y-14414381D01*
X14645238Y-14433428D01*
X14635714Y-14442952D01*
X14616667Y-14452476D01*
X14597619Y-14452476D01*
X14578571Y-14442952D01*
X14569048Y-14433428D01*
X14559524Y-14414381D01*
X14550000Y-14376286D01*
X14550000Y-14328667D01*
X14559524Y-14290571D01*
X14569048Y-14271524D01*
X14578571Y-14262000D01*
X14597619Y-14252476D01*
X14740476Y-14252476D02*
X14740476Y-14290571D01*
X14816667Y-14252476D02*
X14816667Y-14290571D01*
X15111905Y-14528667D02*
X15102381Y-14519143D01*
X15083333Y-14490571D01*
X15073809Y-14471524D01*
X15064286Y-14442952D01*
X15054762Y-14395333D01*
X15054762Y-14357238D01*
X15064286Y-14309619D01*
X15073809Y-14281048D01*
X15083333Y-14262000D01*
X15102381Y-14233428D01*
X15111905Y-14223905D01*
X15178571Y-14271524D02*
X15188095Y-14262000D01*
X15207143Y-14252476D01*
X15254762Y-14252476D01*
X15273809Y-14262000D01*
X15283333Y-14271524D01*
X15292857Y-14290571D01*
X15292857Y-14309619D01*
X15283333Y-14338190D01*
X15169048Y-14452476D01*
X15292857Y-14452476D01*
X15530952Y-14452476D02*
X15530952Y-14252476D01*
X15616667Y-14452476D02*
X15616667Y-14347714D01*
X15607143Y-14328667D01*
X15588095Y-14319143D01*
X15559524Y-14319143D01*
X15540476Y-14328667D01*
X15530952Y-14338190D01*
X15740476Y-14452476D02*
X15721428Y-14442952D01*
X15711905Y-14433428D01*
X15702381Y-14414381D01*
X15702381Y-14357238D01*
X15711905Y-14338190D01*
X15721428Y-14328667D01*
X15740476Y-14319143D01*
X15769048Y-14319143D01*
X15788095Y-14328667D01*
X15797619Y-14338190D01*
X15807143Y-14357238D01*
X15807143Y-14414381D01*
X15797619Y-14433428D01*
X15788095Y-14442952D01*
X15769048Y-14452476D01*
X15740476Y-14452476D01*
X15921428Y-14452476D02*
X15902381Y-14442952D01*
X15892857Y-14423905D01*
X15892857Y-14252476D01*
X16073809Y-14442952D02*
X16054762Y-14452476D01*
X16016667Y-14452476D01*
X15997619Y-14442952D01*
X15988095Y-14423905D01*
X15988095Y-14347714D01*
X15997619Y-14328667D01*
X16016667Y-14319143D01*
X16054762Y-14319143D01*
X16073809Y-14328667D01*
X16083333Y-14347714D01*
X16083333Y-14366762D01*
X15988095Y-14385809D01*
X16159524Y-14442952D02*
X16178571Y-14452476D01*
X16216667Y-14452476D01*
X16235714Y-14442952D01*
X16245238Y-14423905D01*
X16245238Y-14414381D01*
X16235714Y-14395333D01*
X16216667Y-14385809D01*
X16188095Y-14385809D01*
X16169048Y-14376286D01*
X16159524Y-14357238D01*
X16159524Y-14347714D01*
X16169048Y-14328667D01*
X16188095Y-14319143D01*
X16216667Y-14319143D01*
X16235714Y-14328667D01*
X16311905Y-14528667D02*
X16321428Y-14519143D01*
X16340476Y-14490571D01*
X16350000Y-14471524D01*
X16359524Y-14442952D01*
X16369048Y-14395333D01*
X16369048Y-14357238D01*
X16359524Y-14309619D01*
X16350000Y-14281048D01*
X16340476Y-14262000D01*
X16321428Y-14233428D01*
X16311905Y-14223905D01*
M02*
