G04 #@! TF.GenerationSoftware,KiCad,Pcbnew,(6.0.4)*
G04 #@! TF.CreationDate,2023-01-21T15:00:39-06:00*
G04 #@! TF.ProjectId,BPS-ShuntResistor,4250532d-5368-4756-9e74-526573697374,rev?*
G04 #@! TF.SameCoordinates,Original*
G04 #@! TF.FileFunction,Legend,Top*
G04 #@! TF.FilePolarity,Positive*
%FSLAX46Y46*%
G04 Gerber Fmt 4.6, Leading zero omitted, Abs format (unit mm)*
G04 Created by KiCad (PCBNEW (6.0.4)) date 2023-01-21 15:00:39*
%MOMM*%
%LPD*%
G01*
G04 APERTURE LIST*
G04 Aperture macros list*
%AMRoundRect*
0 Rectangle with rounded corners*
0 $1 Rounding radius*
0 $2 $3 $4 $5 $6 $7 $8 $9 X,Y pos of 4 corners*
0 Add a 4 corners polygon primitive as box body*
4,1,4,$2,$3,$4,$5,$6,$7,$8,$9,$2,$3,0*
0 Add four circle primitives for the rounded corners*
1,1,$1+$1,$2,$3*
1,1,$1+$1,$4,$5*
1,1,$1+$1,$6,$7*
1,1,$1+$1,$8,$9*
0 Add four rect primitives between the rounded corners*
20,1,$1+$1,$2,$3,$4,$5,0*
20,1,$1+$1,$4,$5,$6,$7,0*
20,1,$1+$1,$6,$7,$8,$9,0*
20,1,$1+$1,$8,$9,$2,$3,0*%
G04 Aperture macros list end*
%ADD10C,0.200000*%
%ADD11C,0.300000*%
%ADD12C,0.150000*%
%ADD13C,0.120000*%
%ADD14C,0.010000*%
%ADD15RoundRect,0.050000X-0.850000X-0.850000X0.850000X-0.850000X0.850000X0.850000X-0.850000X0.850000X0*%
%ADD16O,1.800000X1.800000*%
%ADD17RoundRect,0.300000X0.262500X0.450000X-0.262500X0.450000X-0.262500X-0.450000X0.262500X-0.450000X0*%
%ADD18C,2.800000*%
%ADD19RoundRect,0.300000X-0.450000X0.262500X-0.450000X-0.262500X0.450000X-0.262500X0.450000X0.262500X0*%
%ADD20C,2.128000*%
%ADD21C,2.400000*%
G04 APERTURE END LIST*
D10*
X140364761Y-123357380D02*
X140031428Y-122881190D01*
X139793333Y-123357380D02*
X139793333Y-122357380D01*
X140174285Y-122357380D01*
X140269523Y-122405000D01*
X140317142Y-122452619D01*
X140364761Y-122547857D01*
X140364761Y-122690714D01*
X140317142Y-122785952D01*
X140269523Y-122833571D01*
X140174285Y-122881190D01*
X139793333Y-122881190D01*
X140745714Y-123309761D02*
X140888571Y-123357380D01*
X141126666Y-123357380D01*
X141221904Y-123309761D01*
X141269523Y-123262142D01*
X141317142Y-123166904D01*
X141317142Y-123071666D01*
X141269523Y-122976428D01*
X141221904Y-122928809D01*
X141126666Y-122881190D01*
X140936190Y-122833571D01*
X140840952Y-122785952D01*
X140793333Y-122738333D01*
X140745714Y-122643095D01*
X140745714Y-122547857D01*
X140793333Y-122452619D01*
X140840952Y-122405000D01*
X140936190Y-122357380D01*
X141174285Y-122357380D01*
X141317142Y-122405000D01*
X141745714Y-123357380D02*
X141745714Y-122357380D01*
X141745714Y-122833571D02*
X142317142Y-122833571D01*
X142317142Y-123357380D02*
X142317142Y-122357380D01*
X143269523Y-123357380D02*
X142793333Y-123357380D01*
X142793333Y-122357380D01*
X119809523Y-117257380D02*
X120428571Y-117257380D01*
X120095238Y-117638333D01*
X120238095Y-117638333D01*
X120333333Y-117685952D01*
X120380952Y-117733571D01*
X120428571Y-117828809D01*
X120428571Y-118066904D01*
X120380952Y-118162142D01*
X120333333Y-118209761D01*
X120238095Y-118257380D01*
X119952380Y-118257380D01*
X119857142Y-118209761D01*
X119809523Y-118162142D01*
X120761904Y-117590714D02*
X121000000Y-118257380D01*
X121238095Y-117590714D01*
X121523809Y-117257380D02*
X122142857Y-117257380D01*
X121809523Y-117638333D01*
X121952380Y-117638333D01*
X122047619Y-117685952D01*
X122095238Y-117733571D01*
X122142857Y-117828809D01*
X122142857Y-118066904D01*
X122095238Y-118162142D01*
X122047619Y-118209761D01*
X121952380Y-118257380D01*
X121666666Y-118257380D01*
X121571428Y-118209761D01*
X121523809Y-118162142D01*
X145751904Y-110394761D02*
X145894761Y-110442380D01*
X146132857Y-110442380D01*
X146228095Y-110394761D01*
X146275714Y-110347142D01*
X146323333Y-110251904D01*
X146323333Y-110156666D01*
X146275714Y-110061428D01*
X146228095Y-110013809D01*
X146132857Y-109966190D01*
X145942380Y-109918571D01*
X145847142Y-109870952D01*
X145799523Y-109823333D01*
X145751904Y-109728095D01*
X145751904Y-109632857D01*
X145799523Y-109537619D01*
X145847142Y-109490000D01*
X145942380Y-109442380D01*
X146180476Y-109442380D01*
X146323333Y-109490000D01*
X146751904Y-110442380D02*
X146751904Y-109442380D01*
X146751904Y-109918571D02*
X147323333Y-109918571D01*
X147323333Y-110442380D02*
X147323333Y-109442380D01*
X147799523Y-109442380D02*
X147799523Y-110251904D01*
X147847142Y-110347142D01*
X147894761Y-110394761D01*
X147990000Y-110442380D01*
X148180476Y-110442380D01*
X148275714Y-110394761D01*
X148323333Y-110347142D01*
X148370952Y-110251904D01*
X148370952Y-109442380D01*
X148847142Y-110442380D02*
X148847142Y-109442380D01*
X149418571Y-110442380D01*
X149418571Y-109442380D01*
X149751904Y-109442380D02*
X150323333Y-109442380D01*
X150037619Y-110442380D02*
X150037619Y-109442380D01*
X120008571Y-107478571D02*
X120341904Y-107478571D01*
X120484761Y-108002380D02*
X120008571Y-108002380D01*
X120008571Y-107002380D01*
X120484761Y-107002380D01*
X120770476Y-107002380D02*
X121341904Y-107002380D01*
X121056190Y-108002380D02*
X121056190Y-107002380D01*
X121627619Y-107954761D02*
X121770476Y-108002380D01*
X122008571Y-108002380D01*
X122103809Y-107954761D01*
X122151428Y-107907142D01*
X122199047Y-107811904D01*
X122199047Y-107716666D01*
X122151428Y-107621428D01*
X122103809Y-107573809D01*
X122008571Y-107526190D01*
X121818095Y-107478571D01*
X121722857Y-107430952D01*
X121675238Y-107383333D01*
X121627619Y-107288095D01*
X121627619Y-107192857D01*
X121675238Y-107097619D01*
X121722857Y-107050000D01*
X121818095Y-107002380D01*
X122056190Y-107002380D01*
X122199047Y-107050000D01*
X120404761Y-112932380D02*
X120071428Y-112456190D01*
X119833333Y-112932380D02*
X119833333Y-111932380D01*
X120214285Y-111932380D01*
X120309523Y-111980000D01*
X120357142Y-112027619D01*
X120404761Y-112122857D01*
X120404761Y-112265714D01*
X120357142Y-112360952D01*
X120309523Y-112408571D01*
X120214285Y-112456190D01*
X119833333Y-112456190D01*
X120785714Y-112884761D02*
X120928571Y-112932380D01*
X121166666Y-112932380D01*
X121261904Y-112884761D01*
X121309523Y-112837142D01*
X121357142Y-112741904D01*
X121357142Y-112646666D01*
X121309523Y-112551428D01*
X121261904Y-112503809D01*
X121166666Y-112456190D01*
X120976190Y-112408571D01*
X120880952Y-112360952D01*
X120833333Y-112313333D01*
X120785714Y-112218095D01*
X120785714Y-112122857D01*
X120833333Y-112027619D01*
X120880952Y-111980000D01*
X120976190Y-111932380D01*
X121214285Y-111932380D01*
X121357142Y-111980000D01*
X121785714Y-112932380D02*
X121785714Y-111932380D01*
X121785714Y-112408571D02*
X122357142Y-112408571D01*
X122357142Y-112932380D02*
X122357142Y-111932380D01*
X123309523Y-112932380D02*
X122833333Y-112932380D01*
X122833333Y-111932380D01*
X146904761Y-111952380D02*
X147476190Y-111952380D01*
X147190476Y-112952380D02*
X147190476Y-111952380D01*
X147809523Y-112428571D02*
X148142857Y-112428571D01*
X148285714Y-112952380D02*
X147809523Y-112952380D01*
X147809523Y-111952380D01*
X148285714Y-111952380D01*
X148666666Y-112904761D02*
X148809523Y-112952380D01*
X149047619Y-112952380D01*
X149142857Y-112904761D01*
X149190476Y-112857142D01*
X149238095Y-112761904D01*
X149238095Y-112666666D01*
X149190476Y-112571428D01*
X149142857Y-112523809D01*
X149047619Y-112476190D01*
X148857142Y-112428571D01*
X148761904Y-112380952D01*
X148714285Y-112333333D01*
X148666666Y-112238095D01*
X148666666Y-112142857D01*
X148714285Y-112047619D01*
X148761904Y-112000000D01*
X148857142Y-111952380D01*
X149095238Y-111952380D01*
X149238095Y-112000000D01*
X149523809Y-111952380D02*
X150095238Y-111952380D01*
X149809523Y-112952380D02*
X149809523Y-111952380D01*
X149214285Y-107952380D02*
X149214285Y-106952380D01*
X149785714Y-107952380D01*
X149785714Y-106952380D01*
X150833333Y-107857142D02*
X150785714Y-107904761D01*
X150642857Y-107952380D01*
X150547619Y-107952380D01*
X150404761Y-107904761D01*
X150309523Y-107809523D01*
X150261904Y-107714285D01*
X150214285Y-107523809D01*
X150214285Y-107380952D01*
X150261904Y-107190476D01*
X150309523Y-107095238D01*
X150404761Y-107000000D01*
X150547619Y-106952380D01*
X150642857Y-106952380D01*
X150785714Y-107000000D01*
X150833333Y-107047619D01*
X120238095Y-114680000D02*
X120142857Y-114632380D01*
X120000000Y-114632380D01*
X119857142Y-114680000D01*
X119761904Y-114775238D01*
X119714285Y-114870476D01*
X119666666Y-115060952D01*
X119666666Y-115203809D01*
X119714285Y-115394285D01*
X119761904Y-115489523D01*
X119857142Y-115584761D01*
X120000000Y-115632380D01*
X120095238Y-115632380D01*
X120238095Y-115584761D01*
X120285714Y-115537142D01*
X120285714Y-115203809D01*
X120095238Y-115203809D01*
X120714285Y-115632380D02*
X120714285Y-114632380D01*
X121285714Y-115632380D01*
X121285714Y-114632380D01*
X121761904Y-115632380D02*
X121761904Y-114632380D01*
X122000000Y-114632380D01*
X122142857Y-114680000D01*
X122238095Y-114775238D01*
X122285714Y-114870476D01*
X122333333Y-115060952D01*
X122333333Y-115203809D01*
X122285714Y-115394285D01*
X122238095Y-115489523D01*
X122142857Y-115584761D01*
X122000000Y-115632380D01*
X121761904Y-115632380D01*
X127620714Y-123407380D02*
X127287380Y-122931190D01*
X127049285Y-123407380D02*
X127049285Y-122407380D01*
X127430238Y-122407380D01*
X127525476Y-122455000D01*
X127573095Y-122502619D01*
X127620714Y-122597857D01*
X127620714Y-122740714D01*
X127573095Y-122835952D01*
X127525476Y-122883571D01*
X127430238Y-122931190D01*
X127049285Y-122931190D01*
X128001666Y-123359761D02*
X128144523Y-123407380D01*
X128382619Y-123407380D01*
X128477857Y-123359761D01*
X128525476Y-123312142D01*
X128573095Y-123216904D01*
X128573095Y-123121666D01*
X128525476Y-123026428D01*
X128477857Y-122978809D01*
X128382619Y-122931190D01*
X128192142Y-122883571D01*
X128096904Y-122835952D01*
X128049285Y-122788333D01*
X128001666Y-122693095D01*
X128001666Y-122597857D01*
X128049285Y-122502619D01*
X128096904Y-122455000D01*
X128192142Y-122407380D01*
X128430238Y-122407380D01*
X128573095Y-122455000D01*
X129001666Y-123407380D02*
X129001666Y-122407380D01*
X129001666Y-122883571D02*
X129573095Y-122883571D01*
X129573095Y-123407380D02*
X129573095Y-122407380D01*
X130049285Y-123407380D02*
X130049285Y-122407380D01*
X130049285Y-122883571D02*
X130620714Y-122883571D01*
X130620714Y-123407380D02*
X130620714Y-122407380D01*
D11*
X132257142Y-108110857D02*
X132257142Y-109082285D01*
X132314285Y-109196571D01*
X132371428Y-109253714D01*
X132485714Y-109310857D01*
X132714285Y-109310857D01*
X132828571Y-109253714D01*
X132885714Y-109196571D01*
X132942857Y-109082285D01*
X132942857Y-108110857D01*
X133342857Y-108110857D02*
X134028571Y-108110857D01*
X133685714Y-109310857D02*
X133685714Y-108110857D01*
X134371428Y-109253714D02*
X134542857Y-109310857D01*
X134828571Y-109310857D01*
X134942857Y-109253714D01*
X135000000Y-109196571D01*
X135057142Y-109082285D01*
X135057142Y-108968000D01*
X135000000Y-108853714D01*
X134942857Y-108796571D01*
X134828571Y-108739428D01*
X134600000Y-108682285D01*
X134485714Y-108625142D01*
X134428571Y-108568000D01*
X134371428Y-108453714D01*
X134371428Y-108339428D01*
X134428571Y-108225142D01*
X134485714Y-108168000D01*
X134600000Y-108110857D01*
X134885714Y-108110857D01*
X135057142Y-108168000D01*
X135400000Y-108110857D02*
X135800000Y-109310857D01*
X136200000Y-108110857D01*
X136428571Y-108110857D02*
X137114285Y-108110857D01*
X136771428Y-109310857D02*
X136771428Y-108110857D01*
X125857142Y-111185714D02*
X126028571Y-111242857D01*
X126314285Y-111242857D01*
X126428571Y-111185714D01*
X126485714Y-111128571D01*
X126542857Y-111014285D01*
X126542857Y-110900000D01*
X126485714Y-110785714D01*
X126428571Y-110728571D01*
X126314285Y-110671428D01*
X126085714Y-110614285D01*
X125971428Y-110557142D01*
X125914285Y-110500000D01*
X125857142Y-110385714D01*
X125857142Y-110271428D01*
X125914285Y-110157142D01*
X125971428Y-110100000D01*
X126085714Y-110042857D01*
X126371428Y-110042857D01*
X126542857Y-110100000D01*
X127057142Y-111242857D02*
X127057142Y-110042857D01*
X127571428Y-111242857D02*
X127571428Y-110614285D01*
X127514285Y-110500000D01*
X127400000Y-110442857D01*
X127228571Y-110442857D01*
X127114285Y-110500000D01*
X127057142Y-110557142D01*
X128657142Y-110442857D02*
X128657142Y-111242857D01*
X128142857Y-110442857D02*
X128142857Y-111071428D01*
X128200000Y-111185714D01*
X128314285Y-111242857D01*
X128485714Y-111242857D01*
X128600000Y-111185714D01*
X128657142Y-111128571D01*
X129228571Y-110442857D02*
X129228571Y-111242857D01*
X129228571Y-110557142D02*
X129285714Y-110500000D01*
X129400000Y-110442857D01*
X129571428Y-110442857D01*
X129685714Y-110500000D01*
X129742857Y-110614285D01*
X129742857Y-111242857D01*
X130142857Y-110442857D02*
X130600000Y-110442857D01*
X130314285Y-110042857D02*
X130314285Y-111071428D01*
X130371428Y-111185714D01*
X130485714Y-111242857D01*
X130600000Y-111242857D01*
X132600000Y-111242857D02*
X132200000Y-110671428D01*
X131914285Y-111242857D02*
X131914285Y-110042857D01*
X132371428Y-110042857D01*
X132485714Y-110100000D01*
X132542857Y-110157142D01*
X132600000Y-110271428D01*
X132600000Y-110442857D01*
X132542857Y-110557142D01*
X132485714Y-110614285D01*
X132371428Y-110671428D01*
X131914285Y-110671428D01*
X133571428Y-111185714D02*
X133457142Y-111242857D01*
X133228571Y-111242857D01*
X133114285Y-111185714D01*
X133057142Y-111071428D01*
X133057142Y-110614285D01*
X133114285Y-110500000D01*
X133228571Y-110442857D01*
X133457142Y-110442857D01*
X133571428Y-110500000D01*
X133628571Y-110614285D01*
X133628571Y-110728571D01*
X133057142Y-110842857D01*
X134085714Y-111185714D02*
X134200000Y-111242857D01*
X134428571Y-111242857D01*
X134542857Y-111185714D01*
X134600000Y-111071428D01*
X134600000Y-111014285D01*
X134542857Y-110900000D01*
X134428571Y-110842857D01*
X134257142Y-110842857D01*
X134142857Y-110785714D01*
X134085714Y-110671428D01*
X134085714Y-110614285D01*
X134142857Y-110500000D01*
X134257142Y-110442857D01*
X134428571Y-110442857D01*
X134542857Y-110500000D01*
X135114285Y-111242857D02*
X135114285Y-110442857D01*
X135114285Y-110042857D02*
X135057142Y-110100000D01*
X135114285Y-110157142D01*
X135171428Y-110100000D01*
X135114285Y-110042857D01*
X135114285Y-110157142D01*
X135628571Y-111185714D02*
X135742857Y-111242857D01*
X135971428Y-111242857D01*
X136085714Y-111185714D01*
X136142857Y-111071428D01*
X136142857Y-111014285D01*
X136085714Y-110900000D01*
X135971428Y-110842857D01*
X135800000Y-110842857D01*
X135685714Y-110785714D01*
X135628571Y-110671428D01*
X135628571Y-110614285D01*
X135685714Y-110500000D01*
X135800000Y-110442857D01*
X135971428Y-110442857D01*
X136085714Y-110500000D01*
X136485714Y-110442857D02*
X136942857Y-110442857D01*
X136657142Y-110042857D02*
X136657142Y-111071428D01*
X136714285Y-111185714D01*
X136828571Y-111242857D01*
X136942857Y-111242857D01*
X137514285Y-111242857D02*
X137400000Y-111185714D01*
X137342857Y-111128571D01*
X137285714Y-111014285D01*
X137285714Y-110671428D01*
X137342857Y-110557142D01*
X137400000Y-110500000D01*
X137514285Y-110442857D01*
X137685714Y-110442857D01*
X137800000Y-110500000D01*
X137857142Y-110557142D01*
X137914285Y-110671428D01*
X137914285Y-111014285D01*
X137857142Y-111128571D01*
X137800000Y-111185714D01*
X137685714Y-111242857D01*
X137514285Y-111242857D01*
X138428571Y-111242857D02*
X138428571Y-110442857D01*
X138428571Y-110671428D02*
X138485714Y-110557142D01*
X138542857Y-110500000D01*
X138657142Y-110442857D01*
X138771428Y-110442857D01*
X139971428Y-110442857D02*
X140257142Y-111242857D01*
X140542857Y-110442857D01*
X141628571Y-111242857D02*
X140942857Y-111242857D01*
X141285714Y-111242857D02*
X141285714Y-110042857D01*
X141171428Y-110214285D01*
X141057142Y-110328571D01*
X140942857Y-110385714D01*
X142142857Y-111128571D02*
X142200000Y-111185714D01*
X142142857Y-111242857D01*
X142085714Y-111185714D01*
X142142857Y-111128571D01*
X142142857Y-111242857D01*
X142657142Y-110157142D02*
X142714285Y-110100000D01*
X142828571Y-110042857D01*
X143114285Y-110042857D01*
X143228571Y-110100000D01*
X143285714Y-110157142D01*
X143342857Y-110271428D01*
X143342857Y-110385714D01*
X143285714Y-110557142D01*
X142600000Y-111242857D01*
X143342857Y-111242857D01*
X130857142Y-112546285D02*
X130457142Y-112546285D01*
X130457142Y-113174857D02*
X130457142Y-111974857D01*
X131028571Y-111974857D01*
X132000000Y-113174857D02*
X132000000Y-112546285D01*
X131942857Y-112432000D01*
X131828571Y-112374857D01*
X131600000Y-112374857D01*
X131485714Y-112432000D01*
X132000000Y-113117714D02*
X131885714Y-113174857D01*
X131600000Y-113174857D01*
X131485714Y-113117714D01*
X131428571Y-113003428D01*
X131428571Y-112889142D01*
X131485714Y-112774857D01*
X131600000Y-112717714D01*
X131885714Y-112717714D01*
X132000000Y-112660571D01*
X132742857Y-113174857D02*
X132628571Y-113117714D01*
X132571428Y-113003428D01*
X132571428Y-111974857D01*
X133371428Y-113174857D02*
X133257142Y-113117714D01*
X133200000Y-113003428D01*
X133200000Y-111974857D01*
X134685714Y-112089142D02*
X134742857Y-112032000D01*
X134857142Y-111974857D01*
X135142857Y-111974857D01*
X135257142Y-112032000D01*
X135314285Y-112089142D01*
X135371428Y-112203428D01*
X135371428Y-112317714D01*
X135314285Y-112489142D01*
X134628571Y-113174857D01*
X135371428Y-113174857D01*
X136114285Y-111974857D02*
X136228571Y-111974857D01*
X136342857Y-112032000D01*
X136400000Y-112089142D01*
X136457142Y-112203428D01*
X136514285Y-112432000D01*
X136514285Y-112717714D01*
X136457142Y-112946285D01*
X136400000Y-113060571D01*
X136342857Y-113117714D01*
X136228571Y-113174857D01*
X136114285Y-113174857D01*
X136000000Y-113117714D01*
X135942857Y-113060571D01*
X135885714Y-112946285D01*
X135828571Y-112717714D01*
X135828571Y-112432000D01*
X135885714Y-112203428D01*
X135942857Y-112089142D01*
X136000000Y-112032000D01*
X136114285Y-111974857D01*
X136971428Y-112089142D02*
X137028571Y-112032000D01*
X137142857Y-111974857D01*
X137428571Y-111974857D01*
X137542857Y-112032000D01*
X137600000Y-112089142D01*
X137657142Y-112203428D01*
X137657142Y-112317714D01*
X137600000Y-112489142D01*
X136914285Y-113174857D01*
X137657142Y-113174857D01*
X138114285Y-112089142D02*
X138171428Y-112032000D01*
X138285714Y-111974857D01*
X138571428Y-111974857D01*
X138685714Y-112032000D01*
X138742857Y-112089142D01*
X138800000Y-112203428D01*
X138800000Y-112317714D01*
X138742857Y-112489142D01*
X138057142Y-113174857D01*
X138800000Y-113174857D01*
D10*
X148517619Y-114572380D02*
X148850952Y-115572380D01*
X149184285Y-114572380D01*
X149517619Y-115191428D02*
X150279523Y-115191428D01*
X149898571Y-115572380D02*
X149898571Y-114810476D01*
X148417619Y-117302380D02*
X148750952Y-118302380D01*
X149084285Y-117302380D01*
X149417619Y-117921428D02*
X150179523Y-117921428D01*
X120285714Y-110552380D02*
X119952380Y-110076190D01*
X119714285Y-110552380D02*
X119714285Y-109552380D01*
X120095238Y-109552380D01*
X120190476Y-109600000D01*
X120238095Y-109647619D01*
X120285714Y-109742857D01*
X120285714Y-109885714D01*
X120238095Y-109980952D01*
X120190476Y-110028571D01*
X120095238Y-110076190D01*
X119714285Y-110076190D01*
X120666666Y-110504761D02*
X120809523Y-110552380D01*
X121047619Y-110552380D01*
X121142857Y-110504761D01*
X121190476Y-110457142D01*
X121238095Y-110361904D01*
X121238095Y-110266666D01*
X121190476Y-110171428D01*
X121142857Y-110123809D01*
X121047619Y-110076190D01*
X120857142Y-110028571D01*
X120761904Y-109980952D01*
X120714285Y-109933333D01*
X120666666Y-109838095D01*
X120666666Y-109742857D01*
X120714285Y-109647619D01*
X120761904Y-109600000D01*
X120857142Y-109552380D01*
X121095238Y-109552380D01*
X121238095Y-109600000D01*
X121666666Y-110552380D02*
X121666666Y-109552380D01*
X121666666Y-110028571D02*
X122238095Y-110028571D01*
X122238095Y-110552380D02*
X122238095Y-109552380D01*
X122714285Y-110552380D02*
X122714285Y-109552380D01*
X122714285Y-110028571D02*
X123285714Y-110028571D01*
X123285714Y-110552380D02*
X123285714Y-109552380D01*
D12*
X142513333Y-115582380D02*
X142180000Y-115106190D01*
X141941904Y-115582380D02*
X141941904Y-114582380D01*
X142322857Y-114582380D01*
X142418095Y-114630000D01*
X142465714Y-114677619D01*
X142513333Y-114772857D01*
X142513333Y-114915714D01*
X142465714Y-115010952D01*
X142418095Y-115058571D01*
X142322857Y-115106190D01*
X141941904Y-115106190D01*
X142846666Y-114582380D02*
X143465714Y-114582380D01*
X143132380Y-114963333D01*
X143275238Y-114963333D01*
X143370476Y-115010952D01*
X143418095Y-115058571D01*
X143465714Y-115153809D01*
X143465714Y-115391904D01*
X143418095Y-115487142D01*
X143370476Y-115534761D01*
X143275238Y-115582380D01*
X142989523Y-115582380D01*
X142894285Y-115534761D01*
X142846666Y-115487142D01*
X146428095Y-126712380D02*
X146428095Y-125712380D01*
X146428095Y-126188571D02*
X146999523Y-126188571D01*
X146999523Y-126712380D02*
X146999523Y-125712380D01*
X147428095Y-125807619D02*
X147475714Y-125760000D01*
X147570952Y-125712380D01*
X147809047Y-125712380D01*
X147904285Y-125760000D01*
X147951904Y-125807619D01*
X147999523Y-125902857D01*
X147999523Y-125998095D01*
X147951904Y-126140952D01*
X147380476Y-126712380D01*
X147999523Y-126712380D01*
X143437380Y-100940714D02*
X143437380Y-100369285D01*
X144437380Y-100655000D02*
X143437380Y-100655000D01*
X144437380Y-100035952D02*
X143437380Y-100035952D01*
X143913571Y-100035952D02*
X143913571Y-99464523D01*
X144437380Y-99464523D02*
X143437380Y-99464523D01*
X144437380Y-98464523D02*
X144437380Y-99035952D01*
X144437380Y-98750238D02*
X143437380Y-98750238D01*
X143580238Y-98845476D01*
X143675476Y-98940714D01*
X143723095Y-99035952D01*
X125678095Y-101222380D02*
X125678095Y-100222380D01*
X125678095Y-100698571D02*
X126249523Y-100698571D01*
X126249523Y-101222380D02*
X126249523Y-100222380D01*
X127249523Y-101222380D02*
X126678095Y-101222380D01*
X126963809Y-101222380D02*
X126963809Y-100222380D01*
X126868571Y-100365238D01*
X126773333Y-100460476D01*
X126678095Y-100508095D01*
X149202380Y-121879166D02*
X148726190Y-122212500D01*
X149202380Y-122450595D02*
X148202380Y-122450595D01*
X148202380Y-122069642D01*
X148250000Y-121974404D01*
X148297619Y-121926785D01*
X148392857Y-121879166D01*
X148535714Y-121879166D01*
X148630952Y-121926785D01*
X148678571Y-121974404D01*
X148726190Y-122069642D01*
X148726190Y-122450595D01*
X148535714Y-121022023D02*
X149202380Y-121022023D01*
X148154761Y-121260119D02*
X148869047Y-121498214D01*
X148869047Y-120879166D01*
X148830666Y-97357380D02*
X148830666Y-98071666D01*
X148783047Y-98214523D01*
X148687809Y-98309761D01*
X148544952Y-98357380D01*
X148449714Y-98357380D01*
X149211619Y-97357380D02*
X149830666Y-97357380D01*
X149497333Y-97738333D01*
X149640190Y-97738333D01*
X149735428Y-97785952D01*
X149783047Y-97833571D01*
X149830666Y-97928809D01*
X149830666Y-98166904D01*
X149783047Y-98262142D01*
X149735428Y-98309761D01*
X149640190Y-98357380D01*
X149354476Y-98357380D01*
X149259238Y-98309761D01*
X149211619Y-98262142D01*
X134593333Y-117857380D02*
X134260000Y-117381190D01*
X134021904Y-117857380D02*
X134021904Y-116857380D01*
X134402857Y-116857380D01*
X134498095Y-116905000D01*
X134545714Y-116952619D01*
X134593333Y-117047857D01*
X134593333Y-117190714D01*
X134545714Y-117285952D01*
X134498095Y-117333571D01*
X134402857Y-117381190D01*
X134021904Y-117381190D01*
X135545714Y-117857380D02*
X134974285Y-117857380D01*
X135260000Y-117857380D02*
X135260000Y-116857380D01*
X135164761Y-117000238D01*
X135069523Y-117095476D01*
X134974285Y-117143095D01*
D13*
X116195000Y-108690000D02*
X118855000Y-108690000D01*
X116195000Y-108690000D02*
X116195000Y-118910000D01*
X116195000Y-106090000D02*
X117525000Y-106090000D01*
X118855000Y-108690000D02*
X118855000Y-118910000D01*
X116195000Y-118910000D02*
X118855000Y-118910000D01*
X116195000Y-107420000D02*
X116195000Y-106090000D01*
G36*
X130465273Y-103349453D02*
G01*
X130595298Y-103396525D01*
X130622388Y-103462857D01*
X130552104Y-103566366D01*
X130455970Y-103589857D01*
X130350249Y-103621032D01*
X130284050Y-103740533D01*
X130236888Y-103987322D01*
X130233396Y-104013191D01*
X130173920Y-104299032D01*
X130090236Y-104427067D01*
X130053202Y-104436524D01*
X129982307Y-104404555D01*
X129961147Y-104284075D01*
X129983990Y-104038223D01*
X129987388Y-104013191D01*
X130014004Y-103759058D01*
X129998235Y-103631364D01*
X129932980Y-103590933D01*
X129910666Y-103589857D01*
X129793397Y-103525501D01*
X129775721Y-103462857D01*
X129821040Y-103382992D01*
X129977948Y-103343984D01*
X130199054Y-103335857D01*
X130465273Y-103349453D01*
G37*
D14*
X130465273Y-103349453D02*
X130595298Y-103396525D01*
X130622388Y-103462857D01*
X130552104Y-103566366D01*
X130455970Y-103589857D01*
X130350249Y-103621032D01*
X130284050Y-103740533D01*
X130236888Y-103987322D01*
X130233396Y-104013191D01*
X130173920Y-104299032D01*
X130090236Y-104427067D01*
X130053202Y-104436524D01*
X129982307Y-104404555D01*
X129961147Y-104284075D01*
X129983990Y-104038223D01*
X129987388Y-104013191D01*
X130014004Y-103759058D01*
X129998235Y-103631364D01*
X129932980Y-103590933D01*
X129910666Y-103589857D01*
X129793397Y-103525501D01*
X129775721Y-103462857D01*
X129821040Y-103382992D01*
X129977948Y-103343984D01*
X130199054Y-103335857D01*
X130465273Y-103349453D01*
G36*
X133397054Y-103344028D02*
G01*
X133587598Y-103371081D01*
X133652029Y-103420830D01*
X133649645Y-103441691D01*
X133546943Y-103537704D01*
X133430922Y-103574579D01*
X133287418Y-103646673D01*
X133245898Y-103828579D01*
X133216567Y-104143444D01*
X133140127Y-104357149D01*
X133028486Y-104436520D01*
X133027629Y-104436524D01*
X132967267Y-104411477D01*
X132946013Y-104316275D01*
X132964091Y-104120830D01*
X133021727Y-103795050D01*
X133032829Y-103738024D01*
X133000598Y-103613599D01*
X132907517Y-103589857D01*
X132761412Y-103544672D01*
X132721338Y-103494374D01*
X132670223Y-103514384D01*
X132565199Y-103656133D01*
X132427956Y-103889841D01*
X132412984Y-103917708D01*
X132259372Y-104176663D01*
X132119322Y-104362617D01*
X132022434Y-104436450D01*
X132020430Y-104436524D01*
X131930884Y-104359772D01*
X131830482Y-104155153D01*
X131771395Y-103978993D01*
X131682713Y-103656708D01*
X131647414Y-103463359D01*
X131665121Y-103367306D01*
X131735460Y-103336911D01*
X131763774Y-103335857D01*
X131870696Y-103408800D01*
X131940179Y-103568691D01*
X132006975Y-103838855D01*
X132066151Y-103949893D01*
X132137534Y-103909771D01*
X132240951Y-103726456D01*
X132256221Y-103695691D01*
X132433748Y-103335857D01*
X133059123Y-103335857D01*
X133397054Y-103344028D01*
G37*
X133397054Y-103344028D02*
X133587598Y-103371081D01*
X133652029Y-103420830D01*
X133649645Y-103441691D01*
X133546943Y-103537704D01*
X133430922Y-103574579D01*
X133287418Y-103646673D01*
X133245898Y-103828579D01*
X133216567Y-104143444D01*
X133140127Y-104357149D01*
X133028486Y-104436520D01*
X133027629Y-104436524D01*
X132967267Y-104411477D01*
X132946013Y-104316275D01*
X132964091Y-104120830D01*
X133021727Y-103795050D01*
X133032829Y-103738024D01*
X133000598Y-103613599D01*
X132907517Y-103589857D01*
X132761412Y-103544672D01*
X132721338Y-103494374D01*
X132670223Y-103514384D01*
X132565199Y-103656133D01*
X132427956Y-103889841D01*
X132412984Y-103917708D01*
X132259372Y-104176663D01*
X132119322Y-104362617D01*
X132022434Y-104436450D01*
X132020430Y-104436524D01*
X131930884Y-104359772D01*
X131830482Y-104155153D01*
X131771395Y-103978993D01*
X131682713Y-103656708D01*
X131647414Y-103463359D01*
X131665121Y-103367306D01*
X131735460Y-103336911D01*
X131763774Y-103335857D01*
X131870696Y-103408800D01*
X131940179Y-103568691D01*
X132006975Y-103838855D01*
X132066151Y-103949893D01*
X132137534Y-103909771D01*
X132240951Y-103726456D01*
X132256221Y-103695691D01*
X132433748Y-103335857D01*
X133059123Y-103335857D01*
X133397054Y-103344028D01*
G36*
X129587671Y-103405172D02*
G01*
X129604368Y-103484024D01*
X129580610Y-103698651D01*
X129525460Y-103958328D01*
X129456162Y-104195980D01*
X129389961Y-104344533D01*
X129380136Y-104356218D01*
X129190063Y-104450858D01*
X128941385Y-104479534D01*
X128738554Y-104431789D01*
X128639913Y-104296442D01*
X128589455Y-104072669D01*
X128584401Y-103812668D01*
X128621973Y-103568639D01*
X128699389Y-103392780D01*
X128796912Y-103335857D01*
X128856580Y-103393966D01*
X128873764Y-103581950D01*
X128861427Y-103808866D01*
X128843228Y-104076646D01*
X128855319Y-104214305D01*
X128911737Y-104260272D01*
X129023794Y-104253366D01*
X129148047Y-104211140D01*
X129226275Y-104099619D01*
X129283852Y-103875470D01*
X129300795Y-103780357D01*
X129370449Y-103494012D01*
X129454819Y-103349547D01*
X129491295Y-103335857D01*
X129587671Y-103405172D01*
G37*
X129587671Y-103405172D02*
X129604368Y-103484024D01*
X129580610Y-103698651D01*
X129525460Y-103958328D01*
X129456162Y-104195980D01*
X129389961Y-104344533D01*
X129380136Y-104356218D01*
X129190063Y-104450858D01*
X128941385Y-104479534D01*
X128738554Y-104431789D01*
X128639913Y-104296442D01*
X128589455Y-104072669D01*
X128584401Y-103812668D01*
X128621973Y-103568639D01*
X128699389Y-103392780D01*
X128796912Y-103335857D01*
X128856580Y-103393966D01*
X128873764Y-103581950D01*
X128861427Y-103808866D01*
X128843228Y-104076646D01*
X128855319Y-104214305D01*
X128911737Y-104260272D01*
X129023794Y-104253366D01*
X129148047Y-104211140D01*
X129226275Y-104099619D01*
X129283852Y-103875470D01*
X129300795Y-103780357D01*
X129370449Y-103494012D01*
X129454819Y-103349547D01*
X129491295Y-103335857D01*
X129587671Y-103405172D01*
G36*
X133012997Y-102091519D02*
G01*
X134627355Y-102145694D01*
X136395275Y-102231670D01*
X138315583Y-102349530D01*
X138581054Y-102367520D01*
X139234000Y-102413537D01*
X139924610Y-102464459D01*
X140602387Y-102516410D01*
X141216832Y-102565512D01*
X141717447Y-102607887D01*
X141756054Y-102611315D01*
X143026054Y-102724658D01*
X141121054Y-102670424D01*
X140304134Y-102650589D01*
X139418107Y-102635181D01*
X138482936Y-102624091D01*
X137518581Y-102617214D01*
X136545004Y-102614442D01*
X135582167Y-102615668D01*
X134650032Y-102620784D01*
X133768561Y-102629685D01*
X132957714Y-102642261D01*
X132237455Y-102658408D01*
X131627744Y-102678016D01*
X131148543Y-102700980D01*
X130834054Y-102725624D01*
X129859494Y-102845282D01*
X129046800Y-102978061D01*
X128388834Y-103126501D01*
X127878460Y-103293140D01*
X127508541Y-103480518D01*
X127271940Y-103691175D01*
X127161521Y-103927650D01*
X127151054Y-104036046D01*
X127200979Y-104278681D01*
X127321554Y-104522744D01*
X127326153Y-104529287D01*
X127424317Y-104681411D01*
X127434779Y-104749491D01*
X127344330Y-104730860D01*
X127139759Y-104622854D01*
X126812388Y-104425602D01*
X126383680Y-104135795D01*
X126019846Y-103841039D01*
X125747339Y-103565789D01*
X125592613Y-103334500D01*
X125573946Y-103280735D01*
X125588033Y-103021427D01*
X125767436Y-102793097D01*
X126110980Y-102595825D01*
X126617489Y-102429696D01*
X127285788Y-102294791D01*
X128114701Y-102191193D01*
X129103054Y-102118984D01*
X130249672Y-102078247D01*
X131553377Y-102069065D01*
X133012997Y-102091519D01*
G37*
X133012997Y-102091519D02*
X134627355Y-102145694D01*
X136395275Y-102231670D01*
X138315583Y-102349530D01*
X138581054Y-102367520D01*
X139234000Y-102413537D01*
X139924610Y-102464459D01*
X140602387Y-102516410D01*
X141216832Y-102565512D01*
X141717447Y-102607887D01*
X141756054Y-102611315D01*
X143026054Y-102724658D01*
X141121054Y-102670424D01*
X140304134Y-102650589D01*
X139418107Y-102635181D01*
X138482936Y-102624091D01*
X137518581Y-102617214D01*
X136545004Y-102614442D01*
X135582167Y-102615668D01*
X134650032Y-102620784D01*
X133768561Y-102629685D01*
X132957714Y-102642261D01*
X132237455Y-102658408D01*
X131627744Y-102678016D01*
X131148543Y-102700980D01*
X130834054Y-102725624D01*
X129859494Y-102845282D01*
X129046800Y-102978061D01*
X128388834Y-103126501D01*
X127878460Y-103293140D01*
X127508541Y-103480518D01*
X127271940Y-103691175D01*
X127161521Y-103927650D01*
X127151054Y-104036046D01*
X127200979Y-104278681D01*
X127321554Y-104522744D01*
X127326153Y-104529287D01*
X127424317Y-104681411D01*
X127434779Y-104749491D01*
X127344330Y-104730860D01*
X127139759Y-104622854D01*
X126812388Y-104425602D01*
X126383680Y-104135795D01*
X126019846Y-103841039D01*
X125747339Y-103565789D01*
X125592613Y-103334500D01*
X125573946Y-103280735D01*
X125588033Y-103021427D01*
X125767436Y-102793097D01*
X126110980Y-102595825D01*
X126617489Y-102429696D01*
X127285788Y-102294791D01*
X128114701Y-102191193D01*
X129103054Y-102118984D01*
X130249672Y-102078247D01*
X131553377Y-102069065D01*
X133012997Y-102091519D01*
G36*
X137284076Y-99952896D02*
G01*
X137591722Y-100035175D01*
X138218296Y-100309339D01*
X138822564Y-100729132D01*
X139371399Y-101271198D01*
X139410824Y-101317832D01*
X139623486Y-101583178D01*
X139793866Y-101815082D01*
X139901597Y-101983710D01*
X139926314Y-102059227D01*
X139917533Y-102060159D01*
X139846352Y-102006844D01*
X139677970Y-101869896D01*
X139444223Y-101675336D01*
X139358613Y-101603299D01*
X138646187Y-101074730D01*
X137928949Y-100694290D01*
X137192480Y-100460695D01*
X136422363Y-100372664D01*
X135604181Y-100428914D01*
X134723517Y-100628165D01*
X133765951Y-100969133D01*
X133499368Y-101082257D01*
X133130571Y-101237230D01*
X132905469Y-101318414D01*
X132817909Y-101330880D01*
X132861737Y-101279699D01*
X133030800Y-101169942D01*
X133318944Y-101006681D01*
X133720016Y-100794987D01*
X134051388Y-100627315D01*
X134830518Y-100270460D01*
X135516712Y-100029046D01*
X136136609Y-99898617D01*
X136716851Y-99874720D01*
X137284076Y-99952896D01*
G37*
X137284076Y-99952896D02*
X137591722Y-100035175D01*
X138218296Y-100309339D01*
X138822564Y-100729132D01*
X139371399Y-101271198D01*
X139410824Y-101317832D01*
X139623486Y-101583178D01*
X139793866Y-101815082D01*
X139901597Y-101983710D01*
X139926314Y-102059227D01*
X139917533Y-102060159D01*
X139846352Y-102006844D01*
X139677970Y-101869896D01*
X139444223Y-101675336D01*
X139358613Y-101603299D01*
X138646187Y-101074730D01*
X137928949Y-100694290D01*
X137192480Y-100460695D01*
X136422363Y-100372664D01*
X135604181Y-100428914D01*
X134723517Y-100628165D01*
X133765951Y-100969133D01*
X133499368Y-101082257D01*
X133130571Y-101237230D01*
X132905469Y-101318414D01*
X132817909Y-101330880D01*
X132861737Y-101279699D01*
X133030800Y-101169942D01*
X133318944Y-101006681D01*
X133720016Y-100794987D01*
X134051388Y-100627315D01*
X134830518Y-100270460D01*
X135516712Y-100029046D01*
X136136609Y-99898617D01*
X136716851Y-99874720D01*
X137284076Y-99952896D01*
G36*
X131426189Y-103379553D02*
G01*
X131447466Y-103441691D01*
X131345025Y-103524476D01*
X131215054Y-103547524D01*
X131032973Y-103587839D01*
X130998325Y-103684284D01*
X131116955Y-103800104D01*
X131170528Y-103827453D01*
X131344663Y-103975176D01*
X131369397Y-104164347D01*
X131242823Y-104353229D01*
X131196215Y-104389390D01*
X130985137Y-104503401D01*
X130813973Y-104495127D01*
X130717374Y-104444693D01*
X130636737Y-104343304D01*
X130691980Y-104263267D01*
X130850046Y-104237522D01*
X130916700Y-104246082D01*
X131084772Y-104236488D01*
X131130936Y-104151026D01*
X131051284Y-104035277D01*
X130940382Y-103969767D01*
X130764103Y-103820797D01*
X130721487Y-103620168D01*
X130795096Y-103458790D01*
X130923892Y-103380629D01*
X131110981Y-103340348D01*
X131297901Y-103339478D01*
X131426189Y-103379553D01*
G37*
X131426189Y-103379553D02*
X131447466Y-103441691D01*
X131345025Y-103524476D01*
X131215054Y-103547524D01*
X131032973Y-103587839D01*
X130998325Y-103684284D01*
X131116955Y-103800104D01*
X131170528Y-103827453D01*
X131344663Y-103975176D01*
X131369397Y-104164347D01*
X131242823Y-104353229D01*
X131196215Y-104389390D01*
X130985137Y-104503401D01*
X130813973Y-104495127D01*
X130717374Y-104444693D01*
X130636737Y-104343304D01*
X130691980Y-104263267D01*
X130850046Y-104237522D01*
X130916700Y-104246082D01*
X131084772Y-104236488D01*
X131130936Y-104151026D01*
X131051284Y-104035277D01*
X130940382Y-103969767D01*
X130764103Y-103820797D01*
X130721487Y-103620168D01*
X130795096Y-103458790D01*
X130923892Y-103380629D01*
X131110981Y-103340348D01*
X131297901Y-103339478D01*
X131426189Y-103379553D01*
G36*
X138235670Y-102930741D02*
G01*
X139002149Y-103012556D01*
X139673375Y-103156996D01*
X139808721Y-103198846D01*
X140445333Y-103455830D01*
X140940720Y-103753832D01*
X141290429Y-104084221D01*
X141490006Y-104438368D01*
X141534998Y-104807643D01*
X141420951Y-105183417D01*
X141143411Y-105557060D01*
X141065113Y-105633358D01*
X140605760Y-105955657D01*
X140023382Y-106197602D01*
X139347488Y-106352375D01*
X138607585Y-106413162D01*
X137852776Y-106375434D01*
X137460313Y-106311476D01*
X137054168Y-106216007D01*
X136782096Y-106130583D01*
X136413298Y-105966765D01*
X136011796Y-105747442D01*
X135628218Y-105504151D01*
X135313192Y-105268427D01*
X135152054Y-105115215D01*
X134982721Y-104921358D01*
X135236721Y-105050543D01*
X135891809Y-105313269D01*
X136635184Y-105493160D01*
X137424502Y-105588436D01*
X138217420Y-105597316D01*
X138971596Y-105518020D01*
X139644686Y-105348766D01*
X139901193Y-105246727D01*
X140327572Y-105003916D01*
X140589268Y-104744082D01*
X140689063Y-104475282D01*
X140629740Y-104205574D01*
X140414081Y-103943017D01*
X140044869Y-103695667D01*
X139524885Y-103471583D01*
X139258388Y-103385207D01*
X138442257Y-103211086D01*
X137539452Y-103138600D01*
X136597748Y-103166444D01*
X135664920Y-103293310D01*
X134823943Y-103506458D01*
X134491664Y-103609810D01*
X134226185Y-103685770D01*
X134064028Y-103724239D01*
X134031812Y-103725504D01*
X134074059Y-103671307D01*
X134247629Y-103584594D01*
X134520289Y-103476701D01*
X134859806Y-103358968D01*
X135233948Y-103242733D01*
X135610482Y-103139335D01*
X135875711Y-103076891D01*
X136621351Y-102961324D01*
X137425037Y-102913136D01*
X138235670Y-102930741D01*
G37*
X138235670Y-102930741D02*
X139002149Y-103012556D01*
X139673375Y-103156996D01*
X139808721Y-103198846D01*
X140445333Y-103455830D01*
X140940720Y-103753832D01*
X141290429Y-104084221D01*
X141490006Y-104438368D01*
X141534998Y-104807643D01*
X141420951Y-105183417D01*
X141143411Y-105557060D01*
X141065113Y-105633358D01*
X140605760Y-105955657D01*
X140023382Y-106197602D01*
X139347488Y-106352375D01*
X138607585Y-106413162D01*
X137852776Y-106375434D01*
X137460313Y-106311476D01*
X137054168Y-106216007D01*
X136782096Y-106130583D01*
X136413298Y-105966765D01*
X136011796Y-105747442D01*
X135628218Y-105504151D01*
X135313192Y-105268427D01*
X135152054Y-105115215D01*
X134982721Y-104921358D01*
X135236721Y-105050543D01*
X135891809Y-105313269D01*
X136635184Y-105493160D01*
X137424502Y-105588436D01*
X138217420Y-105597316D01*
X138971596Y-105518020D01*
X139644686Y-105348766D01*
X139901193Y-105246727D01*
X140327572Y-105003916D01*
X140589268Y-104744082D01*
X140689063Y-104475282D01*
X140629740Y-104205574D01*
X140414081Y-103943017D01*
X140044869Y-103695667D01*
X139524885Y-103471583D01*
X139258388Y-103385207D01*
X138442257Y-103211086D01*
X137539452Y-103138600D01*
X136597748Y-103166444D01*
X135664920Y-103293310D01*
X134823943Y-103506458D01*
X134491664Y-103609810D01*
X134226185Y-103685770D01*
X134064028Y-103724239D01*
X134031812Y-103725504D01*
X134074059Y-103671307D01*
X134247629Y-103584594D01*
X134520289Y-103476701D01*
X134859806Y-103358968D01*
X135233948Y-103242733D01*
X135610482Y-103139335D01*
X135875711Y-103076891D01*
X136621351Y-102961324D01*
X137425037Y-102913136D01*
X138235670Y-102930741D01*
G36*
X134957471Y-104295170D02*
G01*
X134774044Y-104429484D01*
X134503762Y-104613905D01*
X134175612Y-104829617D01*
X133818580Y-105057805D01*
X133461653Y-105279652D01*
X133133819Y-105476343D01*
X132896675Y-105611346D01*
X132149462Y-105978497D01*
X131420020Y-106256895D01*
X130732004Y-106441001D01*
X130109066Y-106525281D01*
X129574861Y-106504196D01*
X129329397Y-106446326D01*
X128845923Y-106200134D01*
X128444513Y-105808062D01*
X128158605Y-105336286D01*
X128043557Y-105069277D01*
X127960881Y-104833702D01*
X127914979Y-104654830D01*
X127910253Y-104557931D01*
X127951104Y-104568275D01*
X128041933Y-104711131D01*
X128053503Y-104732857D01*
X128386694Y-105196699D01*
X128835442Y-105570787D01*
X128971388Y-105650778D01*
X129144479Y-105732305D01*
X129329069Y-105785275D01*
X129566059Y-105815233D01*
X129896350Y-105827726D01*
X130283721Y-105828744D01*
X130745967Y-105820927D01*
X131101331Y-105796371D01*
X131412113Y-105745518D01*
X131740612Y-105658812D01*
X132061721Y-105555982D01*
X132454746Y-105410641D01*
X132936789Y-105210798D01*
X133447847Y-104982368D01*
X133927917Y-104751265D01*
X133945554Y-104742369D01*
X134329394Y-104550528D01*
X134653088Y-104392885D01*
X134889981Y-104282097D01*
X135013418Y-104230821D01*
X135025054Y-104229780D01*
X134957471Y-104295170D01*
G37*
X134957471Y-104295170D02*
X134774044Y-104429484D01*
X134503762Y-104613905D01*
X134175612Y-104829617D01*
X133818580Y-105057805D01*
X133461653Y-105279652D01*
X133133819Y-105476343D01*
X132896675Y-105611346D01*
X132149462Y-105978497D01*
X131420020Y-106256895D01*
X130732004Y-106441001D01*
X130109066Y-106525281D01*
X129574861Y-106504196D01*
X129329397Y-106446326D01*
X128845923Y-106200134D01*
X128444513Y-105808062D01*
X128158605Y-105336286D01*
X128043557Y-105069277D01*
X127960881Y-104833702D01*
X127914979Y-104654830D01*
X127910253Y-104557931D01*
X127951104Y-104568275D01*
X128041933Y-104711131D01*
X128053503Y-104732857D01*
X128386694Y-105196699D01*
X128835442Y-105570787D01*
X128971388Y-105650778D01*
X129144479Y-105732305D01*
X129329069Y-105785275D01*
X129566059Y-105815233D01*
X129896350Y-105827726D01*
X130283721Y-105828744D01*
X130745967Y-105820927D01*
X131101331Y-105796371D01*
X131412113Y-105745518D01*
X131740612Y-105658812D01*
X132061721Y-105555982D01*
X132454746Y-105410641D01*
X132936789Y-105210798D01*
X133447847Y-104982368D01*
X133927917Y-104751265D01*
X133945554Y-104742369D01*
X134329394Y-104550528D01*
X134653088Y-104392885D01*
X134889981Y-104282097D01*
X135013418Y-104230821D01*
X135025054Y-104229780D01*
X134957471Y-104295170D01*
D13*
X145907064Y-114295000D02*
X145452936Y-114295000D01*
X145907064Y-115765000D02*
X145452936Y-115765000D01*
X143070000Y-99427936D02*
X143070000Y-99882064D01*
X141600000Y-99427936D02*
X141600000Y-99882064D01*
X151170000Y-118915000D02*
X153830000Y-118915000D01*
X153830000Y-108695000D02*
X153830000Y-118915000D01*
X151170000Y-108695000D02*
X151170000Y-118915000D01*
X151170000Y-107425000D02*
X151170000Y-106095000D01*
X151170000Y-106095000D02*
X152500000Y-106095000D01*
X151170000Y-108695000D02*
X153830000Y-108695000D01*
X146365000Y-121485436D02*
X146365000Y-121939564D01*
X147835000Y-121485436D02*
X147835000Y-121939564D01*
X153460000Y-102578000D02*
X153460000Y-102828000D01*
X153460000Y-96578000D02*
X144710000Y-96578000D01*
X153435000Y-102828000D02*
X153460000Y-102828000D01*
X144710000Y-96578000D02*
X144710000Y-102828000D01*
X144710000Y-102828000D02*
X153460000Y-102828000D01*
X153460000Y-102628000D02*
X153460000Y-96578000D01*
X144710000Y-96790500D02*
X144710000Y-96615500D01*
X144985000Y-96578000D02*
X144710000Y-96578000D01*
X126760000Y-118005000D02*
X143260000Y-118005000D01*
X143260000Y-118005000D02*
X143260000Y-122005000D01*
X143260000Y-122005000D02*
X126760000Y-122005000D01*
X126760000Y-122005000D02*
X126760000Y-118005000D01*
%LPC*%
D15*
X117525000Y-107420000D03*
D16*
X117525000Y-109960000D03*
X117525000Y-112500000D03*
X117525000Y-115040000D03*
X117525000Y-117580000D03*
D17*
X146592500Y-115030000D03*
X144767500Y-115030000D03*
D18*
X151510000Y-126430000D03*
D19*
X142335000Y-98742500D03*
X142335000Y-100567500D03*
D15*
X152500000Y-107425000D03*
D16*
X152500000Y-109965000D03*
X152500000Y-112505000D03*
X152500000Y-115045000D03*
X152500000Y-117585000D03*
D18*
X122585000Y-102430000D03*
D19*
X147100000Y-120800000D03*
X147100000Y-122625000D03*
D20*
X146085000Y-101453000D03*
X152085000Y-101453000D03*
X152085000Y-97905000D03*
X146085000Y-97905000D03*
D21*
X128760000Y-120005000D03*
X141360000Y-120005000D03*
M02*
