G04 #@! TF.GenerationSoftware,KiCad,Pcbnew,(6.0.4)*
G04 #@! TF.CreationDate,2022-11-20T21:17:36-06:00*
G04 #@! TF.ProjectId,BPS-ShuntResistor,4250532d-5368-4756-9e74-526573697374,rev?*
G04 #@! TF.SameCoordinates,Original*
G04 #@! TF.FileFunction,Legend,Top*
G04 #@! TF.FilePolarity,Positive*
%FSLAX46Y46*%
G04 Gerber Fmt 4.6, Leading zero omitted, Abs format (unit mm)*
G04 Created by KiCad (PCBNEW (6.0.4)) date 2022-11-20 21:17:36*
%MOMM*%
%LPD*%
G01*
G04 APERTURE LIST*
G04 Aperture macros list*
%AMRoundRect*
0 Rectangle with rounded corners*
0 $1 Rounding radius*
0 $2 $3 $4 $5 $6 $7 $8 $9 X,Y pos of 4 corners*
0 Add a 4 corners polygon primitive as box body*
4,1,4,$2,$3,$4,$5,$6,$7,$8,$9,$2,$3,0*
0 Add four circle primitives for the rounded corners*
1,1,$1+$1,$2,$3*
1,1,$1+$1,$4,$5*
1,1,$1+$1,$6,$7*
1,1,$1+$1,$8,$9*
0 Add four rect primitives between the rounded corners*
20,1,$1+$1,$2,$3,$4,$5,0*
20,1,$1+$1,$4,$5,$6,$7,0*
20,1,$1+$1,$6,$7,$8,$9,0*
20,1,$1+$1,$8,$9,$2,$3,0*%
G04 Aperture macros list end*
%ADD10C,0.300000*%
%ADD11C,0.200000*%
%ADD12C,0.150000*%
%ADD13C,0.120000*%
%ADD14C,0.010000*%
%ADD15RoundRect,0.050000X-0.850000X-0.850000X0.850000X-0.850000X0.850000X0.850000X-0.850000X0.850000X0*%
%ADD16O,1.800000X1.800000*%
%ADD17RoundRect,0.300000X0.262500X0.450000X-0.262500X0.450000X-0.262500X-0.450000X0.262500X-0.450000X0*%
%ADD18C,2.800000*%
%ADD19RoundRect,0.300000X-0.450000X0.262500X-0.450000X-0.262500X0.450000X-0.262500X0.450000X0.262500X0*%
%ADD20C,2.128000*%
%ADD21C,2.640000*%
G04 APERTURE END LIST*
D10*
X132257142Y-108110857D02*
X132257142Y-109082285D01*
X132314285Y-109196571D01*
X132371428Y-109253714D01*
X132485714Y-109310857D01*
X132714285Y-109310857D01*
X132828571Y-109253714D01*
X132885714Y-109196571D01*
X132942857Y-109082285D01*
X132942857Y-108110857D01*
X133342857Y-108110857D02*
X134028571Y-108110857D01*
X133685714Y-109310857D02*
X133685714Y-108110857D01*
X134371428Y-109253714D02*
X134542857Y-109310857D01*
X134828571Y-109310857D01*
X134942857Y-109253714D01*
X135000000Y-109196571D01*
X135057142Y-109082285D01*
X135057142Y-108968000D01*
X135000000Y-108853714D01*
X134942857Y-108796571D01*
X134828571Y-108739428D01*
X134600000Y-108682285D01*
X134485714Y-108625142D01*
X134428571Y-108568000D01*
X134371428Y-108453714D01*
X134371428Y-108339428D01*
X134428571Y-108225142D01*
X134485714Y-108168000D01*
X134600000Y-108110857D01*
X134885714Y-108110857D01*
X135057142Y-108168000D01*
X135400000Y-108110857D02*
X135800000Y-109310857D01*
X136200000Y-108110857D01*
X136428571Y-108110857D02*
X137114285Y-108110857D01*
X136771428Y-109310857D02*
X136771428Y-108110857D01*
X125857142Y-111185714D02*
X126028571Y-111242857D01*
X126314285Y-111242857D01*
X126428571Y-111185714D01*
X126485714Y-111128571D01*
X126542857Y-111014285D01*
X126542857Y-110900000D01*
X126485714Y-110785714D01*
X126428571Y-110728571D01*
X126314285Y-110671428D01*
X126085714Y-110614285D01*
X125971428Y-110557142D01*
X125914285Y-110500000D01*
X125857142Y-110385714D01*
X125857142Y-110271428D01*
X125914285Y-110157142D01*
X125971428Y-110100000D01*
X126085714Y-110042857D01*
X126371428Y-110042857D01*
X126542857Y-110100000D01*
X127057142Y-111242857D02*
X127057142Y-110042857D01*
X127571428Y-111242857D02*
X127571428Y-110614285D01*
X127514285Y-110500000D01*
X127400000Y-110442857D01*
X127228571Y-110442857D01*
X127114285Y-110500000D01*
X127057142Y-110557142D01*
X128657142Y-110442857D02*
X128657142Y-111242857D01*
X128142857Y-110442857D02*
X128142857Y-111071428D01*
X128200000Y-111185714D01*
X128314285Y-111242857D01*
X128485714Y-111242857D01*
X128600000Y-111185714D01*
X128657142Y-111128571D01*
X129228571Y-110442857D02*
X129228571Y-111242857D01*
X129228571Y-110557142D02*
X129285714Y-110500000D01*
X129400000Y-110442857D01*
X129571428Y-110442857D01*
X129685714Y-110500000D01*
X129742857Y-110614285D01*
X129742857Y-111242857D01*
X130142857Y-110442857D02*
X130600000Y-110442857D01*
X130314285Y-110042857D02*
X130314285Y-111071428D01*
X130371428Y-111185714D01*
X130485714Y-111242857D01*
X130600000Y-111242857D01*
X132600000Y-111242857D02*
X132200000Y-110671428D01*
X131914285Y-111242857D02*
X131914285Y-110042857D01*
X132371428Y-110042857D01*
X132485714Y-110100000D01*
X132542857Y-110157142D01*
X132600000Y-110271428D01*
X132600000Y-110442857D01*
X132542857Y-110557142D01*
X132485714Y-110614285D01*
X132371428Y-110671428D01*
X131914285Y-110671428D01*
X133571428Y-111185714D02*
X133457142Y-111242857D01*
X133228571Y-111242857D01*
X133114285Y-111185714D01*
X133057142Y-111071428D01*
X133057142Y-110614285D01*
X133114285Y-110500000D01*
X133228571Y-110442857D01*
X133457142Y-110442857D01*
X133571428Y-110500000D01*
X133628571Y-110614285D01*
X133628571Y-110728571D01*
X133057142Y-110842857D01*
X134085714Y-111185714D02*
X134200000Y-111242857D01*
X134428571Y-111242857D01*
X134542857Y-111185714D01*
X134600000Y-111071428D01*
X134600000Y-111014285D01*
X134542857Y-110900000D01*
X134428571Y-110842857D01*
X134257142Y-110842857D01*
X134142857Y-110785714D01*
X134085714Y-110671428D01*
X134085714Y-110614285D01*
X134142857Y-110500000D01*
X134257142Y-110442857D01*
X134428571Y-110442857D01*
X134542857Y-110500000D01*
X135114285Y-111242857D02*
X135114285Y-110442857D01*
X135114285Y-110042857D02*
X135057142Y-110100000D01*
X135114285Y-110157142D01*
X135171428Y-110100000D01*
X135114285Y-110042857D01*
X135114285Y-110157142D01*
X135628571Y-111185714D02*
X135742857Y-111242857D01*
X135971428Y-111242857D01*
X136085714Y-111185714D01*
X136142857Y-111071428D01*
X136142857Y-111014285D01*
X136085714Y-110900000D01*
X135971428Y-110842857D01*
X135800000Y-110842857D01*
X135685714Y-110785714D01*
X135628571Y-110671428D01*
X135628571Y-110614285D01*
X135685714Y-110500000D01*
X135800000Y-110442857D01*
X135971428Y-110442857D01*
X136085714Y-110500000D01*
X136485714Y-110442857D02*
X136942857Y-110442857D01*
X136657142Y-110042857D02*
X136657142Y-111071428D01*
X136714285Y-111185714D01*
X136828571Y-111242857D01*
X136942857Y-111242857D01*
X137514285Y-111242857D02*
X137400000Y-111185714D01*
X137342857Y-111128571D01*
X137285714Y-111014285D01*
X137285714Y-110671428D01*
X137342857Y-110557142D01*
X137400000Y-110500000D01*
X137514285Y-110442857D01*
X137685714Y-110442857D01*
X137800000Y-110500000D01*
X137857142Y-110557142D01*
X137914285Y-110671428D01*
X137914285Y-111014285D01*
X137857142Y-111128571D01*
X137800000Y-111185714D01*
X137685714Y-111242857D01*
X137514285Y-111242857D01*
X138428571Y-111242857D02*
X138428571Y-110442857D01*
X138428571Y-110671428D02*
X138485714Y-110557142D01*
X138542857Y-110500000D01*
X138657142Y-110442857D01*
X138771428Y-110442857D01*
X139971428Y-110442857D02*
X140257142Y-111242857D01*
X140542857Y-110442857D01*
X141628571Y-111242857D02*
X140942857Y-111242857D01*
X141285714Y-111242857D02*
X141285714Y-110042857D01*
X141171428Y-110214285D01*
X141057142Y-110328571D01*
X140942857Y-110385714D01*
X142142857Y-111128571D02*
X142200000Y-111185714D01*
X142142857Y-111242857D01*
X142085714Y-111185714D01*
X142142857Y-111128571D01*
X142142857Y-111242857D01*
X142657142Y-110157142D02*
X142714285Y-110100000D01*
X142828571Y-110042857D01*
X143114285Y-110042857D01*
X143228571Y-110100000D01*
X143285714Y-110157142D01*
X143342857Y-110271428D01*
X143342857Y-110385714D01*
X143285714Y-110557142D01*
X142600000Y-111242857D01*
X143342857Y-111242857D01*
X130857142Y-112546285D02*
X130457142Y-112546285D01*
X130457142Y-113174857D02*
X130457142Y-111974857D01*
X131028571Y-111974857D01*
X132000000Y-113174857D02*
X132000000Y-112546285D01*
X131942857Y-112432000D01*
X131828571Y-112374857D01*
X131600000Y-112374857D01*
X131485714Y-112432000D01*
X132000000Y-113117714D02*
X131885714Y-113174857D01*
X131600000Y-113174857D01*
X131485714Y-113117714D01*
X131428571Y-113003428D01*
X131428571Y-112889142D01*
X131485714Y-112774857D01*
X131600000Y-112717714D01*
X131885714Y-112717714D01*
X132000000Y-112660571D01*
X132742857Y-113174857D02*
X132628571Y-113117714D01*
X132571428Y-113003428D01*
X132571428Y-111974857D01*
X133371428Y-113174857D02*
X133257142Y-113117714D01*
X133200000Y-113003428D01*
X133200000Y-111974857D01*
X134685714Y-112089142D02*
X134742857Y-112032000D01*
X134857142Y-111974857D01*
X135142857Y-111974857D01*
X135257142Y-112032000D01*
X135314285Y-112089142D01*
X135371428Y-112203428D01*
X135371428Y-112317714D01*
X135314285Y-112489142D01*
X134628571Y-113174857D01*
X135371428Y-113174857D01*
X136114285Y-111974857D02*
X136228571Y-111974857D01*
X136342857Y-112032000D01*
X136400000Y-112089142D01*
X136457142Y-112203428D01*
X136514285Y-112432000D01*
X136514285Y-112717714D01*
X136457142Y-112946285D01*
X136400000Y-113060571D01*
X136342857Y-113117714D01*
X136228571Y-113174857D01*
X136114285Y-113174857D01*
X136000000Y-113117714D01*
X135942857Y-113060571D01*
X135885714Y-112946285D01*
X135828571Y-112717714D01*
X135828571Y-112432000D01*
X135885714Y-112203428D01*
X135942857Y-112089142D01*
X136000000Y-112032000D01*
X136114285Y-111974857D01*
X136971428Y-112089142D02*
X137028571Y-112032000D01*
X137142857Y-111974857D01*
X137428571Y-111974857D01*
X137542857Y-112032000D01*
X137600000Y-112089142D01*
X137657142Y-112203428D01*
X137657142Y-112317714D01*
X137600000Y-112489142D01*
X136914285Y-113174857D01*
X137657142Y-113174857D01*
X138114285Y-112089142D02*
X138171428Y-112032000D01*
X138285714Y-111974857D01*
X138571428Y-111974857D01*
X138685714Y-112032000D01*
X138742857Y-112089142D01*
X138800000Y-112203428D01*
X138800000Y-112317714D01*
X138742857Y-112489142D01*
X138057142Y-113174857D01*
X138800000Y-113174857D01*
D11*
X140364761Y-123357380D02*
X140031428Y-122881190D01*
X139793333Y-123357380D02*
X139793333Y-122357380D01*
X140174285Y-122357380D01*
X140269523Y-122405000D01*
X140317142Y-122452619D01*
X140364761Y-122547857D01*
X140364761Y-122690714D01*
X140317142Y-122785952D01*
X140269523Y-122833571D01*
X140174285Y-122881190D01*
X139793333Y-122881190D01*
X140745714Y-123309761D02*
X140888571Y-123357380D01*
X141126666Y-123357380D01*
X141221904Y-123309761D01*
X141269523Y-123262142D01*
X141317142Y-123166904D01*
X141317142Y-123071666D01*
X141269523Y-122976428D01*
X141221904Y-122928809D01*
X141126666Y-122881190D01*
X140936190Y-122833571D01*
X140840952Y-122785952D01*
X140793333Y-122738333D01*
X140745714Y-122643095D01*
X140745714Y-122547857D01*
X140793333Y-122452619D01*
X140840952Y-122405000D01*
X140936190Y-122357380D01*
X141174285Y-122357380D01*
X141317142Y-122405000D01*
X141745714Y-123357380D02*
X141745714Y-122357380D01*
X141745714Y-122833571D02*
X142317142Y-122833571D01*
X142317142Y-123357380D02*
X142317142Y-122357380D01*
X143269523Y-123357380D02*
X142793333Y-123357380D01*
X142793333Y-122357380D01*
X119809523Y-117257380D02*
X120428571Y-117257380D01*
X120095238Y-117638333D01*
X120238095Y-117638333D01*
X120333333Y-117685952D01*
X120380952Y-117733571D01*
X120428571Y-117828809D01*
X120428571Y-118066904D01*
X120380952Y-118162142D01*
X120333333Y-118209761D01*
X120238095Y-118257380D01*
X119952380Y-118257380D01*
X119857142Y-118209761D01*
X119809523Y-118162142D01*
X120761904Y-117590714D02*
X121000000Y-118257380D01*
X121238095Y-117590714D01*
X121523809Y-117257380D02*
X122142857Y-117257380D01*
X121809523Y-117638333D01*
X121952380Y-117638333D01*
X122047619Y-117685952D01*
X122095238Y-117733571D01*
X122142857Y-117828809D01*
X122142857Y-118066904D01*
X122095238Y-118162142D01*
X122047619Y-118209761D01*
X121952380Y-118257380D01*
X121666666Y-118257380D01*
X121571428Y-118209761D01*
X121523809Y-118162142D01*
X145751904Y-110394761D02*
X145894761Y-110442380D01*
X146132857Y-110442380D01*
X146228095Y-110394761D01*
X146275714Y-110347142D01*
X146323333Y-110251904D01*
X146323333Y-110156666D01*
X146275714Y-110061428D01*
X146228095Y-110013809D01*
X146132857Y-109966190D01*
X145942380Y-109918571D01*
X145847142Y-109870952D01*
X145799523Y-109823333D01*
X145751904Y-109728095D01*
X145751904Y-109632857D01*
X145799523Y-109537619D01*
X145847142Y-109490000D01*
X145942380Y-109442380D01*
X146180476Y-109442380D01*
X146323333Y-109490000D01*
X146751904Y-110442380D02*
X146751904Y-109442380D01*
X146751904Y-109918571D02*
X147323333Y-109918571D01*
X147323333Y-110442380D02*
X147323333Y-109442380D01*
X147799523Y-109442380D02*
X147799523Y-110251904D01*
X147847142Y-110347142D01*
X147894761Y-110394761D01*
X147990000Y-110442380D01*
X148180476Y-110442380D01*
X148275714Y-110394761D01*
X148323333Y-110347142D01*
X148370952Y-110251904D01*
X148370952Y-109442380D01*
X148847142Y-110442380D02*
X148847142Y-109442380D01*
X149418571Y-110442380D01*
X149418571Y-109442380D01*
X149751904Y-109442380D02*
X150323333Y-109442380D01*
X150037619Y-110442380D02*
X150037619Y-109442380D01*
X120008571Y-107478571D02*
X120341904Y-107478571D01*
X120484761Y-108002380D02*
X120008571Y-108002380D01*
X120008571Y-107002380D01*
X120484761Y-107002380D01*
X120770476Y-107002380D02*
X121341904Y-107002380D01*
X121056190Y-108002380D02*
X121056190Y-107002380D01*
X121627619Y-107954761D02*
X121770476Y-108002380D01*
X122008571Y-108002380D01*
X122103809Y-107954761D01*
X122151428Y-107907142D01*
X122199047Y-107811904D01*
X122199047Y-107716666D01*
X122151428Y-107621428D01*
X122103809Y-107573809D01*
X122008571Y-107526190D01*
X121818095Y-107478571D01*
X121722857Y-107430952D01*
X121675238Y-107383333D01*
X121627619Y-107288095D01*
X121627619Y-107192857D01*
X121675238Y-107097619D01*
X121722857Y-107050000D01*
X121818095Y-107002380D01*
X122056190Y-107002380D01*
X122199047Y-107050000D01*
X120404761Y-112932380D02*
X120071428Y-112456190D01*
X119833333Y-112932380D02*
X119833333Y-111932380D01*
X120214285Y-111932380D01*
X120309523Y-111980000D01*
X120357142Y-112027619D01*
X120404761Y-112122857D01*
X120404761Y-112265714D01*
X120357142Y-112360952D01*
X120309523Y-112408571D01*
X120214285Y-112456190D01*
X119833333Y-112456190D01*
X120785714Y-112884761D02*
X120928571Y-112932380D01*
X121166666Y-112932380D01*
X121261904Y-112884761D01*
X121309523Y-112837142D01*
X121357142Y-112741904D01*
X121357142Y-112646666D01*
X121309523Y-112551428D01*
X121261904Y-112503809D01*
X121166666Y-112456190D01*
X120976190Y-112408571D01*
X120880952Y-112360952D01*
X120833333Y-112313333D01*
X120785714Y-112218095D01*
X120785714Y-112122857D01*
X120833333Y-112027619D01*
X120880952Y-111980000D01*
X120976190Y-111932380D01*
X121214285Y-111932380D01*
X121357142Y-111980000D01*
X121785714Y-112932380D02*
X121785714Y-111932380D01*
X121785714Y-112408571D02*
X122357142Y-112408571D01*
X122357142Y-112932380D02*
X122357142Y-111932380D01*
X123309523Y-112932380D02*
X122833333Y-112932380D01*
X122833333Y-111932380D01*
X146904761Y-111952380D02*
X147476190Y-111952380D01*
X147190476Y-112952380D02*
X147190476Y-111952380D01*
X147809523Y-112428571D02*
X148142857Y-112428571D01*
X148285714Y-112952380D02*
X147809523Y-112952380D01*
X147809523Y-111952380D01*
X148285714Y-111952380D01*
X148666666Y-112904761D02*
X148809523Y-112952380D01*
X149047619Y-112952380D01*
X149142857Y-112904761D01*
X149190476Y-112857142D01*
X149238095Y-112761904D01*
X149238095Y-112666666D01*
X149190476Y-112571428D01*
X149142857Y-112523809D01*
X149047619Y-112476190D01*
X148857142Y-112428571D01*
X148761904Y-112380952D01*
X148714285Y-112333333D01*
X148666666Y-112238095D01*
X148666666Y-112142857D01*
X148714285Y-112047619D01*
X148761904Y-112000000D01*
X148857142Y-111952380D01*
X149095238Y-111952380D01*
X149238095Y-112000000D01*
X149523809Y-111952380D02*
X150095238Y-111952380D01*
X149809523Y-112952380D02*
X149809523Y-111952380D01*
X149214285Y-107952380D02*
X149214285Y-106952380D01*
X149785714Y-107952380D01*
X149785714Y-106952380D01*
X150833333Y-107857142D02*
X150785714Y-107904761D01*
X150642857Y-107952380D01*
X150547619Y-107952380D01*
X150404761Y-107904761D01*
X150309523Y-107809523D01*
X150261904Y-107714285D01*
X150214285Y-107523809D01*
X150214285Y-107380952D01*
X150261904Y-107190476D01*
X150309523Y-107095238D01*
X150404761Y-107000000D01*
X150547619Y-106952380D01*
X150642857Y-106952380D01*
X150785714Y-107000000D01*
X150833333Y-107047619D01*
X120238095Y-114680000D02*
X120142857Y-114632380D01*
X120000000Y-114632380D01*
X119857142Y-114680000D01*
X119761904Y-114775238D01*
X119714285Y-114870476D01*
X119666666Y-115060952D01*
X119666666Y-115203809D01*
X119714285Y-115394285D01*
X119761904Y-115489523D01*
X119857142Y-115584761D01*
X120000000Y-115632380D01*
X120095238Y-115632380D01*
X120238095Y-115584761D01*
X120285714Y-115537142D01*
X120285714Y-115203809D01*
X120095238Y-115203809D01*
X120714285Y-115632380D02*
X120714285Y-114632380D01*
X121285714Y-115632380D01*
X121285714Y-114632380D01*
X121761904Y-115632380D02*
X121761904Y-114632380D01*
X122000000Y-114632380D01*
X122142857Y-114680000D01*
X122238095Y-114775238D01*
X122285714Y-114870476D01*
X122333333Y-115060952D01*
X122333333Y-115203809D01*
X122285714Y-115394285D01*
X122238095Y-115489523D01*
X122142857Y-115584761D01*
X122000000Y-115632380D01*
X121761904Y-115632380D01*
X127620714Y-123407380D02*
X127287380Y-122931190D01*
X127049285Y-123407380D02*
X127049285Y-122407380D01*
X127430238Y-122407380D01*
X127525476Y-122455000D01*
X127573095Y-122502619D01*
X127620714Y-122597857D01*
X127620714Y-122740714D01*
X127573095Y-122835952D01*
X127525476Y-122883571D01*
X127430238Y-122931190D01*
X127049285Y-122931190D01*
X128001666Y-123359761D02*
X128144523Y-123407380D01*
X128382619Y-123407380D01*
X128477857Y-123359761D01*
X128525476Y-123312142D01*
X128573095Y-123216904D01*
X128573095Y-123121666D01*
X128525476Y-123026428D01*
X128477857Y-122978809D01*
X128382619Y-122931190D01*
X128192142Y-122883571D01*
X128096904Y-122835952D01*
X128049285Y-122788333D01*
X128001666Y-122693095D01*
X128001666Y-122597857D01*
X128049285Y-122502619D01*
X128096904Y-122455000D01*
X128192142Y-122407380D01*
X128430238Y-122407380D01*
X128573095Y-122455000D01*
X129001666Y-123407380D02*
X129001666Y-122407380D01*
X129001666Y-122883571D02*
X129573095Y-122883571D01*
X129573095Y-123407380D02*
X129573095Y-122407380D01*
X130049285Y-123407380D02*
X130049285Y-122407380D01*
X130049285Y-122883571D02*
X130620714Y-122883571D01*
X130620714Y-123407380D02*
X130620714Y-122407380D01*
X148517619Y-114572380D02*
X148850952Y-115572380D01*
X149184285Y-114572380D01*
X149517619Y-115191428D02*
X150279523Y-115191428D01*
X149898571Y-115572380D02*
X149898571Y-114810476D01*
X148417619Y-117302380D02*
X148750952Y-118302380D01*
X149084285Y-117302380D01*
X149417619Y-117921428D02*
X150179523Y-117921428D01*
X120285714Y-110552380D02*
X119952380Y-110076190D01*
X119714285Y-110552380D02*
X119714285Y-109552380D01*
X120095238Y-109552380D01*
X120190476Y-109600000D01*
X120238095Y-109647619D01*
X120285714Y-109742857D01*
X120285714Y-109885714D01*
X120238095Y-109980952D01*
X120190476Y-110028571D01*
X120095238Y-110076190D01*
X119714285Y-110076190D01*
X120666666Y-110504761D02*
X120809523Y-110552380D01*
X121047619Y-110552380D01*
X121142857Y-110504761D01*
X121190476Y-110457142D01*
X121238095Y-110361904D01*
X121238095Y-110266666D01*
X121190476Y-110171428D01*
X121142857Y-110123809D01*
X121047619Y-110076190D01*
X120857142Y-110028571D01*
X120761904Y-109980952D01*
X120714285Y-109933333D01*
X120666666Y-109838095D01*
X120666666Y-109742857D01*
X120714285Y-109647619D01*
X120761904Y-109600000D01*
X120857142Y-109552380D01*
X121095238Y-109552380D01*
X121238095Y-109600000D01*
X121666666Y-110552380D02*
X121666666Y-109552380D01*
X121666666Y-110028571D02*
X122238095Y-110028571D01*
X122238095Y-110552380D02*
X122238095Y-109552380D01*
X122714285Y-110552380D02*
X122714285Y-109552380D01*
X122714285Y-110028571D02*
X123285714Y-110028571D01*
X123285714Y-110552380D02*
X123285714Y-109552380D01*
D12*
X142513333Y-115582380D02*
X142180000Y-115106190D01*
X141941904Y-115582380D02*
X141941904Y-114582380D01*
X142322857Y-114582380D01*
X142418095Y-114630000D01*
X142465714Y-114677619D01*
X142513333Y-114772857D01*
X142513333Y-114915714D01*
X142465714Y-115010952D01*
X142418095Y-115058571D01*
X142322857Y-115106190D01*
X141941904Y-115106190D01*
X142846666Y-114582380D02*
X143465714Y-114582380D01*
X143132380Y-114963333D01*
X143275238Y-114963333D01*
X143370476Y-115010952D01*
X143418095Y-115058571D01*
X143465714Y-115153809D01*
X143465714Y-115391904D01*
X143418095Y-115487142D01*
X143370476Y-115534761D01*
X143275238Y-115582380D01*
X142989523Y-115582380D01*
X142894285Y-115534761D01*
X142846666Y-115487142D01*
X146428095Y-126712380D02*
X146428095Y-125712380D01*
X146428095Y-126188571D02*
X146999523Y-126188571D01*
X146999523Y-126712380D02*
X146999523Y-125712380D01*
X147428095Y-125807619D02*
X147475714Y-125760000D01*
X147570952Y-125712380D01*
X147809047Y-125712380D01*
X147904285Y-125760000D01*
X147951904Y-125807619D01*
X147999523Y-125902857D01*
X147999523Y-125998095D01*
X147951904Y-126140952D01*
X147380476Y-126712380D01*
X147999523Y-126712380D01*
X143437380Y-100940714D02*
X143437380Y-100369285D01*
X144437380Y-100655000D02*
X143437380Y-100655000D01*
X144437380Y-100035952D02*
X143437380Y-100035952D01*
X143913571Y-100035952D02*
X143913571Y-99464523D01*
X144437380Y-99464523D02*
X143437380Y-99464523D01*
X144437380Y-98464523D02*
X144437380Y-99035952D01*
X144437380Y-98750238D02*
X143437380Y-98750238D01*
X143580238Y-98845476D01*
X143675476Y-98940714D01*
X143723095Y-99035952D01*
X125678095Y-101222380D02*
X125678095Y-100222380D01*
X125678095Y-100698571D02*
X126249523Y-100698571D01*
X126249523Y-101222380D02*
X126249523Y-100222380D01*
X127249523Y-101222380D02*
X126678095Y-101222380D01*
X126963809Y-101222380D02*
X126963809Y-100222380D01*
X126868571Y-100365238D01*
X126773333Y-100460476D01*
X126678095Y-100508095D01*
X149202380Y-121879166D02*
X148726190Y-122212500D01*
X149202380Y-122450595D02*
X148202380Y-122450595D01*
X148202380Y-122069642D01*
X148250000Y-121974404D01*
X148297619Y-121926785D01*
X148392857Y-121879166D01*
X148535714Y-121879166D01*
X148630952Y-121926785D01*
X148678571Y-121974404D01*
X148726190Y-122069642D01*
X148726190Y-122450595D01*
X148535714Y-121022023D02*
X149202380Y-121022023D01*
X148154761Y-121260119D02*
X148869047Y-121498214D01*
X148869047Y-120879166D01*
X148830666Y-97357380D02*
X148830666Y-98071666D01*
X148783047Y-98214523D01*
X148687809Y-98309761D01*
X148544952Y-98357380D01*
X148449714Y-98357380D01*
X149211619Y-97357380D02*
X149830666Y-97357380D01*
X149497333Y-97738333D01*
X149640190Y-97738333D01*
X149735428Y-97785952D01*
X149783047Y-97833571D01*
X149830666Y-97928809D01*
X149830666Y-98166904D01*
X149783047Y-98262142D01*
X149735428Y-98309761D01*
X149640190Y-98357380D01*
X149354476Y-98357380D01*
X149259238Y-98309761D01*
X149211619Y-98262142D01*
X134593333Y-117857380D02*
X134260000Y-117381190D01*
X134021904Y-117857380D02*
X134021904Y-116857380D01*
X134402857Y-116857380D01*
X134498095Y-116905000D01*
X134545714Y-116952619D01*
X134593333Y-117047857D01*
X134593333Y-117190714D01*
X134545714Y-117285952D01*
X134498095Y-117333571D01*
X134402857Y-117381190D01*
X134021904Y-117381190D01*
X135545714Y-117857380D02*
X134974285Y-117857380D01*
X135260000Y-117857380D02*
X135260000Y-116857380D01*
X135164761Y-117000238D01*
X135069523Y-117095476D01*
X134974285Y-117143095D01*
D13*
X116195000Y-108690000D02*
X118855000Y-108690000D01*
X116195000Y-108690000D02*
X116195000Y-118910000D01*
X116195000Y-106090000D02*
X117525000Y-106090000D01*
X118855000Y-108690000D02*
X118855000Y-118910000D01*
X116195000Y-118910000D02*
X118855000Y-118910000D01*
X116195000Y-107420000D02*
X116195000Y-106090000D01*
G36*
X130056219Y-125313596D02*
G01*
X130186244Y-125360668D01*
X130213334Y-125427000D01*
X130143050Y-125530509D01*
X130046916Y-125554000D01*
X129941195Y-125585175D01*
X129874996Y-125704676D01*
X129827834Y-125951465D01*
X129824342Y-125977334D01*
X129764866Y-126263175D01*
X129681182Y-126391210D01*
X129644148Y-126400667D01*
X129573253Y-126368698D01*
X129552093Y-126248218D01*
X129574936Y-126002366D01*
X129578334Y-125977334D01*
X129604950Y-125723201D01*
X129589181Y-125595507D01*
X129523926Y-125555076D01*
X129501612Y-125554000D01*
X129384343Y-125489644D01*
X129366667Y-125427000D01*
X129411986Y-125347135D01*
X129568894Y-125308127D01*
X129790000Y-125300000D01*
X130056219Y-125313596D01*
G37*
D14*
X130056219Y-125313596D02*
X130186244Y-125360668D01*
X130213334Y-125427000D01*
X130143050Y-125530509D01*
X130046916Y-125554000D01*
X129941195Y-125585175D01*
X129874996Y-125704676D01*
X129827834Y-125951465D01*
X129824342Y-125977334D01*
X129764866Y-126263175D01*
X129681182Y-126391210D01*
X129644148Y-126400667D01*
X129573253Y-126368698D01*
X129552093Y-126248218D01*
X129574936Y-126002366D01*
X129578334Y-125977334D01*
X129604950Y-125723201D01*
X129589181Y-125595507D01*
X129523926Y-125555076D01*
X129501612Y-125554000D01*
X129384343Y-125489644D01*
X129366667Y-125427000D01*
X129411986Y-125347135D01*
X129568894Y-125308127D01*
X129790000Y-125300000D01*
X130056219Y-125313596D01*
G36*
X132988000Y-125308171D02*
G01*
X133178544Y-125335224D01*
X133242975Y-125384973D01*
X133240591Y-125405834D01*
X133137889Y-125501847D01*
X133021868Y-125538722D01*
X132878364Y-125610816D01*
X132836844Y-125792722D01*
X132807513Y-126107587D01*
X132731073Y-126321292D01*
X132619432Y-126400663D01*
X132618575Y-126400667D01*
X132558213Y-126375620D01*
X132536959Y-126280418D01*
X132555037Y-126084973D01*
X132612673Y-125759193D01*
X132623775Y-125702167D01*
X132591544Y-125577742D01*
X132498463Y-125554000D01*
X132352358Y-125508815D01*
X132312284Y-125458517D01*
X132261169Y-125478527D01*
X132156145Y-125620276D01*
X132018902Y-125853984D01*
X132003930Y-125881851D01*
X131850318Y-126140806D01*
X131710268Y-126326760D01*
X131613380Y-126400593D01*
X131611376Y-126400667D01*
X131521830Y-126323915D01*
X131421428Y-126119296D01*
X131362341Y-125943136D01*
X131273659Y-125620851D01*
X131238360Y-125427502D01*
X131256067Y-125331449D01*
X131326406Y-125301054D01*
X131354720Y-125300000D01*
X131461642Y-125372943D01*
X131531125Y-125532834D01*
X131597921Y-125802998D01*
X131657097Y-125914036D01*
X131728480Y-125873914D01*
X131831897Y-125690599D01*
X131847167Y-125659834D01*
X132024694Y-125300000D01*
X132650069Y-125300000D01*
X132988000Y-125308171D01*
G37*
X132988000Y-125308171D02*
X133178544Y-125335224D01*
X133242975Y-125384973D01*
X133240591Y-125405834D01*
X133137889Y-125501847D01*
X133021868Y-125538722D01*
X132878364Y-125610816D01*
X132836844Y-125792722D01*
X132807513Y-126107587D01*
X132731073Y-126321292D01*
X132619432Y-126400663D01*
X132618575Y-126400667D01*
X132558213Y-126375620D01*
X132536959Y-126280418D01*
X132555037Y-126084973D01*
X132612673Y-125759193D01*
X132623775Y-125702167D01*
X132591544Y-125577742D01*
X132498463Y-125554000D01*
X132352358Y-125508815D01*
X132312284Y-125458517D01*
X132261169Y-125478527D01*
X132156145Y-125620276D01*
X132018902Y-125853984D01*
X132003930Y-125881851D01*
X131850318Y-126140806D01*
X131710268Y-126326760D01*
X131613380Y-126400593D01*
X131611376Y-126400667D01*
X131521830Y-126323915D01*
X131421428Y-126119296D01*
X131362341Y-125943136D01*
X131273659Y-125620851D01*
X131238360Y-125427502D01*
X131256067Y-125331449D01*
X131326406Y-125301054D01*
X131354720Y-125300000D01*
X131461642Y-125372943D01*
X131531125Y-125532834D01*
X131597921Y-125802998D01*
X131657097Y-125914036D01*
X131728480Y-125873914D01*
X131831897Y-125690599D01*
X131847167Y-125659834D01*
X132024694Y-125300000D01*
X132650069Y-125300000D01*
X132988000Y-125308171D01*
G36*
X129178617Y-125369315D02*
G01*
X129195314Y-125448167D01*
X129171556Y-125662794D01*
X129116406Y-125922471D01*
X129047108Y-126160123D01*
X128980907Y-126308676D01*
X128971082Y-126320361D01*
X128781009Y-126415001D01*
X128532331Y-126443677D01*
X128329500Y-126395932D01*
X128230859Y-126260585D01*
X128180401Y-126036812D01*
X128175347Y-125776811D01*
X128212919Y-125532782D01*
X128290335Y-125356923D01*
X128387858Y-125300000D01*
X128447526Y-125358109D01*
X128464710Y-125546093D01*
X128452373Y-125773009D01*
X128434174Y-126040789D01*
X128446265Y-126178448D01*
X128502683Y-126224415D01*
X128614740Y-126217509D01*
X128738993Y-126175283D01*
X128817221Y-126063762D01*
X128874798Y-125839613D01*
X128891741Y-125744500D01*
X128961395Y-125458155D01*
X129045765Y-125313690D01*
X129082241Y-125300000D01*
X129178617Y-125369315D01*
G37*
X129178617Y-125369315D02*
X129195314Y-125448167D01*
X129171556Y-125662794D01*
X129116406Y-125922471D01*
X129047108Y-126160123D01*
X128980907Y-126308676D01*
X128971082Y-126320361D01*
X128781009Y-126415001D01*
X128532331Y-126443677D01*
X128329500Y-126395932D01*
X128230859Y-126260585D01*
X128180401Y-126036812D01*
X128175347Y-125776811D01*
X128212919Y-125532782D01*
X128290335Y-125356923D01*
X128387858Y-125300000D01*
X128447526Y-125358109D01*
X128464710Y-125546093D01*
X128452373Y-125773009D01*
X128434174Y-126040789D01*
X128446265Y-126178448D01*
X128502683Y-126224415D01*
X128614740Y-126217509D01*
X128738993Y-126175283D01*
X128817221Y-126063762D01*
X128874798Y-125839613D01*
X128891741Y-125744500D01*
X128961395Y-125458155D01*
X129045765Y-125313690D01*
X129082241Y-125300000D01*
X129178617Y-125369315D01*
G36*
X132603943Y-124055662D02*
G01*
X134218301Y-124109837D01*
X135986221Y-124195813D01*
X137906529Y-124313673D01*
X138172000Y-124331663D01*
X138824946Y-124377680D01*
X139515556Y-124428602D01*
X140193333Y-124480553D01*
X140807778Y-124529655D01*
X141308393Y-124572030D01*
X141347000Y-124575458D01*
X142617000Y-124688801D01*
X140712000Y-124634567D01*
X139895080Y-124614732D01*
X139009053Y-124599324D01*
X138073882Y-124588234D01*
X137109527Y-124581357D01*
X136135950Y-124578585D01*
X135173113Y-124579811D01*
X134240978Y-124584927D01*
X133359507Y-124593828D01*
X132548660Y-124606404D01*
X131828401Y-124622551D01*
X131218690Y-124642159D01*
X130739489Y-124665123D01*
X130425000Y-124689767D01*
X129450440Y-124809425D01*
X128637746Y-124942204D01*
X127979780Y-125090644D01*
X127469406Y-125257283D01*
X127099487Y-125444661D01*
X126862886Y-125655318D01*
X126752467Y-125891793D01*
X126742000Y-126000189D01*
X126791925Y-126242824D01*
X126912500Y-126486887D01*
X126917099Y-126493430D01*
X127015263Y-126645554D01*
X127025725Y-126713634D01*
X126935276Y-126695003D01*
X126730705Y-126586997D01*
X126403334Y-126389745D01*
X125974626Y-126099938D01*
X125610792Y-125805182D01*
X125338285Y-125529932D01*
X125183559Y-125298643D01*
X125164892Y-125244878D01*
X125178979Y-124985570D01*
X125358382Y-124757240D01*
X125701926Y-124559968D01*
X126208435Y-124393839D01*
X126876734Y-124258934D01*
X127705647Y-124155336D01*
X128694000Y-124083127D01*
X129840618Y-124042390D01*
X131144323Y-124033208D01*
X132603943Y-124055662D01*
G37*
X132603943Y-124055662D02*
X134218301Y-124109837D01*
X135986221Y-124195813D01*
X137906529Y-124313673D01*
X138172000Y-124331663D01*
X138824946Y-124377680D01*
X139515556Y-124428602D01*
X140193333Y-124480553D01*
X140807778Y-124529655D01*
X141308393Y-124572030D01*
X141347000Y-124575458D01*
X142617000Y-124688801D01*
X140712000Y-124634567D01*
X139895080Y-124614732D01*
X139009053Y-124599324D01*
X138073882Y-124588234D01*
X137109527Y-124581357D01*
X136135950Y-124578585D01*
X135173113Y-124579811D01*
X134240978Y-124584927D01*
X133359507Y-124593828D01*
X132548660Y-124606404D01*
X131828401Y-124622551D01*
X131218690Y-124642159D01*
X130739489Y-124665123D01*
X130425000Y-124689767D01*
X129450440Y-124809425D01*
X128637746Y-124942204D01*
X127979780Y-125090644D01*
X127469406Y-125257283D01*
X127099487Y-125444661D01*
X126862886Y-125655318D01*
X126752467Y-125891793D01*
X126742000Y-126000189D01*
X126791925Y-126242824D01*
X126912500Y-126486887D01*
X126917099Y-126493430D01*
X127015263Y-126645554D01*
X127025725Y-126713634D01*
X126935276Y-126695003D01*
X126730705Y-126586997D01*
X126403334Y-126389745D01*
X125974626Y-126099938D01*
X125610792Y-125805182D01*
X125338285Y-125529932D01*
X125183559Y-125298643D01*
X125164892Y-125244878D01*
X125178979Y-124985570D01*
X125358382Y-124757240D01*
X125701926Y-124559968D01*
X126208435Y-124393839D01*
X126876734Y-124258934D01*
X127705647Y-124155336D01*
X128694000Y-124083127D01*
X129840618Y-124042390D01*
X131144323Y-124033208D01*
X132603943Y-124055662D01*
G36*
X136875022Y-121917039D02*
G01*
X137182668Y-121999318D01*
X137809242Y-122273482D01*
X138413510Y-122693275D01*
X138962345Y-123235341D01*
X139001770Y-123281975D01*
X139214432Y-123547321D01*
X139384812Y-123779225D01*
X139492543Y-123947853D01*
X139517260Y-124023370D01*
X139508479Y-124024302D01*
X139437298Y-123970987D01*
X139268916Y-123834039D01*
X139035169Y-123639479D01*
X138949559Y-123567442D01*
X138237133Y-123038873D01*
X137519895Y-122658433D01*
X136783426Y-122424838D01*
X136013309Y-122336807D01*
X135195127Y-122393057D01*
X134314463Y-122592308D01*
X133356897Y-122933276D01*
X133090314Y-123046400D01*
X132721517Y-123201373D01*
X132496415Y-123282557D01*
X132408855Y-123295023D01*
X132452683Y-123243842D01*
X132621746Y-123134085D01*
X132909890Y-122970824D01*
X133310962Y-122759130D01*
X133642334Y-122591458D01*
X134421464Y-122234603D01*
X135107658Y-121993189D01*
X135727555Y-121862760D01*
X136307797Y-121838863D01*
X136875022Y-121917039D01*
G37*
X136875022Y-121917039D02*
X137182668Y-121999318D01*
X137809242Y-122273482D01*
X138413510Y-122693275D01*
X138962345Y-123235341D01*
X139001770Y-123281975D01*
X139214432Y-123547321D01*
X139384812Y-123779225D01*
X139492543Y-123947853D01*
X139517260Y-124023370D01*
X139508479Y-124024302D01*
X139437298Y-123970987D01*
X139268916Y-123834039D01*
X139035169Y-123639479D01*
X138949559Y-123567442D01*
X138237133Y-123038873D01*
X137519895Y-122658433D01*
X136783426Y-122424838D01*
X136013309Y-122336807D01*
X135195127Y-122393057D01*
X134314463Y-122592308D01*
X133356897Y-122933276D01*
X133090314Y-123046400D01*
X132721517Y-123201373D01*
X132496415Y-123282557D01*
X132408855Y-123295023D01*
X132452683Y-123243842D01*
X132621746Y-123134085D01*
X132909890Y-122970824D01*
X133310962Y-122759130D01*
X133642334Y-122591458D01*
X134421464Y-122234603D01*
X135107658Y-121993189D01*
X135727555Y-121862760D01*
X136307797Y-121838863D01*
X136875022Y-121917039D01*
G36*
X131017135Y-125343696D02*
G01*
X131038412Y-125405834D01*
X130935971Y-125488619D01*
X130806000Y-125511667D01*
X130623919Y-125551982D01*
X130589271Y-125648427D01*
X130707901Y-125764247D01*
X130761474Y-125791596D01*
X130935609Y-125939319D01*
X130960343Y-126128490D01*
X130833769Y-126317372D01*
X130787161Y-126353533D01*
X130576083Y-126467544D01*
X130404919Y-126459270D01*
X130308320Y-126408836D01*
X130227683Y-126307447D01*
X130282926Y-126227410D01*
X130440992Y-126201665D01*
X130507646Y-126210225D01*
X130675718Y-126200631D01*
X130721882Y-126115169D01*
X130642230Y-125999420D01*
X130531328Y-125933910D01*
X130355049Y-125784940D01*
X130312433Y-125584311D01*
X130386042Y-125422933D01*
X130514838Y-125344772D01*
X130701927Y-125304491D01*
X130888847Y-125303621D01*
X131017135Y-125343696D01*
G37*
X131017135Y-125343696D02*
X131038412Y-125405834D01*
X130935971Y-125488619D01*
X130806000Y-125511667D01*
X130623919Y-125551982D01*
X130589271Y-125648427D01*
X130707901Y-125764247D01*
X130761474Y-125791596D01*
X130935609Y-125939319D01*
X130960343Y-126128490D01*
X130833769Y-126317372D01*
X130787161Y-126353533D01*
X130576083Y-126467544D01*
X130404919Y-126459270D01*
X130308320Y-126408836D01*
X130227683Y-126307447D01*
X130282926Y-126227410D01*
X130440992Y-126201665D01*
X130507646Y-126210225D01*
X130675718Y-126200631D01*
X130721882Y-126115169D01*
X130642230Y-125999420D01*
X130531328Y-125933910D01*
X130355049Y-125784940D01*
X130312433Y-125584311D01*
X130386042Y-125422933D01*
X130514838Y-125344772D01*
X130701927Y-125304491D01*
X130888847Y-125303621D01*
X131017135Y-125343696D01*
G36*
X137826616Y-124894884D02*
G01*
X138593095Y-124976699D01*
X139264321Y-125121139D01*
X139399667Y-125162989D01*
X140036279Y-125419973D01*
X140531666Y-125717975D01*
X140881375Y-126048364D01*
X141080952Y-126402511D01*
X141125944Y-126771786D01*
X141011897Y-127147560D01*
X140734357Y-127521203D01*
X140656059Y-127597501D01*
X140196706Y-127919800D01*
X139614328Y-128161745D01*
X138938434Y-128316518D01*
X138198531Y-128377305D01*
X137443722Y-128339577D01*
X137051259Y-128275619D01*
X136645114Y-128180150D01*
X136373042Y-128094726D01*
X136004244Y-127930908D01*
X135602742Y-127711585D01*
X135219164Y-127468294D01*
X134904138Y-127232570D01*
X134743000Y-127079358D01*
X134573667Y-126885501D01*
X134827667Y-127014686D01*
X135482755Y-127277412D01*
X136226130Y-127457303D01*
X137015448Y-127552579D01*
X137808366Y-127561459D01*
X138562542Y-127482163D01*
X139235632Y-127312909D01*
X139492139Y-127210870D01*
X139918518Y-126968059D01*
X140180214Y-126708225D01*
X140280009Y-126439425D01*
X140220686Y-126169717D01*
X140005027Y-125907160D01*
X139635815Y-125659810D01*
X139115831Y-125435726D01*
X138849334Y-125349350D01*
X138033203Y-125175229D01*
X137130398Y-125102743D01*
X136188694Y-125130587D01*
X135255866Y-125257453D01*
X134414889Y-125470601D01*
X134082610Y-125573953D01*
X133817131Y-125649913D01*
X133654974Y-125688382D01*
X133622758Y-125689647D01*
X133665005Y-125635450D01*
X133838575Y-125548737D01*
X134111235Y-125440844D01*
X134450752Y-125323111D01*
X134824894Y-125206876D01*
X135201428Y-125103478D01*
X135466657Y-125041034D01*
X136212297Y-124925467D01*
X137015983Y-124877279D01*
X137826616Y-124894884D01*
G37*
X137826616Y-124894884D02*
X138593095Y-124976699D01*
X139264321Y-125121139D01*
X139399667Y-125162989D01*
X140036279Y-125419973D01*
X140531666Y-125717975D01*
X140881375Y-126048364D01*
X141080952Y-126402511D01*
X141125944Y-126771786D01*
X141011897Y-127147560D01*
X140734357Y-127521203D01*
X140656059Y-127597501D01*
X140196706Y-127919800D01*
X139614328Y-128161745D01*
X138938434Y-128316518D01*
X138198531Y-128377305D01*
X137443722Y-128339577D01*
X137051259Y-128275619D01*
X136645114Y-128180150D01*
X136373042Y-128094726D01*
X136004244Y-127930908D01*
X135602742Y-127711585D01*
X135219164Y-127468294D01*
X134904138Y-127232570D01*
X134743000Y-127079358D01*
X134573667Y-126885501D01*
X134827667Y-127014686D01*
X135482755Y-127277412D01*
X136226130Y-127457303D01*
X137015448Y-127552579D01*
X137808366Y-127561459D01*
X138562542Y-127482163D01*
X139235632Y-127312909D01*
X139492139Y-127210870D01*
X139918518Y-126968059D01*
X140180214Y-126708225D01*
X140280009Y-126439425D01*
X140220686Y-126169717D01*
X140005027Y-125907160D01*
X139635815Y-125659810D01*
X139115831Y-125435726D01*
X138849334Y-125349350D01*
X138033203Y-125175229D01*
X137130398Y-125102743D01*
X136188694Y-125130587D01*
X135255866Y-125257453D01*
X134414889Y-125470601D01*
X134082610Y-125573953D01*
X133817131Y-125649913D01*
X133654974Y-125688382D01*
X133622758Y-125689647D01*
X133665005Y-125635450D01*
X133838575Y-125548737D01*
X134111235Y-125440844D01*
X134450752Y-125323111D01*
X134824894Y-125206876D01*
X135201428Y-125103478D01*
X135466657Y-125041034D01*
X136212297Y-124925467D01*
X137015983Y-124877279D01*
X137826616Y-124894884D01*
G36*
X134548417Y-126259313D02*
G01*
X134364990Y-126393627D01*
X134094708Y-126578048D01*
X133766558Y-126793760D01*
X133409526Y-127021948D01*
X133052599Y-127243795D01*
X132724765Y-127440486D01*
X132487621Y-127575489D01*
X131740408Y-127942640D01*
X131010966Y-128221038D01*
X130322950Y-128405144D01*
X129700012Y-128489424D01*
X129165807Y-128468339D01*
X128920343Y-128410469D01*
X128436869Y-128164277D01*
X128035459Y-127772205D01*
X127749551Y-127300429D01*
X127634503Y-127033420D01*
X127551827Y-126797845D01*
X127505925Y-126618973D01*
X127501199Y-126522074D01*
X127542050Y-126532418D01*
X127632879Y-126675274D01*
X127644449Y-126697000D01*
X127977640Y-127160842D01*
X128426388Y-127534930D01*
X128562334Y-127614921D01*
X128735425Y-127696448D01*
X128920015Y-127749418D01*
X129157005Y-127779376D01*
X129487296Y-127791869D01*
X129874667Y-127792887D01*
X130336913Y-127785070D01*
X130692277Y-127760514D01*
X131003059Y-127709661D01*
X131331558Y-127622955D01*
X131652667Y-127520125D01*
X132045692Y-127374784D01*
X132527735Y-127174941D01*
X133038793Y-126946511D01*
X133518863Y-126715408D01*
X133536500Y-126706512D01*
X133920340Y-126514671D01*
X134244034Y-126357028D01*
X134480927Y-126246240D01*
X134604364Y-126194964D01*
X134616000Y-126193923D01*
X134548417Y-126259313D01*
G37*
X134548417Y-126259313D02*
X134364990Y-126393627D01*
X134094708Y-126578048D01*
X133766558Y-126793760D01*
X133409526Y-127021948D01*
X133052599Y-127243795D01*
X132724765Y-127440486D01*
X132487621Y-127575489D01*
X131740408Y-127942640D01*
X131010966Y-128221038D01*
X130322950Y-128405144D01*
X129700012Y-128489424D01*
X129165807Y-128468339D01*
X128920343Y-128410469D01*
X128436869Y-128164277D01*
X128035459Y-127772205D01*
X127749551Y-127300429D01*
X127634503Y-127033420D01*
X127551827Y-126797845D01*
X127505925Y-126618973D01*
X127501199Y-126522074D01*
X127542050Y-126532418D01*
X127632879Y-126675274D01*
X127644449Y-126697000D01*
X127977640Y-127160842D01*
X128426388Y-127534930D01*
X128562334Y-127614921D01*
X128735425Y-127696448D01*
X128920015Y-127749418D01*
X129157005Y-127779376D01*
X129487296Y-127791869D01*
X129874667Y-127792887D01*
X130336913Y-127785070D01*
X130692277Y-127760514D01*
X131003059Y-127709661D01*
X131331558Y-127622955D01*
X131652667Y-127520125D01*
X132045692Y-127374784D01*
X132527735Y-127174941D01*
X133038793Y-126946511D01*
X133518863Y-126715408D01*
X133536500Y-126706512D01*
X133920340Y-126514671D01*
X134244034Y-126357028D01*
X134480927Y-126246240D01*
X134604364Y-126194964D01*
X134616000Y-126193923D01*
X134548417Y-126259313D01*
D13*
X145907064Y-114295000D02*
X145452936Y-114295000D01*
X145907064Y-115765000D02*
X145452936Y-115765000D01*
X143070000Y-99427936D02*
X143070000Y-99882064D01*
X141600000Y-99427936D02*
X141600000Y-99882064D01*
X151170000Y-118915000D02*
X153830000Y-118915000D01*
X153830000Y-108695000D02*
X153830000Y-118915000D01*
X151170000Y-108695000D02*
X151170000Y-118915000D01*
X151170000Y-107425000D02*
X151170000Y-106095000D01*
X151170000Y-106095000D02*
X152500000Y-106095000D01*
X151170000Y-108695000D02*
X153830000Y-108695000D01*
X146365000Y-121485436D02*
X146365000Y-121939564D01*
X147835000Y-121485436D02*
X147835000Y-121939564D01*
X153460000Y-102578000D02*
X153460000Y-102828000D01*
X153460000Y-96578000D02*
X144710000Y-96578000D01*
X153435000Y-102828000D02*
X153460000Y-102828000D01*
X144710000Y-96578000D02*
X144710000Y-102828000D01*
X144710000Y-102828000D02*
X153460000Y-102828000D01*
X153460000Y-102628000D02*
X153460000Y-96578000D01*
X144710000Y-96790500D02*
X144710000Y-96615500D01*
X144985000Y-96578000D02*
X144710000Y-96578000D01*
X127360000Y-118005000D02*
X142760000Y-118005000D01*
X142760000Y-118005000D02*
X142760000Y-122005000D01*
X142760000Y-122005000D02*
X127360000Y-122005000D01*
X127360000Y-122005000D02*
X127360000Y-118005000D01*
%LPC*%
D15*
X117525000Y-107420000D03*
D16*
X117525000Y-109960000D03*
X117525000Y-112500000D03*
X117525000Y-115040000D03*
X117525000Y-117580000D03*
D17*
X146592500Y-115030000D03*
X144767500Y-115030000D03*
D18*
X151510000Y-126430000D03*
D19*
X142335000Y-98742500D03*
X142335000Y-100567500D03*
D15*
X152500000Y-107425000D03*
D16*
X152500000Y-109965000D03*
X152500000Y-112505000D03*
X152500000Y-115045000D03*
X152500000Y-117585000D03*
D18*
X122585000Y-102430000D03*
D19*
X147100000Y-120800000D03*
X147100000Y-122625000D03*
D20*
X146085000Y-101453000D03*
X152085000Y-101453000D03*
X152085000Y-97905000D03*
X146085000Y-97905000D03*
D21*
X128760000Y-120005000D03*
X141360000Y-120005000D03*
M02*
